<svg width="226" height="276" viewBox="0 0 226 276" fill="none" xmlns="http://www.w3.org/2000/svg">
<path fill-rule="evenodd" clip-rule="evenodd" d="M77.5617 33.8222C34.7255 51.6345 14.4397 100.8 32.252 143.636L34.9396 150.099C50.3797 187.231 89.3776 207.418 127.391 200.535L115.019 170.784C92.2622 171.025 70.5708 157.653 61.2964 135.349C49.1035 106.027 62.9896 72.3719 92.3119 60.179C113.178 51.5022 136.239 56.0321 152.198 69.9333L182.705 57.2479C160.062 27.9767 119.832 16.2451 84.0251 31.1346L77.5617 33.8222Z" fill="white"/>
<path fill-rule="evenodd" clip-rule="evenodd" d="M173.903 125.983C207.522 157.951 208.861 211.12 176.893 244.739L172.069 249.812C140.101 283.431 86.9321 284.769 53.3128 252.801L48.2401 247.978C37.5904 237.851 30.18 225.597 26.0413 212.511L59.5271 212.499C62.439 218.382 66.4155 223.863 71.449 228.649C94.4622 250.532 130.858 249.616 152.741 226.603C174.623 203.59 173.707 167.194 150.694 145.311C138.392 133.613 122.266 128.431 106.577 129.656L106.565 98.1462C128.791 96.9891 151.429 104.613 168.83 121.159L173.903 125.983Z" fill="white"/>
</svg>
