<svg width="3211" height="826" viewBox="0 0 3211 826" fill="none" xmlns="http://www.w3.org/2000/svg">
<rect width="3211" height="826" fill="#252F3F"/>
<circle cx="1837.5" cy="627.5" r="9.5" fill="#4A5469"/>
<circle cx="1865.5" cy="618.5" r="9.5" fill="#4A5469"/>
<circle cx="1846.5" cy="595.5" r="9.5" fill="#4A5469"/>
<circle cx="814.5" cy="98.5" r="9.5" fill="#4A5469"/>
<circle cx="842.5" cy="89.5" r="9.5" fill="#4A5469"/>
<circle cx="823.5" cy="66.5" r="9.5" fill="#4A5469"/>
<circle cx="2614.5" cy="509.5" r="9.5" fill="#4A5469"/>
<circle cx="2642.5" cy="500.5" r="9.5" fill="#4A5469"/>
<circle cx="2623.5" cy="477.5" r="9.5" fill="#4A5469"/>
<rect x="852" y="327" width="25" height="24" fill="#4A5469"/>
<rect x="2794" y="1" width="25" height="24" fill="#4A5469"/>
<rect x="3186" y="209" width="25" height="24" fill="#4A5469"/>
<path d="M103 108.512C113.836 106.669 135.507 108.789 135.507 132.008C135.507 161.033 91.6933 138.228 113.6 123.37C131.125 111.484 149.169 118.417 156 123.37" stroke="#4A5469" stroke-width="4"/>
<path d="M3053 487.512C3063.84 485.669 3085.51 487.789 3085.51 511.008C3085.51 540.033 3041.69 517.228 3063.6 502.37C3081.13 490.484 3099.17 497.417 3106 502.37" stroke="#4A5469" stroke-width="4"/>
<path d="M1671.5 25L1683.19 45.25H1659.81L1671.5 25Z" fill="#4A5469"/>
<path d="M2160.64 384.546L2154.59 407.132L2138.05 390.598L2160.64 384.546Z" fill="#4A5469"/>
<path d="M3062.55 746.546L3085.13 752.598L3068.6 769.132L3062.55 746.546Z" fill="#4A5469"/>
<path d="M2415.83 63.5136C2448.22 80.5786 2458.31 58.7492 2459.66 36.7646C2460.12 29.4408 2452.06 25.4165 2445.81 29.2515L2415.88 47.5958C2409.78 51.3406 2409.49 60.174 2415.83 63.5136Z" stroke="#4A5469" stroke-width="4"/>
<path d="M486.521 411.686C504.562 438.59 523.706 427.584 536.206 411.757C540.839 405.89 536.123 398 528.648 398L494.606 398C487.314 398 482.46 405.629 486.521 411.686Z" stroke="#4A5469" stroke-width="4"/>
<path d="M1152.25 182.114C1127.18 164.376 1137.28 145.623 1152.21 133.203C1158 128.383 1166 133.074 1166 140.61V174.168C1166 181.517 1158.25 186.359 1152.25 182.114Z" stroke="#4A5469" stroke-width="4"/>
<path d="M1646.6 267.854C1647.2 266.011 1649.8 266.011 1650.4 267.854L1653.55 277.547C1653.82 278.371 1654.59 278.929 1655.45 278.929L1665.65 278.929C1667.58 278.929 1668.39 281.408 1666.82 282.547L1658.58 288.538C1657.87 289.047 1657.58 289.95 1657.85 290.774L1661 300.467C1661.6 302.309 1659.49 303.842 1657.92 302.703L1649.68 296.712C1648.97 296.203 1648.03 296.203 1647.32 296.712L1639.08 302.703C1637.51 303.842 1635.4 302.309 1636 300.467L1639.15 290.774C1639.42 289.95 1639.13 289.047 1638.42 288.538L1630.18 282.547C1628.61 281.408 1629.42 278.929 1631.35 278.929L1641.55 278.929C1642.41 278.929 1643.18 278.371 1643.45 277.547L1646.6 267.854Z" fill="#4A5469"/>
<path d="M281.146 578.598C282.989 579.197 282.989 581.803 281.146 582.402L271.453 585.552C270.629 585.819 270.071 586.587 270.071 587.454L270.071 597.646C270.071 599.583 267.592 600.389 266.453 598.821L260.462 590.576C259.953 589.875 259.05 589.581 258.226 589.849L248.533 592.999C246.691 593.597 245.158 591.488 246.297 589.921L252.288 581.676C252.797 580.975 252.797 580.025 252.288 579.324L246.297 571.079C245.158 569.512 246.691 567.403 248.533 568.001L258.226 571.151C259.05 571.419 259.953 571.125 260.462 570.424L266.453 562.179C267.592 560.611 270.071 561.417 270.071 563.354L270.071 573.546C270.071 574.413 270.629 575.181 271.453 575.448L281.146 578.598Z" fill="#4A5469"/>
<path d="M1238.14 535.369C1239.58 534.072 1241.84 535.376 1241.44 537.271L1239.32 547.24C1239.14 548.087 1239.52 548.955 1240.28 549.388L1249.1 554.484C1250.78 555.452 1250.24 558.002 1248.31 558.205L1238.17 559.27C1237.31 559.361 1236.61 559.996 1236.43 560.843L1234.31 570.813C1233.91 572.708 1231.31 572.98 1230.52 571.21L1226.38 561.899C1226.03 561.108 1225.21 560.633 1224.34 560.724L1214.21 561.789C1212.28 561.992 1211.22 559.61 1212.66 558.314L1220.23 551.494C1220.88 550.914 1221.08 549.986 1220.72 549.194L1216.58 539.884C1215.79 538.114 1217.73 536.37 1219.4 537.338L1228.23 542.434C1228.98 542.867 1229.93 542.768 1230.57 542.188L1238.14 535.369Z" fill="#4A5469"/>
</svg>
