<svg width="2962" height="2332" viewBox="0 0 2962 2332" fill="none" xmlns="http://www.w3.org/2000/svg">
<rect width="2962" height="2332" fill="white"/>
<path d="M1452 158H1434V174H1452V158Z" stroke="black" stroke-opacity="0.1" stroke-width="2"/>
<path d="M1441.33 167.294H1440V162H1446V167.294H1444.67M1441.33 167.294V171H1444.67V167.294M1441.33 167.294H1444.67" stroke="black" stroke-opacity="0.1" stroke-width="2"/>
<path d="M1397 141H1461" stroke="black" stroke-opacity="0.1" stroke-width="2"/>
<path d="M1397 182H1461" stroke="black" stroke-opacity="0.1" stroke-width="2"/>
<path d="M1400.5 137V186" stroke="black" stroke-opacity="0.1" stroke-width="2"/>
<path d="M1410 137V186" stroke="black" stroke-opacity="0.1" stroke-width="2"/>
<path d="M1419 137V186" stroke="black" stroke-opacity="0.1" stroke-width="2"/>
<path d="M1428 137V186" stroke="black" stroke-opacity="0.1" stroke-width="2"/>
<path d="M1437 137V186" stroke="black" stroke-opacity="0.1" stroke-width="2"/>
<path d="M1449 137V186" stroke="black" stroke-opacity="0.1" stroke-width="2"/>
<path d="M1457 137V186" stroke="black" stroke-opacity="0.1" stroke-width="2"/>
<path d="M182 1455H164V1471H182V1455Z" stroke="black" stroke-opacity="0.1" stroke-width="2"/>
<path d="M171.333 1464.29H170V1459H176V1464.29H174.667M171.333 1464.29V1468H174.667V1464.29M171.333 1464.29H174.667" stroke="black" stroke-opacity="0.1" stroke-width="2"/>
<path d="M127 1438H191" stroke="black" stroke-opacity="0.1" stroke-width="2"/>
<path d="M127 1479H191" stroke="black" stroke-opacity="0.1" stroke-width="2"/>
<path d="M130.5 1434V1483" stroke="black" stroke-opacity="0.1" stroke-width="2"/>
<path d="M140 1434V1483" stroke="black" stroke-opacity="0.1" stroke-width="2"/>
<path d="M149 1434V1483" stroke="black" stroke-opacity="0.1" stroke-width="2"/>
<path d="M158 1434V1483" stroke="black" stroke-opacity="0.1" stroke-width="2"/>
<path d="M167 1434V1483" stroke="black" stroke-opacity="0.1" stroke-width="2"/>
<path d="M179 1434V1483" stroke="black" stroke-opacity="0.1" stroke-width="2"/>
<path d="M187 1434V1483" stroke="black" stroke-opacity="0.1" stroke-width="2"/>
<path d="M2096 543H2078V559H2096V543Z" stroke="black" stroke-opacity="0.1" stroke-width="2"/>
<path d="M2085.33 552.294H2084V547H2090V552.294H2088.67M2085.33 552.294V556H2088.67V552.294M2085.33 552.294H2088.67" stroke="black" stroke-opacity="0.1" stroke-width="2"/>
<path d="M2041 526H2105" stroke="black" stroke-opacity="0.1" stroke-width="2"/>
<path d="M2041 567H2105" stroke="black" stroke-opacity="0.1" stroke-width="2"/>
<path d="M2044.5 522V571" stroke="black" stroke-opacity="0.1" stroke-width="2"/>
<path d="M2054 522V571" stroke="black" stroke-opacity="0.1" stroke-width="2"/>
<path d="M2063 522V571" stroke="black" stroke-opacity="0.1" stroke-width="2"/>
<path d="M2072 522V571" stroke="black" stroke-opacity="0.1" stroke-width="2"/>
<path d="M2081 522V571" stroke="black" stroke-opacity="0.1" stroke-width="2"/>
<path d="M2093 522V571" stroke="black" stroke-opacity="0.1" stroke-width="2"/>
<path d="M2101 522V571" stroke="black" stroke-opacity="0.1" stroke-width="2"/>
<path d="M599 1796H581V1812H599V1796Z" stroke="black" stroke-opacity="0.1" stroke-width="2"/>
<path d="M588.333 1805.29H587V1800H593V1805.29H591.667M588.333 1805.29V1809H591.667V1805.29M588.333 1805.29H591.667" stroke="black" stroke-opacity="0.1" stroke-width="2"/>
<path d="M544 1779H608" stroke="black" stroke-opacity="0.1" stroke-width="2"/>
<path d="M544 1820H608" stroke="black" stroke-opacity="0.1" stroke-width="2"/>
<path d="M547.5 1775V1824" stroke="black" stroke-opacity="0.1" stroke-width="2"/>
<path d="M557 1775V1824" stroke="black" stroke-opacity="0.1" stroke-width="2"/>
<path d="M566 1775V1824" stroke="black" stroke-opacity="0.1" stroke-width="2"/>
<path d="M575 1775V1824" stroke="black" stroke-opacity="0.1" stroke-width="2"/>
<path d="M584 1775V1824" stroke="black" stroke-opacity="0.1" stroke-width="2"/>
<path d="M596 1775V1824" stroke="black" stroke-opacity="0.1" stroke-width="2"/>
<path d="M604 1775V1824" stroke="black" stroke-opacity="0.1" stroke-width="2"/>
<path d="M1008.33 1998.45L995.365 1959.02L954.518 1972.46L970.921 2022.33L1001.32 2012.33M1008.33 1998.45L997.882 2001.88L1001.32 2012.33M1008.33 1998.45L1001.32 2012.33" stroke="black" stroke-opacity="0.1" stroke-width="2"/>
<path d="M960.028 2018.02L943 1966.25L983.847 1952.81" stroke="black" stroke-opacity="0.1" stroke-width="2"/>
<g filter="url(#filter0_d_112_334)">
<rect x="964.454" y="1978.67" width="2" height="2" transform="rotate(-18.2065 964.454 1978.67)" fill="black" fill-opacity="0.5" shape-rendering="crispEdges"/>
</g>
<g filter="url(#filter1_d_112_334)">
<rect x="967.267" y="1987.22" width="2" height="2" transform="rotate(-18.2065 967.267 1987.22)" fill="black" fill-opacity="0.5" shape-rendering="crispEdges"/>
</g>
<g filter="url(#filter2_d_112_334)">
<rect x="969.766" y="1994.81" width="2" height="2" transform="rotate(-18.2065 969.766 1994.81)" fill="black" fill-opacity="0.5" shape-rendering="crispEdges"/>
</g>
<g filter="url(#filter3_d_112_334)">
<rect x="972.266" y="2002.41" width="2" height="2" transform="rotate(-18.2065 972.266 2002.41)" fill="black" fill-opacity="0.5" shape-rendering="crispEdges"/>
</g>
<path d="M972.047 1977.75L991.046 1971.5" stroke="black" stroke-opacity="0.1" stroke-width="2"/>
<path d="M974.547 1985.35L993.546 1979.1" stroke="black" stroke-opacity="0.1" stroke-width="2"/>
<path d="M977.358 1993.9L996.357 1987.65" stroke="black" stroke-opacity="0.1" stroke-width="2"/>
<path d="M979.858 2001.5L998.857 1995.25" stroke="black" stroke-opacity="0.1" stroke-width="2"/>
<path d="M2773.33 133.447L2760.36 94.0244L2719.52 107.459L2735.92 157.331L2766.32 147.333M2773.33 133.447L2762.88 136.884L2766.32 147.333M2773.33 133.447L2766.32 147.333" stroke="black" stroke-opacity="0.1" stroke-width="2"/>
<path d="M2725.03 153.019L2708 101.247L2748.85 87.812" stroke="black" stroke-opacity="0.1" stroke-width="2"/>
<g filter="url(#filter4_d_112_334)">
<rect x="2729.46" y="113.666" width="2" height="2" transform="rotate(-18.2065 2729.46 113.666)" fill="black" fill-opacity="0.5" shape-rendering="crispEdges"/>
</g>
<g filter="url(#filter5_d_112_334)">
<rect x="2732.27" y="122.215" width="2" height="2" transform="rotate(-18.2065 2732.27 122.215)" fill="black" fill-opacity="0.5" shape-rendering="crispEdges"/>
</g>
<g filter="url(#filter6_d_112_334)">
<rect x="2734.77" y="129.814" width="2" height="2" transform="rotate(-18.2065 2734.77 129.814)" fill="black" fill-opacity="0.5" shape-rendering="crispEdges"/>
</g>
<g filter="url(#filter7_d_112_334)">
<rect x="2737.27" y="137.414" width="2" height="2" transform="rotate(-18.2065 2737.27 137.414)" fill="black" fill-opacity="0.5" shape-rendering="crispEdges"/>
</g>
<path d="M2737.05 112.747L2756.05 106.498" stroke="black" stroke-opacity="0.1" stroke-width="2"/>
<path d="M2739.55 120.347L2758.55 114.098" stroke="black" stroke-opacity="0.1" stroke-width="2"/>
<path d="M2742.36 128.896L2761.36 122.647" stroke="black" stroke-opacity="0.1" stroke-width="2"/>
<path d="M2744.86 136.496L2763.86 130.247" stroke="black" stroke-opacity="0.1" stroke-width="2"/>
<path d="M1023.33 301.447L1010.36 262.024L969.518 275.459L985.921 325.331L1016.32 315.333M1023.33 301.447L1012.88 304.884L1016.32 315.333M1023.33 301.447L1016.32 315.333" stroke="black" stroke-opacity="0.1" stroke-width="2"/>
<path d="M975.028 321.019L958 269.247L998.847 255.812" stroke="black" stroke-opacity="0.1" stroke-width="2"/>
<g filter="url(#filter8_d_112_334)">
<rect x="979.454" y="281.666" width="2" height="2" transform="rotate(-18.2065 979.454 281.666)" fill="black" fill-opacity="0.5" shape-rendering="crispEdges"/>
</g>
<g filter="url(#filter9_d_112_334)">
<rect x="982.267" y="290.215" width="2" height="2" transform="rotate(-18.2065 982.267 290.215)" fill="black" fill-opacity="0.5" shape-rendering="crispEdges"/>
</g>
<g filter="url(#filter10_d_112_334)">
<rect x="984.766" y="297.814" width="2" height="2" transform="rotate(-18.2065 984.766 297.814)" fill="black" fill-opacity="0.5" shape-rendering="crispEdges"/>
</g>
<g filter="url(#filter11_d_112_334)">
<rect x="987.266" y="305.414" width="2" height="2" transform="rotate(-18.2065 987.266 305.414)" fill="black" fill-opacity="0.5" shape-rendering="crispEdges"/>
</g>
<path d="M987.047 280.747L1006.05 274.498" stroke="black" stroke-opacity="0.1" stroke-width="2"/>
<path d="M989.547 288.347L1008.55 282.098" stroke="black" stroke-opacity="0.1" stroke-width="2"/>
<path d="M992.358 296.896L1011.36 290.647" stroke="black" stroke-opacity="0.1" stroke-width="2"/>
<path d="M994.858 304.496L1013.86 298.247" stroke="black" stroke-opacity="0.1" stroke-width="2"/>
<path d="M2097.33 187.447L2084.36 148.024L2043.52 161.459L2059.92 211.331L2090.32 201.333M2097.33 187.447L2086.88 190.884L2090.32 201.333M2097.33 187.447L2090.32 201.333" stroke="black" stroke-opacity="0.1" stroke-width="2"/>
<path d="M2049.03 207.019L2032 155.247L2072.85 141.812" stroke="black" stroke-opacity="0.1" stroke-width="2"/>
<g filter="url(#filter12_d_112_334)">
<rect x="2053.45" y="167.666" width="2" height="2" transform="rotate(-18.2065 2053.45 167.666)" fill="black" fill-opacity="0.5" shape-rendering="crispEdges"/>
</g>
<g filter="url(#filter13_d_112_334)">
<rect x="2056.27" y="176.215" width="2" height="2" transform="rotate(-18.2065 2056.27 176.215)" fill="black" fill-opacity="0.5" shape-rendering="crispEdges"/>
</g>
<g filter="url(#filter14_d_112_334)">
<rect x="2058.77" y="183.814" width="2" height="2" transform="rotate(-18.2065 2058.77 183.814)" fill="black" fill-opacity="0.5" shape-rendering="crispEdges"/>
</g>
<g filter="url(#filter15_d_112_334)">
<rect x="2061.27" y="191.414" width="2" height="2" transform="rotate(-18.2065 2061.27 191.414)" fill="black" fill-opacity="0.5" shape-rendering="crispEdges"/>
</g>
<path d="M2061.05 166.747L2080.05 160.498" stroke="black" stroke-opacity="0.1" stroke-width="2"/>
<path d="M2063.55 174.347L2082.55 168.098" stroke="black" stroke-opacity="0.1" stroke-width="2"/>
<path d="M2066.36 182.896L2085.36 176.647" stroke="black" stroke-opacity="0.1" stroke-width="2"/>
<path d="M2068.86 190.496L2087.86 184.247" stroke="black" stroke-opacity="0.1" stroke-width="2"/>
<path d="M2742 2147.5L2755.53 2151.12M2769.05 2154.74L2755.53 2151.12M2755.53 2151.12L2766.4 2110.55M2768.86 2101.38L2766.4 2110.55M2766.4 2110.55L2784.75 2115.47M2784.75 2115.47L2748.04 2105.63M2784.75 2115.47L2772.72 2131.4L2788.17 2135.54L2784.75 2115.47ZM2748.04 2105.63L2735.53 2121.43L2750.99 2125.58L2748.04 2105.63Z" stroke="black" stroke-opacity="0.1" stroke-width="2"/>
<path d="M2735.05 2121.3L2751.47 2125.7L2751.34 2126.19C2750.12 2130.72 2745.46 2133.41 2740.93 2132.2C2736.39 2130.98 2733.7 2126.32 2734.92 2121.79L2735.05 2121.3Z" stroke="black" stroke-opacity="0.1" stroke-width="2"/>
<path d="M2771.81 2131.15L2789.09 2135.78C2787.44 2140 2782.85 2142.4 2778.37 2141.2C2773.9 2140 2771.12 2135.63 2771.81 2131.15Z" stroke="black" stroke-opacity="0.1" stroke-width="2"/>
<path d="M1619.01 1877.5L1632.53 1881.12M1646.05 1884.74L1632.53 1881.12M1632.53 1881.12L1643.4 1840.55M1645.86 1831.38L1643.4 1840.55M1643.4 1840.55L1661.75 1845.47M1661.75 1845.47L1625.05 1835.63M1661.75 1845.47L1649.72 1861.4L1665.18 1865.54L1661.75 1845.47ZM1625.05 1835.63L1612.53 1851.43L1627.99 1855.58L1625.05 1835.63Z" stroke="black" stroke-opacity="0.1" stroke-width="2"/>
<path d="M1612.05 1851.3L1628.47 1855.7L1628.34 1856.19C1627.13 1860.72 1622.46 1863.41 1617.93 1862.2C1613.4 1860.98 1610.7 1856.32 1611.92 1851.79L1612.05 1851.3Z" stroke="black" stroke-opacity="0.1" stroke-width="2"/>
<path d="M1648.81 1861.15L1666.09 1865.78C1664.44 1870 1659.85 1872.4 1655.38 1871.2C1650.9 1870 1648.12 1865.63 1648.81 1861.15Z" stroke="black" stroke-opacity="0.1" stroke-width="2"/>
<path d="M1552 535.498L1565.53 539.121M1579.05 542.745L1565.53 539.121M1565.53 539.121L1576.4 498.552M1578.86 489.376L1576.4 498.552M1576.4 498.552L1594.75 503.47M1594.75 503.47L1558.05 493.635M1594.75 503.47L1582.72 519.399L1598.17 523.54L1594.75 503.47ZM1558.05 493.635L1545.53 509.434L1560.99 513.575L1558.05 493.635Z" stroke="black" stroke-opacity="0.1" stroke-width="2"/>
<path d="M1545.05 509.305L1561.47 513.705L1561.34 514.188C1560.12 518.722 1555.46 521.413 1550.93 520.198C1546.39 518.983 1543.7 514.322 1544.92 509.788L1545.05 509.305Z" stroke="black" stroke-opacity="0.1" stroke-width="2"/>
<path d="M1581.81 519.154L1599.09 523.784C1597.44 528.002 1592.85 530.396 1588.38 529.197C1583.9 527.998 1581.12 523.629 1581.81 519.154Z" stroke="black" stroke-opacity="0.1" stroke-width="2"/>
<path d="M638.005 1169.5L651.528 1173.12M665.051 1176.74L651.528 1173.12M651.528 1173.12L662.398 1132.55M664.857 1123.38L662.398 1132.55M662.398 1132.55L680.751 1137.47M680.751 1137.47L644.045 1127.63M680.751 1137.47L668.72 1153.4L684.174 1157.54L680.751 1137.47ZM644.045 1127.63L631.531 1143.43L646.986 1147.58L644.045 1127.63Z" stroke="black" stroke-opacity="0.1" stroke-width="2"/>
<path d="M631.048 1143.3L647.469 1147.7L647.339 1148.19C646.124 1152.72 641.463 1155.41 636.929 1154.2C632.394 1152.98 629.704 1148.32 630.919 1143.79L631.048 1143.3Z" stroke="black" stroke-opacity="0.1" stroke-width="2"/>
<path d="M667.806 1153.15L685.087 1157.78C683.441 1162 678.85 1164.4 674.376 1163.2C669.901 1162 667.122 1157.63 667.806 1153.15Z" stroke="black" stroke-opacity="0.1" stroke-width="2"/>
<path d="M2725.36 1459.04L2733.57 1456.84M2786.7 1442.61L2778.49 1444.81M2778.49 1444.81L2768.91 1409.07L2757.32 1412.18M2778.49 1444.81L2766.9 1447.91M2757.32 1412.18L2766.9 1447.91M2757.32 1412.18L2754.48 1401.55L2743.85 1404.4M2766.9 1447.91L2756.27 1450.76M2756.27 1450.76L2745.17 1453.74M2756.27 1450.76L2745.27 1409.71M2743.85 1404.4L2741.91 1397.15L2730.8 1400.13L2732.74 1407.37M2743.85 1404.4L2745.27 1409.71M2732.74 1407.37L2721.15 1410.48L2724 1421.1M2732.74 1407.37L2734.17 1412.69M2745.17 1453.74L2733.57 1456.84M2745.17 1453.74L2735.59 1418M2733.57 1456.84L2724 1421.1M2724 1421.1L2735.59 1418M2735.59 1418L2734.17 1412.69M2734.17 1412.69L2745.27 1409.71M2752.01 1413.6L2757.06 1432.43" stroke="black" stroke-opacity="0.1" stroke-width="2"/>
<path d="M2766.23 1429.98L2770.1 1428.94" stroke="black" stroke-opacity="0.1" stroke-width="2"/>
<path d="M2765.46 1427.08L2769.32 1426.04" stroke="black" stroke-opacity="0.1" stroke-width="2"/>
<path d="M315.364 718.044L323.575 715.844M376.701 701.609L368.49 703.809M368.49 703.809L358.914 668.07L347.323 671.175M368.49 703.809L356.899 706.915M347.323 671.175L356.899 706.915M347.323 671.175L344.476 660.55L333.851 663.397M356.899 706.915L346.274 709.762M346.274 709.762L335.166 712.738M346.274 709.762L335.274 668.71M333.851 663.397L331.91 656.153L320.801 659.129L322.743 666.374M333.851 663.397L335.274 668.71M322.743 666.374L311.152 669.48L313.999 680.105M322.743 666.374L324.166 671.686M335.166 712.738L323.575 715.844M335.166 712.738L325.59 676.999M323.575 715.844L313.999 680.105M313.999 680.105L325.59 676.999M325.59 676.999L324.166 671.686M324.166 671.686L335.274 668.71M342.01 672.599L347.057 691.435" stroke="black" stroke-opacity="0.1" stroke-width="2"/>
<path d="M356.233 688.976L360.097 687.94" stroke="black" stroke-opacity="0.1" stroke-width="2"/>
<path d="M355.457 686.078L359.321 685.043" stroke="black" stroke-opacity="0.1" stroke-width="2"/>
<path d="M953.364 753.044L961.575 750.844M1014.7 736.609L1006.49 738.809M1006.49 738.809L996.914 703.07L985.323 706.175M1006.49 738.809L994.899 741.915M985.323 706.175L994.899 741.915M985.323 706.175L982.476 695.55L971.851 698.397M994.899 741.915L984.274 744.762M984.274 744.762L973.166 747.738M984.274 744.762L973.274 703.71M971.851 698.397L969.91 691.153L958.801 694.129L960.743 701.374M971.851 698.397L973.274 703.71M960.743 701.374L949.152 704.479L951.999 715.105M960.743 701.374L962.166 706.686M973.166 747.738L961.575 750.844M973.166 747.738L963.59 711.999M961.575 750.844L951.999 715.105M951.999 715.105L963.59 711.999M963.59 711.999L962.166 706.686M962.166 706.686L973.274 703.71M980.01 707.599L985.057 726.434" stroke="black" stroke-opacity="0.1" stroke-width="2"/>
<path d="M994.233 723.976L998.097 722.94" stroke="black" stroke-opacity="0.1" stroke-width="2"/>
<path d="M993.457 721.078L997.321 720.043" stroke="black" stroke-opacity="0.1" stroke-width="2"/>
<path d="M1457.36 1349.04L1465.57 1346.84M1518.7 1332.61L1510.49 1334.81M1510.49 1334.81L1500.91 1299.07L1489.32 1302.18M1510.49 1334.81L1498.9 1337.91M1489.32 1302.18L1498.9 1337.91M1489.32 1302.18L1486.48 1291.55L1475.85 1294.4M1498.9 1337.91L1488.27 1340.76M1488.27 1340.76L1477.17 1343.74M1488.27 1340.76L1477.27 1299.71M1475.85 1294.4L1473.91 1287.15L1462.8 1290.13L1464.74 1297.37M1475.85 1294.4L1477.27 1299.71M1464.74 1297.37L1453.15 1300.48L1456 1311.1M1464.74 1297.37L1466.17 1302.69M1477.17 1343.74L1465.57 1346.84M1477.17 1343.74L1467.59 1308M1465.57 1346.84L1456 1311.1M1456 1311.1L1467.59 1308M1467.59 1308L1466.17 1302.69M1466.17 1302.69L1477.27 1299.71M1484.01 1303.6L1489.06 1322.43" stroke="black" stroke-opacity="0.1" stroke-width="2"/>
<path d="M1498.23 1319.98L1502.1 1318.94" stroke="black" stroke-opacity="0.1" stroke-width="2"/>
<path d="M1497.46 1317.08L1501.32 1316.04" stroke="black" stroke-opacity="0.1" stroke-width="2"/>
<circle cx="281.58" cy="2038.07" r="30.5" transform="rotate(15 281.58 2038.07)" stroke="black" stroke-opacity="0.1" stroke-width="2"/>
<path d="M269.027 2050.84L267.635 2052.28L267.645 2052.29L269.027 2050.84ZM264.53 2043.14L262.593 2043.64L262.597 2043.66L264.53 2043.14ZM269.262 2025.49L267.844 2024.08L267.844 2024.08L269.262 2025.49ZM277.005 2021.07L276.53 2019.13L276.516 2019.13L277.005 2021.07ZM293.763 2025.08L292.425 2026.57L292.442 2026.58L292.459 2026.6L293.763 2025.08ZM297.867 2031.44L298.524 2033.33L300.32 2032.71L299.787 2030.88L297.867 2031.44ZM293.873 2032.83L291.979 2033.47L292.625 2035.38L294.53 2034.72L293.873 2032.83ZM290.656 2028.01L289.329 2029.5L289.344 2029.52L289.36 2029.53L290.656 2028.01ZM278.441 2025.14L278.927 2027.08L278.934 2027.08L278.941 2027.08L278.441 2025.14ZM272.685 2028.52L271.245 2027.13L271.234 2027.14L271.222 2027.16L272.685 2028.52ZM269.012 2042.23L267.064 2042.68L267.069 2042.7L267.076 2042.73L269.012 2042.23ZM272.309 2048.03L270.894 2049.44L270.912 2049.46L270.931 2049.48L272.309 2048.03ZM284.319 2051.66L283.958 2049.69L283.958 2049.69L284.319 2051.66ZM289.517 2049.09L291.031 2047.78L289.712 2046.25L288.197 2047.59L289.517 2049.09ZM292.281 2052.29L293.663 2053.73L295.038 2052.42L293.795 2050.98L292.281 2052.29ZM285.53 2055.81L285.901 2057.77L285.916 2057.77L285.931 2057.77L285.53 2055.81ZM277.889 2053.47C274.865 2052.66 272.391 2051.29 270.41 2049.4L267.645 2052.29C270.16 2054.69 273.249 2056.37 276.854 2057.33L277.889 2053.47ZM270.42 2049.41C268.477 2047.52 267.164 2045.27 266.463 2042.63L262.597 2043.66C263.482 2047 265.167 2049.88 267.635 2052.28L270.42 2049.41ZM266.467 2042.65C265.778 2039.97 265.81 2037.17 266.605 2034.2L262.741 2033.17C261.783 2036.75 261.719 2040.25 262.593 2043.64L266.467 2042.65ZM266.605 2034.2C267.4 2031.23 268.767 2028.82 270.68 2026.9L267.844 2024.08C265.392 2026.54 263.7 2029.59 262.741 2033.17L266.605 2034.2ZM270.68 2026.9C272.608 2024.96 274.868 2023.67 277.493 2023.01L276.516 2019.13C273.182 2019.97 270.28 2021.63 267.844 2024.08L270.68 2026.9ZM277.48 2023.01C280.143 2022.36 282.968 2022.41 285.993 2023.22L287.028 2019.36C283.423 2018.4 279.911 2018.3 276.53 2019.13L277.48 2023.01ZM285.993 2023.22C288.622 2023.93 290.746 2025.06 292.425 2026.57L295.101 2023.59C292.89 2021.6 290.179 2020.21 287.028 2019.36L285.993 2023.22ZM292.459 2026.6C294.166 2028.07 295.319 2029.86 295.947 2032L299.787 2030.88C298.941 2027.99 297.359 2025.54 295.068 2023.57L292.459 2026.6ZM297.21 2029.55L293.216 2030.94L294.53 2034.72L298.524 2033.33L297.21 2029.55ZM295.768 2032.19C294.998 2029.92 293.728 2028 291.953 2026.48L289.36 2029.53C290.552 2030.54 291.427 2031.84 291.979 2033.47L295.768 2032.19ZM291.983 2026.51C290.267 2024.99 288.251 2023.93 285.969 2023.31L284.934 2027.18C286.647 2027.64 288.101 2028.41 289.329 2029.5L291.983 2026.51ZM285.969 2023.31C283.241 2022.58 280.552 2022.53 277.941 2023.21L278.941 2027.08C280.832 2026.59 282.817 2026.61 284.934 2027.18L285.969 2023.31ZM277.955 2023.2C275.378 2023.85 273.133 2025.17 271.245 2027.13L274.125 2029.91C275.517 2028.47 277.109 2027.54 278.927 2027.08L277.955 2023.2ZM271.222 2027.16C269.374 2029.14 268.089 2031.57 267.331 2034.4L271.195 2035.43C271.805 2033.16 272.8 2031.33 274.147 2029.89L271.222 2027.16ZM267.331 2034.4C266.564 2037.26 266.452 2040.03 267.064 2042.68L270.961 2041.78C270.517 2039.86 270.573 2037.76 271.195 2035.43L267.331 2034.4ZM267.076 2042.73C267.745 2045.32 269.021 2047.57 270.894 2049.44L273.723 2046.62C272.364 2045.26 271.442 2043.64 270.949 2041.73L267.076 2042.73ZM270.931 2049.48C272.865 2051.32 275.215 2052.59 277.93 2053.32L278.966 2049.45C276.836 2048.88 275.093 2047.92 273.686 2046.58L270.931 2049.48ZM277.93 2053.32C280.197 2053.92 282.454 2054.03 284.68 2053.63L283.958 2049.69C282.351 2049.99 280.694 2049.91 278.966 2049.45L277.93 2053.32ZM284.68 2053.63C286.973 2053.2 289.033 2052.18 290.837 2050.59L288.197 2047.59C286.903 2048.72 285.497 2049.41 283.958 2049.69L284.68 2053.63ZM288.004 2050.4L290.767 2053.6L293.795 2050.98L291.031 2047.78L288.004 2050.4ZM290.899 2050.84C289.276 2052.39 287.367 2053.39 285.129 2053.85L285.931 2057.77C288.898 2057.16 291.489 2055.81 293.663 2053.73L290.899 2050.84ZM285.158 2053.84C282.895 2054.27 280.481 2054.16 277.889 2053.47L276.854 2057.33C279.957 2058.16 282.982 2058.33 285.901 2057.77L285.158 2053.84Z" fill="black" fill-opacity="0.1"/>
<circle cx="314.58" cy="221.068" r="30.5" transform="rotate(15 314.58 221.068)" stroke="black" stroke-opacity="0.1" stroke-width="2"/>
<path d="M302.027 233.841L300.635 235.276L300.645 235.286L302.027 233.841ZM297.53 226.145L295.593 226.644L295.597 226.657L297.53 226.145ZM302.262 208.486L300.844 207.075L300.844 207.075L302.262 208.486ZM310.005 204.069L309.53 202.126L309.516 202.13L310.005 204.069ZM326.763 208.081L325.425 209.568L325.442 209.583L325.459 209.597L326.763 208.081ZM330.867 214.442L331.524 216.331L333.32 215.706L332.787 213.881L330.867 214.442ZM326.873 215.832L324.979 216.473L325.625 218.384L327.53 217.721L326.873 215.832ZM323.656 211.007L322.329 212.503L322.344 212.517L322.36 212.53L323.656 211.007ZM311.441 208.144L311.927 210.084L311.934 210.082L311.941 210.08L311.441 208.144ZM305.685 211.521L304.245 210.133L304.234 210.145L304.222 210.157L305.685 211.521ZM302.012 225.228L300.064 225.678L300.069 225.703L300.076 225.728L302.012 225.228ZM305.309 231.03L303.894 232.444L303.912 232.463L303.931 232.481L305.309 231.03ZM317.319 234.659L316.958 232.691L316.958 232.691L317.319 234.659ZM322.517 232.088L324.031 230.781L322.712 229.254L321.197 230.586L322.517 232.088ZM325.281 235.289L326.663 236.735L328.038 235.421L326.795 233.982L325.281 235.289ZM318.53 238.809L318.901 240.775L318.916 240.772L318.931 240.769L318.53 238.809ZM310.889 236.468C307.865 235.658 305.391 234.291 303.41 232.396L300.645 235.286C303.16 237.693 306.249 239.366 309.854 240.332L310.889 236.468ZM303.42 232.406C301.477 230.521 300.164 228.275 299.463 225.632L295.597 226.657C296.482 229.997 298.167 232.882 300.635 235.276L303.42 232.406ZM299.467 225.646C298.778 222.973 298.81 220.171 299.605 217.203L295.741 216.168C294.783 219.745 294.719 223.25 295.593 226.644L299.467 225.646ZM299.605 217.203C300.4 214.235 301.767 211.819 303.68 209.896L300.844 207.075C298.392 209.54 296.7 212.591 295.741 216.168L299.605 217.203ZM303.68 209.896C305.608 207.958 307.868 206.67 310.493 206.009L309.516 202.13C306.182 202.969 303.28 204.626 300.844 207.075L303.68 209.896ZM310.48 206.012C313.143 205.361 315.968 205.415 318.993 206.225L320.028 202.361C316.423 201.395 312.911 201.3 309.53 202.126L310.48 206.012ZM318.993 206.225C321.622 206.93 323.746 208.056 325.425 209.568L328.101 206.595C325.89 204.604 323.179 203.206 320.028 202.361L318.993 206.225ZM325.459 209.597C327.166 211.066 328.319 212.855 328.947 215.003L332.787 213.881C331.941 210.988 330.359 208.536 328.068 206.565L325.459 209.597ZM330.21 212.553L326.216 213.943L327.53 217.721L331.524 216.331L330.21 212.553ZM328.768 215.191C327.998 212.916 326.728 210.995 324.953 209.484L322.36 212.53C323.552 213.544 324.427 214.841 324.979 216.473L328.768 215.191ZM324.983 209.511C323.267 207.988 321.251 206.925 318.969 206.314L317.934 210.178C319.647 210.637 321.101 211.414 322.329 212.503L324.983 209.511ZM318.969 206.314C316.241 205.583 313.552 205.533 310.941 206.207L311.941 210.08C313.832 209.592 315.817 209.611 317.934 210.178L318.969 206.314ZM310.955 206.204C308.378 206.849 306.133 208.174 304.245 210.133L307.125 212.909C308.517 211.465 310.109 210.539 311.927 210.084L310.955 206.204ZM304.222 210.157C302.374 212.138 301.089 214.572 300.331 217.398L304.195 218.433C304.805 216.159 305.8 214.33 307.147 212.885L304.222 210.157ZM300.331 217.398C299.564 220.26 299.452 223.033 300.064 225.678L303.961 224.777C303.517 222.858 303.573 220.756 304.195 218.433L300.331 217.398ZM300.076 225.728C300.745 228.318 302.021 230.57 303.894 232.444L306.723 229.617C305.364 228.256 304.442 226.639 303.949 224.728L300.076 225.728ZM303.931 232.481C305.865 234.317 308.215 235.588 310.93 236.316L311.966 232.452C309.836 231.881 308.093 230.917 306.686 229.58L303.931 232.481ZM310.93 236.316C313.197 236.923 315.454 237.035 317.68 236.626L316.958 232.691C315.351 232.987 313.694 232.915 311.966 232.452L310.93 236.316ZM317.68 236.626C319.973 236.204 322.033 235.176 323.837 233.591L321.197 230.586C319.903 231.723 318.497 232.409 316.958 232.691L317.68 236.626ZM321.004 233.396L323.767 236.596L326.795 233.982L324.031 230.781L321.004 233.396ZM323.899 233.843C322.276 235.394 320.367 236.392 318.129 236.85L318.931 240.769C321.898 240.162 324.489 238.812 326.663 236.735L323.899 233.843ZM318.158 236.844C315.895 237.272 313.481 237.163 310.889 236.468L309.854 240.332C312.957 241.163 315.982 241.327 318.901 240.775L318.158 236.844Z" fill="black" fill-opacity="0.1"/>
<circle cx="2018.58" cy="1021.07" r="30.5" transform="rotate(15 2018.58 1021.07)" stroke="black" stroke-opacity="0.1" stroke-width="2"/>
<path d="M2006.03 1033.84L2004.63 1035.28L2004.64 1035.29L2006.03 1033.84ZM2001.53 1026.14L1999.59 1026.64L1999.6 1026.66L2001.53 1026.14ZM2006.26 1008.49L2004.84 1007.08L2004.84 1007.08L2006.26 1008.49ZM2014 1004.07L2013.53 1002.13L2013.52 1002.13L2014 1004.07ZM2030.76 1008.08L2029.43 1009.57L2029.44 1009.58L2029.46 1009.6L2030.76 1008.08ZM2034.87 1014.44L2035.52 1016.33L2037.32 1015.71L2036.79 1013.88L2034.87 1014.44ZM2030.87 1015.83L2028.98 1016.47L2029.63 1018.38L2031.53 1017.72L2030.87 1015.83ZM2027.66 1011.01L2026.33 1012.5L2026.34 1012.52L2026.36 1012.53L2027.66 1011.01ZM2015.44 1008.14L2015.93 1010.08L2015.93 1010.08L2015.94 1010.08L2015.44 1008.14ZM2009.68 1011.52L2008.24 1010.13L2008.23 1010.14L2008.22 1010.16L2009.68 1011.52ZM2006.01 1025.23L2004.06 1025.68L2004.07 1025.7L2004.08 1025.73L2006.01 1025.23ZM2009.31 1031.03L2007.89 1032.44L2007.91 1032.46L2007.93 1032.48L2009.31 1031.03ZM2021.32 1034.66L2020.96 1032.69L2020.96 1032.69L2021.32 1034.66ZM2026.52 1032.09L2028.03 1030.78L2026.71 1029.25L2025.2 1030.59L2026.52 1032.09ZM2029.28 1035.29L2030.66 1036.73L2032.04 1035.42L2030.79 1033.98L2029.28 1035.29ZM2022.53 1038.81L2022.9 1040.77L2022.92 1040.77L2022.93 1040.77L2022.53 1038.81ZM2014.89 1036.47C2011.86 1035.66 2009.39 1034.29 2007.41 1032.4L2004.64 1035.29C2007.16 1037.69 2010.25 1039.37 2013.85 1040.33L2014.89 1036.47ZM2007.42 1032.41C2005.48 1030.52 2004.16 1028.28 2003.46 1025.63L1999.6 1026.66C2000.48 1030 2002.17 1032.88 2004.63 1035.28L2007.42 1032.41ZM2003.47 1025.65C2002.78 1022.97 2002.81 1020.17 2003.61 1017.2L1999.74 1016.17C1998.78 1019.75 1998.72 1023.25 1999.59 1026.64L2003.47 1025.65ZM2003.61 1017.2C2004.4 1014.24 2005.77 1011.82 2007.68 1009.9L2004.84 1007.08C2002.39 1009.54 2000.7 1012.59 1999.74 1016.17L2003.61 1017.2ZM2007.68 1009.9C2009.61 1007.96 2011.87 1006.67 2014.49 1006.01L2013.52 1002.13C2010.18 1002.97 2007.28 1004.63 2004.84 1007.08L2007.68 1009.9ZM2014.48 1006.01C2017.14 1005.36 2019.97 1005.41 2022.99 1006.23L2024.03 1002.36C2020.42 1001.4 2016.91 1001.3 2013.53 1002.13L2014.48 1006.01ZM2022.99 1006.23C2025.62 1006.93 2027.75 1008.06 2029.43 1009.57L2032.1 1006.6C2029.89 1004.6 2027.18 1003.21 2024.03 1002.36L2022.99 1006.23ZM2029.46 1009.6C2031.17 1011.07 2032.32 1012.86 2032.95 1015L2036.79 1013.88C2035.94 1010.99 2034.36 1008.54 2032.07 1006.57L2029.46 1009.6ZM2034.21 1012.55L2030.22 1013.94L2031.53 1017.72L2035.52 1016.33L2034.21 1012.55ZM2032.77 1015.19C2032 1012.92 2030.73 1011 2028.95 1009.48L2026.36 1012.53C2027.55 1013.54 2028.43 1014.84 2028.98 1016.47L2032.77 1015.19ZM2028.98 1009.51C2027.27 1007.99 2025.25 1006.93 2022.97 1006.31L2021.93 1010.18C2023.65 1010.64 2025.1 1011.41 2026.33 1012.5L2028.98 1009.51ZM2022.97 1006.31C2020.24 1005.58 2017.55 1005.53 2014.94 1006.21L2015.94 1010.08C2017.83 1009.59 2019.82 1009.61 2021.93 1010.18L2022.97 1006.31ZM2014.96 1006.2C2012.38 1006.85 2010.13 1008.17 2008.24 1010.13L2011.12 1012.91C2012.52 1011.47 2014.11 1010.54 2015.93 1010.08L2014.96 1006.2ZM2008.22 1010.16C2006.37 1012.14 2005.09 1014.57 2004.33 1017.4L2008.2 1018.43C2008.8 1016.16 2009.8 1014.33 2011.15 1012.89L2008.22 1010.16ZM2004.33 1017.4C2003.56 1020.26 2003.45 1023.03 2004.06 1025.68L2007.96 1024.78C2007.52 1022.86 2007.57 1020.76 2008.2 1018.43L2004.33 1017.4ZM2004.08 1025.73C2004.74 1028.32 2006.02 1030.57 2007.89 1032.44L2010.72 1029.62C2009.36 1028.26 2008.44 1026.64 2007.95 1024.73L2004.08 1025.73ZM2007.93 1032.48C2009.86 1034.32 2012.21 1035.59 2014.93 1036.32L2015.97 1032.45C2013.84 1031.88 2012.09 1030.92 2010.69 1029.58L2007.93 1032.48ZM2014.93 1036.32C2017.2 1036.92 2019.45 1037.03 2021.68 1036.63L2020.96 1032.69C2019.35 1032.99 2017.69 1032.92 2015.97 1032.45L2014.93 1036.32ZM2021.68 1036.63C2023.97 1036.2 2026.03 1035.18 2027.84 1033.59L2025.2 1030.59C2023.9 1031.72 2022.5 1032.41 2020.96 1032.69L2021.68 1036.63ZM2025 1033.4L2027.77 1036.6L2030.79 1033.98L2028.03 1030.78L2025 1033.4ZM2027.9 1033.84C2026.28 1035.39 2024.37 1036.39 2022.13 1036.85L2022.93 1040.77C2025.9 1040.16 2028.49 1038.81 2030.66 1036.73L2027.9 1033.84ZM2022.16 1036.84C2019.9 1037.27 2017.48 1037.16 2014.89 1036.47L2013.85 1040.33C2016.96 1041.16 2019.98 1041.33 2022.9 1040.77L2022.16 1036.84Z" fill="black" fill-opacity="0.1"/>
<circle cx="2139.58" cy="1610.07" r="30.5" transform="rotate(15 2139.58 1610.07)" stroke="black" stroke-opacity="0.1" stroke-width="2"/>
<path d="M2127.03 1622.84L2125.63 1624.28L2125.64 1624.29L2127.03 1622.84ZM2122.53 1615.14L2120.59 1615.64L2120.6 1615.66L2122.53 1615.14ZM2127.26 1597.49L2125.84 1596.08L2125.84 1596.08L2127.26 1597.49ZM2135 1593.07L2134.53 1591.13L2134.52 1591.13L2135 1593.07ZM2151.76 1597.08L2150.43 1598.57L2150.44 1598.58L2150.46 1598.6L2151.76 1597.08ZM2155.87 1603.44L2156.52 1605.33L2158.32 1604.71L2157.79 1602.88L2155.87 1603.44ZM2151.87 1604.83L2149.98 1605.47L2150.63 1607.38L2152.53 1606.72L2151.87 1604.83ZM2148.66 1600.01L2147.33 1601.5L2147.34 1601.52L2147.36 1601.53L2148.66 1600.01ZM2136.44 1597.14L2136.93 1599.08L2136.93 1599.08L2136.94 1599.08L2136.44 1597.14ZM2130.68 1600.52L2129.24 1599.13L2129.23 1599.14L2129.22 1599.16L2130.68 1600.52ZM2127.01 1614.23L2125.06 1614.68L2125.07 1614.7L2125.08 1614.73L2127.01 1614.23ZM2130.31 1620.03L2128.89 1621.44L2128.91 1621.46L2128.93 1621.48L2130.31 1620.03ZM2142.32 1623.66L2141.96 1621.69L2141.96 1621.69L2142.32 1623.66ZM2147.52 1621.09L2149.03 1619.78L2147.71 1618.25L2146.2 1619.59L2147.52 1621.09ZM2150.28 1624.29L2151.66 1625.73L2153.04 1624.42L2151.79 1622.98L2150.28 1624.29ZM2143.53 1627.81L2143.9 1629.77L2143.92 1629.77L2143.93 1629.77L2143.53 1627.81ZM2135.89 1625.47C2132.86 1624.66 2130.39 1623.29 2128.41 1621.4L2125.64 1624.29C2128.16 1626.69 2131.25 1628.37 2134.85 1629.33L2135.89 1625.47ZM2128.42 1621.41C2126.48 1619.52 2125.16 1617.28 2124.46 1614.63L2120.6 1615.66C2121.48 1619 2123.17 1621.88 2125.63 1624.28L2128.42 1621.41ZM2124.47 1614.65C2123.78 1611.97 2123.81 1609.17 2124.61 1606.2L2120.74 1605.17C2119.78 1608.75 2119.72 1612.25 2120.59 1615.64L2124.47 1614.65ZM2124.61 1606.2C2125.4 1603.24 2126.77 1600.82 2128.68 1598.9L2125.84 1596.08C2123.39 1598.54 2121.7 1601.59 2120.74 1605.17L2124.61 1606.2ZM2128.68 1598.9C2130.61 1596.96 2132.87 1595.67 2135.49 1595.01L2134.52 1591.13C2131.18 1591.97 2128.28 1593.63 2125.84 1596.08L2128.68 1598.9ZM2135.48 1595.01C2138.14 1594.36 2140.97 1594.41 2143.99 1595.23L2145.03 1591.36C2141.42 1590.4 2137.91 1590.3 2134.53 1591.13L2135.48 1595.01ZM2143.99 1595.23C2146.62 1595.93 2148.75 1597.06 2150.43 1598.57L2153.1 1595.6C2150.89 1593.6 2148.18 1592.21 2145.03 1591.36L2143.99 1595.23ZM2150.46 1598.6C2152.17 1600.07 2153.32 1601.86 2153.95 1604L2157.79 1602.88C2156.94 1599.99 2155.36 1597.54 2153.07 1595.57L2150.46 1598.6ZM2155.21 1601.55L2151.22 1602.94L2152.53 1606.72L2156.52 1605.33L2155.21 1601.55ZM2153.77 1604.19C2153 1601.92 2151.73 1600 2149.95 1598.48L2147.36 1601.53C2148.55 1602.54 2149.43 1603.84 2149.98 1605.47L2153.77 1604.19ZM2149.98 1598.51C2148.27 1596.99 2146.25 1595.93 2143.97 1595.31L2142.93 1599.18C2144.65 1599.64 2146.1 1600.41 2147.33 1601.5L2149.98 1598.51ZM2143.97 1595.31C2141.24 1594.58 2138.55 1594.53 2135.94 1595.21L2136.94 1599.08C2138.83 1598.59 2140.82 1598.61 2142.93 1599.18L2143.97 1595.31ZM2135.96 1595.2C2133.38 1595.85 2131.13 1597.17 2129.24 1599.13L2132.12 1601.91C2133.52 1600.47 2135.11 1599.54 2136.93 1599.08L2135.96 1595.2ZM2129.22 1599.16C2127.37 1601.14 2126.09 1603.57 2125.33 1606.4L2129.2 1607.43C2129.8 1605.16 2130.8 1603.33 2132.15 1601.89L2129.22 1599.16ZM2125.33 1606.4C2124.56 1609.26 2124.45 1612.03 2125.06 1614.68L2128.96 1613.78C2128.52 1611.86 2128.57 1609.76 2129.2 1607.43L2125.33 1606.4ZM2125.08 1614.73C2125.74 1617.32 2127.02 1619.57 2128.89 1621.44L2131.72 1618.62C2130.36 1617.26 2129.44 1615.64 2128.95 1613.73L2125.08 1614.73ZM2128.93 1621.48C2130.86 1623.32 2133.21 1624.59 2135.93 1625.32L2136.97 1621.45C2134.84 1620.88 2133.09 1619.92 2131.69 1618.58L2128.93 1621.48ZM2135.93 1625.32C2138.2 1625.92 2140.45 1626.03 2142.68 1625.63L2141.96 1621.69C2140.35 1621.99 2138.69 1621.92 2136.97 1621.45L2135.93 1625.32ZM2142.68 1625.63C2144.97 1625.2 2147.03 1624.18 2148.84 1622.59L2146.2 1619.59C2144.9 1620.72 2143.5 1621.41 2141.96 1621.69L2142.68 1625.63ZM2146 1622.4L2148.77 1625.6L2151.79 1622.98L2149.03 1619.78L2146 1622.4ZM2148.9 1622.84C2147.28 1624.39 2145.37 1625.39 2143.13 1625.85L2143.93 1629.77C2146.9 1629.16 2149.49 1627.81 2151.66 1625.73L2148.9 1622.84ZM2143.16 1625.84C2140.9 1626.27 2138.48 1626.16 2135.89 1625.47L2134.85 1629.33C2137.96 1630.16 2140.98 1630.33 2143.9 1629.77L2143.16 1625.84Z" fill="black" fill-opacity="0.1"/>
<path d="M164.575 269.366L165.869 274.196" stroke="black" stroke-opacity="0.1" stroke-width="2"/>
<path d="M237.575 805.366L238.869 810.196" stroke="black" stroke-opacity="0.1" stroke-width="2"/>
<path d="M594.575 337.366L595.869 342.196" stroke="black" stroke-opacity="0.1" stroke-width="2"/>
<path d="M615.575 859.366L616.869 864.196" stroke="black" stroke-opacity="0.1" stroke-width="2"/>
<defs>
<filter id="filter0_d_112_334" x="960.454" y="1978.04" width="10.5244" height="10.5249" filterUnits="userSpaceOnUse" color-interpolation-filters="sRGB">
<feFlood flood-opacity="0" result="BackgroundImageFix"/>
<feColorMatrix in="SourceAlpha" type="matrix" values="0 0 0 0 0 0 0 0 0 0 0 0 0 0 0 0 0 0 127 0" result="hardAlpha"/>
<feOffset dy="4"/>
<feGaussianBlur stdDeviation="2"/>
<feComposite in2="hardAlpha" operator="out"/>
<feColorMatrix type="matrix" values="0 0 0 0 0 0 0 0 0 0 0 0 0 0 0 0 0 0 0.25 0"/>
<feBlend mode="normal" in2="BackgroundImageFix" result="effect1_dropShadow_112_334"/>
<feBlend mode="normal" in="SourceGraphic" in2="effect1_dropShadow_112_334" result="shape"/>
</filter>
<filter id="filter1_d_112_334" x="963.267" y="1986.59" width="10.5244" height="10.5249" filterUnits="userSpaceOnUse" color-interpolation-filters="sRGB">
<feFlood flood-opacity="0" result="BackgroundImageFix"/>
<feColorMatrix in="SourceAlpha" type="matrix" values="0 0 0 0 0 0 0 0 0 0 0 0 0 0 0 0 0 0 127 0" result="hardAlpha"/>
<feOffset dy="4"/>
<feGaussianBlur stdDeviation="2"/>
<feComposite in2="hardAlpha" operator="out"/>
<feColorMatrix type="matrix" values="0 0 0 0 0 0 0 0 0 0 0 0 0 0 0 0 0 0 0.25 0"/>
<feBlend mode="normal" in2="BackgroundImageFix" result="effect1_dropShadow_112_334"/>
<feBlend mode="normal" in="SourceGraphic" in2="effect1_dropShadow_112_334" result="shape"/>
</filter>
<filter id="filter2_d_112_334" x="965.766" y="1994.19" width="10.5244" height="10.5249" filterUnits="userSpaceOnUse" color-interpolation-filters="sRGB">
<feFlood flood-opacity="0" result="BackgroundImageFix"/>
<feColorMatrix in="SourceAlpha" type="matrix" values="0 0 0 0 0 0 0 0 0 0 0 0 0 0 0 0 0 0 127 0" result="hardAlpha"/>
<feOffset dy="4"/>
<feGaussianBlur stdDeviation="2"/>
<feComposite in2="hardAlpha" operator="out"/>
<feColorMatrix type="matrix" values="0 0 0 0 0 0 0 0 0 0 0 0 0 0 0 0 0 0 0.25 0"/>
<feBlend mode="normal" in2="BackgroundImageFix" result="effect1_dropShadow_112_334"/>
<feBlend mode="normal" in="SourceGraphic" in2="effect1_dropShadow_112_334" result="shape"/>
</filter>
<filter id="filter3_d_112_334" x="968.266" y="2001.79" width="10.5244" height="10.5249" filterUnits="userSpaceOnUse" color-interpolation-filters="sRGB">
<feFlood flood-opacity="0" result="BackgroundImageFix"/>
<feColorMatrix in="SourceAlpha" type="matrix" values="0 0 0 0 0 0 0 0 0 0 0 0 0 0 0 0 0 0 127 0" result="hardAlpha"/>
<feOffset dy="4"/>
<feGaussianBlur stdDeviation="2"/>
<feComposite in2="hardAlpha" operator="out"/>
<feColorMatrix type="matrix" values="0 0 0 0 0 0 0 0 0 0 0 0 0 0 0 0 0 0 0.25 0"/>
<feBlend mode="normal" in2="BackgroundImageFix" result="effect1_dropShadow_112_334"/>
<feBlend mode="normal" in="SourceGraphic" in2="effect1_dropShadow_112_334" result="shape"/>
</filter>
<filter id="filter4_d_112_334" x="2725.46" y="113.041" width="10.5254" height="10.5247" filterUnits="userSpaceOnUse" color-interpolation-filters="sRGB">
<feFlood flood-opacity="0" result="BackgroundImageFix"/>
<feColorMatrix in="SourceAlpha" type="matrix" values="0 0 0 0 0 0 0 0 0 0 0 0 0 0 0 0 0 0 127 0" result="hardAlpha"/>
<feOffset dy="4"/>
<feGaussianBlur stdDeviation="2"/>
<feComposite in2="hardAlpha" operator="out"/>
<feColorMatrix type="matrix" values="0 0 0 0 0 0 0 0 0 0 0 0 0 0 0 0 0 0 0.25 0"/>
<feBlend mode="normal" in2="BackgroundImageFix" result="effect1_dropShadow_112_334"/>
<feBlend mode="normal" in="SourceGraphic" in2="effect1_dropShadow_112_334" result="shape"/>
</filter>
<filter id="filter5_d_112_334" x="2728.27" y="121.59" width="10.5254" height="10.5247" filterUnits="userSpaceOnUse" color-interpolation-filters="sRGB">
<feFlood flood-opacity="0" result="BackgroundImageFix"/>
<feColorMatrix in="SourceAlpha" type="matrix" values="0 0 0 0 0 0 0 0 0 0 0 0 0 0 0 0 0 0 127 0" result="hardAlpha"/>
<feOffset dy="4"/>
<feGaussianBlur stdDeviation="2"/>
<feComposite in2="hardAlpha" operator="out"/>
<feColorMatrix type="matrix" values="0 0 0 0 0 0 0 0 0 0 0 0 0 0 0 0 0 0 0.25 0"/>
<feBlend mode="normal" in2="BackgroundImageFix" result="effect1_dropShadow_112_334"/>
<feBlend mode="normal" in="SourceGraphic" in2="effect1_dropShadow_112_334" result="shape"/>
</filter>
<filter id="filter6_d_112_334" x="2730.77" y="129.19" width="10.5254" height="10.5247" filterUnits="userSpaceOnUse" color-interpolation-filters="sRGB">
<feFlood flood-opacity="0" result="BackgroundImageFix"/>
<feColorMatrix in="SourceAlpha" type="matrix" values="0 0 0 0 0 0 0 0 0 0 0 0 0 0 0 0 0 0 127 0" result="hardAlpha"/>
<feOffset dy="4"/>
<feGaussianBlur stdDeviation="2"/>
<feComposite in2="hardAlpha" operator="out"/>
<feColorMatrix type="matrix" values="0 0 0 0 0 0 0 0 0 0 0 0 0 0 0 0 0 0 0.25 0"/>
<feBlend mode="normal" in2="BackgroundImageFix" result="effect1_dropShadow_112_334"/>
<feBlend mode="normal" in="SourceGraphic" in2="effect1_dropShadow_112_334" result="shape"/>
</filter>
<filter id="filter7_d_112_334" x="2733.27" y="136.789" width="10.5254" height="10.5247" filterUnits="userSpaceOnUse" color-interpolation-filters="sRGB">
<feFlood flood-opacity="0" result="BackgroundImageFix"/>
<feColorMatrix in="SourceAlpha" type="matrix" values="0 0 0 0 0 0 0 0 0 0 0 0 0 0 0 0 0 0 127 0" result="hardAlpha"/>
<feOffset dy="4"/>
<feGaussianBlur stdDeviation="2"/>
<feComposite in2="hardAlpha" operator="out"/>
<feColorMatrix type="matrix" values="0 0 0 0 0 0 0 0 0 0 0 0 0 0 0 0 0 0 0.25 0"/>
<feBlend mode="normal" in2="BackgroundImageFix" result="effect1_dropShadow_112_334"/>
<feBlend mode="normal" in="SourceGraphic" in2="effect1_dropShadow_112_334" result="shape"/>
</filter>
<filter id="filter8_d_112_334" x="975.454" y="281.041" width="10.5244" height="10.5247" filterUnits="userSpaceOnUse" color-interpolation-filters="sRGB">
<feFlood flood-opacity="0" result="BackgroundImageFix"/>
<feColorMatrix in="SourceAlpha" type="matrix" values="0 0 0 0 0 0 0 0 0 0 0 0 0 0 0 0 0 0 127 0" result="hardAlpha"/>
<feOffset dy="4"/>
<feGaussianBlur stdDeviation="2"/>
<feComposite in2="hardAlpha" operator="out"/>
<feColorMatrix type="matrix" values="0 0 0 0 0 0 0 0 0 0 0 0 0 0 0 0 0 0 0.25 0"/>
<feBlend mode="normal" in2="BackgroundImageFix" result="effect1_dropShadow_112_334"/>
<feBlend mode="normal" in="SourceGraphic" in2="effect1_dropShadow_112_334" result="shape"/>
</filter>
<filter id="filter9_d_112_334" x="978.267" y="289.59" width="10.5244" height="10.5247" filterUnits="userSpaceOnUse" color-interpolation-filters="sRGB">
<feFlood flood-opacity="0" result="BackgroundImageFix"/>
<feColorMatrix in="SourceAlpha" type="matrix" values="0 0 0 0 0 0 0 0 0 0 0 0 0 0 0 0 0 0 127 0" result="hardAlpha"/>
<feOffset dy="4"/>
<feGaussianBlur stdDeviation="2"/>
<feComposite in2="hardAlpha" operator="out"/>
<feColorMatrix type="matrix" values="0 0 0 0 0 0 0 0 0 0 0 0 0 0 0 0 0 0 0.25 0"/>
<feBlend mode="normal" in2="BackgroundImageFix" result="effect1_dropShadow_112_334"/>
<feBlend mode="normal" in="SourceGraphic" in2="effect1_dropShadow_112_334" result="shape"/>
</filter>
<filter id="filter10_d_112_334" x="980.766" y="297.19" width="10.5244" height="10.5247" filterUnits="userSpaceOnUse" color-interpolation-filters="sRGB">
<feFlood flood-opacity="0" result="BackgroundImageFix"/>
<feColorMatrix in="SourceAlpha" type="matrix" values="0 0 0 0 0 0 0 0 0 0 0 0 0 0 0 0 0 0 127 0" result="hardAlpha"/>
<feOffset dy="4"/>
<feGaussianBlur stdDeviation="2"/>
<feComposite in2="hardAlpha" operator="out"/>
<feColorMatrix type="matrix" values="0 0 0 0 0 0 0 0 0 0 0 0 0 0 0 0 0 0 0.25 0"/>
<feBlend mode="normal" in2="BackgroundImageFix" result="effect1_dropShadow_112_334"/>
<feBlend mode="normal" in="SourceGraphic" in2="effect1_dropShadow_112_334" result="shape"/>
</filter>
<filter id="filter11_d_112_334" x="983.266" y="304.789" width="10.5244" height="10.5247" filterUnits="userSpaceOnUse" color-interpolation-filters="sRGB">
<feFlood flood-opacity="0" result="BackgroundImageFix"/>
<feColorMatrix in="SourceAlpha" type="matrix" values="0 0 0 0 0 0 0 0 0 0 0 0 0 0 0 0 0 0 127 0" result="hardAlpha"/>
<feOffset dy="4"/>
<feGaussianBlur stdDeviation="2"/>
<feComposite in2="hardAlpha" operator="out"/>
<feColorMatrix type="matrix" values="0 0 0 0 0 0 0 0 0 0 0 0 0 0 0 0 0 0 0.25 0"/>
<feBlend mode="normal" in2="BackgroundImageFix" result="effect1_dropShadow_112_334"/>
<feBlend mode="normal" in="SourceGraphic" in2="effect1_dropShadow_112_334" result="shape"/>
</filter>
<filter id="filter12_d_112_334" x="2049.45" y="167.041" width="10.5244" height="10.5247" filterUnits="userSpaceOnUse" color-interpolation-filters="sRGB">
<feFlood flood-opacity="0" result="BackgroundImageFix"/>
<feColorMatrix in="SourceAlpha" type="matrix" values="0 0 0 0 0 0 0 0 0 0 0 0 0 0 0 0 0 0 127 0" result="hardAlpha"/>
<feOffset dy="4"/>
<feGaussianBlur stdDeviation="2"/>
<feComposite in2="hardAlpha" operator="out"/>
<feColorMatrix type="matrix" values="0 0 0 0 0 0 0 0 0 0 0 0 0 0 0 0 0 0 0.25 0"/>
<feBlend mode="normal" in2="BackgroundImageFix" result="effect1_dropShadow_112_334"/>
<feBlend mode="normal" in="SourceGraphic" in2="effect1_dropShadow_112_334" result="shape"/>
</filter>
<filter id="filter13_d_112_334" x="2052.27" y="175.59" width="10.5244" height="10.5247" filterUnits="userSpaceOnUse" color-interpolation-filters="sRGB">
<feFlood flood-opacity="0" result="BackgroundImageFix"/>
<feColorMatrix in="SourceAlpha" type="matrix" values="0 0 0 0 0 0 0 0 0 0 0 0 0 0 0 0 0 0 127 0" result="hardAlpha"/>
<feOffset dy="4"/>
<feGaussianBlur stdDeviation="2"/>
<feComposite in2="hardAlpha" operator="out"/>
<feColorMatrix type="matrix" values="0 0 0 0 0 0 0 0 0 0 0 0 0 0 0 0 0 0 0.25 0"/>
<feBlend mode="normal" in2="BackgroundImageFix" result="effect1_dropShadow_112_334"/>
<feBlend mode="normal" in="SourceGraphic" in2="effect1_dropShadow_112_334" result="shape"/>
</filter>
<filter id="filter14_d_112_334" x="2054.77" y="183.19" width="10.5244" height="10.5247" filterUnits="userSpaceOnUse" color-interpolation-filters="sRGB">
<feFlood flood-opacity="0" result="BackgroundImageFix"/>
<feColorMatrix in="SourceAlpha" type="matrix" values="0 0 0 0 0 0 0 0 0 0 0 0 0 0 0 0 0 0 127 0" result="hardAlpha"/>
<feOffset dy="4"/>
<feGaussianBlur stdDeviation="2"/>
<feComposite in2="hardAlpha" operator="out"/>
<feColorMatrix type="matrix" values="0 0 0 0 0 0 0 0 0 0 0 0 0 0 0 0 0 0 0.25 0"/>
<feBlend mode="normal" in2="BackgroundImageFix" result="effect1_dropShadow_112_334"/>
<feBlend mode="normal" in="SourceGraphic" in2="effect1_dropShadow_112_334" result="shape"/>
</filter>
<filter id="filter15_d_112_334" x="2057.27" y="190.789" width="10.5244" height="10.5247" filterUnits="userSpaceOnUse" color-interpolation-filters="sRGB">
<feFlood flood-opacity="0" result="BackgroundImageFix"/>
<feColorMatrix in="SourceAlpha" type="matrix" values="0 0 0 0 0 0 0 0 0 0 0 0 0 0 0 0 0 0 127 0" result="hardAlpha"/>
<feOffset dy="4"/>
<feGaussianBlur stdDeviation="2"/>
<feComposite in2="hardAlpha" operator="out"/>
<feColorMatrix type="matrix" values="0 0 0 0 0 0 0 0 0 0 0 0 0 0 0 0 0 0 0.25 0"/>
<feBlend mode="normal" in2="BackgroundImageFix" result="effect1_dropShadow_112_334"/>
<feBlend mode="normal" in="SourceGraphic" in2="effect1_dropShadow_112_334" result="shape"/>
</filter>
</defs>
</svg>
