<svg width="440" height="440" viewBox="0 0 440 440" fill="none" xmlns="http://www.w3.org/2000/svg">
<path d="M94.5611 43.9881L151.444 49.2597C154.197 49.5147 156.914 48.4907 158.814 46.4824L198.068 4.97888C198.41 4.61723 198.966 4.56223 199.373 4.84984L245.999 37.8567C248.256 39.4539 251.121 39.9257 253.77 39.1362L308.517 22.8205C308.994 22.6783 309.503 22.9087 309.711 23.3609L333.588 75.259C334.743 77.7703 336.988 79.6113 339.677 80.2522L395.248 93.4962C395.732 93.6116 396.058 94.0656 396.012 94.5612L390.74 151.445C390.485 154.197 391.509 156.914 393.518 158.814L435.021 198.069C435.383 198.411 435.438 198.967 435.15 199.373L402.143 245.999C400.546 248.256 400.074 251.121 400.864 253.77L417.18 308.517C417.322 308.994 417.091 309.503 416.639 309.712L364.741 333.588C362.23 334.743 360.389 336.989 359.748 339.678L346.504 395.248C346.389 395.732 345.935 396.058 345.439 396.012L288.556 390.741C285.803 390.485 283.086 391.509 281.186 393.518L241.932 435.021C241.59 435.383 241.034 435.438 240.627 435.15L194.001 402.143C191.744 400.546 188.879 400.075 186.23 400.864L131.483 417.18C131.006 417.322 130.497 417.092 130.289 416.639L106.412 364.741C105.257 362.23 103.012 360.389 100.323 359.748L44.7519 346.504C44.2677 346.389 43.9421 345.935 43.988 345.439L49.2596 288.556C49.5147 285.803 48.4907 283.086 46.4823 281.187L4.97877 241.932C4.61712 241.59 4.56212 241.034 4.84973 240.627L37.8566 194.001C39.4538 191.745 39.9255 188.88 39.136 186.23L22.8204 131.483C22.6782 131.006 22.9086 130.497 23.3608 130.289L75.2589 106.412C77.7702 105.257 79.6113 103.012 80.2521 100.323L93.4961 44.752C93.6115 44.2678 94.0655 43.9422 94.5611 43.9881Z" fill="black" stroke="#FCE969" stroke-width="8"/>
</svg>
