<svg width="2962" height="1377" viewBox="0 0 2962 1377" fill="none" xmlns="http://www.w3.org/2000/svg">
<path d="M2962 0H0V1377H2962V0Z" fill="white"/>
<path d="M2622.11 223.077C2652.55 234.593 2686.56 219.253 2698.08 188.815C2709.59 158.378 2694.25 124.367 2663.82 112.851C2633.38 101.335 2599.37 116.675 2587.85 147.113C2576.34 177.551 2591.68 211.561 2622.11 223.077Z" stroke="black" stroke-opacity="0.1" stroke-width="2"/>
<path d="M2616.42 190.17L2613.46 192.675L2613.48 192.695L2616.42 190.17ZM2609.26 174.428L2605.43 175.017V175.044L2609.26 174.428ZM2637.46 134.187L2636.92 130.341L2636.9 130.345L2637.46 134.187ZM2668.88 145.186L2666.03 147.798L2666.04 147.831L2666.08 147.862L2668.88 145.186ZM2675.54 158.271L2676.43 162.048L2680 161.19L2679.32 157.558L2675.54 158.271ZM2667.59 160.184L2663.82 161.054L2664.71 164.872L2668.5 163.961L2667.59 160.184ZM2662.34 150.237L2659.5 152.872L2659.54 152.9L2659.56 152.929L2662.34 150.237ZM2639.45 142.339L2640.01 146.182V146.18L2640.02 146.178L2639.45 142.339ZM2627.73 147.749L2625.24 144.79L2625.2 144.809L2625.18 144.831L2627.73 147.749ZM2618.04 173.523L2614.22 174.017V174.065V174.114L2618.04 173.523ZM2623.25 185.375L2620.26 187.834L2620.3 187.873L2620.34 187.912L2623.25 185.375ZM2656.1 190.753L2659.25 188.52L2657.03 185.313L2653.85 187.593L2656.1 190.753ZM2660.79 197.472L2663.17 200.533L2666.06 198.261L2663.96 195.239L2660.79 197.472ZM2647.15 202.968L2647.48 206.836L2647.51 206.834L2647.53 206.831L2647.15 202.968ZM2632.92 196.963C2627.27 194.812 2622.79 191.693 2619.35 187.646L2613.48 192.695C2617.85 197.833 2623.46 201.663 2630.2 204.228L2632.92 196.963ZM2619.35 187.667C2615.99 183.647 2613.91 179.054 2613.06 173.813L2605.43 175.044C2606.5 181.668 2609.18 187.57 2613.46 192.675L2619.35 187.667ZM2613.08 173.84C2612.27 168.54 2612.87 163.132 2614.97 157.553L2607.73 154.803C2605.2 161.53 2604.41 168.29 2605.43 175.017L2613.08 173.84ZM2614.97 157.553C2617.05 151.971 2620.14 147.567 2624.2 144.221L2619.29 138.222C2614.1 142.51 2610.26 148.078 2607.73 154.803L2614.97 157.553ZM2624.2 144.221C2628.27 140.85 2632.86 138.799 2638.04 138.03L2636.9 130.345C2630.33 131.322 2624.45 133.961 2619.29 138.222L2624.2 144.221ZM2638 138.034C2643.25 137.292 2648.65 137.942 2654.31 140.094L2657.05 132.829C2650.31 130.264 2643.58 129.4 2636.92 130.341L2638 138.034ZM2654.31 140.094C2659.23 141.964 2663.09 144.553 2666.03 147.798L2671.74 142.572C2667.88 138.298 2662.94 135.07 2657.05 132.829L2654.31 140.094ZM2666.08 147.862C2669.07 151.031 2670.95 154.711 2671.74 158.984L2679.32 157.558C2678.26 151.804 2675.7 146.761 2671.68 142.51L2666.08 147.862ZM2674.63 154.494L2666.7 156.407L2668.5 163.961L2676.43 162.048L2674.63 154.494ZM2671.35 159.312C2670.31 154.766 2668.24 150.81 2665.14 147.546L2659.56 152.929C2661.66 155.119 2663.09 157.795 2663.82 161.054L2671.35 159.312ZM2665.18 147.602C2662.18 144.33 2658.52 141.885 2654.25 140.261L2651.51 147.526C2654.71 148.746 2657.36 150.53 2659.5 152.872L2665.18 147.602ZM2654.25 140.261C2649.15 138.319 2644 137.704 2638.85 138.5L2640.02 146.178C2643.75 145.6 2647.55 146.021 2651.51 147.526L2654.25 140.261ZM2638.89 138.496C2633.81 139.244 2629.23 141.37 2625.24 144.79L2630.24 150.711C2633.17 148.19 2636.42 146.709 2640.01 146.182L2638.89 138.496ZM2625.18 144.831C2621.26 148.301 2618.31 152.756 2616.32 158.069L2623.54 160.817C2625.14 156.541 2627.42 153.199 2630.28 150.67L2625.18 144.831ZM2616.32 158.069C2614.29 163.45 2613.54 168.787 2614.22 174.017L2621.86 173.032C2621.38 169.238 2621.9 165.185 2623.54 160.817L2616.32 158.069ZM2614.22 174.114C2615.01 179.25 2617.04 183.849 2620.26 187.834L2626.24 182.917C2623.89 180.025 2622.44 176.722 2621.86 172.933L2614.22 174.114ZM2620.34 187.912C2623.69 191.833 2627.96 194.744 2633.04 196.676L2635.76 189.411C2631.78 187.896 2628.62 185.696 2626.18 182.839L2620.34 187.912ZM2633.04 196.676C2637.26 198.29 2641.59 198.942 2645.93 198.583L2645.31 190.84C2642.17 191.1 2639 190.64 2635.76 189.411L2633.04 196.676ZM2645.93 198.583C2650.43 198.214 2654.58 196.625 2658.34 193.91L2653.85 187.593C2651.14 189.541 2648.32 190.594 2645.31 190.84L2645.93 198.583ZM2652.94 192.986L2657.63 199.705L2663.96 195.239L2659.25 188.52L2652.94 192.986ZM2658.42 194.41C2655 197.093 2651.14 198.651 2646.76 199.103L2647.53 206.831C2653.36 206.232 2658.59 204.127 2663.17 200.533L2658.42 194.41ZM2646.82 199.098C2642.38 199.486 2637.77 198.808 2632.92 196.963L2630.2 204.228C2635.99 206.436 2641.76 207.337 2647.48 206.836L2646.82 199.098Z" fill="black" fill-opacity="0.1"/>
<path d="M629 1140.24L646.197 1146.64M646.197 1146.64L670.474 1155.66M646.197 1146.64L673.928 1071.53M757.463 1188L740.269 1181.61M740.269 1181.61L768 1106.5L743.723 1097.47M740.269 1181.61L715.991 1172.58M743.723 1097.47L715.991 1172.58M743.723 1097.47L751.968 1075.14L729.715 1066.87M715.991 1172.58L693.738 1164.31M729.715 1066.87L735.335 1051.65L712.069 1043L706.449 1058.23M729.715 1066.87L725.592 1078.04M693.738 1164.31L670.474 1155.66M693.738 1164.31L725.592 1078.04M670.474 1155.66L698.203 1080.55M725.592 1078.04L702.326 1069.39M706.449 1058.23L682.172 1049.2L673.928 1071.53M706.449 1058.23L702.326 1069.39M673.928 1071.53L698.203 1080.55M702.326 1069.39L698.203 1080.55M732.597 1093.34L717.98 1132.92" stroke="black" stroke-opacity="0.1" stroke-width="2"/>
<path d="M737 1140L745 1143" stroke="black" stroke-opacity="0.1" stroke-width="2"/>
<path d="M739 1134L748 1137" stroke="black" stroke-opacity="0.1" stroke-width="2"/>
<path d="M716 1137L713 1147" stroke="black" stroke-opacity="0.1" stroke-width="2"/>
<path d="M1460 826L1398 764" stroke="black" stroke-opacity="0.1" stroke-width="2"/>
<path d="M1437 849L1375 786" stroke="black" stroke-opacity="0.1" stroke-width="2"/>
<path d="M1416 870L1353 808" stroke="black" stroke-opacity="0.1" stroke-width="2"/>
<path fill-rule="evenodd" clip-rule="evenodd" d="M1481 820.29L1407.6 746.876C1402.42 741.708 1394.03 741.708 1388.86 746.876L1382.61 753.126C1379.35 756.395 1378.14 760.923 1378.99 765.119C1374.79 764.28 1370.25 765.495 1366.99 768.741L1360.75 774.992C1357.49 778.26 1356.28 782.788 1357.13 786.985C1352.92 786.145 1348.39 787.36 1345.13 790.607L1338.88 796.857C1333.71 802.025 1333.71 810.418 1338.88 815.608L1412.28 889L1415.41 885.886L1342 812.472C1338.55 809.026 1338.55 803.439 1342 799.971L1348.25 793.743C1351.7 790.275 1357.3 790.275 1360.75 793.743L1434.15 867.135L1437.27 864.021L1363.87 790.607C1360.42 787.161 1360.42 781.573 1363.87 778.106L1370.12 771.878C1373.57 768.41 1379.16 768.41 1382.61 771.878L1456.01 845.27L1459.13 842.156L1385.73 768.741C1382.28 765.296 1382.28 759.708 1385.73 756.263L1391.98 750.012C1395.43 746.545 1401.03 746.545 1404.48 750.012L1477.88 823.404L1481 820.29Z" fill="black" fill-opacity="0.1"/>
<path fill-rule="evenodd" clip-rule="evenodd" d="M2040.43 413.133C2052.96 406.157 2067.75 407.351 2077.49 410.498L2077.75 410.58L2077.99 410.728L2097.37 423.489C2097.67 423.32 2097.95 423.178 2098.24 423.059C2099.11 422.697 2100.14 422.477 2101.19 422.344C2103.28 422.083 2105.85 422.136 2108.54 422.364C2113.94 422.819 2120.18 424.008 2124.91 425.095C2127.59 425.717 2128.78 428.824 2127.3 431.088L2121.76 439.525L2141.83 452.716C2143.47 453.803 2144.04 455.934 2143.25 457.695C2137.95 469.356 2135.76 477.213 2135.11 482.238C2134.79 484.751 2134.87 486.476 2135.09 487.579C2135.26 488.502 2135.52 488.813 2135.56 488.869C2135.56 488.874 2135.56 488.878 2135.56 488.878L2142.22 493.252C2144.53 494.781 2144.61 498.179 2142.34 499.793L2104.89 526.416L2104.35 525.667L2103.48 527L2082.83 513.415L2085 510.104L2103.7 522.403L2140.05 496.563L2133.39 492.178C2132.2 491.398 2131.53 489.96 2131.21 488.365C2130.88 486.7 2130.84 484.511 2131.19 481.731C2131.9 476.163 2134.27 467.904 2139.65 456.057V456.049V456.043C2139.65 456.039 2139.65 456.033 2139.65 456.033V456.027V456.023L2117.95 441.751L2116.29 440.664L2117.38 439.008L2123.96 428.943C2119.33 427.88 2113.32 426.743 2108.21 426.311C2105.64 426.093 2103.38 426.062 2101.68 426.275C2100.83 426.382 2100.18 426.541 2099.75 426.721C2099.31 426.903 2099.19 427.05 2099.19 427.054L2098.11 428.709L2096.47 427.622L2076.03 414.188C2066.92 411.306 2053.5 410.389 2042.37 416.595C2031.28 422.762 2021.91 436.297 2021.68 463.623L2017.72 463.589C2017.96 435.323 2027.74 420.199 2040.43 413.133ZM2061.76 518.509L2062.85 516.854L2072.61 501.952L2036.24 478.045L2032.45 483.84L2031.36 485.496L2029.72 484.408L2022.29 479.518L2013.91 492.305L2040.47 493.242L2042.37 490.36C2043.52 491.111 2044.52 491.984 2045.39 492.95C2045.53 493.109 2045.69 493.267 2045.81 493.43L2046.26 493.446L2046.07 493.737C2050.2 498.946 2050.75 506.43 2046.92 512.3L2042.57 518.923C2038.54 525.095 2030.93 527.511 2024.25 525.231C2023.02 524.81 2021.82 524.225 2020.67 523.475L2022.84 520.163L2022.98 519.945L2008.61 495.155L2008 494.097L2008.67 493.073L2020.06 475.688L2028.73 462.442L2040.67 444.229L2041.32 443.239L2042.49 443.344L2071.46 445.934L2071.64 445.655L2073.82 442.344C2074.96 443.094 2075.97 443.966 2076.86 444.934C2081.58 450.155 2082.41 458.111 2078.36 464.282L2074.03 470.905C2069.98 477.078 2062.37 479.493 2055.71 477.215C2054.47 476.791 2053.26 476.209 2052.13 475.458L2054.29 472.147L2054.49 471.866L2042.15 449.169L2033.12 462.961L2040.57 467.851L2042.21 468.938L2041.13 470.594L2038.42 474.733L2074.76 498.641L2083.44 485.395L2084.53 483.739L2086.19 484.826L2090.32 487.544L2088.14 490.855L2085.67 489.225L2067.23 517.373L2069.7 519.003L2067.53 522.314L2063.4 519.597L2061.76 518.509ZM2045.81 447.618L2056.94 468.11L2069.01 449.691L2045.81 447.618ZM2070.71 468.732C2068.08 472.741 2063.46 474.638 2059.01 473.963L2075.2 449.272C2077.57 453.086 2077.69 458.101 2075.06 462.109L2070.71 468.732ZM2037.94 497.116L2013.83 496.266L2025.41 516.242L2037.94 497.116ZM2027.57 521.979L2043.73 497.29C2046.13 501.102 2046.22 506.117 2043.62 510.126L2039.27 516.749C2036.64 520.759 2032.01 522.655 2027.57 521.979ZM2030.23 480.01L2024.44 476.207L2030.97 466.273L2036.74 470.075L2034.03 474.215L2030.23 480.01Z" fill="black" fill-opacity="0.1"/>
<path d="M330 223.608L289.112 152L215 194.411L266.726 285L321.878 253.436M330 223.608L311.041 234.458L321.878 253.436M330 223.608L321.878 253.436" stroke="black" stroke-opacity="0.1" stroke-width="2"/>
<path d="M243.614 281L190 186.582L264 144" stroke="black" stroke-opacity="0.1" stroke-width="2"/>
<g filter="url(#filter0_d_350_229)">
<path d="M240.216 200.501L236.762 202.476L238.736 205.929L242.19 203.955L240.216 200.501Z" fill="black" fill-opacity="0.1"/>
</g>
<g filter="url(#filter1_d_350_229)">
<path d="M249.094 216.041L245.641 218.016L247.615 221.469L251.069 219.495L249.094 216.041Z" fill="black" fill-opacity="0.1"/>
</g>
<g filter="url(#filter2_d_350_229)">
<path d="M256.989 229.859L253.535 231.833L255.509 235.287L258.963 233.313L256.989 229.859Z" fill="black" fill-opacity="0.1"/>
</g>
<g filter="url(#filter3_d_350_229)">
<path d="M264.891 243.674L261.438 245.648L263.412 249.102L266.866 247.128L264.891 243.674Z" fill="black" fill-opacity="0.1"/>
</g>
<path d="M251 198L286 178" stroke="black" stroke-opacity="0.1" stroke-width="2"/>
<path d="M259 212L294 192" stroke="black" stroke-opacity="0.1" stroke-width="2"/>
<path d="M268 227L303 207" stroke="black" stroke-opacity="0.1" stroke-width="2"/>
<path d="M276 241L311 221" stroke="black" stroke-opacity="0.1" stroke-width="2"/>
<path d="M2765.14 1245.02L2820 1182.77L2755.41 1126L2686 1204.76L2734.08 1247M2765.14 1245.02L2748.61 1230.5L2734.08 1247M2765.14 1245.02L2734.08 1247" stroke="black" stroke-opacity="0.1" stroke-width="2"/>
<path d="M2683 1182L2754.71 1100L2819 1156.93" stroke="black" stroke-opacity="0.1" stroke-width="2"/>
<g filter="url(#filter4_d_350_229)">
<path d="M2758 1152.42L2755.01 1149.78L2752.37 1152.77L2755.37 1155.41L2758 1152.42Z" fill="black" fill-opacity="0.1"/>
</g>
<g filter="url(#filter5_d_350_229)">
<path d="M2746.16 1165.88L2743.17 1163.25L2740.54 1166.24L2743.53 1168.88L2746.16 1165.88Z" fill="black" fill-opacity="0.1"/>
</g>
<g filter="url(#filter6_d_350_229)">
<path d="M2735.61 1177.85L2732.62 1175.22L2729.99 1178.21L2732.98 1180.85L2735.61 1177.85Z" fill="black" fill-opacity="0.1"/>
</g>
<g filter="url(#filter7_d_350_229)">
<path d="M2725.09 1189.83L2722.1 1187.19L2719.47 1190.19L2722.46 1192.82L2725.09 1189.83Z" fill="black" fill-opacity="0.1"/>
</g>
<path d="M2764 1162L2794 1188" stroke="black" stroke-opacity="0.1" stroke-width="2"/>
<path d="M2754 1174L2784 1200" stroke="black" stroke-opacity="0.1" stroke-width="2"/>
<path d="M2742 1187L2772 1214" stroke="black" stroke-opacity="0.1" stroke-width="2"/>
<path d="M2731 1199L2761 1226" stroke="black" stroke-opacity="0.1" stroke-width="2"/>
<path d="M1240.62 222L1250.62 218" stroke="black" stroke-opacity="0.1" stroke-width="2"/>
<mask id="mask0_350_229" style="mask-type:luminance" maskUnits="userSpaceOnUse" x="1122" y="105" width="128" height="146">
<path fill-rule="evenodd" clip-rule="evenodd" d="M1130.93 134.653C1123.67 137.533 1120.12 145.749 1123 153.005L1158.19 241.687C1161.07 248.943 1169.29 252.491 1176.55 249.611L1181.47 247.655L1180.17 244.371L1175.24 246.327C1169.8 248.486 1163.64 245.825 1161.48 240.383C1159.32 234.941 1161.98 228.778 1167.42 226.619L1172.35 224.665L1171.04 221.38L1166.12 223.335C1162.19 224.893 1159.35 228.01 1158.03 231.694L1126.29 151.701C1124.13 146.259 1126.79 140.097 1132.23 137.938L1203.67 109.588L1246.68 217.978L1249.96 216.674L1206.3 106.641L1205.65 105L1204.01 105.652L1130.93 134.653Z" fill="white"/>
</mask>
<g mask="url(#mask0_350_229)">
<path d="M1181.47 247.656L1182.77 250.94L1186.06 249.638L1184.75 246.354L1181.47 247.656ZM1180.17 244.371L1183.45 243.069L1182.15 239.784L1178.86 241.087L1180.17 244.371ZM1172.35 224.666L1173.65 227.95L1176.93 226.646L1175.63 223.362L1172.35 224.666ZM1171.04 221.381L1174.33 220.077L1173.02 216.793L1169.74 218.096L1171.04 221.381ZM1158.03 231.694L1154.74 232.996L1158.19 241.682L1161.35 232.89L1158.03 231.694ZM1203.67 109.589L1206.95 108.285L1205.65 105.001L1202.36 106.305L1203.67 109.589ZM1246.68 217.978L1243.39 219.28L1244.7 222.565L1247.98 221.263L1246.68 217.978ZM1249.96 216.674L1251.27 219.959L1254.55 218.655L1253.25 215.37L1249.96 216.674ZM1205.65 105.001L1208.93 103.697L1207.63 100.412L1204.34 101.716L1205.65 105.001ZM1126.28 151.702C1124.13 146.26 1126.79 140.097 1132.23 137.938L1129.62 131.369C1120.55 134.968 1116.12 145.239 1119.72 154.308L1126.28 151.702ZM1161.48 240.384L1126.28 151.702L1119.72 154.308L1154.91 242.991L1161.48 240.384ZM1175.24 246.327C1169.8 248.486 1163.64 245.825 1161.48 240.384L1154.91 242.991C1158.51 252.061 1168.78 256.495 1177.85 252.896L1175.24 246.327ZM1180.17 244.371L1175.24 246.327L1177.85 252.896L1182.77 250.94L1180.17 244.371ZM1184.75 246.354L1183.45 243.069L1176.88 245.675L1178.19 248.96L1184.75 246.354ZM1178.86 241.087L1173.94 243.043L1176.54 249.612L1181.47 247.656L1178.86 241.087ZM1173.94 243.043C1170.31 244.483 1166.2 242.709 1164.76 239.08L1158.19 241.687C1161.07 248.944 1169.29 252.492 1176.54 249.612L1173.94 243.043ZM1164.76 239.08C1163.32 235.452 1165.1 231.344 1168.72 229.904L1166.12 223.335C1158.86 226.215 1155.31 234.431 1158.19 241.687L1164.76 239.08ZM1168.72 229.904L1173.65 227.95L1171.04 221.381L1166.12 223.335L1168.72 229.904ZM1175.63 223.362L1174.33 220.077L1167.76 222.683L1169.06 225.968L1175.63 223.362ZM1167.42 226.62L1172.35 224.666L1169.74 218.096L1164.81 220.051L1167.42 226.62ZM1161.35 232.89C1162.35 230.12 1164.48 227.788 1167.42 226.62L1164.81 220.051C1159.91 221.998 1156.36 225.901 1154.7 230.498L1161.35 232.89ZM1123 153.006L1154.74 232.996L1161.31 230.39L1129.57 150.398L1123 153.006ZM1130.92 134.654C1123.67 137.534 1120.12 145.749 1123 153.006L1129.57 150.398C1128.13 146.771 1129.9 142.663 1133.53 141.223L1130.92 134.654ZM1202.36 106.305L1130.92 134.654L1133.53 141.223L1204.97 112.874L1202.36 106.305ZM1249.96 216.674L1206.95 108.285L1200.38 110.891L1243.39 219.28L1249.96 216.674ZM1248.66 213.39L1245.38 214.694L1247.98 221.263L1251.27 219.959L1248.66 213.39ZM1203.01 107.946L1246.68 217.978L1253.25 215.37L1209.58 105.34L1203.01 107.946ZM1202.36 106.305L1203.01 107.946L1209.58 105.34L1208.93 103.697L1202.36 106.305ZM1205.31 108.937L1206.95 108.285L1204.34 101.716L1202.7 102.368L1205.31 108.937ZM1132.23 137.938L1205.31 108.937L1202.7 102.368L1129.62 131.369L1132.23 137.938Z" fill="black" fill-opacity="0.1"/>
</g>
<path fill-rule="evenodd" clip-rule="evenodd" d="M1176.76 138.498C1175.42 138.062 1173.32 137.758 1171.2 138.261C1168.99 138.782 1166.78 140.184 1165.54 143.059L1165.25 143.73L1165.52 144.41L1168.85 152.781C1167.59 152.343 1165.82 152.094 1163.96 152.527C1161.77 153.035 1159.57 154.46 1158.01 157.321L1157.62 158.046L1157.92 158.816L1165.67 178.3C1163.3 178.455 1160.45 179.495 1158.62 182.703L1158.2 183.44L1158.51 184.229L1168.62 209.668L1168.65 209.737L1168.68 209.802C1169.57 211.593 1171.39 214.206 1174.05 216.477C1176.48 218.566 1179.7 220.423 1183.6 221.013L1186.47 228.242L1185.65 228.569L1182.36 229.872L1183.67 233.154L1186.28 239.719L1187.58 243L1190.87 241.699L1230.33 226.066L1233.62 224.765L1232.31 221.483L1229.7 214.918L1228.4 211.635L1225.11 212.936L1221.73 204.44C1222.11 202.847 1222.44 200.516 1222.41 197.97C1222.38 195.136 1221.9 191.876 1220.37 189.053L1206.38 153.865L1206.34 153.74L1206.27 153.623C1205.2 151.815 1203.22 149.329 1200.69 148.081C1199.39 147.436 1197.85 147.083 1196.21 147.429C1195.37 147.609 1194.55 147.962 1193.78 148.489L1191.47 142.677L1191.26 142.151L1190.78 141.844C1189.49 141.009 1187.31 140.158 1185 140.555C1182.96 140.906 1181.13 142.178 1179.86 144.586L1177.85 139.524L1177.54 138.756L1176.76 138.498ZM1221.82 214.24L1218.23 205.213L1218.01 204.666L1218.17 204.097C1218.52 202.831 1218.9 200.551 1218.87 198.009C1218.84 195.456 1218.4 192.798 1217.22 190.653L1217.16 190.557L1217.12 190.455L1203.15 155.299C1202.24 153.793 1200.74 152.041 1199.13 151.247C1198.34 150.86 1197.62 150.742 1196.95 150.885C1196.44 150.991 1195.83 151.275 1195.14 151.914L1203.54 173.039L1200.25 174.343L1191.44 152.186L1191.06 151.22L1188.41 144.551C1187.6 144.145 1186.56 143.871 1185.6 144.035C1184.71 144.187 1183.55 144.777 1182.68 146.892L1194.17 175.801L1194.82 177.443L1193.18 178.093L1191.54 178.745L1189.89 179.396L1189.24 177.756L1174.89 141.662C1174.07 141.507 1173.02 141.457 1172.01 141.697C1170.9 141.959 1169.84 142.561 1169.1 143.839L1183.48 180.035L1184.14 181.676L1182.49 182.327L1180.03 183.304L1178.38 183.955L1177.73 182.315L1167.27 155.993C1166.59 155.825 1165.69 155.751 1164.76 155.966C1163.72 156.21 1162.54 156.839 1161.54 158.326L1170.02 179.67L1174.91 191.979L1171.62 193.282L1167.08 181.845C1165.66 181.662 1163.56 181.941 1162.14 183.78L1171.88 208.294C1172.59 209.682 1174.11 211.875 1176.35 213.796C1178.62 215.737 1181.53 217.328 1185.01 217.626L1186.1 217.72L1186.5 218.733L1189.76 226.941L1221.82 214.24ZM1186.96 231.851L1226.41 216.219L1229.02 222.784L1189.57 238.416L1186.96 231.851Z" fill="black" fill-opacity="0.1"/>
<path d="M1229.62 200L1238.62 197" stroke="black" stroke-opacity="0.1" stroke-width="2"/>
<defs>
<filter id="filter0_d_350_229" x="232.762" y="200.501" width="13.4297" height="13.4287" filterUnits="userSpaceOnUse" color-interpolation-filters="sRGB">
<feFlood flood-opacity="0" result="BackgroundImageFix"/>
<feColorMatrix in="SourceAlpha" type="matrix" values="0 0 0 0 0 0 0 0 0 0 0 0 0 0 0 0 0 0 127 0" result="hardAlpha"/>
<feOffset dy="4"/>
<feGaussianBlur stdDeviation="2"/>
<feComposite in2="hardAlpha" operator="out"/>
<feColorMatrix type="matrix" values="0 0 0 0 0 0 0 0 0 0 0 0 0 0 0 0 0 0 0.25 0"/>
<feBlend mode="normal" in2="BackgroundImageFix" result="effect1_dropShadow_350_229"/>
<feBlend mode="normal" in="SourceGraphic" in2="effect1_dropShadow_350_229" result="shape"/>
</filter>
<filter id="filter1_d_350_229" x="241.641" y="216.041" width="13.4297" height="13.4287" filterUnits="userSpaceOnUse" color-interpolation-filters="sRGB">
<feFlood flood-opacity="0" result="BackgroundImageFix"/>
<feColorMatrix in="SourceAlpha" type="matrix" values="0 0 0 0 0 0 0 0 0 0 0 0 0 0 0 0 0 0 127 0" result="hardAlpha"/>
<feOffset dy="4"/>
<feGaussianBlur stdDeviation="2"/>
<feComposite in2="hardAlpha" operator="out"/>
<feColorMatrix type="matrix" values="0 0 0 0 0 0 0 0 0 0 0 0 0 0 0 0 0 0 0.25 0"/>
<feBlend mode="normal" in2="BackgroundImageFix" result="effect1_dropShadow_350_229"/>
<feBlend mode="normal" in="SourceGraphic" in2="effect1_dropShadow_350_229" result="shape"/>
</filter>
<filter id="filter2_d_350_229" x="249.535" y="229.858" width="13.4297" height="13.4287" filterUnits="userSpaceOnUse" color-interpolation-filters="sRGB">
<feFlood flood-opacity="0" result="BackgroundImageFix"/>
<feColorMatrix in="SourceAlpha" type="matrix" values="0 0 0 0 0 0 0 0 0 0 0 0 0 0 0 0 0 0 127 0" result="hardAlpha"/>
<feOffset dy="4"/>
<feGaussianBlur stdDeviation="2"/>
<feComposite in2="hardAlpha" operator="out"/>
<feColorMatrix type="matrix" values="0 0 0 0 0 0 0 0 0 0 0 0 0 0 0 0 0 0 0.25 0"/>
<feBlend mode="normal" in2="BackgroundImageFix" result="effect1_dropShadow_350_229"/>
<feBlend mode="normal" in="SourceGraphic" in2="effect1_dropShadow_350_229" result="shape"/>
</filter>
<filter id="filter3_d_350_229" x="257.438" y="243.674" width="13.4297" height="13.4287" filterUnits="userSpaceOnUse" color-interpolation-filters="sRGB">
<feFlood flood-opacity="0" result="BackgroundImageFix"/>
<feColorMatrix in="SourceAlpha" type="matrix" values="0 0 0 0 0 0 0 0 0 0 0 0 0 0 0 0 0 0 127 0" result="hardAlpha"/>
<feOffset dy="4"/>
<feGaussianBlur stdDeviation="2"/>
<feComposite in2="hardAlpha" operator="out"/>
<feColorMatrix type="matrix" values="0 0 0 0 0 0 0 0 0 0 0 0 0 0 0 0 0 0 0.25 0"/>
<feBlend mode="normal" in2="BackgroundImageFix" result="effect1_dropShadow_350_229"/>
<feBlend mode="normal" in="SourceGraphic" in2="effect1_dropShadow_350_229" result="shape"/>
</filter>
<filter id="filter4_d_350_229" x="2748.38" y="1149.78" width="13.625" height="13.627" filterUnits="userSpaceOnUse" color-interpolation-filters="sRGB">
<feFlood flood-opacity="0" result="BackgroundImageFix"/>
<feColorMatrix in="SourceAlpha" type="matrix" values="0 0 0 0 0 0 0 0 0 0 0 0 0 0 0 0 0 0 127 0" result="hardAlpha"/>
<feOffset dy="4"/>
<feGaussianBlur stdDeviation="2"/>
<feComposite in2="hardAlpha" operator="out"/>
<feColorMatrix type="matrix" values="0 0 0 0 0 0 0 0 0 0 0 0 0 0 0 0 0 0 0.25 0"/>
<feBlend mode="normal" in2="BackgroundImageFix" result="effect1_dropShadow_350_229"/>
<feBlend mode="normal" in="SourceGraphic" in2="effect1_dropShadow_350_229" result="shape"/>
</filter>
<filter id="filter5_d_350_229" x="2736.54" y="1163.25" width="13.625" height="13.627" filterUnits="userSpaceOnUse" color-interpolation-filters="sRGB">
<feFlood flood-opacity="0" result="BackgroundImageFix"/>
<feColorMatrix in="SourceAlpha" type="matrix" values="0 0 0 0 0 0 0 0 0 0 0 0 0 0 0 0 0 0 127 0" result="hardAlpha"/>
<feOffset dy="4"/>
<feGaussianBlur stdDeviation="2"/>
<feComposite in2="hardAlpha" operator="out"/>
<feColorMatrix type="matrix" values="0 0 0 0 0 0 0 0 0 0 0 0 0 0 0 0 0 0 0.25 0"/>
<feBlend mode="normal" in2="BackgroundImageFix" result="effect1_dropShadow_350_229"/>
<feBlend mode="normal" in="SourceGraphic" in2="effect1_dropShadow_350_229" result="shape"/>
</filter>
<filter id="filter6_d_350_229" x="2725.99" y="1175.22" width="13.625" height="13.627" filterUnits="userSpaceOnUse" color-interpolation-filters="sRGB">
<feFlood flood-opacity="0" result="BackgroundImageFix"/>
<feColorMatrix in="SourceAlpha" type="matrix" values="0 0 0 0 0 0 0 0 0 0 0 0 0 0 0 0 0 0 127 0" result="hardAlpha"/>
<feOffset dy="4"/>
<feGaussianBlur stdDeviation="2"/>
<feComposite in2="hardAlpha" operator="out"/>
<feColorMatrix type="matrix" values="0 0 0 0 0 0 0 0 0 0 0 0 0 0 0 0 0 0 0.25 0"/>
<feBlend mode="normal" in2="BackgroundImageFix" result="effect1_dropShadow_350_229"/>
<feBlend mode="normal" in="SourceGraphic" in2="effect1_dropShadow_350_229" result="shape"/>
</filter>
<filter id="filter7_d_350_229" x="2715.47" y="1187.19" width="13.625" height="13.627" filterUnits="userSpaceOnUse" color-interpolation-filters="sRGB">
<feFlood flood-opacity="0" result="BackgroundImageFix"/>
<feColorMatrix in="SourceAlpha" type="matrix" values="0 0 0 0 0 0 0 0 0 0 0 0 0 0 0 0 0 0 127 0" result="hardAlpha"/>
<feOffset dy="4"/>
<feGaussianBlur stdDeviation="2"/>
<feComposite in2="hardAlpha" operator="out"/>
<feColorMatrix type="matrix" values="0 0 0 0 0 0 0 0 0 0 0 0 0 0 0 0 0 0 0.25 0"/>
<feBlend mode="normal" in2="BackgroundImageFix" result="effect1_dropShadow_350_229"/>
<feBlend mode="normal" in="SourceGraphic" in2="effect1_dropShadow_350_229" result="shape"/>
</filter>
</defs>
</svg>
