<svg width="2962" height="2332" viewBox="0 0 2962 2332" fill="none" xmlns="http://www.w3.org/2000/svg">
<rect width="2962" height="2332" fill="white"/>
<circle cx="321.609" cy="1583.64" r="30.5" transform="rotate(20.7237 321.609 1583.64)" stroke="black" stroke-opacity="0.15" stroke-width="2"/>
<path d="M307.846 1595.1L306.317 1596.38L306.326 1596.4L307.846 1595.1ZM304.139 1586.99L302.162 1587.29L302.164 1587.31L304.139 1586.99ZM310.608 1569.89L309.338 1568.34L309.338 1568.34L310.608 1569.89ZM318.753 1566.27L318.474 1564.29L318.46 1564.29L318.753 1566.27ZM335.028 1571.93L333.548 1573.28L333.563 1573.29L333.578 1573.31L335.028 1571.93ZM338.476 1578.67L338.942 1580.61L340.791 1580.17L340.442 1578.3L338.476 1578.67ZM334.364 1579.65L332.415 1580.1L332.868 1582.07L334.829 1581.6L334.364 1579.65ZM331.644 1574.53L330.175 1575.89L330.188 1575.9L330.202 1575.92L331.644 1574.53ZM319.776 1570.47L320.065 1572.44L320.073 1572.44L320.08 1572.44L319.776 1570.47ZM313.711 1573.25L312.417 1571.73L312.404 1571.74L312.392 1571.75L313.711 1573.25ZM308.69 1586.52L306.706 1586.78L306.709 1586.8L306.713 1586.83L308.69 1586.52ZM311.391 1592.63L309.843 1593.89L309.859 1593.91L309.876 1593.93L311.391 1592.63ZM322.98 1597.43L322.816 1595.44L322.816 1595.44L322.98 1597.43ZM328.408 1595.39L330.045 1594.25L328.885 1592.59L327.245 1593.77L328.408 1595.39ZM330.839 1598.85L332.07 1600.43L333.569 1599.26L332.476 1597.71L330.839 1598.85ZM323.771 1601.68L323.944 1603.68L323.959 1603.68L323.974 1603.67L323.771 1601.68ZM316.402 1598.59C313.473 1597.49 311.148 1595.88 309.366 1593.8L306.326 1596.4C308.589 1599.04 311.495 1601.01 314.986 1602.33L316.402 1598.59ZM309.375 1593.81C307.63 1591.74 306.547 1589.37 306.113 1586.67L302.164 1587.31C302.712 1590.72 304.1 1593.76 306.317 1596.38L309.375 1593.81ZM306.116 1586.69C305.697 1583.96 306.008 1581.17 307.095 1578.3L303.354 1576.88C302.043 1580.35 301.63 1583.83 302.162 1587.29L306.116 1586.69ZM307.095 1578.3C308.182 1575.42 309.783 1573.16 311.878 1571.43L309.338 1568.34C306.653 1570.55 304.664 1573.42 303.354 1576.88L307.095 1578.3ZM311.878 1571.43C313.99 1569.7 316.367 1568.64 319.045 1568.25L318.46 1564.29C315.059 1564.79 312.006 1566.15 309.338 1568.34L311.878 1571.43ZM319.032 1568.25C321.746 1567.87 324.553 1568.2 327.481 1569.31L328.897 1565.57C325.405 1564.25 321.921 1563.8 318.474 1564.29L319.032 1568.25ZM327.481 1569.31C330.027 1570.27 332.028 1571.61 333.548 1573.28L336.507 1570.59C334.506 1568.38 331.948 1566.72 328.897 1565.57L327.481 1569.31ZM333.578 1573.31C335.131 1574.94 336.1 1576.84 336.51 1579.04L340.442 1578.3C339.889 1575.34 338.559 1572.74 336.477 1570.55L333.578 1573.31ZM338.011 1576.72L333.898 1577.71L334.829 1581.6L338.942 1580.61L338.011 1576.72ZM336.313 1579.21C335.774 1576.86 334.702 1574.83 333.086 1573.15L330.202 1575.92C331.287 1577.05 332.028 1578.42 332.415 1580.1L336.313 1579.21ZM333.114 1573.18C331.558 1571.49 329.658 1570.23 327.449 1569.4L326.033 1573.14C327.692 1573.76 329.061 1574.68 330.175 1575.89L333.114 1573.18ZM327.449 1569.4C324.807 1568.4 322.137 1568.08 319.471 1568.49L320.08 1572.44C322.01 1572.14 323.984 1572.36 326.033 1573.14L327.449 1569.4ZM319.486 1568.49C316.857 1568.87 314.491 1569.97 312.417 1571.73L315.005 1574.78C316.535 1573.48 318.211 1572.72 320.065 1572.44L319.486 1568.49ZM312.392 1571.75C310.355 1573.54 308.834 1575.83 307.798 1578.56L311.54 1579.98C312.373 1577.78 313.546 1576.06 315.03 1574.75L312.392 1571.75ZM307.798 1578.56C306.75 1581.34 306.362 1584.08 306.706 1586.78L310.674 1586.27C310.424 1584.32 310.689 1582.23 311.54 1579.98L307.798 1578.56ZM306.713 1586.83C307.12 1589.47 308.166 1591.84 309.843 1593.89L312.94 1591.36C311.723 1589.87 310.967 1588.17 310.667 1586.22L306.713 1586.83ZM309.876 1593.93C311.617 1595.95 313.828 1597.45 316.458 1598.45L317.873 1594.7C315.811 1593.92 314.173 1592.79 312.906 1591.32L309.876 1593.93ZM316.458 1598.45C318.652 1599.28 320.887 1599.61 323.143 1599.43L322.816 1595.44C321.188 1595.57 319.547 1595.34 317.873 1594.7L316.458 1598.45ZM323.143 1599.43C325.467 1599.24 327.619 1598.42 329.572 1597.02L327.245 1593.77C325.844 1594.77 324.376 1595.31 322.816 1595.44L323.143 1599.43ZM326.772 1596.54L329.203 1600L332.476 1597.71L330.045 1594.25L326.772 1596.54ZM329.608 1597.28C327.839 1598.66 325.84 1599.46 323.567 1599.7L323.974 1603.67C326.987 1603.37 329.7 1602.28 332.07 1600.43L329.608 1597.28ZM323.597 1599.69C321.303 1599.89 318.911 1599.54 316.402 1598.59L314.986 1602.33C317.991 1603.47 320.984 1603.94 323.944 1603.68L323.597 1599.69Z" fill="black" fill-opacity="0.15"/>
<circle cx="2348.61" cy="199.638" r="30.5" transform="rotate(20.7237 2348.61 199.638)" stroke="black" stroke-opacity="0.15" stroke-width="2"/>
<path d="M2334.85 211.095L2333.32 212.385L2333.33 212.395L2334.85 211.095ZM2331.14 202.989L2329.16 203.292L2329.16 203.306L2331.14 202.989ZM2337.61 185.89L2336.34 184.345L2336.34 184.345L2337.61 185.89ZM2345.75 182.267L2345.47 180.287L2345.46 180.289L2345.75 182.267ZM2362.03 187.931L2360.55 189.276L2360.56 189.293L2360.58 189.309L2362.03 187.931ZM2365.48 194.669L2365.94 196.614L2367.79 196.172L2367.44 194.302L2365.48 194.669ZM2361.36 195.654L2359.41 196.102L2359.87 198.068L2361.83 197.599L2361.36 195.654ZM2358.64 190.532L2357.17 191.889L2357.19 191.903L2357.2 191.918L2358.64 190.532ZM2346.78 186.465L2347.07 188.444L2347.07 188.443L2347.08 188.442L2346.78 186.465ZM2340.71 189.251L2339.42 187.727L2339.4 187.737L2339.39 187.748L2340.71 189.251ZM2335.69 202.523L2333.71 202.777L2333.71 202.802L2333.71 202.827L2335.69 202.523ZM2338.39 208.626L2336.84 209.892L2336.86 209.912L2336.88 209.932L2338.39 208.626ZM2349.98 213.434L2349.82 211.44L2349.82 211.44L2349.98 213.434ZM2355.41 211.395L2357.04 210.245L2355.89 208.594L2354.24 209.768L2355.41 211.395ZM2357.84 214.855L2359.07 216.431L2360.57 215.261L2359.48 213.705L2357.84 214.855ZM2350.77 217.685L2350.94 219.677L2350.96 219.676L2350.97 219.674L2350.77 217.685ZM2343.4 214.593C2340.47 213.485 2338.15 211.879 2336.37 209.795L2333.33 212.395C2335.59 215.041 2338.5 217.013 2341.99 218.334L2343.4 214.593ZM2336.37 209.806C2334.63 207.736 2333.55 205.371 2333.11 202.672L2329.16 203.306C2329.71 206.717 2331.1 209.756 2333.32 212.385L2336.37 209.806ZM2333.12 202.686C2332.7 199.957 2333.01 197.172 2334.1 194.299L2330.35 192.883C2329.04 196.347 2328.63 199.828 2329.16 203.292L2333.12 202.686ZM2334.1 194.299C2335.18 191.425 2336.78 189.157 2338.88 187.434L2336.34 184.345C2333.65 186.553 2331.66 189.42 2330.35 192.883L2334.1 194.299ZM2338.88 187.434C2340.99 185.698 2343.37 184.642 2346.05 184.246L2345.46 180.289C2342.06 180.792 2339.01 182.151 2336.34 184.345L2338.88 187.434ZM2346.03 184.248C2348.75 183.866 2351.55 184.201 2354.48 185.309L2355.9 181.568C2352.41 180.247 2348.92 179.802 2345.47 180.287L2346.03 184.248ZM2354.48 185.309C2357.03 186.272 2359.03 187.605 2360.55 189.276L2363.51 186.585C2361.51 184.384 2358.95 182.722 2355.9 181.568L2354.48 185.309ZM2360.58 189.309C2362.13 190.941 2363.1 192.836 2363.51 195.036L2367.44 194.302C2366.89 191.339 2365.56 188.742 2363.48 186.553L2360.58 189.309ZM2365.01 192.724L2360.9 193.709L2361.83 197.599L2365.94 196.614L2365.01 192.724ZM2363.31 195.205C2362.77 192.864 2361.7 190.827 2360.09 189.146L2357.2 191.918C2358.29 193.046 2359.03 194.424 2359.41 196.102L2363.31 195.205ZM2360.11 189.175C2358.56 187.49 2356.66 186.231 2354.45 185.395L2353.03 189.136C2354.69 189.764 2356.06 190.683 2357.17 191.889L2360.11 189.175ZM2354.45 185.395C2351.81 184.395 2349.14 184.078 2346.47 184.488L2347.08 188.442C2349.01 188.144 2350.98 188.361 2353.03 189.136L2354.45 185.395ZM2346.49 184.486C2343.86 184.871 2341.49 185.966 2339.42 187.727L2342.01 190.776C2343.53 189.478 2345.21 188.715 2347.07 188.444L2346.49 184.486ZM2339.39 187.748C2337.36 189.535 2335.83 191.829 2334.8 194.565L2338.54 195.98C2339.37 193.778 2340.55 192.057 2342.03 190.755L2339.39 187.748ZM2334.8 194.565C2333.75 197.336 2333.36 200.084 2333.71 202.777L2337.67 202.27C2337.42 200.316 2337.69 198.229 2338.54 195.98L2334.8 194.565ZM2333.71 202.827C2334.12 205.472 2335.17 207.84 2336.84 209.892L2339.94 207.36C2338.72 205.871 2337.97 204.17 2337.67 202.219L2333.71 202.827ZM2336.88 209.932C2338.62 211.951 2340.83 213.45 2343.46 214.445L2344.87 210.704C2342.81 209.924 2341.17 208.791 2339.91 207.32L2336.88 209.932ZM2343.46 214.445C2345.65 215.276 2347.89 215.612 2350.14 215.427L2349.82 211.44C2348.19 211.574 2346.55 211.337 2344.87 210.704L2343.46 214.445ZM2350.14 215.427C2352.47 215.237 2354.62 214.419 2356.57 213.021L2354.24 209.768C2352.84 210.771 2351.38 211.313 2349.82 211.44L2350.14 215.427ZM2353.77 212.545L2356.2 216.005L2359.48 213.705L2357.04 210.245L2353.77 212.545ZM2356.61 213.278C2354.84 214.66 2352.84 215.462 2350.57 215.695L2350.97 219.674C2353.99 219.366 2356.7 218.282 2359.07 216.431L2356.61 213.278ZM2350.6 215.692C2348.3 215.892 2345.91 215.543 2343.4 214.593L2341.99 218.334C2344.99 219.471 2347.98 219.935 2350.94 219.677L2350.6 215.692Z" fill="black" fill-opacity="0.15"/>
<circle cx="2843.25" cy="1073.98" r="30.5" transform="rotate(-32.0877 2843.25 1073.98)" stroke="black" stroke-opacity="0.15" stroke-width="2"/>
<path d="M2844.06 1091.87L2844.16 1093.86L2844.17 1093.86L2844.06 1091.87ZM2835.36 1089.92L2834.4 1091.68L2834.42 1091.69L2835.36 1089.92ZM2825.64 1074.43L2823.65 1074.51L2823.65 1074.51L2825.64 1074.43ZM2827.68 1065.75L2825.94 1064.78L2825.93 1064.79L2827.68 1065.75ZM2842.03 1056.21L2842.21 1058.2L2842.23 1058.2L2842.25 1058.2L2842.03 1056.21ZM2849.48 1057.54L2851.31 1058.34L2852.08 1056.6L2850.38 1055.75L2849.48 1057.54ZM2847.78 1061.41L2846.96 1063.23L2848.8 1064.06L2849.61 1062.21L2847.78 1061.41ZM2842.06 1060.48L2842.25 1062.47L2842.27 1062.47L2842.29 1062.47L2842.06 1060.48ZM2831.64 1067.48L2833.4 1068.44L2833.4 1068.43L2833.4 1068.43L2831.64 1067.48ZM2830.2 1073.99L2828.2 1074.1L2828.2 1074.12L2828.2 1074.13L2830.2 1073.99ZM2837.74 1086.01L2836.74 1087.75L2836.76 1087.76L2836.78 1087.77L2837.74 1086.01ZM2844.23 1087.55L2844.3 1089.55L2844.33 1089.55L2844.36 1089.55L2844.23 1087.55ZM2855.07 1081.22L2853.38 1080.15L2853.38 1080.15L2855.07 1081.22ZM2856.72 1075.67L2856.8 1073.67L2854.78 1073.59L2854.72 1075.61L2856.72 1075.67ZM2860.95 1075.82L2862.95 1075.79L2862.92 1073.89L2861.02 1073.82L2860.95 1075.82ZM2858.93 1083.16L2860.62 1084.23L2860.63 1084.22L2860.64 1084.2L2858.93 1083.16ZM2852.01 1087.17C2849.36 1088.83 2846.68 1089.71 2843.94 1089.87L2844.17 1093.86C2847.65 1093.66 2850.98 1092.54 2854.14 1090.55L2852.01 1087.17ZM2843.95 1089.87C2841.25 1090.01 2838.71 1089.44 2836.3 1088.16L2834.42 1091.69C2837.46 1093.31 2840.72 1094.04 2844.16 1093.86L2843.95 1089.87ZM2836.31 1088.16C2833.88 1086.85 2831.85 1084.92 2830.22 1082.31L2826.83 1084.44C2828.8 1087.58 2831.32 1090.01 2834.4 1091.68L2836.31 1088.16ZM2830.22 1082.31C2828.59 1079.71 2827.75 1077.06 2827.64 1074.35L2823.65 1074.51C2823.78 1077.98 2824.86 1081.3 2826.83 1084.44L2830.22 1082.31ZM2827.64 1074.35C2827.54 1071.62 2828.13 1069.09 2829.44 1066.72L2825.93 1064.79C2824.27 1067.8 2823.51 1071.06 2823.65 1074.51L2827.64 1074.35ZM2829.43 1066.73C2830.76 1064.33 2832.73 1062.3 2835.38 1060.64L2833.26 1057.25C2830.09 1059.23 2827.63 1061.74 2825.94 1064.78L2829.43 1066.73ZM2835.38 1060.64C2837.69 1059.19 2839.96 1058.4 2842.21 1058.2L2841.85 1054.22C2838.89 1054.48 2836.02 1055.52 2833.26 1057.25L2835.38 1060.64ZM2842.25 1058.2C2844.49 1057.95 2846.59 1058.32 2848.59 1059.32L2850.38 1055.75C2847.69 1054.4 2844.81 1053.89 2841.81 1054.22L2842.25 1058.2ZM2847.65 1056.73L2845.95 1060.6L2849.61 1062.21L2851.31 1058.34L2847.65 1056.73ZM2848.6 1059.58C2846.41 1058.6 2844.14 1058.22 2841.83 1058.49L2842.29 1062.47C2843.85 1062.28 2845.39 1062.53 2846.96 1063.23L2848.6 1059.58ZM2841.87 1058.49C2839.58 1058.71 2837.43 1059.46 2835.43 1060.72L2837.55 1064.11C2839.06 1063.16 2840.62 1062.63 2842.25 1062.47L2841.87 1058.49ZM2835.43 1060.72C2833.04 1062.22 2831.17 1064.15 2829.89 1066.52L2833.4 1068.43C2834.33 1066.71 2835.7 1065.27 2837.55 1064.11L2835.43 1060.72ZM2829.89 1066.51C2828.61 1068.84 2828.05 1071.38 2828.2 1074.1L2832.2 1073.88C2832.09 1071.88 2832.49 1070.08 2833.4 1068.44L2829.89 1066.51ZM2828.2 1074.13C2828.4 1076.84 2829.3 1079.43 2830.86 1081.91L2834.25 1079.79C2833 1077.79 2832.33 1075.82 2832.19 1073.85L2828.2 1074.13ZM2830.86 1081.91C2832.43 1084.42 2834.39 1086.39 2836.74 1087.75L2838.73 1084.28C2837.03 1083.3 2835.52 1081.83 2834.25 1079.79L2830.86 1081.91ZM2836.78 1087.77C2839.14 1089.05 2841.65 1089.64 2844.3 1089.55L2844.16 1085.55C2842.24 1085.62 2840.42 1085.19 2838.69 1084.25L2836.78 1087.77ZM2844.36 1089.55C2847.02 1089.38 2849.55 1088.52 2851.93 1087.03L2849.8 1083.64C2847.94 1084.81 2846.04 1085.43 2844.11 1085.55L2844.36 1089.55ZM2851.93 1087.03C2853.92 1085.79 2855.54 1084.21 2856.75 1082.3L2853.38 1080.15C2852.5 1081.53 2851.32 1082.69 2849.8 1083.64L2851.93 1087.03ZM2856.75 1082.3C2858.01 1080.33 2858.65 1078.12 2858.72 1075.72L2854.72 1075.61C2854.68 1077.33 2854.22 1078.83 2853.38 1080.15L2856.75 1082.3ZM2856.65 1077.67L2860.88 1077.82L2861.02 1073.82L2856.8 1073.67L2856.65 1077.67ZM2858.95 1075.85C2858.98 1078.09 2858.41 1080.17 2857.22 1082.12L2860.64 1084.2C2862.21 1081.62 2862.99 1078.8 2862.95 1075.79L2858.95 1075.85ZM2857.24 1082.1C2856.01 1084.05 2854.29 1085.74 2852.01 1087.17L2854.14 1090.55C2856.86 1088.85 2859.04 1086.74 2860.62 1084.23L2857.24 1082.1Z" fill="black" fill-opacity="0.15"/>
<path d="M172 876.043L179.971 878.996M231.545 898.103L223.575 895.15M223.575 895.15L236.429 860.455L225.176 856.286M223.575 895.15L212.322 890.982M225.176 856.286L212.322 890.982M225.176 856.286L228.998 845.971L218.683 842.15M212.322 890.982L202.007 887.16M202.007 887.16L191.224 883.165M202.007 887.16L216.772 847.307M218.683 842.15L221.288 835.117L210.504 831.122L207.899 838.155M218.683 842.15L216.772 847.307M207.899 838.155L196.646 833.986L192.825 844.301M207.899 838.155L205.988 843.312M191.224 883.165L179.971 878.996M191.224 883.165L204.077 848.47M179.971 878.996L192.825 844.301M192.825 844.301L204.077 848.47M204.077 848.47L205.988 843.312M205.988 843.312L216.772 847.307M220.019 854.375L213.244 872.661" stroke="black" stroke-opacity="0.15" stroke-width="2"/>
<path d="M222.152 875.961L225.903 877.351" stroke="black" stroke-opacity="0.15" stroke-width="2"/>
<path d="M223.194 873.148L226.945 874.538" stroke="black" stroke-opacity="0.15" stroke-width="2"/>
<path d="M212.55 874.536L210.813 879.225" stroke="black" stroke-opacity="0.15" stroke-width="2"/>
<path d="M1258 870.043L1265.97 872.996M1317.55 892.103L1309.57 889.15M1309.57 889.15L1322.43 854.455L1311.18 850.286M1309.57 889.15L1298.32 884.982M1311.18 850.286L1298.32 884.982M1311.18 850.286L1315 839.971L1304.68 836.15M1298.32 884.982L1288.01 881.16M1288.01 881.16L1277.22 877.165M1288.01 881.16L1302.77 841.307M1304.68 836.15L1307.29 829.117L1296.5 825.122L1293.9 832.155M1304.68 836.15L1302.77 841.307M1293.9 832.155L1282.65 827.986L1278.82 838.301M1293.9 832.155L1291.99 837.312M1277.22 877.165L1265.97 872.996M1277.22 877.165L1290.08 842.47M1265.97 872.996L1278.82 838.301M1278.82 838.301L1290.08 842.47M1290.08 842.47L1291.99 837.312M1291.99 837.312L1302.77 841.307M1306.02 848.375L1299.24 866.661" stroke="black" stroke-opacity="0.15" stroke-width="2"/>
<path d="M1308.15 869.961L1311.9 871.351" stroke="black" stroke-opacity="0.15" stroke-width="2"/>
<path d="M1309.19 867.148L1312.95 868.538" stroke="black" stroke-opacity="0.15" stroke-width="2"/>
<path d="M1298.55 868.536L1296.81 873.225" stroke="black" stroke-opacity="0.15" stroke-width="2"/>
<path d="M2267 876.043L2274.97 878.996M2326.55 898.103L2318.57 895.15M2318.57 895.15L2331.43 860.455L2320.18 856.286M2318.57 895.15L2307.32 890.982M2320.18 856.286L2307.32 890.982M2320.18 856.286L2324 845.971L2313.68 842.15M2307.32 890.982L2297.01 887.16M2297.01 887.16L2286.22 883.165M2297.01 887.16L2311.77 847.307M2313.68 842.15L2316.29 835.117L2305.5 831.122L2302.9 838.155M2313.68 842.15L2311.77 847.307M2302.9 838.155L2291.65 833.986L2287.82 844.301M2302.9 838.155L2300.99 843.312M2286.22 883.165L2274.97 878.996M2286.22 883.165L2299.08 848.47M2274.97 878.996L2287.82 844.301M2287.82 844.301L2299.08 848.47M2299.08 848.47L2300.99 843.312M2300.99 843.312L2311.77 847.307M2315.02 854.375L2308.24 872.661" stroke="black" stroke-opacity="0.15" stroke-width="2"/>
<path d="M2317.15 875.961L2320.9 877.351" stroke="black" stroke-opacity="0.15" stroke-width="2"/>
<path d="M2318.19 873.148L2321.95 874.538" stroke="black" stroke-opacity="0.15" stroke-width="2"/>
<path d="M2307.55 874.536L2305.81 879.225" stroke="black" stroke-opacity="0.15" stroke-width="2"/>
<path d="M788.043 1190.95L759.759 1162.67" stroke="black" stroke-opacity="0.15" stroke-width="2"/>
<path d="M777.79 1201.2L749.506 1172.92" stroke="black" stroke-opacity="0.15" stroke-width="2"/>
<path d="M767.891 1211.1L739.606 1182.82" stroke="black" stroke-opacity="0.15" stroke-width="2"/>
<path fill-rule="evenodd" clip-rule="evenodd" d="M797.589 1188.48L764.355 1155.24C762.012 1152.9 758.213 1152.9 755.87 1155.24L753.041 1158.07C751.566 1159.55 751.019 1161.6 751.402 1163.5C749.499 1163.12 747.446 1163.67 745.97 1165.14L743.142 1167.97C741.666 1169.45 741.12 1171.5 741.503 1173.4C739.6 1173.02 737.546 1173.57 736.071 1175.04L733.242 1177.87C730.899 1180.21 730.899 1184.01 733.242 1186.36L766.476 1219.59L767.89 1218.18L734.656 1184.94C733.094 1183.38 733.094 1180.85 734.656 1179.28L737.485 1176.46C739.047 1174.89 741.58 1174.89 743.142 1176.46L776.376 1209.69L777.79 1208.28L744.556 1175.04C742.994 1173.48 742.994 1170.95 744.556 1169.38L747.384 1166.56C748.946 1164.99 751.479 1164.99 753.041 1166.56L786.275 1199.79L787.689 1198.38L754.455 1165.14C752.893 1163.58 752.893 1161.05 754.455 1159.49L757.284 1156.66C758.846 1155.09 761.379 1155.09 762.941 1156.66L796.175 1189.89L797.589 1188.48Z" fill="black" fill-opacity="0.15"/>
<path d="M1790.29 1155.03L1815.4 1186.17" stroke="black" stroke-opacity="0.15" stroke-width="2"/>
<path d="M1801.58 1145.93L1826.69 1177.07" stroke="black" stroke-opacity="0.15" stroke-width="2"/>
<path d="M1812.48 1137.14L1837.58 1168.28" stroke="black" stroke-opacity="0.15" stroke-width="2"/>
<path fill-rule="evenodd" clip-rule="evenodd" d="M1780.53 1156.47L1810.04 1193.06C1812.12 1195.64 1815.89 1196.05 1818.47 1193.97L1821.59 1191.46C1823.21 1190.15 1823.97 1188.16 1823.8 1186.23C1825.65 1186.81 1827.75 1186.49 1829.37 1185.18L1832.48 1182.67C1834.11 1181.36 1834.87 1179.38 1834.69 1177.44C1836.55 1178.03 1838.65 1177.7 1840.27 1176.39L1843.38 1173.88C1845.96 1171.8 1846.37 1168.02 1844.29 1165.44L1814.79 1128.86L1813.23 1130.11L1842.73 1166.7C1844.12 1168.42 1843.85 1170.94 1842.13 1172.32L1839.01 1174.83C1837.29 1176.22 1834.78 1175.95 1833.39 1174.23L1803.89 1137.64L1802.33 1138.9L1831.83 1175.49C1833.22 1177.21 1832.95 1179.73 1831.23 1181.11L1828.12 1183.62C1826.4 1185.01 1823.88 1184.74 1822.49 1183.02L1792.99 1146.43L1791.43 1147.69L1820.93 1184.27C1822.32 1185.99 1822.05 1188.51 1820.33 1189.9L1817.22 1192.41C1815.5 1193.8 1812.98 1193.53 1811.59 1191.81L1782.09 1155.22L1780.53 1156.47Z" fill="black" fill-opacity="0.15"/>
<path d="M2339.04 1623.95L2310.76 1595.67" stroke="black" stroke-opacity="0.15" stroke-width="2"/>
<path d="M2328.79 1634.2L2300.51 1605.92" stroke="black" stroke-opacity="0.15" stroke-width="2"/>
<path d="M2318.89 1644.1L2290.61 1615.82" stroke="black" stroke-opacity="0.15" stroke-width="2"/>
<path fill-rule="evenodd" clip-rule="evenodd" d="M2348.59 1621.48L2315.35 1588.24C2313.01 1585.9 2309.21 1585.9 2306.87 1588.24L2304.04 1591.07C2302.57 1592.55 2302.02 1594.6 2302.4 1596.5C2300.5 1596.12 2298.45 1596.67 2296.97 1598.14L2294.14 1600.97C2292.67 1602.45 2292.12 1604.5 2292.5 1606.4C2290.6 1606.02 2288.55 1606.57 2287.07 1608.04L2284.24 1610.87C2281.9 1613.21 2281.9 1617.01 2284.24 1619.36L2317.48 1652.59L2318.89 1651.18L2285.66 1617.94C2284.09 1616.38 2284.09 1613.85 2285.66 1612.28L2288.48 1609.46C2290.05 1607.89 2292.58 1607.89 2294.14 1609.46L2327.38 1642.69L2328.79 1641.28L2295.56 1608.04C2293.99 1606.48 2293.99 1603.95 2295.56 1602.38L2298.38 1599.56C2299.95 1597.99 2302.48 1597.99 2304.04 1599.56L2337.28 1632.79L2338.69 1631.38L2305.46 1598.14C2303.89 1596.58 2303.89 1594.05 2305.46 1592.49L2308.28 1589.66C2309.85 1588.09 2312.38 1588.09 2313.94 1589.66L2347.17 1622.89L2348.59 1621.48Z" fill="black" fill-opacity="0.15"/>
<path fill-rule="evenodd" clip-rule="evenodd" d="M736.849 2063.88C743.921 2065.47 749.105 2070.9 751.729 2075.37L751.797 2075.48L751.832 2075.61L754.872 2086.96C755.035 2086.99 755.193 2087.03 755.342 2087.09C755.796 2087.24 756.252 2087.5 756.693 2087.81C757.575 2088.42 758.527 2089.3 759.465 2090.29C761.349 2092.28 763.307 2094.83 764.726 2096.83C765.536 2097.97 764.934 2099.54 763.613 2099.89L758.691 2101.21L761.832 2112.93C762.091 2113.9 761.59 2114.9 760.697 2115.29C754.781 2117.9 751.311 2120.12 749.378 2121.8C748.411 2122.64 747.86 2123.31 747.574 2123.8C747.334 2124.22 747.323 2124.42 747.321 2124.45C747.321 2124.46 747.321 2124.46 747.321 2124.46L747.32 2124.46L748.361 2128.34C748.726 2129.7 747.608 2131.01 746.208 2130.85L723.118 2128.27L723.17 2127.81L722.393 2128.02L719.157 2115.95L721.089 2115.43L724.018 2126.36L746.43 2128.86L745.385 2124.96C745.2 2124.27 745.432 2123.51 745.846 2122.8C746.279 2122.06 746.998 2121.22 748.068 2120.29C750.209 2118.43 753.878 2116.12 759.888 2113.46L759.891 2113.46C759.892 2113.46 759.893 2113.46 759.894 2113.46C759.895 2113.46 759.896 2113.45 759.897 2113.45L759.899 2113.45L759.899 2113.45L756.5 2100.76L756.241 2099.8L757.207 2099.54L763.079 2097.96C761.687 2096 759.799 2093.55 758.013 2091.67C757.113 2090.72 756.272 2089.95 755.557 2089.45C755.2 2089.21 754.907 2089.05 754.68 2088.97C754.453 2088.89 754.363 2088.91 754.36 2088.91L754.36 2088.91L753.394 2089.17L753.136 2088.21L749.936 2076.26C747.462 2072.11 742.702 2067.24 736.411 2065.83C730.157 2064.43 722.068 2066.37 712.797 2076.59L711.315 2075.25C720.906 2064.68 729.683 2062.27 736.849 2063.88ZM709.489 2110.77L710.455 2110.51L719.148 2108.18L713.454 2086.93L710.073 2087.84L709.107 2088.1L708.849 2087.13L707.684 2082.78L700.224 2084.78L709.945 2094.08L711.626 2093.63C711.805 2094.3 711.894 2094.97 711.9 2095.63C711.901 2095.74 711.9 2095.85 711.897 2095.95L712.058 2096.11L711.888 2096.15C711.701 2099.51 709.394 2102.51 705.969 2103.43L702.106 2104.47C698.505 2105.43 694.82 2103.78 693.069 2100.68C692.744 2100.1 692.486 2099.48 692.308 2098.81L694.24 2098.29L694.367 2098.26L697.269 2084.08L697.393 2083.47L697.99 2083.31L708.132 2080.59L715.86 2078.52L726.485 2075.68L727.063 2075.52L727.473 2075.96L737.543 2086.69L737.706 2086.65L739.638 2086.13C739.817 2086.8 739.906 2087.47 739.912 2088.13C739.947 2091.69 737.582 2094.96 733.981 2095.93L730.118 2096.96C726.517 2097.93 722.832 2096.27 721.081 2093.17C720.756 2092.6 720.498 2091.97 720.32 2091.3L722.251 2090.79L722.415 2090.74L725.389 2078.04L717.343 2080.2L718.508 2084.54L718.767 2085.51L717.801 2085.77L715.386 2086.42L721.08 2107.67L728.807 2105.59L729.773 2105.34L730.032 2106.3L730.679 2108.72L728.747 2109.23L728.359 2107.79L711.938 2112.19L712.327 2113.63L710.395 2114.15L709.748 2111.74L709.489 2110.77ZM727.292 2078.69L724.606 2090.16L735.351 2087.28L727.292 2078.69ZM729.6 2095.03C727.261 2095.66 724.874 2094.81 723.424 2093.06L737.828 2089.2C737.447 2091.44 735.803 2093.37 733.464 2093.99L729.6 2095.03ZM707.685 2094.69L698.866 2086.25L696.527 2097.68L707.685 2094.69ZM695.412 2100.57L709.816 2096.71C709.435 2098.95 707.791 2100.87 705.452 2101.5L701.588 2102.54C699.249 2103.16 696.862 2102.32 695.412 2100.57ZM710.522 2085.65L709.616 2082.27L715.411 2080.71L716.317 2084.09L713.902 2084.74L710.522 2085.65Z" fill="black" fill-opacity="0.15"/>
<path fill-rule="evenodd" clip-rule="evenodd" d="M1273.37 139.673C1279.71 136.151 1287.19 136.754 1292.12 138.343L1292.25 138.384L1292.37 138.459L1302.18 144.902C1302.33 144.817 1302.47 144.745 1302.62 144.685C1303.06 144.502 1303.58 144.391 1304.11 144.324C1305.17 144.192 1306.47 144.219 1307.83 144.334C1310.56 144.564 1313.72 145.164 1316.11 145.713C1317.47 146.027 1318.07 147.596 1317.32 148.739L1314.52 152.999L1324.67 159.659C1325.5 160.208 1325.79 161.284 1325.39 162.173C1322.71 168.061 1321.6 172.028 1321.27 174.565C1321.11 175.834 1321.15 176.705 1321.26 177.262C1321.35 177.728 1321.48 177.885 1321.5 177.913C1321.5 177.916 1321.5 177.918 1321.5 177.918L1321.5 177.918L1324.87 180.126C1326.04 180.898 1326.08 182.614 1324.93 183.429L1305.98 196.871L1305.71 196.493L1305.27 197.166L1294.82 190.307L1295.92 188.635L1305.38 194.845L1323.77 181.798L1320.4 179.584C1319.8 179.19 1319.46 178.464 1319.3 177.659C1319.13 176.818 1319.11 175.713 1319.29 174.309C1319.65 171.498 1320.85 167.328 1323.57 161.346L1323.57 161.342C1323.57 161.341 1323.57 161.34 1323.57 161.339C1323.57 161.337 1323.57 161.335 1323.57 161.334L1323.57 161.331L1323.57 161.329L1312.59 154.123L1311.75 153.574L1312.3 152.738L1315.63 147.656C1313.29 147.119 1310.25 146.545 1307.66 146.327C1306.36 146.217 1305.22 146.201 1304.36 146.309C1303.93 146.363 1303.6 146.443 1303.38 146.534C1303.16 146.626 1303.1 146.7 1303.1 146.702L1303.1 146.702L1302.55 147.538L1301.72 146.989L1291.38 140.206C1286.77 138.751 1279.98 138.288 1274.35 141.421C1268.74 144.535 1264 151.369 1263.88 165.166L1261.88 165.149C1262 150.877 1266.95 143.241 1273.37 139.673ZM1284.16 192.879L1284.71 192.043L1289.65 184.519L1271.25 172.448L1269.33 175.374L1268.78 176.21L1267.95 175.661L1264.19 173.192L1259.95 179.648L1273.39 180.121L1274.35 178.666C1274.93 179.045 1275.44 179.486 1275.88 179.974C1275.95 180.054 1276.03 180.134 1276.09 180.216L1276.32 180.224L1276.22 180.371C1278.31 183.001 1278.59 186.78 1276.65 189.744L1274.45 193.088C1272.41 196.204 1268.56 197.424 1265.18 196.273C1264.56 196.06 1263.95 195.765 1263.37 195.386L1264.47 193.714L1264.54 193.604L1257.27 181.087L1256.96 180.553L1257.3 180.036L1263.06 171.258L1267.45 164.57L1273.49 155.374L1273.82 154.874L1274.41 154.927L1289.07 156.235L1289.16 156.094L1290.26 154.422C1290.84 154.801 1291.35 155.241 1291.8 155.73C1294.19 158.366 1294.61 162.383 1292.56 165.499L1290.37 168.843C1288.32 171.96 1284.47 173.179 1281.1 172.029C1280.47 171.815 1279.86 171.521 1279.29 171.142L1280.38 169.47L1280.48 169.328L1274.24 157.868L1269.67 164.832L1273.44 167.301L1274.27 167.85L1273.72 168.686L1272.35 170.776L1290.74 182.847L1295.13 176.159L1295.68 175.323L1296.52 175.872L1298.61 177.244L1297.51 178.916L1296.26 178.093L1286.93 192.305L1288.18 193.128L1287.08 194.8L1284.99 193.428L1284.16 192.879ZM1276.09 157.085L1281.72 167.432L1287.83 158.132L1276.09 157.085ZM1288.69 167.746C1287.36 169.77 1285.02 170.728 1282.77 170.387L1290.96 157.92C1292.16 159.846 1292.22 162.378 1290.89 164.402L1288.69 167.746ZM1272.11 182.077L1259.91 181.648L1265.77 191.734L1272.11 182.077ZM1266.86 194.631L1275.04 182.165C1276.25 184.09 1276.3 186.622 1274.98 188.646L1272.78 191.99C1271.45 194.015 1269.11 194.972 1266.86 194.631ZM1268.21 173.44L1265.28 171.52L1268.58 166.504L1271.5 168.424L1270.13 170.514L1268.21 173.44Z" fill="black" fill-opacity="0.15"/>
<path fill-rule="evenodd" clip-rule="evenodd" d="M2831.85 2063.88C2838.92 2065.47 2844.11 2070.9 2846.73 2075.37L2846.8 2075.48L2846.83 2075.61L2849.87 2086.96C2850.04 2086.99 2850.19 2087.03 2850.34 2087.09C2850.8 2087.24 2851.25 2087.5 2851.69 2087.81C2852.57 2088.42 2853.53 2089.3 2854.47 2090.29C2856.35 2092.28 2858.31 2094.83 2859.73 2096.83C2860.54 2097.97 2859.93 2099.54 2858.61 2099.89L2853.69 2101.21L2856.83 2112.93C2857.09 2113.9 2856.59 2114.9 2855.7 2115.29C2849.78 2117.9 2846.31 2120.12 2844.38 2121.8C2843.41 2122.64 2842.86 2123.31 2842.57 2123.8C2842.33 2124.22 2842.32 2124.42 2842.32 2124.45C2842.32 2124.46 2842.32 2124.46 2842.32 2124.46L2842.32 2124.46L2843.36 2128.34C2843.73 2129.7 2842.61 2131.01 2841.21 2130.85L2818.12 2128.27L2818.17 2127.81L2817.39 2128.02L2814.16 2115.95L2816.09 2115.43L2819.02 2126.36L2841.43 2128.86L2840.39 2124.96C2840.2 2124.27 2840.43 2123.51 2840.85 2122.8C2841.28 2122.06 2842 2121.22 2843.07 2120.29C2845.21 2118.43 2848.88 2116.12 2854.89 2113.46L2854.89 2113.46C2854.89 2113.46 2854.89 2113.46 2854.89 2113.46C2854.9 2113.46 2854.9 2113.45 2854.9 2113.45L2854.9 2113.45L2854.9 2113.45L2851.5 2100.76L2851.24 2099.8L2852.21 2099.54L2858.08 2097.96C2856.69 2096 2854.8 2093.55 2853.01 2091.67C2852.11 2090.72 2851.27 2089.95 2850.56 2089.45C2850.2 2089.21 2849.91 2089.05 2849.68 2088.97C2849.45 2088.89 2849.36 2088.91 2849.36 2088.91L2849.36 2088.91L2848.39 2089.17L2848.14 2088.21L2844.94 2076.26C2842.46 2072.11 2837.7 2067.24 2831.41 2065.83C2825.16 2064.43 2817.07 2066.37 2807.8 2076.59L2806.32 2075.25C2815.91 2064.68 2824.68 2062.27 2831.85 2063.88ZM2804.49 2110.77L2805.45 2110.51L2814.15 2108.18L2808.45 2086.93L2805.07 2087.84L2804.11 2088.1L2803.85 2087.13L2802.68 2082.78L2795.22 2084.78L2804.94 2094.08L2806.63 2093.63C2806.8 2094.3 2806.89 2094.97 2806.9 2095.63C2806.9 2095.74 2806.9 2095.85 2806.9 2095.95L2807.06 2096.11L2806.89 2096.15C2806.7 2099.51 2804.39 2102.51 2800.97 2103.43L2797.11 2104.47C2793.51 2105.43 2789.82 2103.78 2788.07 2100.68C2787.74 2100.1 2787.49 2099.48 2787.31 2098.81L2789.24 2098.29L2789.37 2098.26L2792.27 2084.08L2792.39 2083.47L2792.99 2083.31L2803.13 2080.59L2810.86 2078.52L2821.48 2075.68L2822.06 2075.52L2822.47 2075.96L2832.54 2086.69L2832.71 2086.65L2834.64 2086.13C2834.82 2086.8 2834.91 2087.47 2834.91 2088.13C2834.95 2091.69 2832.58 2094.96 2828.98 2095.93L2825.12 2096.96C2821.52 2097.93 2817.83 2096.27 2816.08 2093.17C2815.76 2092.6 2815.5 2091.97 2815.32 2091.3L2817.25 2090.79L2817.41 2090.74L2820.39 2078.04L2812.34 2080.2L2813.51 2084.54L2813.77 2085.51L2812.8 2085.77L2810.39 2086.42L2816.08 2107.67L2823.81 2105.59L2824.77 2105.34L2825.03 2106.3L2825.68 2108.72L2823.75 2109.23L2823.36 2107.79L2806.94 2112.19L2807.33 2113.63L2805.39 2114.15L2804.75 2111.74L2804.49 2110.77ZM2822.29 2078.69L2819.61 2090.16L2830.35 2087.28L2822.29 2078.69ZM2824.6 2095.03C2822.26 2095.66 2819.87 2094.81 2818.42 2093.06L2832.83 2089.2C2832.45 2091.44 2830.8 2093.37 2828.46 2093.99L2824.6 2095.03ZM2802.68 2094.69L2793.87 2086.25L2791.53 2097.68L2802.68 2094.69ZM2790.41 2100.57L2804.82 2096.71C2804.43 2098.95 2802.79 2100.87 2800.45 2101.5L2796.59 2102.54C2794.25 2103.16 2791.86 2102.32 2790.41 2100.57ZM2805.52 2085.65L2804.62 2082.27L2810.41 2080.71L2811.32 2084.09L2808.9 2084.74L2805.52 2085.65Z" fill="black" fill-opacity="0.15"/>
<path d="M260.455 184.277L239.859 148.248L202.528 169.587L228.583 215.166L256.364 199.285M260.455 184.277L250.905 189.736L256.364 199.285M260.455 184.277L256.364 199.285" stroke="black" stroke-opacity="0.15" stroke-width="2"/>
<path d="M217.047 213.121L190 165.806L227.331 144.467" stroke="black" stroke-opacity="0.15" stroke-width="2"/>
<g filter="url(#filter0_d_114_2653)">
<rect x="213.506" y="173.679" width="2" height="2" transform="rotate(-29.7538 213.506 173.679)" fill="black" fill-opacity="0.15" shape-rendering="crispEdges"/>
</g>
<g filter="url(#filter1_d_114_2653)">
<rect x="217.973" y="181.492" width="2" height="2" transform="rotate(-29.7538 217.973 181.492)" fill="black" fill-opacity="0.15" shape-rendering="crispEdges"/>
</g>
<g filter="url(#filter2_d_114_2653)">
<rect x="221.942" y="188.438" width="2" height="2" transform="rotate(-29.7538 221.942 188.438)" fill="black" fill-opacity="0.15" shape-rendering="crispEdges"/>
</g>
<g filter="url(#filter3_d_114_2653)">
<rect x="225.913" y="195.383" width="2" height="2" transform="rotate(-29.7538 225.913 195.383)" fill="black" fill-opacity="0.15" shape-rendering="crispEdges"/>
</g>
<path d="M220.762 171.259L238.125 161.334" stroke="black" stroke-opacity="0.15" stroke-width="2"/>
<path d="M224.731 178.204L242.095 168.279" stroke="black" stroke-opacity="0.15" stroke-width="2"/>
<path d="M229.198 186.018L246.562 176.092" stroke="black" stroke-opacity="0.15" stroke-width="2"/>
<path d="M233.168 192.963L250.531 183.038" stroke="black" stroke-opacity="0.15" stroke-width="2"/>
<path d="M1824.2 2143.83L1844.08 2107.4L1806.33 2086.8L1781.18 2132.88L1809.27 2148.21M1824.2 2143.83L1814.54 2138.56L1809.27 2148.21M1824.2 2143.83L1809.27 2148.21" stroke="black" stroke-opacity="0.15" stroke-width="2"/>
<path d="M1776.88 2121.99L1802.99 2074.15L1840.73 2094.75" stroke="black" stroke-opacity="0.15" stroke-width="2"/>
<g filter="url(#filter4_d_114_2653)">
<rect x="1808.61" y="2098.29" width="2" height="2" transform="rotate(28.6243 1808.61 2098.29)" fill="black" fill-opacity="0.15" shape-rendering="crispEdges"/>
</g>
<g filter="url(#filter5_d_114_2653)">
<rect x="1804.29" y="2106.19" width="2" height="2" transform="rotate(28.6243 1804.29 2106.19)" fill="black" fill-opacity="0.15" shape-rendering="crispEdges"/>
</g>
<g filter="url(#filter6_d_114_2653)">
<rect x="1800.46" y="2113.22" width="2" height="2" transform="rotate(28.6243 1800.46 2113.22)" fill="black" fill-opacity="0.15" shape-rendering="crispEdges"/>
</g>
<g filter="url(#filter7_d_114_2653)">
<rect x="1796.63" y="2120.24" width="2" height="2" transform="rotate(28.6243 1796.63 2120.24)" fill="black" fill-opacity="0.15" shape-rendering="crispEdges"/>
</g>
<path d="M1814.47 2103.2L1832.03 2112.78" stroke="black" stroke-opacity="0.15" stroke-width="2"/>
<path d="M1810.64 2110.22L1828.19 2119.81" stroke="black" stroke-opacity="0.15" stroke-width="2"/>
<path d="M1806.33 2118.12L1823.88 2127.71" stroke="black" stroke-opacity="0.15" stroke-width="2"/>
<path d="M1802.49 2125.15L1820.05 2134.73" stroke="black" stroke-opacity="0.15" stroke-width="2"/>
<path d="M1883.26 450.007L1910.68 418.853L1878.4 390.445L1843.71 429.857L1867.74 450.998M1883.26 450.007L1875 442.74L1867.74 450.998M1883.26 450.007L1867.74 450.998" stroke="black" stroke-opacity="0.15" stroke-width="2"/>
<path d="M1841.91 418.281L1877.92 377.368L1910.2 405.775" stroke="black" stroke-opacity="0.15" stroke-width="2"/>
<g filter="url(#filter8_d_114_2653)">
<rect x="1878.08" y="402.156" width="2" height="2" transform="rotate(41.3485 1878.08 402.156)" fill="black" fill-opacity="0.15" shape-rendering="crispEdges"/>
</g>
<g filter="url(#filter9_d_114_2653)">
<rect x="1872.14" y="408.913" width="2" height="2" transform="rotate(41.3485 1872.14 408.913)" fill="black" fill-opacity="0.15" shape-rendering="crispEdges"/>
</g>
<g filter="url(#filter10_d_114_2653)">
<rect x="1866.85" y="414.918" width="2" height="2" transform="rotate(41.3485 1866.85 414.918)" fill="black" fill-opacity="0.15" shape-rendering="crispEdges"/>
</g>
<g filter="url(#filter11_d_114_2653)">
<rect x="1861.57" y="420.924" width="2" height="2" transform="rotate(41.3485 1861.57 420.924)" fill="black" fill-opacity="0.15" shape-rendering="crispEdges"/>
</g>
<path d="M1882.72 408.237L1897.74 421.45" stroke="black" stroke-opacity="0.15" stroke-width="2"/>
<path d="M1877.44 414.243L1892.45 427.456" stroke="black" stroke-opacity="0.15" stroke-width="2"/>
<path d="M1871.49 420.999L1886.51 434.212" stroke="black" stroke-opacity="0.15" stroke-width="2"/>
<path d="M1866.21 427.005L1881.22 440.218" stroke="black" stroke-opacity="0.15" stroke-width="2"/>
<path d="M797.602 511.348L803.178 509.135" stroke="black" stroke-opacity="0.15" stroke-width="2"/>
<mask id="path-66-inside-1_114_2653" fill="white">
<path fill-rule="evenodd" clip-rule="evenodd" d="M735.436 461.783C731.329 463.413 729.321 468.063 730.951 472.17L750.869 522.362C752.499 526.469 757.149 528.477 761.256 526.847L764.044 525.74L763.307 523.881L760.518 524.988C757.438 526.21 753.95 524.704 752.728 521.624C751.506 518.544 753.012 515.056 756.092 513.834L758.88 512.728L758.143 510.869L755.354 511.975C753.133 512.857 751.526 514.621 750.776 516.706L732.81 471.432C731.588 468.352 733.094 464.864 736.174 463.642L776.606 447.597L800.951 508.943L802.81 508.205L778.096 445.929L777.728 445L776.798 445.369L735.436 461.783Z"/>
</mask>
<path d="M764.044 525.74L764.782 527.599L766.641 526.862L765.903 525.003L764.044 525.74ZM763.307 523.881L765.166 523.144L764.428 521.285L762.569 522.022L763.307 523.881ZM758.88 512.728L759.618 514.587L761.477 513.849L760.739 511.99L758.88 512.728ZM758.143 510.869L760.002 510.131L759.264 508.272L757.405 509.01L758.143 510.869ZM750.776 516.706L748.917 517.443L750.868 522.359L752.658 517.383L750.776 516.706ZM776.606 447.597L778.465 446.859L777.728 445L775.869 445.738L776.606 447.597ZM800.951 508.943L799.092 509.68L799.83 511.539L801.688 510.802L800.951 508.943ZM802.81 508.205L803.547 510.064L805.406 509.326L804.669 507.467L802.81 508.205ZM777.728 445L779.586 444.262L778.849 442.403L776.99 443.141L777.728 445ZM732.81 471.432C731.588 468.352 733.094 464.864 736.174 463.642L734.698 459.924C729.565 461.961 727.055 467.774 729.092 472.907L732.81 471.432ZM752.728 521.624L732.81 471.432L729.092 472.907L749.01 523.1L752.728 521.624ZM760.518 524.988C757.438 526.21 753.95 524.704 752.728 521.624L749.01 523.1C751.047 528.233 756.86 530.743 761.994 528.706L760.518 524.988ZM763.307 523.881L760.518 524.988L761.994 528.706L764.782 527.599L763.307 523.881ZM765.903 525.003L765.166 523.144L761.448 524.619L762.185 526.478L765.903 525.003ZM762.569 522.022L759.78 523.129L761.256 526.847L764.044 525.74L762.569 522.022ZM759.78 523.129C757.727 523.944 755.402 522.94 754.587 520.886L750.869 522.362C752.499 526.469 757.149 528.477 761.256 526.847L759.78 523.129ZM754.587 520.886C753.772 518.833 754.776 516.508 756.83 515.693L755.354 511.975C751.247 513.605 749.239 518.255 750.869 522.362L754.587 520.886ZM756.83 515.693L759.618 514.587L758.143 510.869L755.354 511.975L756.83 515.693ZM760.739 511.99L760.002 510.131L756.284 511.606L757.021 513.465L760.739 511.99ZM756.092 513.834L758.88 512.728L757.405 509.01L754.616 510.116L756.092 513.834ZM752.658 517.383C753.222 515.815 754.426 514.495 756.092 513.834L754.616 510.116C751.84 511.218 749.83 513.427 748.894 516.029L752.658 517.383ZM730.951 472.17L748.917 517.443L752.635 515.968L734.669 470.694L730.951 472.17ZM735.436 461.783C731.329 463.413 729.321 468.063 730.951 472.17L734.669 470.694C733.854 468.641 734.858 466.316 736.911 465.501L735.436 461.783ZM775.869 445.738L735.436 461.783L736.911 465.501L777.344 449.456L775.869 445.738ZM802.81 508.205L778.465 446.859L774.747 448.334L799.092 509.68L802.81 508.205ZM802.072 506.346L800.213 507.084L801.688 510.802L803.547 510.064L802.072 506.346ZM776.237 446.667L800.951 508.943L804.669 507.467L779.955 445.192L776.237 446.667ZM775.869 445.738L776.237 446.667L779.955 445.192L779.586 444.262L775.869 445.738ZM777.536 447.228L778.465 446.859L776.99 443.141L776.06 443.51L777.536 447.228ZM736.174 463.642L777.536 447.228L776.06 443.51L734.698 459.924L736.174 463.642Z" fill="black" fill-opacity="0.15" mask="url(#path-66-inside-1_114_2653)"/>
<path fill-rule="evenodd" clip-rule="evenodd" d="M761.272 464.152C760.517 463.905 759.329 463.733 758.13 464.018C756.883 464.313 755.633 465.107 754.93 466.735L754.765 467.115L754.918 467.5L756.8 472.241C756.092 471.993 755.092 471.852 754.038 472.097C752.801 472.385 751.557 473.192 750.676 474.812L750.452 475.223L750.625 475.659L755.004 486.693C753.662 486.781 752.054 487.37 751.018 489.187L750.78 489.604L750.957 490.051L756.674 504.458L756.69 504.497L756.708 504.534C757.212 505.548 758.241 507.028 759.74 508.314C761.118 509.497 762.934 510.549 765.141 510.883L766.766 514.977L766.301 515.162L764.442 515.9L765.18 517.759L766.655 521.477L767.393 523.335L769.252 522.598L791.56 513.745L793.419 513.008L792.681 511.149L791.206 507.431L790.468 505.572L788.609 506.309L786.699 501.497C786.911 500.595 787.1 499.275 787.083 497.833C787.065 496.228 786.792 494.382 785.931 492.783L778.023 472.855L777.995 472.784L777.956 472.718C777.355 471.694 776.236 470.286 774.805 469.579C774.066 469.214 773.197 469.014 772.272 469.21C771.793 469.312 771.334 469.512 770.897 469.81L769.591 466.519L769.473 466.221L769.203 466.047C768.47 465.574 767.237 465.092 765.933 465.317C764.777 465.516 763.743 466.236 763.027 467.6L761.889 464.733L761.717 464.298L761.272 464.152ZM786.75 507.047L784.721 501.935L784.598 501.625L784.686 501.303C784.881 500.586 785.1 499.295 785.083 497.855C785.067 496.409 784.814 494.904 784.147 493.689L784.117 493.635L784.094 493.577L776.193 473.667C775.68 472.814 774.829 471.822 773.919 471.372C773.475 471.153 773.068 471.086 772.687 471.167C772.401 471.227 772.055 471.388 771.667 471.75L776.415 483.714L774.556 484.452L769.576 471.904L769.359 471.357L767.86 467.58C767.405 467.35 766.814 467.195 766.272 467.288C765.77 467.374 765.116 467.708 764.621 468.906L771.118 485.278L771.487 486.208L770.557 486.576L769.628 486.945L768.699 487.314L768.33 486.385L760.218 465.944C759.753 465.856 759.161 465.828 758.591 465.964C757.964 466.112 757.363 466.453 756.942 467.177L765.076 487.676L765.445 488.605L764.516 488.974L763.122 489.527L762.192 489.896L761.823 488.967L755.908 474.06C755.526 473.965 755.018 473.923 754.491 474.045C753.9 474.183 753.234 474.539 752.667 475.381L757.463 487.469L760.23 494.44L758.371 495.178L755.801 488.701C755 488.597 753.813 488.755 753.008 489.797L758.517 503.68C758.915 504.466 759.774 505.708 761.043 506.796C762.324 507.895 763.972 508.796 765.937 508.965L766.553 509.018L766.781 509.592L768.625 514.24L786.75 507.047ZM767.039 517.021L789.347 508.168L790.822 511.886L768.514 520.739L767.039 517.021Z" fill="black" fill-opacity="0.15"/>
<path d="M791.044 498.888L796.156 496.859" stroke="black" stroke-opacity="0.15" stroke-width="2"/>
<path d="M1144.63 1768.62L1146.55 1762.94" stroke="black" stroke-opacity="0.15" stroke-width="2"/>
<mask id="path-71-inside-2_114_2653" fill="white">
<path fill-rule="evenodd" clip-rule="evenodd" d="M1066.61 1783.96C1065.2 1788.15 1067.45 1792.69 1071.63 1794.1L1122.79 1811.38C1126.98 1812.8 1131.52 1810.55 1132.93 1806.36L1133.89 1803.52L1132 1802.88L1131.04 1805.72C1129.98 1808.86 1126.57 1810.55 1123.43 1809.49C1120.29 1808.43 1118.61 1805.02 1119.67 1801.88L1120.63 1799.04L1118.73 1798.4L1117.77 1801.24C1117.01 1803.51 1117.31 1805.87 1118.42 1807.8L1072.27 1792.21C1069.13 1791.14 1067.45 1787.74 1068.51 1784.6L1082.43 1743.39L1144.96 1764.51L1145.6 1762.62L1082.12 1741.17L1081.18 1740.85L1080.86 1741.8L1066.61 1783.96Z"/>
</mask>
<path d="M1133.89 1803.52L1135.79 1804.16L1136.43 1802.27L1134.53 1801.63L1133.89 1803.52ZM1132 1802.88L1132.64 1800.99L1130.74 1800.35L1130.1 1802.24L1132 1802.88ZM1120.63 1799.04L1122.52 1799.68L1123.16 1797.79L1121.27 1797.15L1120.63 1799.04ZM1118.73 1798.4L1119.37 1796.51L1117.48 1795.87L1116.84 1797.76L1118.73 1798.4ZM1118.42 1807.8L1117.78 1809.69L1122.79 1811.38L1120.15 1806.8L1118.42 1807.8ZM1072.27 1792.21L1071.63 1794.1L1072.27 1792.21ZM1082.43 1743.39L1083.07 1741.49L1081.18 1740.85L1080.54 1742.75L1082.43 1743.39ZM1144.96 1764.51L1144.32 1766.41L1146.21 1767.05L1146.85 1765.15L1144.96 1764.51ZM1145.6 1762.62L1147.49 1763.26L1148.13 1761.36L1146.24 1760.72L1145.6 1762.62ZM1082.12 1741.17L1082.76 1739.28L1082.12 1741.17ZM1081.18 1740.85L1081.82 1738.96L1079.92 1738.32L1079.28 1740.21L1081.18 1740.85ZM1072.27 1792.21C1069.13 1791.14 1067.45 1787.74 1068.51 1784.6L1064.72 1783.32C1062.95 1788.55 1065.76 1794.23 1070.99 1796L1072.27 1792.21ZM1123.43 1809.49L1072.27 1792.21L1070.99 1796L1122.15 1813.28L1123.43 1809.49ZM1131.04 1805.72C1129.98 1808.86 1126.57 1810.55 1123.43 1809.49L1122.15 1813.28C1127.38 1815.05 1133.06 1812.24 1134.83 1807.01L1131.04 1805.72ZM1132 1802.88L1131.04 1805.72L1134.83 1807.01L1135.79 1804.16L1132 1802.88ZM1134.53 1801.63L1132.64 1800.99L1131.36 1804.78L1133.25 1805.42L1134.53 1801.63ZM1130.1 1802.24L1129.14 1805.08L1132.93 1806.36L1133.89 1803.52L1130.1 1802.24ZM1129.14 1805.08C1128.44 1807.18 1126.17 1808.3 1124.07 1807.59L1122.79 1811.38C1126.98 1812.8 1131.52 1810.55 1132.93 1806.36L1129.14 1805.08ZM1124.07 1807.59C1121.98 1806.89 1120.86 1804.62 1121.56 1802.52L1117.77 1801.24C1116.36 1805.43 1118.61 1809.97 1122.79 1811.38L1124.07 1807.59ZM1121.56 1802.52L1122.52 1799.68L1118.73 1798.4L1117.77 1801.24L1121.56 1802.52ZM1121.27 1797.15L1119.37 1796.51L1118.09 1800.3L1119.99 1800.94L1121.27 1797.15ZM1119.67 1801.88L1120.63 1799.04L1116.84 1797.76L1115.88 1800.6L1119.67 1801.88ZM1120.15 1806.8C1119.32 1805.35 1119.09 1803.58 1119.67 1801.88L1115.88 1800.6C1114.92 1803.43 1115.31 1806.4 1116.69 1808.79L1120.15 1806.8ZM1071.63 1794.1L1117.78 1809.69L1119.06 1805.9L1072.91 1790.31L1071.63 1794.1ZM1066.61 1783.96C1065.2 1788.15 1067.45 1792.69 1071.63 1794.1L1072.91 1790.31C1070.82 1789.6 1069.7 1787.33 1070.4 1785.24L1066.61 1783.96ZM1080.54 1742.75L1066.61 1783.96L1070.4 1785.24L1084.33 1744.03L1080.54 1742.75ZM1145.6 1762.62L1083.07 1741.49L1081.79 1745.28L1144.32 1766.41L1145.6 1762.62ZM1143.71 1761.98L1143.07 1763.87L1146.85 1765.15L1147.49 1763.26L1143.71 1761.98ZM1081.48 1743.07L1144.96 1764.51L1146.24 1760.72L1082.76 1739.28L1081.48 1743.07ZM1080.54 1742.75L1081.48 1743.07L1082.76 1739.28L1081.82 1738.96L1080.54 1742.75ZM1082.75 1742.44L1083.07 1741.49L1079.28 1740.21L1078.96 1741.16L1082.75 1742.44ZM1068.51 1784.6L1082.75 1742.44L1078.96 1741.16L1064.72 1783.32L1068.51 1784.6Z" fill="black" fill-opacity="0.15" mask="url(#path-71-inside-2_114_2653)"/>
<path fill-rule="evenodd" clip-rule="evenodd" d="M1085.13 1765.79C1084.46 1766.21 1083.56 1767 1083 1768.1C1082.42 1769.24 1082.21 1770.71 1083 1772.3L1083.18 1772.67L1083.58 1772.8L1088.41 1774.44C1087.76 1774.81 1087.01 1775.49 1086.51 1776.45C1085.93 1777.58 1085.74 1779.05 1086.41 1780.77L1086.58 1781.21L1087.02 1781.36L1098.27 1785.15C1097.47 1786.23 1096.88 1787.84 1097.59 1789.81L1097.76 1790.26L1098.21 1790.41L1112.9 1795.37L1112.93 1795.39L1112.98 1795.4C1114.07 1795.67 1115.87 1795.84 1117.82 1795.53C1119.61 1795.24 1121.59 1794.54 1123.27 1793.07L1127.45 1794.48L1127.29 1794.96L1126.65 1796.85L1128.54 1797.49L1132.33 1798.77L1134.22 1799.41L1134.86 1797.52L1142.55 1774.78L1143.19 1772.89L1141.29 1772.25L1137.5 1770.97L1135.61 1770.33L1134.97 1772.22L1130.06 1770.56C1129.51 1769.82 1128.63 1768.82 1127.52 1767.9C1126.28 1766.88 1124.7 1765.89 1122.92 1765.51L1102.61 1758.65L1102.54 1758.63L1102.46 1758.61C1101.29 1758.41 1099.49 1758.35 1098.03 1758.98C1097.27 1759.31 1096.56 1759.84 1096.11 1760.68C1095.88 1761.11 1095.73 1761.59 1095.68 1762.11L1092.32 1760.98L1092.02 1760.88L1091.71 1760.97C1090.88 1761.22 1089.71 1761.85 1089.04 1762.99C1088.44 1764 1088.32 1765.26 1088.9 1766.68L1085.98 1765.7L1085.53 1765.55L1085.13 1765.79ZM1134.33 1774.11L1129.12 1772.35L1128.8 1772.25L1128.61 1771.97C1128.19 1771.36 1127.35 1770.36 1126.24 1769.44C1125.13 1768.52 1123.82 1767.74 1122.46 1767.46L1122.4 1767.45L1122.34 1767.43L1102.04 1760.57C1101.06 1760.41 1099.75 1760.42 1098.82 1760.82C1098.37 1761.02 1098.05 1761.28 1097.87 1761.63C1097.73 1761.88 1097.63 1762.25 1097.65 1762.78L1109.85 1766.9L1109.21 1768.8L1096.42 1764.47L1095.86 1764.29L1092.01 1762.99C1091.54 1763.18 1091.04 1763.53 1090.76 1764.01C1090.5 1764.45 1090.33 1765.16 1090.93 1766.31L1107.61 1771.95L1108.56 1772.27L1108.24 1773.22L1107.92 1774.17L1107.6 1775.11L1106.65 1774.79L1085.82 1767.75C1085.45 1768.05 1085.05 1768.49 1084.78 1769.01C1084.49 1769.58 1084.36 1770.26 1084.64 1771.05L1105.53 1778.11L1106.48 1778.43L1106.16 1779.38L1105.68 1780.8L1105.36 1781.75L1104.41 1781.43L1089.22 1776.29C1088.9 1776.52 1088.54 1776.88 1088.29 1777.36C1088.01 1777.9 1087.86 1778.64 1088.13 1779.62L1100.45 1783.78L1107.56 1786.18L1106.92 1788.08L1100.32 1785.85C1099.72 1786.39 1099.07 1787.4 1099.34 1788.68L1113.49 1793.47C1114.35 1793.67 1115.85 1793.82 1117.5 1793.56C1119.17 1793.29 1120.92 1792.62 1122.32 1791.23L1122.76 1790.79L1123.35 1790.99L1128.09 1792.59L1134.33 1774.11ZM1129.18 1795.6L1136.86 1772.86L1140.65 1774.14L1132.97 1796.88L1129.18 1795.6Z" fill="black" fill-opacity="0.15"/>
<path d="M1130.88 1765.56L1132.64 1760.35" stroke="black" stroke-opacity="0.15" stroke-width="2"/>
<path d="M2892.6 511.348L2898.18 509.135" stroke="black" stroke-opacity="0.15" stroke-width="2"/>
<mask id="path-76-inside-3_114_2653" fill="white">
<path fill-rule="evenodd" clip-rule="evenodd" d="M2830.44 461.783C2826.33 463.413 2824.32 468.063 2825.95 472.17L2845.87 522.362C2847.5 526.469 2852.15 528.477 2856.26 526.847L2859.04 525.74L2858.31 523.881L2855.52 524.988C2852.44 526.21 2848.95 524.704 2847.73 521.624C2846.51 518.544 2848.01 515.056 2851.09 513.834L2853.88 512.728L2853.14 510.869L2850.35 511.975C2848.13 512.857 2846.53 514.621 2845.78 516.706L2827.81 471.432C2826.59 468.352 2828.09 464.864 2831.17 463.642L2871.61 447.597L2895.95 508.943L2897.81 508.205L2873.1 445.929L2872.73 445L2871.8 445.369L2830.44 461.783Z"/>
</mask>
<path d="M2830.44 461.783L2829.7 459.924L2830.44 461.783ZM2856.26 526.847L2856.99 528.706L2856.26 526.847ZM2859.04 525.74L2859.78 527.599L2861.64 526.862L2860.9 525.003L2859.04 525.74ZM2858.31 523.881L2860.17 523.144L2859.43 521.285L2857.57 522.022L2858.31 523.881ZM2855.52 524.988L2854.78 523.129L2855.52 524.988ZM2853.88 512.728L2854.62 514.587L2856.48 513.849L2855.74 511.99L2853.88 512.728ZM2853.14 510.869L2855 510.131L2854.26 508.272L2852.4 509.01L2853.14 510.869ZM2850.35 511.975L2851.09 513.834L2850.35 511.975ZM2845.78 516.706L2843.92 517.443L2845.87 522.359L2847.66 517.383L2845.78 516.706ZM2827.81 471.432L2825.95 472.17L2827.81 471.432ZM2871.61 447.597L2873.47 446.859L2872.73 445L2870.87 445.738L2871.61 447.597ZM2895.95 508.943L2894.09 509.68L2894.83 511.539L2896.69 510.802L2895.95 508.943ZM2897.81 508.205L2898.55 510.064L2900.41 509.326L2899.67 507.467L2897.81 508.205ZM2873.1 445.929L2874.96 445.192L2873.1 445.929ZM2872.73 445L2874.59 444.262L2873.85 442.403L2871.99 443.141L2872.73 445ZM2871.8 445.369L2872.54 447.228L2871.8 445.369ZM2827.81 471.432C2826.59 468.352 2828.09 464.864 2831.17 463.642L2829.7 459.924C2824.56 461.961 2822.05 467.774 2824.09 472.907L2827.81 471.432ZM2847.73 521.624L2827.81 471.432L2824.09 472.907L2844.01 523.1L2847.73 521.624ZM2855.52 524.988C2852.44 526.21 2848.95 524.704 2847.73 521.624L2844.01 523.1C2846.05 528.233 2851.86 530.743 2856.99 528.706L2855.52 524.988ZM2858.31 523.881L2855.52 524.988L2856.99 528.706L2859.78 527.599L2858.31 523.881ZM2860.9 525.003L2860.17 523.144L2856.45 524.619L2857.19 526.478L2860.9 525.003ZM2857.57 522.022L2854.78 523.129L2856.26 526.847L2859.04 525.74L2857.57 522.022ZM2854.78 523.129C2852.73 523.944 2850.4 522.94 2849.59 520.886L2845.87 522.362C2847.5 526.469 2852.15 528.477 2856.26 526.847L2854.78 523.129ZM2849.59 520.886C2848.77 518.833 2849.78 516.508 2851.83 515.693L2850.35 511.975C2846.25 513.605 2844.24 518.255 2845.87 522.362L2849.59 520.886ZM2851.83 515.693L2854.62 514.587L2853.14 510.869L2850.35 511.975L2851.83 515.693ZM2855.74 511.99L2855 510.131L2851.28 511.606L2852.02 513.465L2855.74 511.99ZM2851.09 513.834L2853.88 512.728L2852.4 509.01L2849.62 510.116L2851.09 513.834ZM2847.66 517.383C2848.22 515.815 2849.43 514.495 2851.09 513.834L2849.62 510.116C2846.84 511.218 2844.83 513.427 2843.89 516.029L2847.66 517.383ZM2825.95 472.17L2843.92 517.443L2847.64 515.968L2829.67 470.694L2825.95 472.17ZM2830.44 461.783C2826.33 463.413 2824.32 468.063 2825.95 472.17L2829.67 470.694C2828.85 468.641 2829.86 466.316 2831.91 465.501L2830.44 461.783ZM2870.87 445.738L2830.44 461.783L2831.91 465.501L2872.34 449.456L2870.87 445.738ZM2897.81 508.205L2873.47 446.859L2869.75 448.334L2894.09 509.68L2897.81 508.205ZM2897.07 506.346L2895.21 507.084L2896.69 510.802L2898.55 510.064L2897.07 506.346ZM2871.24 446.667L2895.95 508.943L2899.67 507.467L2874.96 445.192L2871.24 446.667ZM2870.87 445.738L2871.24 446.667L2874.96 445.192L2874.59 444.262L2870.87 445.738ZM2872.54 447.228L2873.47 446.859L2871.99 443.141L2871.06 443.51L2872.54 447.228ZM2831.17 463.642L2872.54 447.228L2871.06 443.51L2829.7 459.924L2831.17 463.642Z" fill="black" fill-opacity="0.15" mask="url(#path-76-inside-3_114_2653)"/>
<path fill-rule="evenodd" clip-rule="evenodd" d="M2856.27 464.152C2855.52 463.905 2854.33 463.733 2853.13 464.018C2851.88 464.313 2850.63 465.107 2849.93 466.735L2849.77 467.115L2849.92 467.5L2851.8 472.241C2851.09 471.993 2850.09 471.852 2849.04 472.097C2847.8 472.385 2846.56 473.192 2845.68 474.812L2845.45 475.223L2845.62 475.659L2850 486.693C2848.66 486.781 2847.05 487.37 2846.02 489.187L2845.78 489.604L2845.96 490.051L2851.67 504.458L2851.69 504.497L2851.71 504.534C2852.21 505.548 2853.24 507.028 2854.74 508.314C2856.12 509.497 2857.93 510.549 2860.14 510.883L2861.77 514.977L2861.3 515.162L2859.44 515.9L2860.18 517.759L2861.66 521.477L2862.39 523.335L2864.25 522.598L2886.56 513.745L2888.42 513.008L2887.68 511.149L2886.21 507.431L2885.47 505.572L2883.61 506.309L2881.7 501.497C2881.91 500.595 2882.1 499.275 2882.08 497.833C2882.07 496.228 2881.79 494.382 2880.93 492.783L2873.02 472.855L2872.99 472.784L2872.96 472.718C2872.36 471.694 2871.24 470.286 2869.8 469.579C2869.07 469.214 2868.2 469.014 2867.27 469.21C2866.79 469.312 2866.33 469.512 2865.9 469.81L2864.59 466.519L2864.47 466.221L2864.2 466.047C2863.47 465.574 2862.24 465.092 2860.93 465.317C2859.78 465.516 2858.74 466.236 2858.03 467.6L2856.89 464.733L2856.72 464.298L2856.27 464.152ZM2881.75 507.047L2879.72 501.935L2879.6 501.625L2879.69 501.303C2879.88 500.586 2880.1 499.295 2880.08 497.855C2880.07 496.409 2879.81 494.904 2879.15 493.689L2879.12 493.635L2879.09 493.577L2871.19 473.667C2870.68 472.814 2869.83 471.822 2868.92 471.372C2868.48 471.153 2868.07 471.086 2867.69 471.167C2867.4 471.227 2867.05 471.388 2866.67 471.75L2871.41 483.714L2869.56 484.452L2864.58 471.904L2864.36 471.357L2862.86 467.58C2862.41 467.35 2861.81 467.195 2861.27 467.288C2860.77 467.374 2860.12 467.708 2859.62 468.906L2866.12 485.278L2866.49 486.208L2865.56 486.576L2864.63 486.945L2863.7 487.314L2863.33 486.385L2855.22 465.944C2854.75 465.856 2854.16 465.828 2853.59 465.964C2852.96 466.112 2852.36 466.453 2851.94 467.177L2860.08 487.676L2860.45 488.605L2859.52 488.974L2858.12 489.527L2857.19 489.896L2856.82 488.967L2850.91 474.06C2850.53 473.965 2850.02 473.923 2849.49 474.045C2848.9 474.183 2848.23 474.539 2847.67 475.381L2852.46 487.469L2855.23 494.44L2853.37 495.178L2850.8 488.701C2850 488.597 2848.81 488.755 2848.01 489.797L2853.52 503.68C2853.91 504.466 2854.77 505.708 2856.04 506.796C2857.32 507.895 2858.97 508.796 2860.94 508.965L2861.55 509.018L2861.78 509.592L2863.63 514.24L2881.75 507.047ZM2862.04 517.021L2884.35 508.168L2885.82 511.886L2863.51 520.739L2862.04 517.021Z" fill="black" fill-opacity="0.15"/>
<path d="M2886.04 498.888L2891.16 496.859" stroke="black" stroke-opacity="0.15" stroke-width="2"/>
<defs>
<filter id="filter0_d_114_2653" x="209.506" y="172.686" width="10.7285" height="10.7289" filterUnits="userSpaceOnUse" color-interpolation-filters="sRGB">
<feFlood flood-opacity="0" result="BackgroundImageFix"/>
<feColorMatrix in="SourceAlpha" type="matrix" values="0 0 0 0 0 0 0 0 0 0 0 0 0 0 0 0 0 0 127 0" result="hardAlpha"/>
<feOffset dy="4"/>
<feGaussianBlur stdDeviation="2"/>
<feComposite in2="hardAlpha" operator="out"/>
<feColorMatrix type="matrix" values="0 0 0 0 0 0 0 0 0 0 0 0 0 0 0 0 0 0 0.25 0"/>
<feBlend mode="normal" in2="BackgroundImageFix" result="effect1_dropShadow_114_2653"/>
<feBlend mode="normal" in="SourceGraphic" in2="effect1_dropShadow_114_2653" result="shape"/>
</filter>
<filter id="filter1_d_114_2653" x="213.973" y="180.5" width="10.7285" height="10.7289" filterUnits="userSpaceOnUse" color-interpolation-filters="sRGB">
<feFlood flood-opacity="0" result="BackgroundImageFix"/>
<feColorMatrix in="SourceAlpha" type="matrix" values="0 0 0 0 0 0 0 0 0 0 0 0 0 0 0 0 0 0 127 0" result="hardAlpha"/>
<feOffset dy="4"/>
<feGaussianBlur stdDeviation="2"/>
<feComposite in2="hardAlpha" operator="out"/>
<feColorMatrix type="matrix" values="0 0 0 0 0 0 0 0 0 0 0 0 0 0 0 0 0 0 0.25 0"/>
<feBlend mode="normal" in2="BackgroundImageFix" result="effect1_dropShadow_114_2653"/>
<feBlend mode="normal" in="SourceGraphic" in2="effect1_dropShadow_114_2653" result="shape"/>
</filter>
<filter id="filter2_d_114_2653" x="217.942" y="187.445" width="10.7285" height="10.7289" filterUnits="userSpaceOnUse" color-interpolation-filters="sRGB">
<feFlood flood-opacity="0" result="BackgroundImageFix"/>
<feColorMatrix in="SourceAlpha" type="matrix" values="0 0 0 0 0 0 0 0 0 0 0 0 0 0 0 0 0 0 127 0" result="hardAlpha"/>
<feOffset dy="4"/>
<feGaussianBlur stdDeviation="2"/>
<feComposite in2="hardAlpha" operator="out"/>
<feColorMatrix type="matrix" values="0 0 0 0 0 0 0 0 0 0 0 0 0 0 0 0 0 0 0.25 0"/>
<feBlend mode="normal" in2="BackgroundImageFix" result="effect1_dropShadow_114_2653"/>
<feBlend mode="normal" in="SourceGraphic" in2="effect1_dropShadow_114_2653" result="shape"/>
</filter>
<filter id="filter3_d_114_2653" x="221.913" y="194.39" width="10.7285" height="10.7289" filterUnits="userSpaceOnUse" color-interpolation-filters="sRGB">
<feFlood flood-opacity="0" result="BackgroundImageFix"/>
<feColorMatrix in="SourceAlpha" type="matrix" values="0 0 0 0 0 0 0 0 0 0 0 0 0 0 0 0 0 0 127 0" result="hardAlpha"/>
<feOffset dy="4"/>
<feGaussianBlur stdDeviation="2"/>
<feComposite in2="hardAlpha" operator="out"/>
<feColorMatrix type="matrix" values="0 0 0 0 0 0 0 0 0 0 0 0 0 0 0 0 0 0 0.25 0"/>
<feBlend mode="normal" in2="BackgroundImageFix" result="effect1_dropShadow_114_2653"/>
<feBlend mode="normal" in="SourceGraphic" in2="effect1_dropShadow_114_2653" result="shape"/>
</filter>
<filter id="filter4_d_114_2653" x="1803.65" y="2098.29" width="10.7139" height="10.7136" filterUnits="userSpaceOnUse" color-interpolation-filters="sRGB">
<feFlood flood-opacity="0" result="BackgroundImageFix"/>
<feColorMatrix in="SourceAlpha" type="matrix" values="0 0 0 0 0 0 0 0 0 0 0 0 0 0 0 0 0 0 127 0" result="hardAlpha"/>
<feOffset dy="4"/>
<feGaussianBlur stdDeviation="2"/>
<feComposite in2="hardAlpha" operator="out"/>
<feColorMatrix type="matrix" values="0 0 0 0 0 0 0 0 0 0 0 0 0 0 0 0 0 0 0.25 0"/>
<feBlend mode="normal" in2="BackgroundImageFix" result="effect1_dropShadow_114_2653"/>
<feBlend mode="normal" in="SourceGraphic" in2="effect1_dropShadow_114_2653" result="shape"/>
</filter>
<filter id="filter5_d_114_2653" x="1799.34" y="2106.19" width="10.7139" height="10.7136" filterUnits="userSpaceOnUse" color-interpolation-filters="sRGB">
<feFlood flood-opacity="0" result="BackgroundImageFix"/>
<feColorMatrix in="SourceAlpha" type="matrix" values="0 0 0 0 0 0 0 0 0 0 0 0 0 0 0 0 0 0 127 0" result="hardAlpha"/>
<feOffset dy="4"/>
<feGaussianBlur stdDeviation="2"/>
<feComposite in2="hardAlpha" operator="out"/>
<feColorMatrix type="matrix" values="0 0 0 0 0 0 0 0 0 0 0 0 0 0 0 0 0 0 0.25 0"/>
<feBlend mode="normal" in2="BackgroundImageFix" result="effect1_dropShadow_114_2653"/>
<feBlend mode="normal" in="SourceGraphic" in2="effect1_dropShadow_114_2653" result="shape"/>
</filter>
<filter id="filter6_d_114_2653" x="1795.5" y="2113.22" width="10.7139" height="10.7136" filterUnits="userSpaceOnUse" color-interpolation-filters="sRGB">
<feFlood flood-opacity="0" result="BackgroundImageFix"/>
<feColorMatrix in="SourceAlpha" type="matrix" values="0 0 0 0 0 0 0 0 0 0 0 0 0 0 0 0 0 0 127 0" result="hardAlpha"/>
<feOffset dy="4"/>
<feGaussianBlur stdDeviation="2"/>
<feComposite in2="hardAlpha" operator="out"/>
<feColorMatrix type="matrix" values="0 0 0 0 0 0 0 0 0 0 0 0 0 0 0 0 0 0 0.25 0"/>
<feBlend mode="normal" in2="BackgroundImageFix" result="effect1_dropShadow_114_2653"/>
<feBlend mode="normal" in="SourceGraphic" in2="effect1_dropShadow_114_2653" result="shape"/>
</filter>
<filter id="filter7_d_114_2653" x="1791.67" y="2120.24" width="10.7139" height="10.7136" filterUnits="userSpaceOnUse" color-interpolation-filters="sRGB">
<feFlood flood-opacity="0" result="BackgroundImageFix"/>
<feColorMatrix in="SourceAlpha" type="matrix" values="0 0 0 0 0 0 0 0 0 0 0 0 0 0 0 0 0 0 127 0" result="hardAlpha"/>
<feOffset dy="4"/>
<feGaussianBlur stdDeviation="2"/>
<feComposite in2="hardAlpha" operator="out"/>
<feColorMatrix type="matrix" values="0 0 0 0 0 0 0 0 0 0 0 0 0 0 0 0 0 0 0.25 0"/>
<feBlend mode="normal" in2="BackgroundImageFix" result="effect1_dropShadow_114_2653"/>
<feBlend mode="normal" in="SourceGraphic" in2="effect1_dropShadow_114_2653" result="shape"/>
</filter>
<filter id="filter8_d_114_2653" x="1872.76" y="402.156" width="10.8223" height="10.8226" filterUnits="userSpaceOnUse" color-interpolation-filters="sRGB">
<feFlood flood-opacity="0" result="BackgroundImageFix"/>
<feColorMatrix in="SourceAlpha" type="matrix" values="0 0 0 0 0 0 0 0 0 0 0 0 0 0 0 0 0 0 127 0" result="hardAlpha"/>
<feOffset dy="4"/>
<feGaussianBlur stdDeviation="2"/>
<feComposite in2="hardAlpha" operator="out"/>
<feColorMatrix type="matrix" values="0 0 0 0 0 0 0 0 0 0 0 0 0 0 0 0 0 0 0.25 0"/>
<feBlend mode="normal" in2="BackgroundImageFix" result="effect1_dropShadow_114_2653"/>
<feBlend mode="normal" in="SourceGraphic" in2="effect1_dropShadow_114_2653" result="shape"/>
</filter>
<filter id="filter9_d_114_2653" x="1866.82" y="408.913" width="10.8223" height="10.8226" filterUnits="userSpaceOnUse" color-interpolation-filters="sRGB">
<feFlood flood-opacity="0" result="BackgroundImageFix"/>
<feColorMatrix in="SourceAlpha" type="matrix" values="0 0 0 0 0 0 0 0 0 0 0 0 0 0 0 0 0 0 127 0" result="hardAlpha"/>
<feOffset dy="4"/>
<feGaussianBlur stdDeviation="2"/>
<feComposite in2="hardAlpha" operator="out"/>
<feColorMatrix type="matrix" values="0 0 0 0 0 0 0 0 0 0 0 0 0 0 0 0 0 0 0.25 0"/>
<feBlend mode="normal" in2="BackgroundImageFix" result="effect1_dropShadow_114_2653"/>
<feBlend mode="normal" in="SourceGraphic" in2="effect1_dropShadow_114_2653" result="shape"/>
</filter>
<filter id="filter10_d_114_2653" x="1861.53" y="414.918" width="10.8223" height="10.8226" filterUnits="userSpaceOnUse" color-interpolation-filters="sRGB">
<feFlood flood-opacity="0" result="BackgroundImageFix"/>
<feColorMatrix in="SourceAlpha" type="matrix" values="0 0 0 0 0 0 0 0 0 0 0 0 0 0 0 0 0 0 127 0" result="hardAlpha"/>
<feOffset dy="4"/>
<feGaussianBlur stdDeviation="2"/>
<feComposite in2="hardAlpha" operator="out"/>
<feColorMatrix type="matrix" values="0 0 0 0 0 0 0 0 0 0 0 0 0 0 0 0 0 0 0.25 0"/>
<feBlend mode="normal" in2="BackgroundImageFix" result="effect1_dropShadow_114_2653"/>
<feBlend mode="normal" in="SourceGraphic" in2="effect1_dropShadow_114_2653" result="shape"/>
</filter>
<filter id="filter11_d_114_2653" x="1856.25" y="420.924" width="10.8223" height="10.8226" filterUnits="userSpaceOnUse" color-interpolation-filters="sRGB">
<feFlood flood-opacity="0" result="BackgroundImageFix"/>
<feColorMatrix in="SourceAlpha" type="matrix" values="0 0 0 0 0 0 0 0 0 0 0 0 0 0 0 0 0 0 127 0" result="hardAlpha"/>
<feOffset dy="4"/>
<feGaussianBlur stdDeviation="2"/>
<feComposite in2="hardAlpha" operator="out"/>
<feColorMatrix type="matrix" values="0 0 0 0 0 0 0 0 0 0 0 0 0 0 0 0 0 0 0.25 0"/>
<feBlend mode="normal" in2="BackgroundImageFix" result="effect1_dropShadow_114_2653"/>
<feBlend mode="normal" in="SourceGraphic" in2="effect1_dropShadow_114_2653" result="shape"/>
</filter>
</defs>
</svg>
