<svg width="524" height="574" viewBox="0 0 524 574" fill="none" xmlns="http://www.w3.org/2000/svg">
<rect opacity="0.8" width="524" height="574" fill="white"/>
<path fill-rule="evenodd" clip-rule="evenodd" d="M394.459 98.4743C393.125 90.2661 386.004 84 377.419 84C371.122 84 365.612 87.3713 362.596 92.4074C360.164 90.5703 357.135 89.4808 353.852 89.4808C348.039 89.4808 343.023 92.8957 340.702 97.8288C339.317 97.3904 337.843 97.1538 336.313 97.1538C328.292 97.1538 321.789 103.656 321.789 111.678C321.789 118.911 327.076 124.909 333.996 126.018C335.113 134.474 342.35 141 351.111 141C356.38 141 361.098 138.639 364.265 134.918C367.432 138.639 372.15 141 377.419 141C383.641 141 389.093 137.709 392.132 132.773C401.453 132.527 408.933 124.894 408.933 115.514C408.933 106.929 402.667 99.808 394.459 98.4743Z" fill="#DEF1F8"/>
<rect x="147.789" y="254" width="237" height="239" rx="39" fill="url(#paint0_linear_219_10)"/>
<path fill-rule="evenodd" clip-rule="evenodd" d="M186.789 220C186.789 176.37 222.159 141 265.789 141C309.42 141 344.789 176.37 344.789 220V254H321.789V219.5C321.789 188.848 296.941 164 266.289 164C235.637 164 210.789 188.848 210.789 219.5V254H186.789V220Z" fill="#0A559E"/>
<rect x="186.789" y="244" width="24" height="10" fill="#063781"/>
<rect x="321.789" y="244" width="23" height="10" fill="#063781"/>
<path fill-rule="evenodd" clip-rule="evenodd" d="M278.552 371.715C285.868 367.477 290.789 359.563 290.789 350.5C290.789 336.969 279.82 326 266.289 326C252.758 326 241.789 336.969 241.789 350.5C241.789 359.439 246.577 367.26 253.728 371.539L242.789 419.5H290.289L278.552 371.715Z" fill="#063780"/>
<path d="M183.777 78.0909L184.808 89.9268L192.492 98.9881L180.656 100.019L171.595 107.703L170.564 95.8676L162.88 86.8062L174.716 85.7749L183.777 78.0909Z" fill="#DEF1F8"/>
<path fill-rule="evenodd" clip-rule="evenodd" d="M144.907 204.164C142.61 199.899 138.104 197 132.92 197C126.47 197 121.069 201.488 119.668 207.512C118.385 207.111 117.02 206.895 115.605 206.895C108.091 206.895 102 212.986 102 220.5C102 228.014 108.091 234.105 115.605 234.105C117.899 234.105 120.061 233.538 121.957 232.535C122.983 239.032 128.609 244 135.395 244C138.632 244 141.605 242.87 143.94 240.982C145.153 241.337 146.436 241.527 147.763 241.527C155.277 241.527 161.368 235.435 161.368 227.921C161.368 227.033 161.283 226.165 161.12 225.325C165.66 223.12 168.79 218.465 168.79 213.079C168.79 205.565 162.699 199.474 155.185 199.474C151.081 199.474 147.402 201.291 144.907 204.164Z" fill="#DEF1F8"/>
<path d="M221.342 349H118.842C101.642 437 146.342 479.667 170.842 490C224.442 463.2 226.842 384.833 221.342 349Z" fill="url(#paint1_linear_219_10)"/>
<path d="M202.626 349H103.489C102.533 349 101.704 349.703 101.527 350.643C85.3827 436.558 128.51 478.78 153.016 489.643C153.55 489.879 154.152 489.847 154.671 489.579C206.657 462.806 209.73 387.02 204.588 350.67C204.45 349.692 203.613 349 202.626 349Z" fill="white" stroke="url(#paint2_linear_219_10)" stroke-width="10"/>
<circle cx="152" cy="401" r="28" fill="#0C59A1"/>
<path d="M139 404L146.5 411.5L164.5 390" stroke="url(#paint3_linear_219_10)" stroke-width="3"/>
<defs>
<linearGradient id="paint0_linear_219_10" x1="385" y1="373" x2="148" y2="373" gradientUnits="userSpaceOnUse">
<stop stop-color="#FED53E"/>
<stop offset="1" stop-color="#FEE673"/>
</linearGradient>
<linearGradient id="paint1_linear_219_10" x1="185.5" y1="490" x2="185.5" y2="349" gradientUnits="userSpaceOnUse">
<stop stop-opacity="0.2"/>
<stop offset="1" stop-color="#D5D5D5" stop-opacity="0"/>
</linearGradient>
<linearGradient id="paint2_linear_219_10" x1="152.182" y1="349" x2="152.182" y2="490" gradientUnits="userSpaceOnUse">
<stop stop-color="#2993C7"/>
<stop offset="1" stop-color="#0B569F"/>
</linearGradient>
<linearGradient id="paint3_linear_219_10" x1="151.75" y1="390" x2="151.75" y2="411.5" gradientUnits="userSpaceOnUse">
<stop stop-color="white"/>
</linearGradient>
</defs>
</svg>
