<svg width="944" height="245" viewBox="0 0 944 245" fill="none" xmlns="http://www.w3.org/2000/svg">
<rect y="20" width="205" height="205" rx="102.5" fill="#23022E"/>
<path d="M116.667 147.592C107.739 150.248 98.2518 150.386 89.2515 147.989C80.2512 145.592 72.0882 140.755 65.6639 134.011C59.2396 127.268 54.8039 118.88 52.8465 109.774C50.8891 100.668 51.4862 91.198 54.5718 82.4101C57.6574 73.6221 63.1116 65.8577 70.332 59.9743C77.5525 54.0909 86.2584 50.3172 95.4884 49.07C104.718 47.8228 114.114 49.1506 122.637 52.9067C131.16 56.6629 138.479 62.7012 143.786 70.3551L128.282 81.106C124.956 76.3094 120.369 72.5253 115.028 70.1714C109.687 67.8176 103.799 66.9855 98.0148 67.7671C92.2306 68.5487 86.7748 70.9135 82.2499 74.6005C77.725 78.2875 74.307 83.1533 72.3733 88.6605C70.4396 94.1677 70.0654 100.102 71.2921 105.809C72.5188 111.515 75.2985 116.772 79.3245 120.998C83.3505 125.224 88.466 128.255 94.1063 129.757C99.7466 131.259 105.692 131.173 111.287 129.509L116.667 147.592Z" fill="url(#paint0_linear_68_2)"/>
<path d="M92.9673 93.1561C102.12 91.4293 111.571 92.2653 120.279 95.5718C128.986 98.8783 136.61 104.527 142.309 111.893C148.009 119.26 151.561 128.059 152.575 137.317C153.589 146.576 152.024 155.934 148.054 164.36C144.084 172.785 137.863 179.95 130.077 185.062C122.292 190.174 113.245 193.036 103.936 193.33C94.6263 193.625 85.4166 191.341 77.3236 186.731C69.2305 182.121 62.5687 175.365 58.0739 167.207L74.5984 158.102C77.4152 163.214 81.59 167.448 86.6618 170.337C91.7335 173.226 97.505 174.657 103.339 174.473C109.173 174.288 114.842 172.495 119.721 169.291C124.6 166.088 128.499 161.598 130.987 156.318C133.475 151.038 134.455 145.173 133.82 139.371C133.185 133.569 130.958 128.055 127.387 123.438C123.815 118.822 119.037 115.282 113.581 113.21C108.124 111.138 102.201 110.614 96.4653 111.696L92.9673 93.1561Z" fill="url(#paint1_linear_68_2)"/>
<path d="M322.94 183.62C315.26 183.62 308.6 181.7 302.96 177.86C297.32 173.9 293.54 168.68 291.62 162.2H293.6V182H275.78V55.1H293.96V113.42H291.8C293.72 107.06 297.5 102.02 303.14 98.3C308.78 94.46 315.38 92.54 322.94 92.54C330.86 92.54 337.7 94.4 343.46 98.12C349.22 101.84 353.66 107.06 356.78 113.78C360.02 120.5 361.64 128.6 361.64 138.08C361.64 147.32 360.02 155.42 356.78 162.38C353.66 169.22 349.16 174.5 343.28 178.22C337.52 181.82 330.74 183.62 322.94 183.62ZM318.44 169.58C326 169.58 332 166.88 336.44 161.48C341 156.08 343.28 148.28 343.28 138.08C343.28 127.76 341 119.96 336.44 114.68C332 109.4 326 106.76 318.44 106.76C311 106.76 305 109.4 300.44 114.68C295.88 119.96 293.6 127.76 293.6 138.08C293.6 148.28 295.88 156.08 300.44 161.48C305 166.88 311 169.58 318.44 169.58ZM423.348 183.62C413.748 183.62 405.468 181.82 398.508 178.22C391.668 174.5 386.328 169.28 382.488 162.56C378.768 155.72 376.908 147.62 376.908 138.26C376.908 129.14 378.768 121.16 382.488 114.32C386.208 107.48 391.308 102.14 397.788 98.3C404.268 94.46 411.648 92.54 419.928 92.54C428.088 92.54 435.048 94.34 440.808 97.94C446.688 101.42 451.188 106.4 454.308 112.88C457.428 119.36 458.988 127.1 458.988 136.1V142.22H391.308V131.06H446.748L443.688 133.58C443.688 124.58 441.708 117.62 437.748 112.7C433.788 107.78 428.088 105.32 420.648 105.32C415.008 105.32 410.208 106.64 406.248 109.28C402.408 111.92 399.468 115.58 397.428 120.26C395.388 124.94 394.368 130.4 394.368 136.64V137.72C394.368 144.68 395.448 150.56 397.608 155.36C399.888 160.04 403.188 163.58 407.508 165.98C411.828 168.38 417.168 169.58 423.528 169.58C428.568 169.58 433.488 168.8 438.288 167.24C443.208 165.56 447.828 162.98 452.148 159.5L457.548 172.1C453.588 175.7 448.488 178.52 442.248 180.56C436.008 182.6 429.708 183.62 423.348 183.62ZM509.587 183.62C504.907 183.62 500.347 183.2 495.907 182.36C491.467 181.52 487.387 180.32 483.667 178.76C479.947 177.2 476.647 175.28 473.767 173L478.987 160.76C481.987 162.8 485.167 164.6 488.527 166.16C491.887 167.6 495.367 168.68 498.967 169.4C502.687 170.12 506.287 170.48 509.767 170.48C516.127 170.48 520.927 169.34 524.167 167.06C527.407 164.78 529.027 161.72 529.027 157.88C529.027 154.76 527.947 152.36 525.787 150.68C523.627 148.88 520.387 147.5 516.067 146.54L498.967 143.12C491.527 141.56 485.887 138.8 482.047 134.84C478.207 130.88 476.287 125.84 476.287 119.72C476.287 114.2 477.787 109.4 480.787 105.32C483.787 101.24 487.987 98.12 493.387 95.96C498.787 93.68 505.027 92.54 512.107 92.54C516.187 92.54 520.147 92.96 523.987 93.8C527.827 94.64 531.427 95.84 534.787 97.4C538.267 98.96 541.207 100.94 543.607 103.34L538.387 115.58C536.107 113.54 533.467 111.8 530.467 110.36C527.587 108.92 524.587 107.84 521.467 107.12C518.347 106.28 515.227 105.86 512.107 105.86C505.747 105.86 500.947 107.06 497.707 109.46C494.587 111.74 493.027 114.86 493.027 118.82C493.027 121.82 493.987 124.28 495.907 126.2C497.827 128.12 500.827 129.5 504.907 130.34L522.007 133.76C529.807 135.32 535.687 137.96 539.647 141.68C543.727 145.4 545.767 150.44 545.767 156.8C545.767 162.32 544.267 167.12 541.267 171.2C538.267 175.28 534.007 178.4 528.487 180.56C523.087 182.6 516.787 183.62 509.587 183.62ZM594.075 183.62C587.955 183.62 582.435 182.42 577.515 180.02C572.715 177.62 568.935 174.38 566.175 170.3C563.415 166.22 562.035 161.6 562.035 156.44C562.035 149.96 563.655 144.86 566.895 141.14C570.255 137.3 575.715 134.6 583.275 133.04C590.955 131.36 601.275 130.52 614.235 130.52H622.695V141.68H614.415C607.935 141.68 602.475 141.92 598.035 142.4C593.595 142.88 590.055 143.66 587.415 144.74C584.775 145.7 582.855 147.08 581.655 148.88C580.575 150.68 580.035 152.84 580.035 155.36C580.035 159.92 581.595 163.64 584.715 166.52C587.835 169.28 592.155 170.66 597.675 170.66C602.115 170.66 606.015 169.64 609.375 167.6C612.735 165.44 615.375 162.56 617.295 158.96C619.335 155.36 620.355 151.22 620.355 146.54V125.84C620.355 119 618.915 114.08 616.035 111.08C613.155 108.08 608.415 106.58 601.815 106.58C596.775 106.58 591.735 107.36 586.695 108.92C581.655 110.36 576.495 112.7 571.215 115.94L565.635 103.16C568.755 101 572.355 99.14 576.435 97.58C580.515 96.02 584.775 94.82 589.215 93.98C593.775 93.02 598.155 92.54 602.355 92.54C610.395 92.54 616.995 93.8 622.155 96.32C627.435 98.84 631.335 102.68 633.855 107.84C636.375 113 637.635 119.66 637.635 127.82V182H620.535V162.38H622.155C621.195 166.82 619.395 170.66 616.755 173.9C614.235 177.02 611.055 179.42 607.215 181.1C603.375 182.78 598.995 183.62 594.075 183.62ZM687.536 182L649.736 94.16H669.356L698.696 167.06H693.656L723.716 94.16H742.256L703.916 182H687.536ZM786.149 182L748.349 94.16H767.969L797.309 167.06H792.269L822.329 94.16H840.869L802.529 182H786.149ZM868.022 214.4L885.302 175.88V183.62L846.962 94.16H866.402L895.922 167.06H890.882L920.762 94.16H939.482L887.102 214.4H868.022Z" fill="#23022E"/>
<defs>
<linearGradient id="paint0_linear_68_2" x1="102.26" y1="48.4177" x2="102.26" y2="192.561" gradientUnits="userSpaceOnUse">
<stop stop-color="#F4B814"/>
<stop offset="1" stop-color="#7203FB"/>
</linearGradient>
<linearGradient id="paint1_linear_68_2" x1="102.352" y1="193.553" x2="102.352" y2="48.6618" gradientUnits="userSpaceOnUse">
<stop stop-color="#F4B814"/>
<stop offset="1" stop-color="#7203FB"/>
</linearGradient>
</defs>
</svg>
