<svg width="670" height="168" viewBox="0 0 670 168" fill="none" xmlns="http://www.w3.org/2000/svg">
<path fill-rule="evenodd" clip-rule="evenodd" d="M228.627 16.0248C206.742 25.1253 196.377 50.2444 205.478 72.1299C213.181 90.6557 232.363 100.926 251.345 98.1229L245.414 83.8601C234.252 83.9789 223.613 77.4198 219.064 66.4803C213.084 52.0984 219.895 35.5916 234.276 29.6112C244.511 25.3554 255.822 27.5773 263.649 34.3957L278.221 28.3363C266.519 14.1396 246.496 8.59466 228.627 16.0248Z" fill="url(#paint0_linear_200_17)"/>
<path fill-rule="evenodd" clip-rule="evenodd" d="M273.052 60.7034C290.229 77.0363 290.913 104.201 274.58 121.378C258.247 138.554 231.082 139.238 213.906 122.905C208.341 117.613 204.507 111.184 202.422 104.326L218.198 104.321C219.626 107.206 221.576 109.894 224.045 112.242C235.333 122.975 253.184 122.525 263.917 111.238C274.65 99.9506 274.2 82.0995 262.913 71.3665C256.879 65.6286 248.969 63.0867 241.273 63.688L241.268 48.9445C252.614 48.3609 264.169 52.2564 273.052 60.7034Z" fill="url(#paint1_linear_200_17)"/>
<path d="M91.872 108.648C91.872 114.12 90.432 118.824 87.552 122.76C84.768 126.696 80.976 129.72 76.176 131.832C71.376 133.944 66.096 135 60.336 135H11.52V32.76H64.224C69.024 32.76 73.152 34.056 76.608 36.648C80.16 39.144 82.848 42.408 84.672 46.44C86.592 50.376 87.552 54.504 87.552 58.824C87.552 63.816 86.256 68.52 83.664 72.936C81.168 77.256 77.568 80.472 72.864 82.584C78.72 84.312 83.328 87.48 86.688 92.088C90.144 96.6 91.872 102.12 91.872 108.648ZM75.312 105.624C75.312 102.744 74.688 100.152 73.44 97.848C72.288 95.448 70.656 93.528 68.544 92.088C66.528 90.552 64.128 89.784 61.344 89.784H27.648V121.032H60.336C63.216 121.032 65.76 120.36 67.968 119.016C70.272 117.576 72.048 115.704 73.296 113.4C74.64 111 75.312 108.408 75.312 105.624ZM27.648 46.728V76.824H57.312C60 76.824 62.4 76.2 64.512 74.952C66.624 73.608 68.304 71.832 69.552 69.624C70.8 67.32 71.424 64.728 71.424 61.848C71.424 58.872 70.848 56.28 69.696 54.072C68.544 51.768 66.96 49.992 64.944 48.744C63.024 47.4 60.768 46.728 58.176 46.728H27.648ZM140.804 136.44C134.948 136.44 129.62 135.432 124.82 133.416C120.116 131.304 116.036 128.472 112.58 124.92C109.124 121.272 106.436 117.144 104.516 112.536C102.692 107.832 101.78 102.84 101.78 97.56C101.78 90.456 103.412 83.976 106.676 78.12C109.94 72.168 114.5 67.416 120.356 63.864C126.212 60.216 133.076 58.392 140.948 58.392C148.82 58.392 155.588 60.216 161.252 63.864C167.012 67.416 171.476 72.12 174.644 77.976C177.812 83.832 179.396 90.12 179.396 96.84C179.396 97.992 179.348 99.096 179.252 100.152C179.156 101.112 179.06 101.928 178.964 102.6H118.628C118.916 107.016 120.116 110.904 122.228 114.264C124.436 117.528 127.22 120.12 130.58 122.04C133.94 123.864 137.54 124.776 141.38 124.776C145.604 124.776 149.588 123.72 153.332 121.608C157.172 119.496 159.764 116.712 161.108 113.256L174.644 117.144C173.012 120.792 170.516 124.104 167.156 127.08C163.892 129.96 160.004 132.264 155.492 133.992C150.98 135.624 146.084 136.44 140.804 136.44ZM118.196 92.088H163.7C163.412 87.768 162.164 83.976 159.956 80.712C157.844 77.352 155.108 74.76 151.748 72.936C148.484 71.016 144.836 70.056 140.804 70.056C136.868 70.056 133.22 71.016 129.86 72.936C126.596 74.76 123.908 77.352 121.796 80.712C119.684 83.976 118.484 87.768 118.196 92.088Z" fill="black"/>
<path d="M303.032 112.968C303.032 108.168 304.376 103.992 307.064 100.44C309.848 96.792 313.64 94.008 318.44 92.088C323.24 90.072 328.808 89.064 335.144 89.064C338.504 89.064 341.912 89.304 345.368 89.784C348.92 90.264 352.04 91.032 354.728 92.088V87.336C354.728 82.056 353.144 77.928 349.976 74.952C346.808 71.976 342.248 70.488 336.296 70.488C332.072 70.488 328.088 71.256 324.344 72.792C320.6 74.232 316.616 76.296 312.392 78.984L307.064 68.328C312.056 64.968 317.048 62.472 322.04 60.84C327.128 59.208 332.456 58.392 338.024 58.392C348.104 58.392 356.024 61.08 361.784 66.456C367.64 71.736 370.568 79.272 370.568 89.064V117.144C370.568 118.968 370.856 120.264 371.432 121.032C372.104 121.8 373.208 122.232 374.744 122.328V135C373.304 135.288 372.008 135.48 370.856 135.576C369.704 135.672 368.744 135.72 367.976 135.72C364.616 135.72 362.072 134.904 360.344 133.272C358.616 131.64 357.608 129.72 357.32 127.512L356.888 123.192C353.624 127.416 349.448 130.68 344.36 132.984C339.272 135.288 334.136 136.44 328.952 136.44C323.96 136.44 319.496 135.432 315.56 133.416C311.624 131.304 308.552 128.472 306.344 124.92C304.136 121.368 303.032 117.384 303.032 112.968ZM350.984 117.576C352.136 116.328 353.048 115.08 353.72 113.832C354.392 112.584 354.728 111.48 354.728 110.52V101.88C352.04 100.824 349.208 100.056 346.232 99.576C343.256 99 340.328 98.712 337.448 98.712C331.688 98.712 326.984 99.864 323.336 102.168C319.784 104.472 318.008 107.64 318.008 111.672C318.008 113.88 318.584 115.992 319.736 118.008C320.984 120.024 322.712 121.656 324.92 122.904C327.224 124.152 330.056 124.776 333.416 124.776C336.872 124.776 340.184 124.104 343.352 122.76C346.52 121.416 349.064 119.688 350.984 117.576ZM408.278 135L379.622 59.688H396.038L417.494 120.312L438.95 59.688H454.214L425.558 135H408.278ZM486.606 135L457.95 59.688H474.366L495.822 120.312L517.278 59.688H532.542L503.886 135H486.606ZM546.502 152.712C547.942 152.904 549.334 153.096 550.678 153.288C552.118 153.576 553.27 153.72 554.134 153.72C555.766 153.72 557.158 153.192 558.31 152.136C559.558 151.176 560.806 149.352 562.054 146.664C563.302 143.976 564.838 140.088 566.662 135L535.702 59.688H552.262L575.302 118.872L595.75 59.688H611.014L576.886 152.424C575.83 155.208 574.294 157.752 572.278 160.056C570.262 162.456 567.766 164.328 564.79 165.672C561.814 167.016 558.31 167.688 554.278 167.688C553.126 167.688 551.926 167.592 550.678 167.4C549.43 167.208 548.038 166.92 546.502 166.536V152.712Z" fill="black"/>
<defs>
<linearGradient id="paint0_linear_200_17" x1="227.773" y1="16.3801" x2="260.227" y2="94.4294" gradientUnits="userSpaceOnUse">
<stop/>
</linearGradient>
<linearGradient id="paint1_linear_200_17" x1="253.565" y1="48.8721" x2="254.288" y2="134.755" gradientUnits="userSpaceOnUse">
<stop/>
</linearGradient>
</defs>
</svg>
