<svg width="1087" height="612" viewBox="0 0 1087 612" fill="none" xmlns="http://www.w3.org/2000/svg">
<path opacity="0.2" d="M604.67 83.43C542.01 83.07 481.95 67.06 424.53 49.33C367.11 31.6 310.2 11.85 248.83 3.16997C209.36 -2.39003 164.38 -2.22004 133.15 16.75C103.1 35.01 93.9799 65.49 89.3699 93.68C85.8899 114.89 84.0899 137.17 95.4899 156.68C103.4 170.22 117.13 181.43 126.76 194.35C160.25 239.3 138.76 296.25 104.76 341.76C88.7599 363.11 70.1999 383.56 58.0399 406.16C45.8799 428.76 40.6299 454.47 52.2899 476.94C63.8499 499.22 90.5099 515.52 119.23 526.75C177.57 549.54 245.79 554.81 312.23 557.12C459.34 562.24 606.93 554.9 754.12 547.57C808.6 544.85 863.31 542.11 916.75 533.57C946.43 528.81 977.02 521.64 998.26 505.63C1025.26 485.29 1031.26 451.83 1012.26 427.63C980.42 387.02 894.88 378.81 872.26 334.95C859.8 310.8 871.32 283.29 888.02 260.21C923.84 210.7 984.81 166.54 986.73 110.9C988.05 72.68 957.31 35.18 910.78 18.24C861.94 0.419968 795.04 4.41997 760.12 36.62C724.2 69.77 660.04 83.75 604.67 83.43Z" fill="#91E9E3"/>
<path d="M569.04 243.94C569.04 243.94 541.56 195.25 500.16 181.22C482.761 175.443 467.705 164.18 457.25 149.12C452.342 141.933 448.105 134.311 444.59 126.35" stroke="#535461" stroke-width="2" stroke-miterlimit="10"/>
<path d="M418.57 117.35C423.28 121.93 445.25 126.66 445.25 126.66C445.25 126.66 439.86 104.85 435.15 100.27C432.885 98.0714 429.839 96.8625 426.683 96.9094C423.527 96.9563 420.519 98.2551 418.32 100.52C416.121 102.785 414.912 105.831 414.959 108.987C415.006 112.143 416.305 115.151 418.57 117.35V117.35Z" fill="#91E9E3"/>
<path d="M431.04 156.85C437.49 158.13 458.51 150.16 458.51 150.16C458.51 150.16 442.04 134.76 435.63 133.48C432.531 132.871 429.317 133.519 426.695 135.28C424.074 137.041 422.259 139.771 421.65 142.87C421.041 145.969 421.689 149.183 423.45 151.805C425.211 154.427 427.941 156.241 431.04 156.85V156.85Z" fill="#91E9E3"/>
<path d="M476.24 199.54C482.45 197.39 496.57 179.91 496.57 179.91C496.57 179.91 474.67 174.91 468.46 177.05C466.963 177.545 465.579 178.332 464.388 179.366C463.198 180.4 462.225 181.66 461.526 183.073C460.827 184.487 460.415 186.025 460.316 187.599C460.216 189.172 460.43 190.75 460.946 192.24C461.461 193.73 462.268 195.103 463.318 196.279C464.369 197.455 465.643 198.41 467.066 199.089C468.489 199.768 470.033 200.158 471.608 200.235C473.182 200.313 474.757 200.076 476.24 199.54V199.54Z" fill="#91E9E3"/>
<path d="M517.76 224.16C524.24 223.09 541.11 208.24 541.11 208.24C541.11 208.24 520.37 199.6 513.88 200.67C510.765 201.185 507.982 202.915 506.143 205.482C504.304 208.048 503.56 211.24 504.075 214.355C504.589 217.47 506.32 220.253 508.887 222.092C511.453 223.931 514.645 224.675 517.76 224.16Z" fill="#91E9E3"/>
<path d="M476.77 133.09C476.77 139.67 464.88 158.73 464.88 158.73C464.88 158.73 452.97 139.68 452.97 133.1C452.97 129.944 454.223 126.917 456.455 124.685C458.687 122.454 461.714 121.2 464.87 121.2C468.026 121.2 471.053 122.454 473.284 124.685C475.516 126.917 476.77 129.944 476.77 133.1V133.09Z" fill="#91E9E3"/>
<path d="M524.96 162.49C522.96 168.77 505.96 183.4 505.96 183.4C505.96 183.4 500.3 161.65 502.26 155.4C503.203 152.387 505.304 149.872 508.101 148.409C510.898 146.945 514.162 146.652 517.175 147.595C520.188 148.538 522.703 150.639 524.166 153.436C525.63 156.233 525.923 159.497 524.98 162.51L524.96 162.49Z" fill="#91E9E3"/>
<path d="M567.87 197.49C567 204.01 552.66 221.32 552.66 221.32C552.66 221.32 543.41 200.84 544.28 194.32C544.7 191.192 546.346 188.359 548.855 186.444C551.365 184.529 554.532 183.69 557.66 184.11C560.788 184.53 563.621 186.176 565.536 188.685C567.451 191.195 568.29 194.362 567.87 197.49V197.49Z" fill="#91E9E3"/>
<path opacity="0.25" d="M418.57 117.35C423.28 121.93 445.25 126.66 445.25 126.66C445.25 126.66 439.86 104.85 435.15 100.27C432.885 98.0714 429.839 96.8625 426.683 96.9094C423.527 96.9563 420.519 98.2551 418.32 100.52C416.121 102.785 414.912 105.831 414.959 108.987C415.006 112.143 416.305 115.151 418.57 117.35V117.35Z" fill="black"/>
<path opacity="0.25" d="M431.04 156.85C437.49 158.13 458.51 150.16 458.51 150.16C458.51 150.16 442.04 134.76 435.63 133.48C432.531 132.871 429.317 133.519 426.695 135.28C424.074 137.041 422.259 139.771 421.65 142.87C421.041 145.969 421.689 149.183 423.45 151.805C425.211 154.427 427.941 156.241 431.04 156.85V156.85Z" fill="black"/>
<path opacity="0.25" d="M476.24 199.54C482.45 197.39 496.57 179.91 496.57 179.91C496.57 179.91 474.67 174.91 468.46 177.05C466.963 177.545 465.579 178.332 464.388 179.366C463.198 180.4 462.225 181.66 461.526 183.073C460.827 184.487 460.415 186.025 460.316 187.599C460.216 189.172 460.43 190.75 460.946 192.24C461.461 193.73 462.268 195.103 463.318 196.279C464.369 197.455 465.643 198.41 467.066 199.089C468.489 199.768 470.033 200.158 471.608 200.235C473.182 200.313 474.757 200.076 476.24 199.54V199.54Z" fill="black"/>
<path opacity="0.25" d="M517.76 224.16C524.24 223.09 541.11 208.24 541.11 208.24C541.11 208.24 520.37 199.6 513.88 200.67C510.765 201.185 507.982 202.915 506.143 205.482C504.304 208.048 503.56 211.24 504.075 214.355C504.589 217.47 506.32 220.253 508.887 222.092C511.453 223.931 514.645 224.675 517.76 224.16Z" fill="black"/>
<path opacity="0.25" d="M476.77 133.09C476.77 139.67 464.88 158.73 464.88 158.73C464.88 158.73 452.97 139.68 452.97 133.1C452.97 129.944 454.223 126.917 456.455 124.685C458.687 122.454 461.714 121.2 464.87 121.2C468.026 121.2 471.053 122.454 473.284 124.685C475.516 126.917 476.77 129.944 476.77 133.1V133.09Z" fill="black"/>
<path opacity="0.25" d="M524.96 162.49C522.96 168.77 505.96 183.4 505.96 183.4C505.96 183.4 500.3 161.65 502.26 155.4C503.203 152.387 505.304 149.872 508.101 148.409C510.898 146.945 514.162 146.652 517.175 147.595C520.188 148.538 522.703 150.639 524.166 153.436C525.63 156.233 525.923 159.497 524.98 162.51L524.96 162.49Z" fill="black"/>
<path opacity="0.25" d="M567.87 197.49C567 204.01 552.66 221.32 552.66 221.32C552.66 221.32 543.41 200.84 544.28 194.32C544.7 191.192 546.346 188.359 548.855 186.444C551.365 184.529 554.532 183.69 557.66 184.11C560.788 184.53 563.621 186.176 565.536 188.685C567.451 191.195 568.29 194.362 567.87 197.49V197.49Z" fill="black"/>
<path d="M567.47 242.98C567.47 242.98 562.07 187.32 529.92 157.72C516.351 145.392 507.147 128.994 503.69 110.99C502.118 102.43 501.334 93.7434 501.35 85.04" stroke="#535461" stroke-width="2" stroke-miterlimit="10"/>
<path d="M481.2 66.26C483.65 72.36 501.82 85.59 501.82 85.59C501.82 85.59 505.73 63.46 503.27 57.36C502.703 55.8866 501.848 54.5407 500.756 53.4007C499.664 52.2607 498.356 51.3495 496.908 50.7201C495.46 50.0906 493.902 49.7556 492.323 49.7345C490.744 49.7133 489.177 50.0065 487.713 50.597C486.249 51.1874 484.917 52.0633 483.794 53.1737C482.672 54.284 481.782 55.6065 481.176 57.0643C480.57 58.522 480.26 60.0858 480.264 61.6646C480.268 63.2433 480.586 64.8055 481.2 66.26Z" fill="#91E9E3"/>
<path d="M476.56 107.39C481.94 111.17 504.37 112.39 504.37 112.39C504.37 112.39 495.63 91.69 490.26 87.91C487.678 86.0933 484.48 85.3766 481.37 85.9176C478.26 86.4587 475.492 88.2131 473.675 90.795C471.858 93.3769 471.141 96.5747 471.683 99.685C472.224 102.795 473.978 105.563 476.56 107.38V107.39Z" fill="#91E9E3"/>
<path d="M500.62 164.78C507.17 165.33 527.16 155.06 527.16 155.06C527.16 155.06 509.16 141.61 502.61 141.06C499.465 140.795 496.343 141.79 493.931 143.827C491.519 145.863 490.015 148.775 489.75 151.92C489.485 155.066 490.48 158.188 492.517 160.599C494.553 163.011 497.465 164.515 500.61 164.78H500.62Z" fill="#91E9E3"/>
<path d="M528.6 204.1C534.96 205.75 556.4 199.01 556.4 199.01C556.4 199.01 540.93 182.71 534.57 181.01C533.031 180.525 531.41 180.357 529.805 180.518C528.2 180.678 526.644 181.164 525.232 181.944C523.82 182.724 522.582 183.784 521.592 185.058C520.602 186.332 519.882 187.794 519.475 189.355C519.068 190.916 518.982 192.543 519.223 194.138C519.464 195.734 520.028 197.263 520.878 198.634C521.729 200.004 522.849 201.188 524.172 202.112C525.494 203.036 526.99 203.682 528.57 204.01L528.6 204.1Z" fill="#91E9E3"/>
<path d="M528.04 104.24C525.38 110.24 506.78 122.86 506.78 122.86C506.78 122.86 503.61 100.62 506.27 94.61C507.547 91.7231 509.919 89.4618 512.863 88.3234C515.807 87.1851 519.083 87.263 521.97 88.54C524.857 89.817 527.118 92.1885 528.257 95.1329C529.395 98.0772 529.317 101.353 528.04 104.24V104.24Z" fill="#91E9E3"/>
<path d="M560.17 150.65C555.83 155.58 534.31 162.05 534.31 162.05C534.31 162.05 537.94 139.88 542.31 134.94C543.342 133.765 544.594 132.805 545.997 132.115C547.399 131.424 548.924 131.017 550.484 130.916C552.044 130.815 553.609 131.022 555.089 131.525C556.569 132.029 557.935 132.819 559.11 133.85C560.285 134.882 561.245 136.134 561.935 137.537C562.626 138.94 563.033 140.464 563.134 142.024C563.236 143.584 563.029 145.149 562.525 146.629C562.022 148.109 561.232 149.475 560.2 150.65H560.17Z" fill="#91E9E3"/>
<path d="M585.22 200.03C581.78 205.63 561.66 215.65 561.66 215.65C561.66 215.65 561.49 193.18 564.93 187.57C566.627 184.975 569.268 183.144 572.293 182.466C575.319 181.788 578.489 182.317 581.131 183.939C583.773 185.561 585.678 188.15 586.441 191.155C587.205 194.159 586.767 197.343 585.22 200.03V200.03Z" fill="#91E9E3"/>
<path opacity="0.1" d="M826.51 596.9C829.46 602.9 808.59 609.35 782.74 611.21C759.58 612.88 740.54 610.16 738.13 605.28C735.72 600.4 750.47 594.48 773.13 591.81C798.42 588.85 823.56 590.96 826.51 596.9Z" fill="#91E9E3"/>
<path d="M218.75 279.55L537.33 166.72V556.51L218.75 549.87V279.55Z" fill="white"/>
<path opacity="0.6" d="M218.75 279.55L537.33 166.72V556.51L218.75 549.87V279.55Z" fill="#91E9E3"/>
<path d="M0 343.92L181.75 279.55V549.87H0V343.92Z" fill="white"/>
<path opacity="0.6" d="M0 343.92L181.75 279.55V549.87H0V343.92Z" fill="#91E9E3"/>
<path d="M537.33 166.72L855.9 279.55V549.87L537.33 556.51V166.72Z" fill="white"/>
<path opacity="0.9" d="M537.33 166.72L855.9 279.55V549.87L537.33 556.51V166.72Z" fill="#91E9E3"/>
<path d="M1077.94 344.73L893.9 279.55V549.87H1077.94V344.73Z" fill="white"/>
<path opacity="0.9" d="M1077.94 344.73L893.9 279.55V549.87H1077.94V344.73Z" fill="#91E9E3"/>
<path d="M105.91 390.85C104.62 390.85 103.57 392.61 103.57 394.78V443.7C103.638 448.527 102.5 453.294 100.26 457.57C98.1699 461.24 94.9699 463.57 91.9099 463.57H89.9099C86.9099 463.57 83.9699 461.33 81.6699 457.38C79.2719 453.116 78.0211 448.302 78.0399 443.41V380.29C77.9773 376.801 78.8768 373.362 80.6399 370.35C82.3099 367.71 84.4999 366.25 86.7999 366.25C89.0999 366.25 91.2099 367.71 92.7999 370.33C94.4862 373.389 95.3348 376.838 95.2599 380.33V439.27C95.2599 443.57 93.2599 447.37 90.8999 447.37C88.8999 447.37 86.6599 444.13 86.6599 439.27V405.61C86.6599 403.45 85.6099 401.68 84.3199 401.68C83.0299 401.68 81.9699 403.45 81.9699 405.61V439.23C81.9699 448.17 85.8099 454.91 90.8999 454.91C93.3799 454.91 95.6699 453.37 97.3199 450.56C99.1652 447.076 100.072 443.171 99.9499 439.23V380.29C100.053 374.851 98.7031 369.483 96.0399 364.74C93.5599 360.59 90.2499 358.32 86.7199 358.32C83.1899 358.32 79.8799 360.59 77.3699 364.74C74.7 369.491 73.3532 374.871 73.4699 380.32V443.43C73.4699 450.66 75.3099 458 78.3699 463.06C81.4299 468.12 85.5699 471.06 89.8099 471.06H91.8599C96.0099 471.06 100.17 468.12 103.27 462.98C104.875 460.266 106.084 457.336 106.86 454.28C107.756 450.818 108.206 447.256 108.2 443.68V394.68C108.2 392.51 107.2 390.75 105.87 390.75L105.91 390.85Z" fill="white"/>
<path d="M553.61 499.77C553.61 499.77 559.54 507.53 550.87 519.24C542.2 530.95 535.04 540.85 537.94 548.13C537.94 548.13 551.02 526.38 561.66 526.13C572.3 525.88 565.31 512.85 553.61 499.77Z" fill="#91E9E3"/>
<path opacity="0.1" d="M553.61 499.77C554.125 500.523 554.532 501.344 554.82 502.21C565.2 514.41 570.73 525.79 560.75 526.08C551.45 526.35 540.3 542.97 537.63 547.17C537.712 547.51 537.815 547.844 537.94 548.17C537.94 548.17 551.02 526.42 561.66 526.17C572.3 525.92 565.31 512.85 553.61 499.77Z" fill="black"/>
<path d="M564.63 509.66C564.63 512.39 564.32 514.6 563.94 514.6C563.56 514.6 563.26 512.39 563.26 509.66C563.26 506.93 563.64 508.21 564.02 508.21C564.4 508.21 564.63 506.93 564.63 509.66Z" fill="#FFD037"/>
<path d="M568.41 512.92C566.02 514.22 563.93 515.01 563.75 514.68C563.57 514.35 565.36 513.02 567.75 511.68C570.14 510.34 569.2 511.33 569.38 511.68C569.56 512.03 570.81 511.61 568.41 512.92Z" fill="#FFD037"/>
<path d="M522.28 499.77C522.28 499.77 516.35 507.53 525.02 519.24C533.69 530.95 540.83 540.85 537.94 548.13C537.94 548.13 524.87 526.38 514.22 526.13C503.57 525.88 510.57 512.85 522.28 499.77Z" fill="#91E9E3"/>
<path opacity="0.1" d="M522.28 499.77C521.765 500.523 521.358 501.344 521.07 502.21C510.68 514.41 505.15 525.79 515.14 526.08C524.43 526.35 535.59 542.97 538.26 547.17C538.175 547.51 538.068 547.844 537.94 548.17C537.94 548.17 524.87 526.42 514.22 526.17C503.57 525.92 510.57 512.85 522.28 499.77Z" fill="black"/>
<path d="M511.26 509.66C511.26 512.39 511.56 514.6 511.94 514.6C512.32 514.6 512.63 512.39 512.63 509.66C512.63 506.93 512.24 508.21 511.87 508.21C511.5 508.21 511.26 506.93 511.26 509.66Z" fill="#FFD037"/>
<path d="M507.47 512.92C509.87 514.22 511.96 515.01 512.14 514.68C512.32 514.35 510.53 513.02 508.14 511.68C505.75 510.34 506.69 511.33 506.51 511.68C506.33 512.03 505.04 511.61 507.47 512.92Z" fill="#FFD037"/>
<path opacity="0.1" d="M537.94 607.45C572.182 607.45 599.94 603.192 599.94 597.94C599.94 592.688 572.182 588.43 537.94 588.43C503.698 588.43 475.94 592.688 475.94 597.94C475.94 603.192 503.698 607.45 537.94 607.45Z" fill="#91E9E3"/>
<path d="M569.86 537.68L569.56 540.1L569.14 543.52L568.97 544.94L568.55 548.37L568.37 549.79L567.96 553.21L563.21 592.11C562.79 595.58 557.12 598.29 550.27 598.29H525.62C518.77 598.29 513.11 595.58 512.68 592.11L507.93 553.21L507.51 549.79L507.34 548.37L506.92 544.94L506.74 543.52L506.33 540.1L506.03 537.68C505.79 535.68 508.86 534.05 512.74 534.05H563.16C567.04 534.05 570.1 535.71 569.86 537.68Z" fill="#444053"/>
<path d="M569.56 540.1L569.14 543.52H506.74L506.33 540.1H569.56Z" fill="#9D9CB5"/>
<path d="M568.97 544.95L568.55 548.37H507.34L506.92 544.95H568.97Z" fill="#9D9CB5"/>
<path d="M568.37 549.8L567.96 553.22H507.93L507.51 549.8H568.37Z" fill="#9D9CB5"/>
<path d="M417.4 326.45L407.85 339.14C407.77 339.258 407.658 339.351 407.526 339.406C407.395 339.461 407.25 339.476 407.11 339.45L397.24 337.09C397.053 337.019 396.89 336.897 396.77 336.738C396.65 336.579 396.577 336.389 396.56 336.19L394.8 323.12C394.747 322.77 394.829 322.412 395.03 322.12L404.56 309.45C404.917 308.941 405.089 308.326 405.049 307.706C405.009 307.086 404.759 306.499 404.34 306.04C402.535 304.238 400.127 303.17 397.58 303.04C397.44 303.024 397.299 303.024 397.16 303.04C394.5 303.24 388.8 305.21 384.4 311.4C380.13 317.4 375.66 328.46 379.62 340.82C380.09 342.31 380.62 344.28 379.04 346.37C377.46 348.46 336.59 399.37 336.59 399.37C332.76 403.74 333.04 411.82 336.59 416.52C337.345 417.593 338.338 418.477 339.492 419.101C340.646 419.726 341.929 420.075 343.24 420.12C344.517 420.097 345.766 419.745 346.868 419.098C347.97 418.452 348.886 417.533 349.53 416.43C349.53 416.43 387.67 362.63 389.53 360.18C389.78 359.77 390.125 359.426 390.536 359.178C390.946 358.929 391.411 358.782 391.89 358.75C392.55 358.784 393.185 359.018 393.71 359.42C395.738 360.806 398.143 361.535 400.6 361.51C406.3 361.51 412.29 358.01 415.95 353.17C419.724 348.304 421.918 342.4 422.24 336.25C422.366 332.894 421.582 329.566 419.97 326.62C419.863 326.379 419.694 326.17 419.479 326.017C419.265 325.864 419.013 325.771 418.75 325.748C418.487 325.726 418.223 325.774 417.986 325.889C417.748 326.004 417.546 326.18 417.4 326.4V326.45ZM345.4 410.4C345.17 410.751 344.856 411.039 344.487 411.238C344.117 411.437 343.704 411.542 343.285 411.542C342.865 411.542 342.452 411.437 342.083 411.238C341.714 411.039 341.4 410.751 341.17 410.4C340.611 409.573 340.312 408.598 340.312 407.6C340.312 406.602 340.611 405.627 341.17 404.8C341.4 404.449 341.714 404.161 342.083 403.962C342.452 403.763 342.865 403.658 343.285 403.658C343.704 403.658 344.117 403.763 344.487 403.962C344.856 404.161 345.17 404.449 345.4 404.8C345.96 405.626 346.261 406.6 346.262 407.598C346.264 408.596 345.967 409.572 345.41 410.4H345.4Z" fill="white"/>
<path d="M755.51 350.98C752.87 320.46 732.18 296.68 707.01 296.68C690.35 296.68 675.68 307.07 666.87 322.94C664.166 321.538 661.166 320.8 658.12 320.79C645.4 320.79 635.12 334.79 634.89 350.57C621.89 355.73 613.33 371.57 613.33 388.19C613.33 408.56 626.57 426.54 642.89 426.54H750.33C766.66 426.54 779.9 408.54 779.9 388.19C779.9 370.05 769.36 354.06 755.51 350.98V350.98ZM731.24 343.98L687.75 398.48C687.19 399.17 685.75 400.71 683.97 400.71C683.208 400.621 682.474 400.369 681.818 399.97C681.162 399.572 680.6 399.036 680.17 398.4L661.92 375.65C661.668 375.318 661.531 374.912 661.531 374.495C661.531 374.078 661.668 373.672 661.92 373.34L667.71 366.12C667.814 365.974 667.95 365.854 668.108 365.769C668.266 365.684 668.441 365.636 668.62 365.63C668.799 365.636 668.975 365.683 669.133 365.768C669.291 365.853 669.427 365.973 669.53 366.12L683.98 384.12L723.66 334.25C723.766 334.106 723.902 333.987 724.06 333.902C724.217 333.817 724.392 333.769 724.57 333.76C724.75 333.761 724.928 333.806 725.086 333.891C725.245 333.977 725.38 334.1 725.48 334.25L731.17 341.6C731.449 341.925 731.608 342.335 731.621 342.763C731.633 343.19 731.499 343.609 731.24 343.95V343.98Z" fill="white"/>
<path d="M1018.88 399.31C1024.34 399.31 1028.77 393.405 1028.77 386.12C1028.77 378.835 1024.34 372.93 1018.88 372.93C1013.42 372.93 1008.99 378.835 1008.99 386.12C1008.99 393.405 1013.42 399.31 1018.88 399.31Z" fill="white"/>
<path d="M1018.88 404.4C1017.79 404.395 1016.71 404.22 1015.67 403.88L1005.91 417.15C1005.83 417.262 1005.78 417.397 1005.78 417.535C1005.78 417.674 1005.83 417.808 1005.91 417.92L1021.42 439.92C1021.93 440.664 1022.21 441.546 1022.21 442.45C1022.21 443.354 1021.93 444.236 1021.42 444.98C1021.2 445.281 1020.92 445.527 1020.59 445.7C1020.26 445.874 1019.89 445.969 1019.52 445.98C1019.15 445.97 1018.79 445.875 1018.46 445.701C1018.13 445.528 1017.85 445.281 1017.63 444.98L1002.18 422.98C1002.15 422.931 1002.1 422.89 1002.05 422.862C1002 422.834 1001.94 422.819 1001.88 422.819C1001.82 422.819 1001.76 422.834 1001.71 422.862C1001.66 422.89 1001.61 422.931 1001.58 422.98L997.81 428.1C994.66 432.36 990.48 431.72 985.98 431.75C981.48 431.78 977.11 429.22 973.91 424.9L970.29 419.98C970.257 419.931 970.212 419.89 970.16 419.862C970.108 419.834 970.049 419.819 969.99 419.819C969.93 419.819 969.872 419.834 969.82 419.862C969.767 419.89 969.723 419.931 969.69 419.98L954.24 441.98C954.02 442.281 953.735 442.527 953.406 442.7C953.076 442.874 952.712 442.969 952.34 442.98C951.969 442.97 951.606 442.875 951.278 442.701C950.95 442.528 950.667 442.281 950.45 441.98C949.937 441.236 949.663 440.354 949.663 439.45C949.663 438.546 949.937 437.664 950.45 436.92L965.96 414.92C966.028 414.803 966.065 414.67 966.065 414.535C966.065 414.4 966.028 414.267 965.96 414.15L943.77 384.03C943.5 383.67 943.07 383.92 943.07 384.41V444.69C943.07 449.53 946.07 453.49 949.66 453.49L1022.18 456.49C1025.81 456.49 1028.77 452.49 1028.77 447.69V398.76C1026.28 402.23 1022.78 404.4 1018.88 404.4Z" fill="white"/>
<path d="M1005.18 386.12C1005.17 383.105 1005.74 380.116 1006.87 377.32L949.64 374.32C948.863 374.339 948.098 374.521 947.396 374.853C946.693 375.186 946.068 375.661 945.56 376.25L977.89 420.15C978.772 421.491 979.964 422.6 981.365 423.383C982.767 424.167 984.336 424.601 985.94 424.65C988.94 424.65 991.86 426.06 994 423.15L1010.58 400.63C1007.29 397.28 1005.18 392.03 1005.18 386.12V386.12Z" fill="white"/>
<path d="M1085.86 544.23C1085.86 544.23 1074.17 543.53 1075.55 551.71C1075.47 552.122 1075.53 552.548 1075.71 552.926C1075.89 553.305 1076.18 553.617 1076.55 553.82C1076.55 553.82 1076.55 553.21 1077.75 553.42C1078.17 553.488 1078.6 553.508 1079.02 553.48C1079.59 553.436 1080.13 553.212 1080.57 552.84V552.84C1080.57 552.84 1083.85 551.48 1085.13 546.11C1085.13 546.11 1086.08 544.94 1086.04 544.64L1084.04 545.48C1084.42 546.301 1084.47 547.234 1084.18 548.09C1084.18 548.09 1084.12 545.53 1083.74 545.59C1083.66 545.59 1082.74 546.09 1082.74 546.09C1082.74 546.09 1083.9 548.56 1083.03 550.36C1083.03 550.36 1083.36 547.36 1082.38 546.27L1080.99 547.08C1080.99 547.08 1082.35 549.63 1081.43 551.72C1081.43 551.72 1081.67 548.52 1080.7 547.27L1079.44 548.27C1079.44 548.27 1080.72 550.8 1079.94 552.53C1079.94 552.53 1079.84 548.8 1079.17 548.53C1078.69 548.934 1078.27 549.394 1077.9 549.9C1077.9 549.9 1078.77 551.73 1078.23 552.69C1078.23 552.69 1077.9 550.21 1077.63 550.2C1077.06 551.039 1076.65 551.979 1076.42 552.97C1076.48 551.927 1076.8 550.917 1077.37 550.04C1076.74 550.159 1076.15 550.462 1075.69 550.91C1075.69 550.91 1075.86 549.75 1077.69 549.64C1078.02 549.159 1078.4 548.716 1078.83 548.32C1077.87 548.237 1076.9 548.35 1075.99 548.65C1075.99 548.65 1076.99 547.55 1079.16 548.05L1080.4 547.05C1079.3 546.871 1078.18 546.871 1077.08 547.05C1077.08 547.05 1078.22 546.05 1080.73 546.79L1082.09 545.98C1081.05 545.751 1079.98 545.657 1078.92 545.7C1080.07 545.269 1081.34 545.29 1082.48 545.76L1083.48 545.33C1083.48 545.33 1082.02 545.04 1081.6 545C1081.18 544.96 1081.15 544.83 1081.15 544.83C1082.07 544.68 1083.02 544.787 1083.88 545.14C1084.56 544.895 1085.23 544.591 1085.86 544.23Z" fill="#91E9E3"/>
<path opacity="0.1" d="M1077.81 555.93C1082.38 555.93 1086.08 555.303 1086.08 554.53C1086.08 553.757 1082.38 553.13 1077.81 553.13C1073.24 553.13 1069.54 553.757 1069.54 554.53C1069.54 555.303 1073.24 555.93 1077.81 555.93Z" fill="#91E9E3"/>
<path d="M905.82 544.57C905.82 544.57 891.72 543.72 893.38 553.57C893.294 554.071 893.368 554.587 893.593 555.043C893.817 555.499 894.18 555.873 894.63 556.11C894.63 556.11 894.63 555.38 896.08 555.63C896.585 555.716 897.099 555.739 897.61 555.7C898.304 555.656 898.964 555.385 899.49 554.93V554.93C899.49 554.93 903.49 553.29 904.99 546.81C904.99 546.81 906.14 545.4 906.09 545.03L903.71 546.03C904.164 547.017 904.225 548.14 903.88 549.17C903.88 549.17 903.81 546.09 903.35 546.17C903.26 546.17 902.11 546.76 902.11 546.76C902.11 546.76 903.51 549.76 902.46 551.93C902.46 551.93 902.86 548.24 901.67 546.93L900 547.93C900 547.93 901.63 551.02 900.53 553.55C900.53 553.55 900.81 549.68 899.65 548.17L898.13 549.36C898.13 549.36 899.67 552.36 898.73 554.49C898.73 554.49 898.61 549.99 897.8 549.65C897.224 550.135 896.71 550.689 896.27 551.3C896.27 551.3 897.27 553.51 896.67 554.68C896.67 554.68 896.27 551.68 895.94 551.68C895.252 552.697 894.757 553.833 894.48 555.03C894.546 553.771 894.939 552.551 895.62 551.49C894.872 551.626 894.178 551.973 893.62 552.49C893.62 552.49 893.83 551.08 895.98 550.96C896.377 550.375 896.84 549.839 897.36 549.36C896.201 549.261 895.035 549.397 893.93 549.76C893.93 549.76 895.07 548.43 897.75 549.03L899.25 547.81C897.925 547.595 896.575 547.595 895.25 547.81C895.25 547.81 896.62 546.64 899.66 547.49L901.29 546.49C900.033 546.212 898.746 546.101 897.46 546.16C897.46 546.16 898.97 545.34 901.77 546.22L902.93 545.7C902.93 545.7 901.18 545.36 900.66 545.3C900.14 545.24 900.12 545.1 900.12 545.1C901.233 544.917 902.375 545.045 903.42 545.47C904.245 545.243 905.049 544.942 905.82 544.57V544.57Z" fill="#91E9E3"/>
<path opacity="0.1" d="M896.11 558.7C901.622 558.7 906.09 557.943 906.09 557.01C906.09 556.077 901.622 555.32 896.11 555.32C890.598 555.32 886.13 556.077 886.13 557.01C886.13 557.943 890.598 558.7 896.11 558.7Z" fill="#91E9E3"/>
<path d="M817.36 445.99C817.36 445.99 818.51 444.88 818.13 444.13C818.019 443.897 817.961 443.643 817.961 443.385C817.961 443.127 818.019 442.873 818.13 442.64C818.13 442.64 815.55 432.5 814.59 431.48C813.96 430.737 813.475 429.882 813.16 428.96C813.26 428.762 813.308 428.542 813.3 428.32C813.257 427.298 812.909 426.312 812.3 425.49C811.55 424.381 811.137 423.079 811.11 421.74C811.1 421.573 811.1 421.406 811.11 421.24V421.24C810.823 420.487 810.359 419.815 809.756 419.281C809.154 418.746 808.431 418.365 807.65 418.17C807.98 416.02 808.43 413.87 808.57 411.71C809.02 404.94 806.5 398.37 804.02 392.03C803.478 390.458 802.75 388.958 801.85 387.56C800.741 386.099 799.335 384.889 797.726 384.01C796.116 383.132 794.338 382.603 792.51 382.46C791.164 382.291 789.798 382.424 788.51 382.85C787.238 383.421 786.072 384.202 785.06 385.16C783.99 386.06 782.92 386.98 781.93 387.96L781.81 388.08L781.46 388.45L781.32 388.59L780.99 388.96L780.87 389.09C780.73 389.26 780.58 389.43 780.44 389.61C780.31 389.78 780.18 389.94 780.06 390.11L779.94 390.28L779.68 390.65L779.56 390.84C779.47 390.97 779.4 391.1 779.32 391.23L779.21 391.41C779.11 391.6 779 391.79 778.9 391.99L778.54 392.79V392.9L778.33 393.43C778.06 394.07 777.8 394.71 777.47 395.32L777.41 395.42L776.69 396.29C776.361 396.722 776.086 397.192 775.87 397.69L775.8 397.85C775.8 397.92 775.75 398 775.72 398.07L775.65 398.25C775.631 398.328 775.608 398.405 775.58 398.48C775.58 398.54 775.58 398.6 775.58 398.67L775.52 398.89C775.52 398.96 775.52 399.02 775.52 399.09C775.52 399.16 775.52 399.24 775.47 399.31V399.52V399.74C775.47 399.82 775.47 399.9 775.47 399.99C775.47 400.08 775.47 400.11 775.47 400.16C775.47 400.21 775.47 400.44 775.47 400.58C775.47 400.72 775.47 400.69 775.47 400.75C775.465 400.84 775.465 400.93 775.47 401.02C775.465 401.08 775.465 401.14 775.47 401.2C775.465 401.283 775.465 401.367 775.47 401.45V401.63C775.47 401.72 775.47 401.8 775.47 401.88C775.465 401.94 775.465 402 775.47 402.06L775.53 402.32C775.53 402.32 775.53 402.43 775.53 402.48L775.62 402.76C775.62 402.76 775.62 402.85 775.67 402.89C775.72 402.93 775.77 403.17 775.83 403.3C776.137 403.97 776.512 404.607 776.95 405.2C777.24 405.6 777.54 405.99 777.84 406.39L778.27 406.99C778.561 407.388 778.825 407.806 779.06 408.24C779.762 409.58 780.103 411.079 780.048 412.591C779.994 414.103 779.547 415.574 778.75 416.86L778.39 417.41C778.192 417.715 778.053 418.054 777.98 418.41C777.945 418.719 777.978 419.033 778.076 419.328C778.175 419.623 778.336 419.894 778.55 420.12L777.66 420.35C776.93 420.55 776.43 420.71 776.43 420.71C775.824 420.657 775.215 420.657 774.61 420.71C773.769 420.975 773.014 421.458 772.42 422.11C772.42 422.11 768.6 422.57 767.35 421.46C766.1 420.35 761.72 419.97 761.72 419.97C761.72 419.97 760.48 417.55 759.14 416.8C757.8 416.05 754.56 414.66 754.46 413.92C754.181 413.137 753.761 412.411 753.22 411.78C752.562 411.639 751.893 411.559 751.22 411.54L751.01 411.18L748.34 406.57C748.34 406.57 744.99 402.66 743.18 402.29C741.37 401.92 745.73 406.44 745.94 406.65C745.322 406.208 744.553 406.029 743.803 406.153C743.054 406.277 742.383 406.693 741.94 407.31C740.52 408.89 744.29 412.6 746.63 414.65L747.01 414.98C747.027 415.185 747.057 415.389 747.1 415.59C748.15 421.08 753.97 425.83 753.97 425.83C753.97 425.83 754.64 428.9 756.84 429.65C758.59 430.24 767.99 434.5 772.89 435.35C772.48 436.41 772 438.87 774.03 442.49C774.03 442.49 774.51 448.91 773.46 449.75C772.41 450.59 772.46 459.89 772.46 459.89C772.46 459.89 768.46 476.08 772.46 479.52C772.714 479.738 773.001 479.913 773.31 480.04C773.31 480.29 773.38 480.55 773.41 480.82C773.59 482.44 773.65 484.12 773.22 484.82C772.22 486.4 773.55 490.68 773.55 490.68C773.55 490.68 769.69 512.55 771.41 520.27C772.496 526.038 773.005 531.901 772.93 537.77C772.93 537.77 772.36 544.56 775.32 548.66C775.645 549.629 775.837 550.639 775.89 551.66C776.084 553.621 776.601 555.537 777.42 557.33C778.09 558.63 779.42 564.13 778.28 565.61C777.14 567.09 779.52 583.3 779.52 583.3C779.52 583.3 777.61 588.3 779.52 590.93L779.58 591C778.447 590.987 777.321 590.825 776.23 590.52C774.09 589.8 775.69 592.52 778.23 594.38C777.12 596.9 775.6 600.28 775.09 601.38C772.88 601.76 768.5 602.38 765.93 601.77C762.4 600.94 767.46 606.61 772.23 607.64C775.598 608.269 779.026 608.517 782.45 608.38L785.53 604.98C788.018 605.314 790.533 605.408 793.04 605.26L792.77 608.42H794.58V605.14C795.72 605.03 796.9 604.88 798.12 604.66C798.12 604.66 798.19 601.2 797.97 597.93L799.08 598.03L799.25 596.22L803.18 596.93L806.71 567.93C806.71 567.93 807.1 557.14 807.96 551.09C808.82 545.04 806.14 524.75 806.14 524.75C806.14 524.75 805.95 523.75 805.76 521.87C805.57 519.99 805.76 509.02 805.76 509.02C805.76 509.02 807.19 503.02 806.91 502.51C806.63 502 807 499.44 807 499.44C813 487.21 805.62 476.16 803.05 472.88C803.198 472.742 803.288 472.552 803.3 472.35C803.315 472.281 803.315 472.209 803.3 472.14C802.895 471.106 802.414 470.103 801.86 469.14L803.36 467.23C803.88 467.98 804.25 468.54 804.25 468.54C804.25 468.54 805.87 464.91 807.5 463.54C809.13 462.17 816.95 449.12 816.95 449.12C816.95 449.12 818.77 447.9 817.81 446.88C816.85 445.86 817.36 445.99 817.36 445.99ZM793.3 548.91C793.172 548.488 792.938 548.106 792.62 547.8C792.62 547.8 792.34 545.8 792.24 543.23C792.81 545.23 793.39 546.68 793.39 546.68L793.3 548.91ZM797.8 596.48C797.8 596.3 797.8 596.12 797.8 595.95H797.94L797.8 596.48ZM798.98 464.1V463.98C798.959 463.724 799.005 463.466 799.113 463.233C799.222 462.999 799.39 462.799 799.6 462.65C799.709 462.582 799.798 462.486 799.856 462.371C799.914 462.257 799.94 462.128 799.93 462C799.883 461.579 799.725 461.178 799.47 460.84C799.66 460.98 800.25 461.3 800.65 460.14C800.71 459.959 800.74 459.77 800.74 459.58C800.645 458.61 800.25 457.695 799.61 456.96L803.93 447.86C804.402 448.001 804.883 448.111 805.37 448.19V448.19C804.24 451.69 803.31 455.86 803.31 455.86L799.97 463.21C800.196 463.298 800.396 463.442 800.55 463.63L798.98 464.1Z" fill="url(#paint0_linear)"/>
<path d="M784.61 590.77C784.61 590.77 779 591.46 776.27 590.52C773.54 589.58 777.11 594.52 780.8 595.73C783.405 596.494 786.09 596.95 788.8 597.09L793.13 593.01L797.73 593.37L796.93 597.88L798.36 598.01L798.91 592.11L784.61 590.77Z" fill="#444053"/>
<path opacity="0.1" d="M784.61 590.77C784.61 590.77 779 591.46 776.27 590.52C773.54 589.58 777.11 594.52 780.8 595.73C783.405 596.494 786.09 596.95 788.8 597.09L793.13 593.01L797.73 593.37L796.93 597.88L798.36 598.01L798.91 592.11L784.61 590.77Z" fill="black"/>
<path d="M776.51 601.08C776.51 601.08 769.77 602.55 766.36 601.72C762.95 600.89 767.84 606.52 772.45 607.53C775.7 608.159 779.013 608.407 782.32 608.27L787.12 602.83L792.74 602.74L792.28 608.31H794.04V601.08H776.51Z" fill="#444053"/>
<path opacity="0.1" d="M776.51 601.08C776.51 601.08 769.77 602.55 766.36 601.72C762.95 600.89 767.84 606.52 772.45 607.53C775.7 608.159 779.013 608.407 782.32 608.27L787.12 602.83L792.74 602.74L792.28 608.31H794.04V601.08H776.51Z" fill="black"/>
<path d="M801.41 472.95C801.41 472.95 812.94 485.77 806.03 500.25C806.03 500.25 805.66 502.84 805.93 503.3C806.2 503.76 804.83 509.76 804.83 509.76C804.83 509.76 804.64 520.64 804.83 522.49C805.02 524.34 805.2 525.34 805.2 525.34C805.2 525.34 807.78 545.45 806.95 551.45C806.12 557.45 805.75 568.15 805.75 568.15L802.34 596.93L784.63 593.61L792.63 554.12L792.91 547.12C792.91 547.12 789.59 538.55 791.06 534.21C792.53 529.87 790.69 474.62 790.69 474.62L801.41 472.95Z" fill="#444053"/>
<path opacity="0.02" d="M801.41 472.95C801.41 472.95 812.94 485.77 806.03 500.25C806.03 500.25 805.66 502.84 805.93 503.3C806.2 503.76 804.83 509.76 804.83 509.76C804.83 509.76 804.64 520.64 804.83 522.49C805.02 524.34 805.2 525.34 805.2 525.34C805.2 525.34 807.78 545.45 806.95 551.45C806.12 557.45 805.75 568.15 805.75 568.15L802.34 596.93L784.63 593.61L792.63 554.12L792.91 547.12C792.91 547.12 789.59 538.55 791.06 534.21C792.53 529.87 790.69 474.62 790.69 474.62L801.41 472.95Z" fill="black"/>
<path d="M792.93 534.94C790.93 538.81 792.19 548.22 792.19 548.22C794.86 550.53 793.39 570.64 793.39 570.64C793.39 570.64 795.23 590.47 796.39 592.78C797.55 595.09 797.39 604.58 797.39 604.58C783.83 607.07 774.97 601.72 774.97 601.72C774.97 601.72 779.31 591.85 779.4 591.39C779.45 591.13 780.03 591.83 780.2 592.04L779.4 590.93C777.55 588.35 779.4 583.37 779.4 583.37C779.4 583.37 777.09 567.37 778.2 565.84C779.31 564.31 778.02 558.92 777.37 557.63C776.576 555.846 776.076 553.944 775.89 552C775.837 550.997 775.652 550.005 775.34 549.05C772.48 544.99 773.03 538.26 773.03 538.26C773.106 532.446 772.614 526.638 771.56 520.92C769.9 513.26 773.63 491.58 773.63 491.58C773.63 491.58 772.39 487.34 773.31 485.77C773.73 485.07 773.67 483.41 773.49 481.77C773.27 479.77 772.85 477.91 772.85 477.91L798.04 473.47C798.57 474.35 799.04 475.2 799.5 476.02C807.83 491.41 802.21 497.12 802.21 497.12L796.86 513.54C796.86 513.54 794.96 531.06 792.93 534.94Z" fill="#444053"/>
<path d="M753.04 414.56L749.44 417.56C749.44 417.56 748.73 417 747.79 416.15C745.53 414.15 741.89 410.44 743.26 408.88C743.466 408.579 743.732 408.322 744.039 408.125C744.347 407.929 744.692 407.796 745.052 407.735C745.412 407.675 745.781 407.687 746.136 407.772C746.492 407.857 746.826 408.013 747.12 408.23C746.92 408.01 742.74 403.54 744.46 403.9C746.18 404.26 749.46 408.14 749.46 408.14L752.04 412.71L753.04 414.56Z" fill="#EFB7B9"/>
<path d="M801.23 464.38L796.99 465.67L800.21 471.29L803.9 466.5L801.23 464.38Z" fill="#EFB7B9"/>
<path d="M791.27 411.52C797.942 411.52 803.35 406.112 803.35 399.44C803.35 392.768 797.942 387.36 791.27 387.36C784.598 387.36 779.19 392.768 779.19 399.44C779.19 406.112 784.598 411.52 791.27 411.52Z" fill="#EFB7B9"/>
<path d="M784.16 403.85C784.16 403.85 795.16 421.28 784.72 422.76C774.28 424.24 798.72 434.84 798.72 434.84L807.85 425.62C807.85 425.62 798.35 409.2 799.85 402.93C801.35 396.66 784.16 403.85 784.16 403.85Z" fill="#EFB7B9"/>
<path opacity="0.1" d="M799.53 476.02C797.095 476.763 794.613 477.341 792.1 477.75C792.1 477.75 778.5 483.75 773.55 481.75C773.33 479.75 772.91 477.89 772.91 477.89L798.04 473.47C798.6 474.35 799.09 475.2 799.53 476.02Z" fill="black"/>
<path d="M812.04 430.42L809.58 435.51L806.81 441.23L806.41 442.05L803.12 449.16L798.94 458.16C798.94 458.16 800.42 459.91 799.94 461.3C799.46 462.69 798.83 462.03 798.75 461.95C798.82 462.06 799.75 463.26 798.92 463.79C798.676 464.002 798.495 464.278 798.397 464.587C798.3 464.896 798.291 465.226 798.37 465.54C798.37 465.54 801.78 471.17 802.43 473.2C803.08 475.23 792.1 476.98 792.1 476.98C792.1 476.98 776.51 483.9 772.63 480.48C768.75 477.06 772.63 461.02 772.63 461.02C772.63 461.02 772.63 451.8 773.63 450.97C774.63 450.14 774.18 443.77 774.18 443.77C771.51 438.88 773.35 436.11 773.35 436.11L772.61 423.57C772.61 423.57 773.81 422.28 774.73 422.19C775.315 422.131 775.905 422.131 776.49 422.19C776.49 422.19 776.97 422.02 777.68 421.83C779.16 421.41 781.61 420.83 782.48 421.26C783.77 421.91 792.08 420.26 792.08 420.26C795.657 419.736 799.258 419.402 802.87 419.26C804.104 419.187 805.341 419.322 806.53 419.66C807.332 419.841 808.076 420.22 808.693 420.764C809.31 421.307 809.78 421.997 810.06 422.77C809.922 424.27 810.315 425.77 811.17 427.01C812.67 429.41 812.04 430.42 812.04 430.42Z" fill="#FF6484"/>
<path opacity="0.1" d="M753.04 414.56L749.44 417.56C749.44 417.56 748.73 417 747.79 416.15C747.5 413.04 750.15 412.63 752.02 412.71L753.04 414.56Z" fill="black"/>
<path d="M774.2 423.51L772.63 423.6C772.63 423.6 768.94 424.06 767.74 422.95C766.54 421.84 762.3 421.48 762.3 421.48C762.3 421.48 761.1 419.08 759.81 418.34C758.52 417.6 755.38 416.22 755.29 415.48C755.024 414.706 754.617 413.987 754.09 413.36C754.09 413.36 747.17 411.7 748.19 417.14C749.21 422.58 754.83 427.29 754.83 427.29C754.83 427.29 755.48 430.29 757.6 431.07C759.72 431.85 773.46 438.27 775.68 436.61C777.9 434.95 774.2 423.51 774.2 423.51Z" fill="#FF6484"/>
<path opacity="0.1" d="M811.19 426.98C810.335 425.74 809.942 424.24 810.08 422.74C809.8 421.967 809.33 421.277 808.713 420.734C808.096 420.19 807.352 419.811 806.55 419.63C805.966 419.456 805.367 419.339 804.76 419.28C805.551 419.466 806.283 419.846 806.89 420.385C807.498 420.925 807.962 421.607 808.24 422.37C808.095 423.87 808.489 425.373 809.35 426.61C810.82 429.01 810.18 430.03 810.18 430.03L807.72 435.11L804.94 440.85L804.55 441.67L801.26 448.78L797.08 457.78C797.08 457.78 798.55 459.53 798.08 460.92C797.61 462.31 796.98 461.65 796.89 461.57C796.97 461.68 797.89 462.88 797.07 463.41C796.825 463.623 796.644 463.898 796.545 464.207C796.446 464.515 796.434 464.845 796.51 465.16C796.51 465.16 799.93 470.79 800.57 472.82C801.21 474.85 790.24 476.6 790.24 476.6C790.24 476.6 779.41 481.4 773.56 481.03C778.56 482.98 792.09 476.97 792.09 476.97C792.09 476.97 803.09 475.22 802.42 473.19C801.75 471.16 798.36 465.53 798.36 465.53C798.281 465.216 798.29 464.886 798.387 464.577C798.484 464.268 798.665 463.992 798.91 463.78C799.71 463.25 798.81 462.05 798.74 461.94C798.82 462.02 799.5 462.58 799.93 461.29C800.36 460 798.93 458.15 798.93 458.15L803.11 449.15L806.4 442.04L806.8 441.22L809.57 435.5L812.03 430.41C812.03 430.41 812.67 429.38 811.19 426.98Z" fill="black"/>
<path d="M810.36 429.04L812.02 430.42C812.321 431.334 812.793 432.182 813.41 432.92C814.33 433.92 816.82 443.98 816.82 443.98C816.715 444.212 816.66 444.465 816.66 444.72C816.66 444.975 816.715 445.228 816.82 445.46C817.19 446.2 816.08 447.31 816.08 447.31C816.08 447.31 815.53 447.12 816.45 448.14C817.37 449.16 815.62 450.35 815.62 450.35C815.62 450.35 808.06 463.26 806.49 464.65C804.92 466.04 803.35 469.65 803.35 469.65C803.35 469.65 800.07 464.49 799.29 464.39L802.52 457.1C802.52 457.1 804.73 446.96 806.39 445.1C808.05 443.24 805.56 436.89 805.56 436.89L810.36 429.04Z" fill="#FF6484"/>
<path opacity="0.1" d="M811.42 447.85C810.04 449.51 807.6 449.85 805.42 449.62C805.1 449.62 804.79 449.54 804.47 449.48C804 449.39 803.53 449.28 803.07 449.15C801.423 448.675 799.873 447.913 798.49 446.9C798.2 446.637 797.86 446.437 797.49 446.31C797.05 446.258 796.606 446.343 796.216 446.552C795.826 446.761 795.51 447.085 795.31 447.48C794.84 448.23 794.62 449.11 794.14 449.86C793.617 450.565 792.933 451.135 792.145 451.521C791.357 451.907 790.487 452.099 789.61 452.08C787.853 452.031 786.117 451.693 784.47 451.08C785.943 449.509 787.068 447.645 787.77 445.61C788.071 444.259 788.159 442.868 788.03 441.49C787.63 434.96 785.36 428.08 780.03 424.28C779.11 423.62 778.03 422.84 777.69 421.85C779.17 421.43 781.62 420.85 782.49 421.28C783.78 421.93 792.09 420.28 792.09 420.28C795.666 419.756 799.268 419.422 802.88 419.28C804.114 419.207 805.351 419.342 806.54 419.68C805.942 422.393 805.84 425.191 806.24 427.94C806.619 429.636 807.232 431.272 808.06 432.8C808.54 433.71 809.06 434.62 809.55 435.53C810.96 438.05 812.3 440.58 812.55 443.42C812.763 444.987 812.358 446.576 811.42 447.85V447.85Z" fill="black"/>
<path opacity="0.1" d="M793.18 460.85C793.884 460.664 794.614 460.599 795.34 460.66C795.947 460.841 796.502 461.163 796.96 461.6H792.22C791 461.6 789.16 461.67 788.22 460.81C789.04 459.98 791.98 460.99 793.18 460.85Z" fill="black"/>
<path d="M776.75 398.02C776.03 399.01 775.577 400.168 775.433 401.383C775.29 402.598 775.461 403.83 775.93 404.96C776.69 406.75 778.15 408.14 779.05 409.86C779.727 411.194 780.054 412.678 780.002 414.174C779.95 415.669 779.519 417.126 778.75 418.41C778.399 418.863 778.147 419.384 778.01 419.94C777.79 421.35 779.25 422.36 780.41 423.18C785.73 426.98 788 433.86 788.41 440.39C788.548 441.768 788.463 443.159 788.16 444.51C787.46 446.547 786.335 448.411 784.86 449.98C786.508 450.589 788.244 450.927 790 450.98C790.878 450.995 791.747 450.8 792.535 450.412C793.322 450.024 794.006 449.455 794.53 448.75C795.01 448.01 795.23 447.13 795.7 446.37C795.899 445.974 796.215 445.649 796.605 445.44C796.995 445.231 797.441 445.147 797.88 445.2C798.249 445.33 798.588 445.53 798.88 445.79C800.914 447.285 803.303 448.223 805.81 448.51C807.96 448.76 810.4 448.4 811.81 446.74C812.751 445.456 813.156 443.857 812.94 442.28C812.46 436.69 807.73 432.28 806.64 426.8C805.75 422.35 807.35 417.8 807.64 413.28C808.08 406.58 805.64 400.05 803.25 393.78C802.72 392.225 802.016 390.736 801.15 389.34C800.094 387.912 798.744 386.728 797.192 385.865C795.639 385.003 793.92 384.483 792.15 384.34C790.841 384.167 789.509 384.301 788.26 384.73C787.025 385.295 785.896 386.066 784.92 387.01C782.64 389.01 780.29 391.01 778.92 393.79C778.38 394.91 778.03 396.11 777.43 397.19" fill="#925978"/>
<g opacity="0.1">
<path opacity="0.1" d="M778.93 395.58C779.52 394.49 779.93 393.29 780.41 392.18C780.928 391.141 781.573 390.17 782.33 389.29C780.951 390.57 779.804 392.079 778.94 393.75C778.42 394.84 778.07 396 777.5 397.06L778.23 396.44C778.044 396.696 777.873 396.963 777.72 397.24C778.188 396.737 778.594 396.18 778.93 395.58Z" fill="black"/>
<path opacity="0.1" d="M807.3 446.95C804.792 446.657 802.404 445.716 800.37 444.22C800.073 443.967 799.735 443.767 799.37 443.63C798.93 443.584 798.486 443.671 798.097 443.882C797.708 444.093 797.391 444.416 797.19 444.81C797.093 444.968 797.006 445.132 796.93 445.3C797.243 445.158 797.596 445.127 797.93 445.21C798.298 445.34 798.638 445.54 798.93 445.8C800.963 447.295 803.352 448.233 805.86 448.52C808.01 448.77 810.45 448.41 811.86 446.75C812.037 446.537 812.191 446.305 812.32 446.06C810.796 446.917 809.026 447.231 807.3 446.95V446.95Z" fill="black"/>
<path opacity="0.1" d="M791.45 449.41C789.697 449.356 787.965 449.018 786.32 448.41C787.789 446.834 788.91 444.967 789.61 442.93C789.916 441.583 790.004 440.195 789.87 438.82C789.47 432.29 787.21 425.4 781.87 421.61C780.71 420.78 779.26 419.77 779.47 418.36C779.619 417.806 779.874 417.287 780.22 416.83C780.988 415.548 781.419 414.092 781.472 412.599C781.524 411.105 781.197 409.623 780.52 408.29C779.62 406.57 778.16 405.17 777.39 403.39C776.986 402.405 776.805 401.342 776.86 400.279C776.915 399.216 777.206 398.178 777.71 397.24C777.455 397.509 777.184 397.762 776.9 398C776.693 398.286 776.469 398.56 776.23 398.82C775.725 399.756 775.435 400.793 775.381 401.855C775.328 402.917 775.512 403.978 775.92 404.96C776.68 406.75 778.14 408.14 779.04 409.86C779.717 411.194 780.044 412.678 779.992 414.174C779.939 415.669 779.508 417.126 778.74 418.41C778.389 418.863 778.137 419.384 778 419.94C777.78 421.35 779.24 422.36 780.4 423.18C785.72 426.98 787.99 433.86 788.4 440.39C788.537 441.768 788.453 443.159 788.15 444.51C787.45 446.547 786.325 448.411 784.85 449.98C786.498 450.589 788.234 450.927 789.99 450.98C790.868 450.995 791.736 450.8 792.524 450.412C793.312 450.024 793.996 449.455 794.52 448.75C794.58 448.65 794.64 448.55 794.69 448.45C793.718 449.06 792.597 449.392 791.45 449.41V449.41Z" fill="black"/>
</g>
<path d="M71.0405 568.57C68.9666 568.3 66.9786 567.573 65.2205 566.44L65.0405 566.31C65.1848 566.102 65.2867 565.868 65.3405 565.62C65.0934 565.144 64.9632 564.616 64.9605 564.08C64.9681 563.571 64.8658 563.066 64.6605 562.6V560.1C64.0686 559.264 63.773 558.254 63.8205 557.23C63.7505 555.16 63.6705 545 63.6705 545C63.5546 544.468 63.531 543.92 63.6005 543.38C63.6705 542.2 63.6705 541.76 63.6705 541.76C63.4236 541.075 63.3481 540.341 63.4505 539.62C63.5145 538.938 63.322 538.257 62.9105 537.71L64.0505 532.11C64.0505 532.11 64.6805 512.79 62.8405 506.96C62.8405 506.96 62.8405 506.96 62.8405 506.89C62.9905 503.14 60.7105 496.89 62.0005 492.53C63.2905 488.17 63.4505 487.23 63.4505 487.23C63.4505 487.23 57.7505 472.94 56.3105 469.55C55.4822 467.353 54.479 465.226 53.3105 463.19C53.2171 463.063 53.1271 462.943 53.0405 462.83L52.8905 462.65C53.2039 462.134 53.3922 461.552 53.4405 460.95C53.5205 459.95 53.3705 458.69 54.1405 457.95C54.4338 457.712 54.7485 457.501 55.0805 457.32C55.6667 456.936 56.1332 456.395 56.4267 455.758C56.7202 455.122 56.8289 454.415 56.7405 453.72C56.517 452.623 55.9944 451.609 55.2305 450.79C55.3145 450.301 55.358 449.806 55.3605 449.31C55.3582 448.185 55.1254 447.072 54.6765 446.04C54.2277 445.008 53.5722 444.079 52.7505 443.31V443.31V442.85C52.762 441.83 52.4428 440.833 51.8405 440.01L52.0505 440.16L51.6905 439.85C51.5164 439.67 51.3177 439.515 51.1005 439.39C49.4083 438.235 47.4308 437.568 45.3847 437.462C43.3386 437.356 41.3028 437.816 39.5005 438.79C38.5976 439.266 37.8224 439.952 37.2405 440.79C36.0505 442.63 36.3505 445 35.7305 447.09C35.1105 449.18 33.7305 450.72 32.5605 452.46C31.3905 454.2 30.4205 456.26 30.8605 458.29C31.1805 459.77 32.2205 461.09 32.2005 462.59C32.1515 463.385 31.824 464.138 31.2754 464.716C30.7268 465.294 29.9922 465.66 29.2005 465.75V465.75H28.7505C30.2376 466.65 31.9168 467.185 33.6505 467.31C33.6505 467.45 33.5705 467.58 33.5405 467.72C32.1805 473 30.9305 479.72 30.9305 479.72C30.9305 479.72 31.7705 486.5 30.0205 491.8C28.2705 497.1 28.5005 508.01 28.5005 508.01C28.5005 508.01 33.3605 505.5 33.6705 507.12C33.9805 508.74 33.6705 509.18 33.6705 509.18C34.3727 509.551 35.0936 509.884 35.8305 510.18V510.83L35.6105 513.73C35.5327 514.33 35.6263 514.941 35.8805 515.49C36.3005 516.3 35.8805 518.49 35.8805 518.49C35.8805 518.49 35.5205 518.71 35.8805 519.75C36.0403 520.593 35.9427 521.464 35.6005 522.25C35.6005 522.25 35.1705 527.77 35.0905 528.95C34.7379 530.495 34.2286 531.999 33.5705 533.44C33.5705 533.44 34.8705 535.06 33.5705 535.29C32.2705 535.52 32.1305 537.49 32.1305 537.49C32.1305 537.49 30.6105 538.75 30.6105 539.19C26.0173 544.3 23.0358 550.652 22.0405 557.45C22.0405 557.45 20.4405 558.92 20.6705 560.32C20.8005 561.11 20.5405 561.38 20.2905 561.47C20.5705 561.47 20.8805 561.69 20.7405 562.38C20.5205 563.56 19.9105 566.06 19.9105 566.06H20.0205C18.7705 567.5 16.9605 569.91 16.6805 572.06V572.32L15.9805 573.85L21.9805 576.5L22.5105 575.69C22.5105 575.69 25.1705 578.69 28.2105 579.37C28.7328 579.485 29.2657 579.545 29.8005 579.55C31.4936 579.514 33.1666 579.175 34.7405 578.55C34.7405 578.55 36.9405 575.83 31.2405 575.31C31.2405 575.31 27.9005 571.48 28.2405 569.86C28.3476 569.178 28.4177 568.49 28.4505 567.8C28.4505 567.65 28.4505 567.5 28.4505 567.36L28.8405 567.42L28.9105 566.18C28.9961 566.078 29.0606 565.96 29.1001 565.833C29.1396 565.706 29.1533 565.573 29.1405 565.44C29.1405 564.93 28.6805 564.85 29.1405 564.56C29.6005 564.27 29.5905 564.56 29.5905 563.83C29.5905 563.1 29.2905 563.31 29.9705 562.57C30.6505 561.83 29.9005 560.51 29.9005 560.51C30.3213 560.196 30.6713 559.797 30.928 559.338C31.1847 558.88 31.3422 558.373 31.3905 557.85C31.3205 556.31 36.4805 546.51 37.5405 546.14C38.6005 545.77 38.6805 543.85 38.6805 543.85C38.6805 543.85 40.1305 544.15 40.5805 543.85C41.2936 543.052 41.9298 542.188 42.4805 541.27C42.4805 541.27 48.2505 526.69 48.3305 521.17L48.7105 519.92C48.7105 519.92 50.9105 522.79 50.6005 524.85C50.2905 526.91 52.2905 528.39 52.2905 528.39V534.65C52.5104 535.74 52.6309 536.848 52.6505 537.96C52.5805 538.96 53.5505 540.02 53.1805 540.91C52.9806 541.708 52.9806 542.542 53.1805 543.34C53.1805 543.34 53.1005 545.4 53.1805 545.99C53.2605 546.58 52.8805 553.35 54.8605 556.3C54.8605 556.3 55.6905 558.43 54.8605 559.83C54.0305 561.23 55.6105 562.63 55.6105 562.63C55.6105 562.63 54.6105 564.25 55.6105 565.43C56.1803 566.173 56.4353 567.111 56.3205 568.04C55.9205 569.54 55.6305 571.5 56.3205 572.87L56.5005 574.98L62.3205 574.53V573.36C64.8281 573.976 67.4256 574.138 69.9905 573.84C70.9817 573.751 71.9441 573.459 72.8179 572.982C73.6917 572.506 74.4584 571.855 75.0705 571.07C75.0705 571.07 77.4105 567.02 71.0405 568.57Z" fill="url(#paint1_linear)"/>
<path d="M73.9802 571.11C73.3923 571.885 72.6494 572.529 71.7988 573C70.9483 573.472 70.0088 573.761 69.0402 573.85C66.5612 574.148 64.0484 573.982 61.6302 573.36V574.54L56.0102 574.98L55.8402 572.88C55.1902 571.5 55.4902 569.5 55.8902 568C56.0716 567.291 56.3021 566.596 56.5802 565.92C56.5802 565.92 61.4202 561.81 63.0302 564.92C63.3802 565.557 63.8648 566.11 64.4502 566.54C66.1394 567.662 68.0608 568.387 70.0702 568.66C76.2502 567.08 73.9802 571.11 73.9802 571.11Z" fill="#FF6484"/>
<path opacity="0.1" d="M59.04 567.08C59.04 567.08 59.04 570.89 61.82 570.82C64.6 570.75 64.98 569.3 64.1 568.32C63.5001 567.626 62.9832 566.864 62.56 566.05L59.04 567.08Z" fill="black"/>
<path d="M35.0397 578.59C33.5276 579.212 31.9142 579.551 30.2797 579.59C29.762 579.584 29.2462 579.527 28.7397 579.42C25.8097 578.76 23.2397 575.75 23.2397 575.75L22.7297 576.56L16.9297 573.92L17.5897 572.38V572.11C17.8597 570.01 19.5897 567.6 20.8097 566.17C21.4997 565.37 22.0397 564.85 22.0397 564.85L29.0397 565.85C29.0397 565.85 29.0397 566.75 29.0397 567.85C29.0151 568.54 28.9483 569.228 28.8397 569.91C28.5497 571.52 31.7697 575.33 31.7697 575.33C37.1697 575.85 35.0397 578.59 35.0397 578.59Z" fill="#FF6484"/>
<path d="M21.11 561.55C20.9921 561.582 20.8679 561.582 20.75 561.55C20.869 561.528 20.991 561.528 21.11 561.55Z" fill="#444053"/>
<path opacity="0.1" d="M28.9595 565.91C28.9595 565.91 28.9595 566.81 28.9595 567.91L20.7695 566.6C20.7695 566.6 20.7695 566.44 20.8595 566.18C21.4995 565.37 22.0395 564.85 22.0395 564.85L28.9595 565.91Z" fill="black"/>
<path opacity="0.1" d="M64.4704 566.5C63.2304 569.37 55.8604 568.69 55.8604 568.69C55.9019 568.459 55.9186 568.224 55.9104 567.99C56.0918 567.281 56.3223 566.586 56.6003 565.91C56.6003 565.91 61.4404 561.8 63.0504 564.91C63.4039 565.536 63.8882 566.078 64.4704 566.5V566.5Z" fill="black"/>
<path d="M64.5898 565.69C63.8598 568.98 55.8598 568.25 55.8598 568.25C56.0164 567.273 55.7791 566.273 55.1998 565.47C54.1998 564.29 55.1998 562.68 55.1998 562.68C55.1998 562.68 53.6598 561.29 54.4698 559.89C55.2798 558.49 54.4698 556.37 54.4698 556.37C52.5698 553.44 52.9298 546.69 52.8498 546.11C52.7698 545.53 52.8498 543.47 52.8498 543.47C52.6556 542.675 52.6556 541.845 52.8498 541.05C53.2098 540.17 52.2698 539.14 52.3498 538.12C52.3399 537.023 52.2362 535.929 52.0398 534.85V528.62C51.5063 528.207 51.0805 527.671 50.7985 527.058C50.5164 526.446 50.3865 525.774 50.4198 525.1C50.7098 523.04 48.5798 520.19 48.5798 520.19L48.2198 521.43C48.1398 526.93 42.5698 541.43 42.5698 541.43C42.0392 542.337 41.4266 543.194 40.7398 543.99C40.2998 544.29 38.9098 543.99 38.9098 543.99C38.9098 543.99 38.8298 545.9 37.8098 546.26C36.7898 546.62 31.8098 556.38 31.8698 557.92C31.8303 558.451 31.679 558.968 31.4256 559.437C31.1723 559.906 30.8227 560.316 30.3998 560.64C30.3998 560.64 31.1298 561.96 30.4698 562.69C29.8098 563.42 30.1098 563.2 30.1098 563.94C30.1098 564.68 30.1098 564.38 29.6698 564.67C29.2298 564.96 29.6698 565.04 29.6698 565.55C29.6895 565.812 29.6111 566.072 29.4498 566.28L29.3798 567.51L20.7998 566.14C20.7998 566.14 21.3798 563.64 21.5998 562.47C21.7298 561.78 21.4298 561.6 21.1598 561.56C21.3998 561.47 21.6498 561.2 21.5298 560.42C21.3098 559.02 22.8498 557.56 22.8498 557.56C23.7374 550.813 26.5652 544.47 30.9898 539.3C30.9898 538.86 32.4498 537.61 32.4498 537.61C32.4498 537.61 32.5998 535.61 33.8498 535.41C35.0998 535.21 33.8498 533.58 33.8498 533.58C34.4811 532.141 34.9701 530.644 35.3098 529.11C35.3898 527.94 35.7998 522.44 35.7998 522.44C36.1308 521.654 36.2247 520.789 36.0698 519.95C35.7298 518.95 36.0698 518.7 36.0698 518.7C36.0698 518.7 36.4898 516.5 36.0698 515.7C35.8275 515.147 35.7411 514.539 35.8198 513.94L36.0198 511.06L36.3298 506.76C36.3298 506.76 59.1298 502.87 61.6198 506.02C61.8957 506.409 62.0958 506.847 62.2098 507.31C63.9898 513.11 63.3798 532.31 63.3798 532.31L62.2798 537.88C62.6818 538.427 62.867 539.104 62.7998 539.78C62.7034 540.497 62.7788 541.227 63.0198 541.91C63.0198 541.91 63.0198 542.35 62.9398 543.52C62.8757 544.061 62.9028 544.608 63.0198 545.14C63.0198 545.14 63.0898 555.25 63.1598 557.31C63.1147 558.326 63.3988 559.329 63.9698 560.17V562.66C64.1679 563.124 64.2667 563.625 64.2598 564.13C64.2465 564.669 64.3595 565.203 64.5898 565.69Z" fill="#444053"/>
<path opacity="0.1" d="M30.2797 579.57C29.762 579.564 29.2462 579.507 28.7397 579.4C25.8097 578.74 23.2397 575.73 23.2397 575.73L22.7297 576.54L16.9297 573.9L17.5897 572.36V572.09L23.5897 575.09C23.5897 575.09 28.3897 577.42 30.2797 579.57Z" fill="black"/>
<path opacity="0.1" d="M69.0398 573.85C66.5608 574.148 64.048 573.982 61.6298 573.36V574.54L56.0098 574.98L55.8398 572.88C57.6198 572.88 60.4898 572.95 61.7298 572.88C64.1991 572.872 66.6582 573.198 69.0398 573.85V573.85Z" fill="black"/>
<path opacity="0.1" d="M23.9796 559.66C24.2706 559.641 24.5626 559.678 24.8396 559.77C25.1271 559.946 25.4012 560.143 25.6596 560.36C25.8525 560.465 26.0364 560.585 26.2096 560.72C26.4196 560.93 26.5096 561.24 26.7196 561.45C27.1196 561.84 27.7196 561.76 28.2796 561.94C28.3396 561.94 28.3996 561.94 28.4096 562.05C28.4101 562.079 28.4018 562.109 28.3858 562.133C28.3698 562.158 28.3467 562.178 28.3196 562.19C28.1894 562.262 28.0432 562.299 27.8946 562.299C27.7459 562.299 27.5997 562.262 27.4696 562.19C27.2129 562.042 26.9775 561.861 26.7696 561.65C26.3625 561.288 25.8955 561.001 25.3896 560.8C24.6996 560.52 23.4996 560.45 23.0596 559.8C23.351 559.682 23.6662 559.634 23.9796 559.66Z" fill="black"/>
<path opacity="0.1" d="M23.3896 561.2C23.5425 561.243 23.69 561.304 23.8296 561.38L24.5796 561.76C24.0475 561.796 23.5162 561.678 23.0496 561.42C22.88 561.357 22.716 561.281 22.5596 561.19C22.8346 561.143 23.1158 561.147 23.3896 561.2Z" fill="black"/>
<path opacity="0.1" d="M24.3903 562.49C24.5497 562.47 24.711 562.47 24.8703 562.49C25.1581 562.595 25.4229 562.755 25.6503 562.96C26.201 563.399 26.886 563.636 27.5903 563.63C27.4586 563.689 27.314 563.713 27.1703 563.7H25.5903C25.4179 563.725 25.2428 563.725 25.0703 563.7C24.8437 563.65 24.625 563.569 24.4203 563.46C24.1503 563.34 23.0403 563.02 23.0303 562.65C23.0203 562.28 24.1203 562.49 24.3903 562.49Z" fill="black"/>
<path opacity="0.1" d="M60.25 564.36C60.7325 564.4 61.2175 564.4 61.7 564.36C62.2129 564.341 62.7108 564.181 63.14 563.9C63.56 563.58 63.47 563.24 62.94 563.22C62.4383 563.24 61.9455 563.359 61.49 563.57C61.2544 563.668 61.0271 563.786 60.81 563.92C60.71 564.02 60.35 564.37 60.25 564.36Z" fill="black"/>
<path opacity="0.1" d="M62.0403 565.16C62.0403 565.34 61.8103 565.44 61.6403 565.5C61.2274 565.661 60.7925 565.759 60.3503 565.79C60.2403 565.79 59.9303 565.79 59.9703 565.62C60.0103 565.45 60.4703 565.5 60.5803 565.48C61.0739 565.408 61.5618 565.301 62.0403 565.16V565.16Z" fill="black"/>
<path opacity="0.1" d="M37.4697 536.06C36.7353 535.546 35.8656 535.261 34.9697 535.24C35.8771 535.185 36.7712 535.478 37.4697 536.06V536.06Z" fill="black"/>
<path opacity="0.1" d="M36.79 533.1C37.4497 533.105 38.0958 533.288 38.66 533.63L38.04 533.45C37.6302 533.319 37.2079 533.232 36.78 533.19C36.54 533.19 36.29 533.19 36.05 533.19C35.81 533.19 35.49 533.12 35.21 533.11C35.7 533.11 36.25 533.08 36.79 533.1Z" fill="black"/>
<path opacity="0.1" d="M39.0397 534.51C39.2497 534.51 39.4997 534.64 39.5397 534.85C39.0163 534.6 38.4706 534.399 37.9097 534.25C37.5997 534.15 36.6497 533.73 36.4297 534.02C37.2197 534.25 38.1297 534.33 39.0397 534.51Z" fill="black"/>
<path opacity="0.1" d="M41.0399 528C42.0004 527.675 42.866 527.119 43.5599 526.38C43.5516 526.709 43.4625 527.03 43.3002 527.316C43.138 527.602 42.9078 527.844 42.6299 528.02C42.0682 528.369 41.4428 528.604 40.7899 528.71C40.1393 528.824 39.5048 529.015 38.8999 529.28C38.6099 529.42 37.7099 530.28 37.4199 530.28C37.1299 530.28 37.6399 529.65 37.7699 529.55C38.7787 528.877 39.8803 528.355 41.0399 528V528Z" fill="black"/>
<path opacity="0.1" d="M59.0402 537.51C58.7302 537.4 54.9402 538.13 55.1702 537.4C55.3202 536.95 56.5502 537.12 56.8502 537.13C57.5947 537.151 58.3323 537.279 59.0402 537.51V537.51Z" fill="black"/>
<path d="M54.9104 449.85C54.9104 450.465 54.8433 451.079 54.7104 451.68C54.2451 453.772 52.9962 455.606 51.2205 456.805C49.4448 458.004 47.2772 458.477 45.1632 458.128C43.0492 457.778 41.1494 456.632 39.8543 454.925C38.5592 453.218 37.9672 451.08 38.2 448.95C38.4328 446.82 39.4727 444.86 41.1059 443.473C42.7392 442.086 44.8416 441.377 46.9813 441.492C49.1209 441.608 51.1351 442.538 52.6098 444.093C54.0846 445.647 54.9078 447.707 54.9104 449.85V449.85Z" fill="#FBBEBE"/>
<path d="M50.8796 453.29C50.8796 453.29 48.1696 461.21 49.7096 462.82C51.2496 464.43 38.6396 465.39 38.6396 465.39C38.6396 465.39 43.9097 455.93 43.3997 453.58C42.8897 451.23 50.8796 453.29 50.8796 453.29Z" stroke="#91E9E3" stroke-miterlimit="10"/>
<path opacity="0.1" d="M62.17 507.29C62.1801 507.473 62.1801 507.657 62.17 507.84C62.02 511.58 55.35 519.13 53.81 517.84C52.27 516.55 41.81 514.1 41.81 514.1C41.81 514.1 40.27 511.68 38.66 511.68C37.7416 511.603 36.8426 511.373 36 511L36.31 506.7C36.31 506.7 59.11 502.81 61.6 505.96C61.8734 506.363 62.0669 506.814 62.17 507.29V507.29Z" fill="black"/>
<path d="M62.1701 507.18C62.1001 509.05 60.3901 511.88 58.5001 514.08C56.6101 516.28 54.5801 517.84 53.8101 517.22C53.2454 516.852 52.6331 516.563 51.9901 516.36C48.5201 515.09 41.7901 513.48 41.7901 513.48C41.7901 513.48 40.2501 511.06 38.6401 511.06C37.0301 511.06 33.9401 509.45 33.9401 509.45C33.9401 509.45 34.2401 509.01 33.9401 507.4C33.6401 505.79 28.9401 508.28 28.9401 508.28C28.9401 508.28 28.7201 497.43 30.4001 492.15C32.0801 486.87 31.2801 480.15 31.2801 480.15C31.2801 480.15 32.4901 473.51 33.8001 468.25C34.5901 465.1 35.4201 462.45 36.0501 462.04C37.7401 460.94 46.5301 462.04 46.5301 462.04C48.2253 462.062 49.9165 462.209 51.5901 462.48C52.0227 462.652 52.3924 462.952 52.6501 463.34L52.9101 463.71C54.0625 465.734 55.0427 467.852 55.8401 470.04C57.2401 473.41 62.7401 487.63 62.7401 487.63C62.7401 487.63 62.5901 488.63 61.3401 492.91C60.0901 497.19 62.3201 503.44 62.1701 507.18Z" fill="#65617D"/>
<path d="M55.8702 511.5L58.5002 514.08C58.5002 514.08 60.9202 522.43 57.7702 521.69C54.6202 520.95 51.9902 516.36 51.9902 516.36L55.8702 511.5Z" fill="#FBBEBE"/>
<path opacity="0.1" d="M62.54 488.26C56.3 488.19 54.69 479.46 54.69 479.46C54.69 479.46 54.25 470.81 53.44 469.2C52.9577 467.625 52.7117 465.987 52.71 464.34C53.8624 466.364 54.8425 468.482 55.64 470.67C57.04 474.04 62.54 488.26 62.54 488.26Z" fill="black"/>
<path d="M62.7597 487.6C56.5197 487.53 54.9097 478.8 54.9097 478.8C54.9097 478.8 54.4697 470.15 53.6597 468.54C53.1774 466.965 52.9314 465.327 52.9297 463.68C54.0821 465.704 55.0622 467.822 55.8597 470.01C57.2597 473.38 62.7597 487.6 62.7597 487.6Z" fill="#65617D"/>
<path opacity="0.1" d="M51.5902 466.08C51.5902 466.08 49.7602 461.08 46.7602 466.08C44.867 469.552 43.8122 473.418 43.6802 477.37L43.1602 491.15C43.641 492.038 43.9529 493.008 44.0802 494.01C44.0802 495.01 45.8801 498.01 45.8801 498.01C45.8801 498.01 46.3202 503.8 48.0002 504.76L49.6202 509.52C49.6202 509.52 49.6902 512.67 50.7902 513.92C51.1108 514.375 51.3242 514.896 51.4143 515.445C51.5044 515.994 51.4688 516.557 51.3102 517.09L57.8302 514.81C57.8302 514.81 57.0902 515.08 57.8302 513.11C58.5702 511.14 57.3902 508.57 57.3902 508.57C57.3902 508.57 53.2102 499.48 52.6902 498.16C52.1702 496.84 51.4502 495.3 51.6902 493.76C51.9302 492.22 51.7501 475.87 52.1301 473.38C52.5101 470.89 51.5902 466.08 51.5902 466.08Z" fill="black"/>
<path d="M52.2698 465.39C52.2698 465.39 50.4398 460.39 47.4298 465.39C45.5422 468.864 44.4878 472.729 44.3498 476.68L43.8398 490.46C44.3177 491.349 44.6295 492.319 44.7598 493.32C44.7598 494.32 46.5498 497.32 46.5498 497.32C46.5498 497.32 46.9898 503.11 48.6798 504.06L50.2898 508.83C50.2898 508.83 50.3698 511.98 51.4698 513.23C51.7905 513.685 52.0039 514.206 52.094 514.755C52.1841 515.304 52.1484 515.867 51.9898 516.4L58.4998 514.12C58.4998 514.12 57.7698 514.39 58.4998 512.41C59.2298 510.43 58.0398 507.85 58.0398 507.85C58.0398 507.85 53.8698 498.76 53.3498 497.44C52.8298 496.12 52.1098 494.58 52.3498 493.04C52.5898 491.5 52.4098 475.15 52.7798 472.65C53.1498 470.15 52.2698 465.39 52.2698 465.39Z" fill="#FF6484"/>
<path opacity="0.1" d="M52.3999 508.5C52.678 508.535 52.9483 508.617 53.1999 508.74C53.3999 508.84 53.5699 509 53.7699 509.11C53.998 509.241 54.2567 509.31 54.5199 509.31C54.2268 509.325 53.9331 509.325 53.6399 509.31C53.4571 509.322 53.2735 509.299 53.0999 509.24C52.9353 509.163 52.7808 509.065 52.6399 508.95C52.4605 508.817 52.2658 508.706 52.0599 508.62C51.8999 508.56 51.7299 508.54 51.6699 508.38C51.9161 508.4 52.1603 508.44 52.3999 508.5V508.5Z" fill="black"/>
<path opacity="0.1" d="M54.8797 510.47C55.1597 510.47 55.4297 510.41 55.7097 510.39C56.114 510.375 56.5189 510.395 56.9197 510.45C56.3311 510.751 55.666 510.869 55.0097 510.79C54.823 510.74 54.6264 510.74 54.4397 510.79C54.2397 510.87 53.6397 511.55 53.5897 510.95C53.5397 510.35 54.5397 510.48 54.8797 510.47Z" fill="black"/>
<path opacity="0.1" d="M51.5104 441.05L50.4404 440.27C50.5556 440.308 50.6662 440.358 50.7704 440.42C50.9955 440.542 51.1983 440.701 51.3704 440.89L51.7104 441.2L51.5104 441.05Z" fill="black"/>
<path opacity="0.1" d="M52.6701 463.31C52.4756 463.749 52.1643 464.126 51.7701 464.4C51.5341 464.561 51.2634 464.664 50.9801 464.7C50.5827 464.739 50.1815 464.698 49.8001 464.58C49.3121 464.449 48.8314 464.292 48.3601 464.11C47.4366 463.723 46.4918 463.389 45.5301 463.11C44.8106 462.891 44.0479 462.855 43.3111 463.005C42.5742 463.155 41.8864 463.487 41.3101 463.97C40.3801 464.91 40.1601 466.37 39.2401 467.31C38.0001 468.57 35.9801 468.49 34.2401 468.24L33.8301 468.18C34.6201 465.03 35.4501 462.38 36.0801 461.97C37.7701 460.87 46.5601 461.97 46.5601 461.97C48.2552 461.992 49.9465 462.139 51.6201 462.41C52.0545 462.595 52.4212 462.909 52.6701 463.31V463.31Z" fill="black"/>
<path opacity="0.1" d="M38.2003 449.85C38.1939 448.203 38.6745 446.592 39.5816 445.218C40.4887 443.844 41.7818 442.768 43.2983 442.127C44.8148 441.486 46.487 441.307 48.1048 441.614C49.7225 441.92 51.2135 442.698 52.3903 443.85V443.85C52.3903 445.3 52.1003 446.85 52.5103 448.2C53.0164 449.477 53.7633 450.645 54.7103 451.64C54.2542 453.638 53.0804 455.398 51.4118 456.587C49.7432 457.776 47.6959 458.311 45.6589 458.091C43.6218 457.87 41.7368 456.908 40.3618 455.389C38.9868 453.87 38.2176 451.899 38.2003 449.85V449.85Z" fill="black"/>
<path d="M51.7101 440.76C50.0888 439.289 48.0454 438.366 45.8698 438.122C43.6943 437.877 41.4971 438.325 39.5901 439.4C38.7131 439.882 37.9653 440.568 37.4101 441.4C36.2601 443.23 36.5501 445.6 35.9501 447.67C35.3501 449.74 34.0201 451.29 32.8901 453.02C31.7601 454.75 30.8201 456.8 31.2501 458.82C31.5601 460.29 32.5701 461.61 32.5501 463.11C32.5101 463.945 32.1563 464.735 31.5593 465.321C30.9623 465.907 30.1662 466.246 29.3301 466.27C30.8127 467.183 32.4935 467.725 34.2301 467.85C35.9801 468.1 38.0001 468.18 39.2301 466.92C40.1501 465.98 40.3701 464.52 41.3001 463.58C41.8764 463.097 42.5642 462.765 43.3011 462.615C44.0379 462.465 44.8007 462.501 45.5201 462.72C46.9801 463.06 48.3301 463.72 49.7901 464.15C50.1715 464.268 50.5727 464.309 50.9701 464.27C52.2201 464.1 52.9701 462.71 53.0501 461.45C53.1301 460.45 52.9801 459.2 53.7201 458.45C54.0029 458.212 54.3076 458.001 54.6301 457.82C55.2021 457.427 55.655 456.884 55.939 456.251C56.223 455.618 56.3271 454.919 56.2401 454.23C55.8901 451.75 53.2401 450.23 52.5001 447.79C52.0901 446.39 52.4001 444.89 52.3801 443.44C52.3601 441.99 51.8001 440.32 50.4301 439.83" fill="#444053"/>
<path opacity="0.1" d="M56.1102 454.23C55.7702 451.75 53.1102 450.23 52.3702 447.79C51.9602 446.39 52.2802 444.89 52.2502 443.44C52.269 442.427 51.9604 441.434 51.3702 440.61L51.5802 440.76C51.4702 440.65 51.3502 440.55 51.2302 440.45C51.0612 440.272 50.8695 440.118 50.6602 439.99L50.2802 439.73L50.4802 439.92L50.2702 439.77C50.8617 440.593 51.1705 441.586 51.1502 442.6C51.1502 444.05 50.8602 445.6 51.2702 446.94C51.9802 449.35 54.6702 450.94 55.0102 453.39C55.0961 454.078 54.9914 454.777 54.7075 455.41C54.4236 456.043 53.9714 456.586 53.4002 456.98C53.0777 457.161 52.773 457.372 52.4902 457.61C51.7502 458.35 51.9002 459.61 51.8202 460.61C51.7202 461.87 51.0002 463.26 49.7502 463.43C49.3495 463.465 48.9458 463.424 48.5602 463.31C47.1102 462.93 45.7502 462.22 44.2902 461.88C43.571 461.659 42.8079 461.622 42.0706 461.772C41.3334 461.923 40.6456 462.255 40.0702 462.74C39.1502 463.67 38.9202 465.14 38.0002 466.08C36.7602 467.33 34.7402 467.26 33.0002 467.01C31.8548 466.881 30.7277 466.622 29.6402 466.24C29.4939 466.255 29.3465 466.255 29.2002 466.24C30.6839 467.15 32.3641 467.692 34.1002 467.82C35.8502 468.07 37.8702 468.15 39.1002 466.89C40.0202 465.95 40.2502 464.49 41.1702 463.55C41.7465 463.067 42.4343 462.735 43.1712 462.585C43.9081 462.435 44.6708 462.471 45.3902 462.69C46.8502 463.03 48.2102 463.69 49.6602 464.12C50.0448 464.239 50.4495 464.28 50.8502 464.24C52.1002 464.07 52.8502 462.68 52.9202 461.42C53.0002 460.42 52.8502 459.17 53.5902 458.42C53.873 458.182 54.1777 457.971 54.5002 457.79C55.0674 457.4 55.5171 456.862 55.8008 456.234C56.0846 455.607 56.1915 454.914 56.1102 454.23V454.23Z" fill="black"/>
<path opacity="0.1" d="M88.2898 573.66C89.8898 578.99 68.3798 582.44 43.0498 581.46C20.3398 580.59 2.52983 576.41 1.21983 572.04C-0.0901707 567.67 15.3898 564.11 37.8298 564.04C62.8598 564.04 86.6898 568.33 88.2898 573.66Z" fill="#91E9E3"/>
<defs>
<linearGradient id="paint0_linear" x1="779.9" y1="608.42" x2="779.9" y2="382.37" gradientUnits="userSpaceOnUse">
<stop stop-color="#5770f6" stop-opacity="0.25"/>
<stop offset="0.54" stop-color="#5770f6" stop-opacity="0.12"/>
<stop offset="1" stop-color="#5770f6" stop-opacity="0.1"/>
</linearGradient>
<linearGradient id="paint1_linear" x1="6127.04" y1="103280" x2="6127.04" y2="83080.3" gradientUnits="userSpaceOnUse">
<stop stop-color="#5770f6" stop-opacity="0.25"/>
<stop offset="0.54" stop-color="#5770f6" stop-opacity="0.12"/>
<stop offset="1" stop-color="#5770f6" stop-opacity="0.1"/>
</linearGradient>
</defs>
</svg>
