<svg width="1833" height="1076" viewBox="0 0 1833 1076" fill="none" xmlns="http://www.w3.org/2000/svg">
<rect width="1833" height="1076" fill="#171E2E"/>
<circle cx="831.5" cy="185.5" r="9.5" fill="#2E3443"/>
<circle cx="859.5" cy="176.5" r="9.5" fill="#2E3443"/>
<circle cx="840.5" cy="153.5" r="9.5" fill="#2E3443"/>
<circle cx="242.5" cy="649.5" r="9.5" fill="#2E3443"/>
<circle cx="270.5" cy="640.5" r="9.5" fill="#2E3443"/>
<circle cx="251.5" cy="617.5" r="9.5" fill="#2E3443"/>
<circle cx="1757.5" cy="969.5" r="9.5" fill="#2E3443"/>
<circle cx="1785.5" cy="960.5" r="9.5" fill="#2E3443"/>
<circle cx="1766.5" cy="937.5" r="9.5" fill="#2E3443"/>
<rect y="304" width="25" height="24" fill="#2E3443"/>
<rect x="1134" y="916" width="25" height="24" fill="#2E3443"/>
<rect x="1808" y="538" width="25" height="24" fill="#2E3443"/>
<path d="M1146 177.512C1156.84 175.669 1178.51 177.789 1178.51 201.008C1178.51 230.033 1134.69 207.228 1156.6 192.37C1174.13 180.484 1192.17 187.417 1199 192.37" stroke="#2E3443" stroke-width="4"/>
<path d="M716 960.512C726.836 958.669 748.507 960.789 748.507 984.008C748.507 1013.03 704.693 990.228 726.6 975.37C744.125 963.484 762.169 970.417 769 975.37" stroke="#2E3443" stroke-width="4"/>
<path d="M293.5 25L305.191 45.25H281.809L293.5 25Z" fill="#2E3443"/>
<path d="M640.046 311.954L633.994 334.54L617.46 318.006L640.046 311.954Z" fill="#2E3443"/>
<path d="M1383.55 547.546L1406.13 553.598L1389.6 570.132L1383.55 547.546Z" fill="#2E3443"/>
<path d="M480.686 879.479C507.59 861.438 496.584 842.294 480.757 829.794C474.89 825.161 467 829.877 467 837.352V871.394C467 878.686 474.629 883.54 480.686 879.479Z" stroke="#2E3443" stroke-width="4"/>
<path d="M1423.52 300.686C1441.56 327.59 1460.71 316.584 1473.21 300.757C1477.84 294.89 1473.12 287 1465.65 287L1431.61 287C1424.31 287 1419.46 294.629 1423.52 300.686Z" stroke="#2E3443" stroke-width="4"/>
<path d="M468.249 225.114C443.183 207.376 453.278 188.623 468.206 176.203C473.999 171.383 482 176.074 482 183.61V217.168C482 224.517 474.248 229.359 468.249 225.114Z" stroke="#2E3443" stroke-width="4"/>
<path d="M872.598 597.854C873.197 596.011 875.803 596.011 876.402 597.854L879.552 607.547C879.819 608.371 880.587 608.929 881.454 608.929L891.646 608.929C893.583 608.929 894.389 611.408 892.821 612.547L884.576 618.538C883.875 619.047 883.581 619.95 883.849 620.774L886.999 630.467C887.597 632.309 885.488 633.842 883.921 632.703L875.676 626.712C874.975 626.203 874.025 626.203 873.324 626.712L865.079 632.703C863.512 633.842 861.403 632.309 862.001 630.467L865.151 620.774C865.419 619.95 865.125 619.047 864.424 618.538L856.179 612.547C854.611 611.408 855.417 608.929 857.354 608.929L867.546 608.929C868.413 608.929 869.181 608.371 869.448 607.547L872.598 597.854Z" fill="#2E3443"/>
<path d="M1742.15 98.5979C1743.99 99.1966 1743.99 101.803 1742.15 102.402L1732.45 105.552C1731.63 105.819 1731.07 106.587 1731.07 107.454L1731.07 117.646C1731.07 119.583 1728.59 120.389 1727.45 118.821L1721.46 110.576C1720.95 109.875 1720.05 109.581 1719.23 109.849L1709.53 112.999C1707.69 113.597 1706.16 111.488 1707.3 109.921L1713.29 101.676C1713.8 100.975 1713.8 100.025 1713.29 99.3244L1707.3 91.0791C1706.16 89.5116 1707.69 87.4027 1709.53 88.0014L1719.23 91.1508C1720.05 91.4186 1720.95 91.1253 1721.46 90.4243L1727.45 82.1789C1728.59 80.6115 1731.07 81.417 1731.07 83.3545L1731.07 93.5463C1731.07 94.4128 1731.63 95.1807 1732.45 95.4484L1742.15 98.5979Z" fill="#2E3443"/>
<path d="M105.176 961.401C106.615 960.105 108.873 961.408 108.47 963.303L106.351 973.272C106.171 974.12 106.557 974.987 107.307 975.42L116.134 980.516C117.812 981.485 117.27 984.035 115.343 984.237L105.207 985.302C104.345 985.393 103.64 986.028 103.46 986.876L101.341 996.845C100.938 998.74 98.3453 999.012 97.5573 997.242L93.4119 987.932C93.0595 987.14 92.2375 986.666 91.3758 986.756L81.2398 987.821C79.3129 988.024 78.2526 985.643 79.6924 984.346L87.2664 977.526C87.9103 976.947 88.1077 976.018 87.7553 975.227L83.6099 965.916C82.8219 964.146 84.7591 962.402 86.437 963.37L95.2634 968.466C96.0137 968.9 96.9577 968.8 97.6016 968.221L105.176 961.401Z" fill="#2E3443"/>
</svg>
