<svg width="1321" height="450" viewBox="0 0 1321 450" fill="none" xmlns="http://www.w3.org/2000/svg">
<g clip-path="url(#clip0_619_68)">
<rect width="650" height="450" fill="white"/>
<path d="M37.1886 70.6477L18.5943 104.852L38.4058 117L57 82.7955L75.5942 117L95.4058 104.852L76.8116 70.6477H114V46.3522H76.8112L95.4058 12.1478L75.5942 0L57 34.2044L38.4058 0L18.5943 12.1478L37.1886 46.3522H0V70.6477H37.1886Z" fill="#252F3F" fill-opacity="0.6"/>
<path fill-rule="evenodd" clip-rule="evenodd" d="M176.354 179.413C181.182 165.529 200.817 165.529 205.646 179.413L206.887 182.981L210.131 181.045C222.754 173.514 237.796 186.135 232.571 199.874L231.228 203.405L234.957 204.007C249.468 206.352 252.878 225.689 240.044 232.855L236.745 234.697L239.215 237.555C248.824 248.679 239.006 265.683 224.568 262.923L220.858 262.214L220.912 265.991C221.123 280.689 202.673 287.405 193.386 276.01L191 273.081L188.614 276.01C179.327 287.405 160.877 280.689 161.088 265.991L161.142 262.214L157.432 262.923C142.993 265.683 133.176 248.679 142.785 237.555L145.255 234.697L141.957 232.855C129.122 225.689 132.532 206.352 147.043 204.007L150.772 203.405L149.429 199.874C144.204 186.135 159.245 173.513 171.869 181.045L175.113 182.981L176.354 179.413ZM191 196.779C187.284 203.566 179.021 206.573 171.812 203.763C173.327 211.351 168.931 218.965 161.603 221.447C167.64 226.285 169.167 234.944 165.148 241.556C172.884 241.381 179.619 247.033 180.79 254.681C186.604 249.575 195.396 249.575 201.21 254.681C202.381 247.033 209.116 241.381 216.852 241.556C212.832 234.944 214.359 226.285 220.397 221.447C213.069 218.965 208.672 211.351 210.188 203.763C202.979 206.573 194.716 203.566 191 196.779Z" fill="#252F3F" fill-opacity="0.6"/>
<path d="M309.126 350.725C324.866 366.447 325 392.95 325 392.95C325 392.95 299.615 393.961 283.875 378.239C268.135 362.516 268 336.013 268 336.013C268 336.013 293.385 335.002 309.126 350.725Z" fill="#252F3F" fill-opacity="0.6"/>
<path d="M340.875 350.725C325.134 366.447 325 392.95 325 392.95C325 392.95 350.385 393.961 366.125 378.239C381.866 362.516 382 336.013 382 336.013C382 336.013 356.615 335.002 340.875 350.725Z" fill="#252F3F" fill-opacity="0.6"/>
<path d="M309.126 435.154C324.866 419.431 325 392.928 325 392.928C325 392.928 299.615 391.917 283.875 407.64C268.135 423.363 268 449.865 268 449.865C268 449.865 293.385 450.877 309.126 435.154Z" fill="#252F3F" fill-opacity="0.6"/>
<path d="M340.875 435.154C325.134 419.431 325 392.928 325 392.928C325 392.928 350.385 391.917 366.125 407.64C381.866 423.363 382 449.865 382 449.865C382 449.865 356.615 450.877 340.875 435.154Z" fill="#252F3F" fill-opacity="0.6"/>
<path d="M402 283C433.48 283 459 257.48 459 226H402V283Z" fill="#252F3F" fill-opacity="0.6"/>
<path d="M459 226C459 194.52 484.52 169 516 169V226H459Z" fill="#252F3F" fill-opacity="0.6"/>
<path d="M459 226C427.52 226 402 200.48 402 169L459 169V226Z" fill="#252F3F" fill-opacity="0.6"/>
<path d="M516 283C516 251.52 490.48 226 459 226V283H516Z" fill="#252F3F" fill-opacity="0.6"/>
<path d="M593 60C593 28.5198 567.48 3 536 3V60C536 91.4803 561.52 117 593 117C624.48 117 650 91.4803 650 60V3C618.52 3 593 28.5198 593 60Z" fill="#252F3F" fill-opacity="0.6"/>
<path d="M274.634 17.6708C272.724 16.6778 271.42 14.6811 271.42 12.3797C271.42 9.08821 274.088 6.42 277.38 6.42C279.681 6.42 281.678 7.72454 282.671 9.63453C283.664 7.72454 285.66 6.42 287.962 6.42C290.263 6.42 292.26 7.72454 293.253 9.63449C294.246 7.72454 296.243 6.42 298.544 6.42C300.846 6.42 302.842 7.72454 303.835 9.63453C304.828 7.72454 306.825 6.42 309.127 6.42C311.428 6.42 313.425 7.72454 314.418 9.63453C315.411 7.72454 317.407 6.42 319.709 6.42C322.01 6.42 324.007 7.72454 325 9.63453C325.993 7.72454 327.99 6.42 330.291 6.42C332.593 6.42 334.589 7.72454 335.582 9.63453C336.575 7.72454 338.572 6.42 340.873 6.42C343.175 6.42 345.171 7.72454 346.164 9.63453C347.157 7.72454 349.154 6.42 351.456 6.42C353.757 6.42 355.754 7.72454 356.747 9.63453C357.74 7.72454 359.736 6.42 362.038 6.42C364.339 6.42 366.336 7.72454 367.329 9.63453C368.322 7.72454 370.319 6.42 372.62 6.42C375.912 6.42 378.58 9.08821 378.58 12.3797C378.58 14.6811 377.275 16.6778 375.366 17.6708C377.275 18.6637 378.58 20.6605 378.58 22.9619C378.58 25.2634 377.275 27.2601 375.366 28.2531C377.275 29.246 378.58 31.2428 378.58 33.5442C378.58 35.8457 377.275 37.8425 375.366 38.8354C377.275 39.8283 378.58 41.825 378.58 44.1266C378.58 46.4279 377.275 48.4248 375.366 49.4178C377.275 50.4107 378.58 52.4072 378.58 54.7089C378.58 57.0102 377.275 59.0071 375.366 60C377.275 60.9929 378.58 62.9898 378.58 65.2911C378.58 67.5928 377.275 69.5893 375.366 70.5822C377.275 71.5752 378.58 73.5721 378.58 75.8734C378.58 78.175 377.275 80.1715 375.366 81.1645C377.275 82.1574 378.58 84.1543 378.58 86.4556C378.58 88.7573 377.275 90.7542 375.366 91.7467C377.275 92.74 378.58 94.7366 378.58 97.0382C378.58 99.3395 377.275 101.336 375.366 102.329C377.275 103.322 378.58 105.319 378.58 107.62C378.58 110.912 375.912 113.58 372.62 113.58C370.319 113.58 368.322 112.275 367.329 110.366C366.336 112.275 364.339 113.58 362.038 113.58C359.736 113.58 357.74 112.275 356.747 110.366C355.754 112.275 353.757 113.58 351.456 113.58C349.154 113.58 347.157 112.275 346.164 110.366C345.171 112.275 343.175 113.58 340.873 113.58C338.572 113.58 336.575 112.275 335.582 110.366C334.589 112.275 332.593 113.58 330.291 113.58C327.99 113.58 325.993 112.275 325 110.366C324.007 112.275 322.01 113.58 319.709 113.58C317.407 113.58 315.411 112.275 314.418 110.366C313.425 112.275 311.428 113.58 309.127 113.58C306.825 113.58 304.828 112.275 303.835 110.366C302.842 112.275 300.846 113.58 298.544 113.58C296.243 113.58 294.246 112.275 293.253 110.366C292.26 112.275 290.263 113.58 287.962 113.58C285.66 113.58 283.664 112.275 282.671 110.366C281.678 112.275 279.681 113.58 277.38 113.58C274.088 113.58 271.42 110.912 271.42 107.62C271.42 105.319 272.724 103.322 274.634 102.329C272.724 101.336 271.42 99.3395 271.42 97.0382C271.42 94.7366 272.724 92.74 274.634 91.7467C272.724 90.7542 271.42 88.7573 271.42 86.4556C271.42 84.1543 272.724 82.1574 274.634 81.1645C272.724 80.1715 271.42 78.175 271.42 75.8734C271.42 73.5721 272.724 71.5752 274.634 70.5822C272.724 69.5893 271.42 67.5928 271.42 65.2911C271.42 62.9898 272.724 60.9929 274.634 60C272.724 59.0071 271.42 57.0102 271.42 54.7089C271.42 52.4072 272.724 50.4107 274.634 49.4178C272.724 48.4248 271.42 46.4279 271.42 44.1266C271.42 41.825 272.724 39.8283 274.634 38.8354C272.724 37.8425 271.42 35.8457 271.42 33.5442C271.42 31.2428 272.724 29.246 274.634 28.2531C272.724 27.2601 271.42 25.2634 271.42 22.9619C271.42 20.6605 272.724 18.6637 274.634 17.6708Z" fill="#252F3F" fill-opacity="0.6"/>
<path fill-rule="evenodd" clip-rule="evenodd" d="M28.202 372.83C26.0137 368.747 24.7816 364.134 24.7816 359.251C24.7816 342.544 39.2061 329 56.9999 329V356.236C59.4308 352.279 62.805 348.884 67.0365 346.422C81.4782 338.022 100.438 343.682 109.385 359.063L85.7097 372.833C90.3654 372.954 95.007 374.178 99.2659 376.619C113.762 384.926 118.34 404.176 109.493 419.614L85.7979 406.035C87.9864 410.118 89.2184 414.731 89.2184 419.614C89.2184 436.321 74.794 449.865 56.9999 449.865V422.629C54.5693 426.586 51.1951 429.981 46.9636 432.443C32.5218 440.843 13.5619 435.183 4.61555 419.802L28.2903 406.032C23.6346 405.911 18.9931 404.686 14.734 402.246C0.238454 393.939 -4.34037 374.689 4.50693 359.251L28.202 372.83ZM57.0168 389.363C57.0111 389.353 57.0055 389.343 56.9999 389.334V389.363C57.0055 389.363 57.0111 389.363 57.0168 389.363ZM56.9999 389.502V389.531L56.9829 389.502H56.9999Z" fill="#252F3F" fill-opacity="0.6"/>
<g clip-path="url(#clip1_619_68)">
<path d="M593 388.44L596.456 336H589.545L593 388.44Z" fill="#252F3F" fill-opacity="0.6"/>
<path d="M593 397.56L596.456 450H589.545L593 397.56Z" fill="#252F3F" fill-opacity="0.6"/>
<path d="M593 397.56L589.545 450H596.456L593 397.56Z" fill="#252F3F" fill-opacity="0.6"/>
<path d="M593 388.44L589.545 336H596.456L593 388.44Z" fill="#252F3F" fill-opacity="0.6"/>
<path d="M597.561 393L650.001 396.455V389.545L597.561 393Z" fill="#252F3F" fill-opacity="0.6"/>
<path d="M588.44 393L536 396.455L536 389.545L588.44 393Z" fill="#252F3F" fill-opacity="0.6"/>
<path d="M588.44 393L536 389.545L536 396.455L588.44 393Z" fill="#252F3F" fill-opacity="0.6"/>
<path d="M597.561 393L650.001 389.545V396.455L597.561 393Z" fill="#252F3F" fill-opacity="0.6"/>
<path d="M589.776 389.776L555.139 350.252L550.252 355.138L589.776 389.776Z" fill="#252F3F" fill-opacity="0.6"/>
<path d="M596.225 396.224L635.749 430.862L630.862 435.748L596.225 396.224Z" fill="#252F3F" fill-opacity="0.6"/>
<path d="M596.225 396.224L630.862 435.748L635.749 430.862L596.225 396.224Z" fill="#252F3F" fill-opacity="0.6"/>
<path d="M589.776 389.776L550.252 355.138L555.139 350.252L589.776 389.776Z" fill="#252F3F" fill-opacity="0.6"/>
<path d="M596.225 389.776L635.749 355.138L630.862 350.252L596.225 389.776Z" fill="#252F3F" fill-opacity="0.6"/>
<path d="M589.776 396.224L555.139 435.748L550.252 430.862L589.776 396.224Z" fill="#252F3F" fill-opacity="0.6"/>
<path d="M589.776 396.224L550.252 430.862L555.139 435.748L589.776 396.224Z" fill="#252F3F" fill-opacity="0.6"/>
<path d="M596.225 389.776L630.862 350.252L635.749 355.138L596.225 389.776Z" fill="#252F3F" fill-opacity="0.6"/>
<path d="M594.18 388.595L611.09 338.837L604.414 337.048L594.18 388.595Z" fill="#252F3F" fill-opacity="0.6"/>
<path d="M591.82 397.405L581.586 448.952L574.91 447.163L591.82 397.405Z" fill="#252F3F" fill-opacity="0.6"/>
<path d="M591.82 397.405L574.91 447.163L581.586 448.952L591.82 397.405Z" fill="#252F3F" fill-opacity="0.6"/>
<path d="M594.18 388.595L604.414 337.048L611.09 338.837L594.18 388.595Z" fill="#252F3F" fill-opacity="0.6"/>
<path d="M597.404 394.18L647.163 411.09L648.952 404.415L597.404 394.18Z" fill="#252F3F" fill-opacity="0.6"/>
<path d="M588.596 391.82L537.049 381.585L538.837 374.91L588.596 391.82Z" fill="#252F3F" fill-opacity="0.6"/>
<path d="M588.596 391.82L538.837 374.91L537.049 381.585L588.596 391.82Z" fill="#252F3F" fill-opacity="0.6"/>
<path d="M597.404 394.18L648.952 404.415L647.163 411.09L597.404 394.18Z" fill="#252F3F" fill-opacity="0.6"/>
<path d="M590.72 389.051L567.493 341.909L561.508 345.364L590.72 389.051Z" fill="#252F3F" fill-opacity="0.6"/>
<path d="M595.279 396.949L624.492 440.636L618.507 444.091L595.279 396.949Z" fill="#252F3F" fill-opacity="0.6"/>
<path d="M595.279 396.949L618.507 444.091L624.492 440.636L595.279 396.949Z" fill="#252F3F" fill-opacity="0.6"/>
<path d="M590.72 389.051L561.508 345.364L567.493 341.909L590.72 389.051Z" fill="#252F3F" fill-opacity="0.6"/>
<path d="M596.949 390.72L644.091 367.493L640.636 361.508L596.949 390.72Z" fill="#252F3F" fill-opacity="0.6"/>
<path d="M589.05 395.28L545.364 424.493L541.908 418.508L589.05 395.28Z" fill="#252F3F" fill-opacity="0.6"/>
<path d="M589.05 395.28L541.908 418.508L545.364 424.493L589.05 395.28Z" fill="#252F3F" fill-opacity="0.6"/>
<path d="M596.949 390.72L640.636 361.508L644.091 367.493L596.949 390.72Z" fill="#252F3F" fill-opacity="0.6"/>
<path d="M595.279 389.051L624.492 345.364L618.507 341.909L595.279 389.051Z" fill="#252F3F" fill-opacity="0.6"/>
<path d="M590.72 396.949L567.493 444.091L561.508 440.636L590.72 396.949Z" fill="#252F3F" fill-opacity="0.6"/>
<path d="M590.72 396.949L561.508 440.636L567.493 444.091L590.72 396.949Z" fill="#252F3F" fill-opacity="0.6"/>
<path d="M595.279 389.051L618.507 341.909L624.492 345.364L595.279 389.051Z" fill="#252F3F" fill-opacity="0.6"/>
<path d="M596.949 395.28L640.636 424.493L644.091 418.508L596.949 395.28Z" fill="#252F3F" fill-opacity="0.6"/>
<path d="M589.05 390.72L541.908 367.493L545.364 361.508L589.05 390.72Z" fill="#252F3F" fill-opacity="0.6"/>
<path d="M589.05 390.72L545.364 361.508L541.908 367.493L589.05 390.72Z" fill="#252F3F" fill-opacity="0.6"/>
<path d="M596.949 395.28L644.091 418.508L640.636 424.493L596.949 395.28Z" fill="#252F3F" fill-opacity="0.6"/>
<path d="M591.82 388.595L581.586 337.048L574.91 338.837L591.82 388.595Z" fill="#252F3F" fill-opacity="0.6"/>
<path d="M594.18 397.405L611.09 447.163L604.414 448.952L594.18 397.405Z" fill="#252F3F" fill-opacity="0.6"/>
<path d="M594.18 397.405L604.414 448.952L611.09 447.163L594.18 397.405Z" fill="#252F3F" fill-opacity="0.6"/>
<path d="M591.82 388.595L574.91 338.837L581.586 337.048L591.82 388.595Z" fill="#252F3F" fill-opacity="0.6"/>
<path d="M597.404 391.82L648.952 381.585L647.163 374.91L597.404 391.82Z" fill="#252F3F" fill-opacity="0.6"/>
<path d="M588.596 394.18L538.837 411.09L537.049 404.415L588.596 394.18Z" fill="#252F3F" fill-opacity="0.6"/>
<path d="M588.596 394.18L537.049 404.415L538.837 411.09L588.596 394.18Z" fill="#252F3F" fill-opacity="0.6"/>
<path d="M597.404 391.82L647.163 374.91L648.952 381.585L597.404 391.82Z" fill="#252F3F" fill-opacity="0.6"/>
</g>
</g>
<rect width="650" height="450" transform="translate(671)" fill="white"/>
<path d="M708.189 239.648L689.594 273.852L709.406 286L728 251.795L746.594 286L766.406 273.852L747.812 239.648H785V215.352H747.811L766.406 181.148L746.594 169L728 203.204L709.406 169L689.594 181.148L708.189 215.352H671V239.648H708.189Z" fill="#252F3F" fill-opacity="0.6"/>
<path fill-rule="evenodd" clip-rule="evenodd" d="M847.354 13.4129C852.182 -0.470937 871.817 -0.470979 876.646 13.4129L877.887 16.9807L881.131 15.0452C893.754 7.5135 908.796 20.1346 903.571 33.8741L902.228 37.4049L905.957 38.0074C920.468 40.3519 923.878 59.6885 911.044 66.8549L907.745 68.6967L910.215 71.5551C919.824 82.679 910.006 99.6831 895.568 96.9231L891.858 96.214L891.912 99.9909C892.123 114.689 873.673 121.405 864.386 110.01L862 107.081L859.614 110.01C850.327 121.405 831.877 114.689 832.088 99.9909L832.142 96.214L828.432 96.9231C813.993 99.6831 804.176 82.679 813.785 71.5551L816.255 68.6967L812.957 66.8549C800.122 59.6885 803.532 40.3519 818.043 38.0074L821.772 37.4049L820.429 33.8741C815.204 20.1346 830.245 7.51346 842.869 15.0452L846.113 16.9807L847.354 13.4129ZM862 30.7795C858.284 37.5658 850.021 40.5731 842.812 37.7633C844.327 45.3507 839.931 52.9655 832.603 55.447C838.64 60.2851 840.167 68.9444 836.148 75.5557C843.884 75.3811 850.619 81.0331 851.79 88.681C857.604 83.575 866.396 83.575 872.21 88.681C873.381 81.0331 880.116 75.3811 887.852 75.5557C883.832 68.9444 885.359 60.2851 891.397 55.447C884.069 52.9655 879.672 45.3507 881.188 37.7633C873.979 40.5731 865.716 37.5658 862 30.7795Z" fill="#252F3F" fill-opacity="0.6"/>
<path d="M1114.13 350.725C1129.87 366.447 1130 392.95 1130 392.95C1130 392.95 1104.61 393.961 1088.87 378.239C1073.13 362.516 1073 336.013 1073 336.013C1073 336.013 1098.39 335.002 1114.13 350.725Z" fill="#252F3F" fill-opacity="0.6"/>
<path d="M1145.87 350.725C1130.13 366.447 1130 392.95 1130 392.95C1130 392.95 1155.39 393.961 1171.13 378.239C1186.87 362.516 1187 336.013 1187 336.013C1187 336.013 1161.61 335.002 1145.87 350.725Z" fill="#252F3F" fill-opacity="0.6"/>
<path d="M1114.13 435.154C1129.87 419.431 1130 392.928 1130 392.928C1130 392.928 1104.61 391.917 1088.87 407.64C1073.13 423.363 1073 449.865 1073 449.865C1073 449.865 1098.39 450.877 1114.13 435.154Z" fill="#252F3F" fill-opacity="0.6"/>
<path d="M1145.87 435.154C1130.13 419.431 1130 392.928 1130 392.928C1130 392.928 1155.39 391.917 1171.13 407.64C1186.87 423.363 1187 449.865 1187 449.865C1187 449.865 1161.61 450.877 1145.87 435.154Z" fill="#252F3F" fill-opacity="0.6"/>
<path d="M1073 114C1104.48 114 1130 88.4803 1130 57H1073V114Z" fill="#252F3F" fill-opacity="0.6"/>
<path d="M1130 57C1130 25.5198 1155.52 -1.37604e-06 1187 0V57H1130Z" fill="#252F3F" fill-opacity="0.6"/>
<path d="M1130 57C1098.52 57 1073 31.4802 1073 0L1130 9.96618e-06V57Z" fill="#252F3F" fill-opacity="0.6"/>
<path d="M1187 114C1187 82.5197 1161.48 57 1130 57V114H1187Z" fill="#252F3F" fill-opacity="0.6"/>
<path d="M1260 229C1260 197.52 1234.48 172 1203 172V229C1203 260.48 1228.52 286 1260 286C1291.48 286 1317 260.48 1317 229V172C1285.52 172 1260 197.52 1260 229Z" fill="#252F3F" fill-opacity="0.6"/>
<path d="M945.634 182.671C943.724 181.678 942.42 179.681 942.42 177.38C942.42 174.088 945.088 171.42 948.38 171.42C950.681 171.42 952.678 172.725 953.671 174.635C954.664 172.725 956.66 171.42 958.962 171.42C961.263 171.42 963.26 172.725 964.253 174.635C965.246 172.725 967.243 171.42 969.544 171.42C971.846 171.42 973.842 172.725 974.835 174.635C975.828 172.725 977.825 171.42 980.127 171.42C982.428 171.42 984.425 172.725 985.418 174.635C986.411 172.725 988.407 171.42 990.709 171.42C993.01 171.42 995.007 172.725 996 174.635C996.993 172.725 998.99 171.42 1001.29 171.42C1003.59 171.42 1005.59 172.725 1006.58 174.635C1007.58 172.725 1009.57 171.42 1011.87 171.42C1014.17 171.42 1016.17 172.725 1017.16 174.635C1018.16 172.725 1020.15 171.42 1022.46 171.42C1024.76 171.42 1026.75 172.725 1027.75 174.635C1028.74 172.725 1030.74 171.42 1033.04 171.42C1035.34 171.42 1037.34 172.725 1038.33 174.635C1039.32 172.725 1041.32 171.42 1043.62 171.42C1046.91 171.42 1049.58 174.088 1049.58 177.38C1049.58 179.681 1048.28 181.678 1046.37 182.671C1048.28 183.664 1049.58 185.661 1049.58 187.962C1049.58 190.263 1048.28 192.26 1046.37 193.253C1048.28 194.246 1049.58 196.243 1049.58 198.544C1049.58 200.846 1048.28 202.842 1046.37 203.835C1048.28 204.828 1049.58 206.825 1049.58 209.127C1049.58 211.428 1048.28 213.425 1046.37 214.418C1048.28 215.411 1049.58 217.407 1049.58 219.709C1049.58 222.01 1048.28 224.007 1046.37 225C1048.28 225.993 1049.58 227.99 1049.58 230.291C1049.58 232.593 1048.28 234.589 1046.37 235.582C1048.28 236.575 1049.58 238.572 1049.58 240.873C1049.58 243.175 1048.28 245.172 1046.37 246.164C1048.28 247.157 1049.58 249.154 1049.58 251.456C1049.58 253.757 1048.28 255.754 1046.37 256.747C1048.28 257.74 1049.58 259.737 1049.58 262.038C1049.58 264.34 1048.28 266.336 1046.37 267.329C1048.28 268.322 1049.58 270.319 1049.58 272.62C1049.58 275.912 1046.91 278.58 1043.62 278.58C1041.32 278.58 1039.32 277.275 1038.33 275.366C1037.34 277.275 1035.34 278.58 1033.04 278.58C1030.74 278.58 1028.74 277.275 1027.75 275.366C1026.75 277.275 1024.76 278.58 1022.46 278.58C1020.15 278.58 1018.16 277.275 1017.16 275.366C1016.17 277.275 1014.17 278.58 1011.87 278.58C1009.57 278.58 1007.58 277.275 1006.58 275.366C1005.59 277.275 1003.59 278.58 1001.29 278.58C998.99 278.58 996.993 277.275 996 275.366C995.007 277.275 993.01 278.58 990.709 278.58C988.407 278.58 986.411 277.275 985.418 275.366C984.425 277.275 982.428 278.58 980.127 278.58C977.825 278.58 975.828 277.275 974.835 275.366C973.842 277.275 971.846 278.58 969.544 278.58C967.243 278.58 965.246 277.275 964.253 275.366C963.26 277.275 961.263 278.58 958.962 278.58C956.66 278.58 954.664 277.275 953.671 275.366C952.678 277.275 950.681 278.58 948.38 278.58C945.088 278.58 942.42 275.912 942.42 272.62C942.42 270.319 943.724 268.322 945.634 267.329C943.724 266.336 942.42 264.34 942.42 262.038C942.42 259.737 943.724 257.74 945.634 256.747C943.724 255.754 942.42 253.757 942.42 251.456C942.42 249.154 943.724 247.157 945.634 246.164C943.724 245.172 942.42 243.175 942.42 240.873C942.42 238.572 943.724 236.575 945.634 235.582C943.724 234.589 942.42 232.593 942.42 230.291C942.42 227.99 943.724 225.993 945.634 225C943.724 224.007 942.42 222.01 942.42 219.709C942.42 217.407 943.724 215.411 945.634 214.418C943.724 213.425 942.42 211.428 942.42 209.127C942.42 206.825 943.724 204.828 945.634 203.835C943.724 202.842 942.42 200.846 942.42 198.544C942.42 196.243 943.724 194.246 945.634 193.253C943.724 192.26 942.42 190.263 942.42 187.962C942.42 185.661 943.724 183.664 945.634 182.671Z" fill="#252F3F" fill-opacity="0.6"/>
<path fill-rule="evenodd" clip-rule="evenodd" d="M833.202 372.83C831.014 368.747 829.782 364.134 829.782 359.251C829.782 342.544 844.206 329 862 329V356.236C864.431 352.279 867.805 348.884 872.036 346.422C886.478 338.022 905.438 343.682 914.385 359.063L890.71 372.833C895.365 372.954 900.007 374.178 904.266 376.619C918.762 384.926 923.34 404.176 914.493 419.614L890.798 406.035C892.986 410.118 894.218 414.731 894.218 419.614C894.218 436.321 879.794 449.865 862 449.865V422.629C859.569 426.586 856.195 429.981 851.964 432.443C837.522 440.843 818.562 435.183 809.616 419.802L833.29 406.032C828.635 405.911 823.993 404.686 819.734 402.246C805.238 393.939 800.66 374.689 809.507 359.251L833.202 372.83ZM862.017 389.363C862.011 389.353 862.005 389.343 862 389.334V389.363C862.005 389.363 862.011 389.363 862.017 389.363ZM862 389.502V389.531L861.983 389.502H862Z" fill="#252F3F" fill-opacity="0.6"/>
<defs>
<clipPath id="clip0_619_68">
<rect width="650" height="450" fill="white"/>
</clipPath>
<clipPath id="clip1_619_68">
<rect width="114" height="114" fill="white" transform="translate(536 336)"/>
</clipPath>
</defs>
</svg>
