<svg width="396" height="377" viewBox="0 0 396 377" fill="none" xmlns="http://www.w3.org/2000/svg">
<path d="M184.933 8.18362C190.67 -1.99605 205.33 -1.99605 211.067 8.18362L265.093 104.034C267.233 107.832 270.92 110.511 275.193 111.373L383.048 133.135C394.502 135.446 399.032 149.388 391.124 157.99L316.659 238.991C313.709 242.2 312.3 246.534 312.801 250.865L325.433 360.165C326.775 371.773 314.915 380.39 304.29 375.527L204.242 329.737C200.279 327.923 195.721 327.923 191.758 329.737L91.7103 375.527C81.0849 380.39 69.2255 371.773 70.567 360.165L83.1992 250.865C83.6997 246.534 82.2914 242.2 79.3411 238.991L4.87638 157.99C-3.03202 149.387 1.4979 135.446 12.9524 133.135L120.807 111.373C125.08 110.511 128.767 107.832 130.907 104.034L184.933 8.18362Z" fill="#FFC007"/>
</svg>
