<svg width="3571" height="2766" viewBox="0 0 3571 2766" fill="none" xmlns="http://www.w3.org/2000/svg">
<rect width="3571" height="2766" fill="url(#paint0_linear_18_824)"/>
<g filter="url(#filter0_f_18_824)">
<circle cx="1711.5" cy="1798.5" r="3.5" fill="white"/>
<circle cx="1711.5" cy="1798.5" r="3" stroke="white" stroke-opacity="0.4"/>
</g>
<g filter="url(#filter1_f_18_824)">
<circle cx="2191" cy="2439" r="5" fill="white"/>
<circle cx="2191" cy="2439" r="4.5" stroke="white" stroke-opacity="0.4"/>
</g>
<g filter="url(#filter2_f_18_824)">
<circle cx="2827.5" cy="2663.5" r="3.5" fill="white"/>
<circle cx="2827.5" cy="2663.5" r="3" stroke="white" stroke-opacity="0.4"/>
</g>
<g filter="url(#filter3_f_18_824)">
<circle cx="611.5" cy="2715.5" r="3.5" fill="white"/>
<circle cx="611.5" cy="2715.5" r="3" stroke="white" stroke-opacity="0.4"/>
</g>
<g filter="url(#filter4_f_18_824)">
<ellipse cx="2120.82" cy="1270.5" rx="3.81818" ry="3.5" fill="white"/>
<path d="M2124.14 1270.5C2124.14 1272.12 2122.69 1273.5 2120.82 1273.5C2118.94 1273.5 2117.5 1272.12 2117.5 1270.5C2117.5 1268.88 2118.94 1267.5 2120.82 1267.5C2122.69 1267.5 2124.14 1268.88 2124.14 1270.5Z" stroke="white" stroke-opacity="0.4"/>
</g>
<g filter="url(#filter5_f_18_824)">
<circle cx="2897" cy="700" r="6" fill="white"/>
<circle cx="2897" cy="700" r="5.5" stroke="white" stroke-opacity="0.4"/>
</g>
<g filter="url(#filter6_f_18_824)">
<circle cx="3319" cy="2549" r="6" fill="white"/>
<circle cx="3319" cy="2549" r="5.5" stroke="white" stroke-opacity="0.4"/>
</g>
<g filter="url(#filter7_f_18_824)">
<ellipse cx="965.241" cy="259.486" rx="3.81818" ry="3.5" transform="rotate(-102.646 965.241 259.486)" fill="white"/>
<path d="M964.515 256.249C966.092 255.895 967.758 257.001 968.169 258.83C968.579 260.659 967.545 262.37 965.968 262.724C964.39 263.078 962.724 261.972 962.314 260.143C961.904 258.314 962.937 256.603 964.515 256.249Z" stroke="white" stroke-opacity="0.4"/>
</g>
<g filter="url(#filter8_f_18_824)">
<ellipse cx="1020.82" cy="2187.5" rx="3.81818" ry="3.5" fill="white"/>
<path d="M1024.14 2187.5C1024.14 2189.12 1022.69 2190.5 1020.82 2190.5C1018.94 2190.5 1017.5 2189.12 1017.5 2187.5C1017.5 2185.88 1018.94 2184.5 1020.82 2184.5C1022.69 2184.5 1024.14 2185.88 1024.14 2187.5Z" stroke="white" stroke-opacity="0.4"/>
</g>
<g filter="url(#filter9_f_18_824)">
<circle cx="315" cy="1030" r="6" fill="white"/>
<circle cx="315" cy="1030" r="5.5" stroke="white" stroke-opacity="0.4"/>
</g>
<g filter="url(#filter10_f_18_824)">
<circle cx="153.5" cy="249.5" r="3.5" fill="white"/>
<circle cx="153.5" cy="249.5" r="3" stroke="white" stroke-opacity="0.4"/>
</g>
<g filter="url(#filter11_f_18_824)">
<circle cx="1258.5" cy="881.5" r="3.5" fill="white"/>
<circle cx="1258.5" cy="881.5" r="3" stroke="white" stroke-opacity="0.4"/>
</g>
<g filter="url(#filter12_f_18_824)">
<circle cx="158.5" cy="1798.5" r="3.5" fill="white"/>
<circle cx="158.5" cy="1798.5" r="3" stroke="white" stroke-opacity="0.4"/>
</g>
<g filter="url(#filter13_f_18_824)">
<circle cx="3249" cy="1330" r="5" fill="white"/>
<circle cx="3249" cy="1330" r="4.5" stroke="white" stroke-opacity="0.4"/>
</g>
<g filter="url(#filter14_f_18_824)">
<ellipse cx="2927.06" cy="1099.5" rx="3.0625" ry="3.5" fill="white"/>
<path d="M2929.62 1099.5C2929.62 1101.22 2928.42 1102.5 2927.06 1102.5C2925.71 1102.5 2924.5 1101.22 2924.5 1099.5C2924.5 1097.78 2925.71 1096.5 2927.06 1096.5C2928.42 1096.5 2929.62 1097.78 2929.62 1099.5Z" stroke="white" stroke-opacity="0.4"/>
</g>
<g filter="url(#filter15_f_18_824)">
<ellipse cx="1350.43" cy="140.016" rx="3.0625" ry="3.5" transform="rotate(-102.646 1350.43 140.016)" fill="white"/>
<path d="M1349.87 137.516C1351.55 137.139 1353.06 138.038 1353.36 139.359C1353.65 140.681 1352.67 142.139 1350.99 142.516C1349.31 142.893 1347.8 141.995 1347.5 140.673C1347.21 139.351 1348.19 137.893 1349.87 137.516Z" stroke="white" stroke-opacity="0.4"/>
</g>
<g filter="url(#filter16_f_18_824)">
<circle cx="430.5" cy="871.5" r="3.5" fill="white"/>
<circle cx="430.5" cy="871.5" r="3" stroke="white" stroke-opacity="0.4"/>
</g>
<g filter="url(#filter17_f_18_824)">
<circle cx="271.5" cy="93.5" r="3.5" fill="white"/>
<circle cx="271.5" cy="93.5" r="3" stroke="white" stroke-opacity="0.4"/>
</g>
<g filter="url(#filter18_f_18_824)">
<ellipse cx="2610" cy="1411.5" rx="4" ry="3.5" fill="white"/>
<path d="M2613.5 1411.5C2613.5 1413.1 2612 1414.5 2610 1414.5C2608 1414.5 2606.5 1413.1 2606.5 1411.5C2606.5 1409.9 2608 1408.5 2610 1408.5C2612 1408.5 2613.5 1409.9 2613.5 1411.5Z" stroke="white" stroke-opacity="0.4"/>
</g>
<g filter="url(#filter19_f_18_824)">
<circle cx="1689" cy="326" r="5" fill="white"/>
<circle cx="1689" cy="326" r="4.5" stroke="white" stroke-opacity="0.4"/>
</g>
<g filter="url(#filter20_f_18_824)">
<ellipse cx="2259" cy="963.5" rx="4" ry="3.5" fill="white"/>
<path d="M2262.5 963.5C2262.5 965.096 2261 966.5 2259 966.5C2257 966.5 2255.5 965.096 2255.5 963.5C2255.5 961.904 2257 960.5 2259 960.5C2261 960.5 2262.5 961.904 2262.5 963.5Z" stroke="white" stroke-opacity="0.4"/>
</g>
<g filter="url(#filter21_f_18_824)">
<circle cx="3034" cy="392" r="5" fill="white"/>
<circle cx="3034" cy="392" r="4.5" stroke="white" stroke-opacity="0.4"/>
</g>
<g filter="url(#filter22_f_18_824)">
<circle cx="1160" cy="1882" r="5" fill="white"/>
<circle cx="1160" cy="1882" r="4.5" stroke="white" stroke-opacity="0.4"/>
</g>
<g filter="url(#filter23_f_18_824)">
<ellipse cx="1637" cy="2519.5" rx="4" ry="3.5" fill="white"/>
<path d="M1640.5 2519.5C1640.5 2521.1 1639 2522.5 1637 2522.5C1635 2522.5 1633.5 2521.1 1633.5 2519.5C1633.5 2517.9 1635 2516.5 1637 2516.5C1639 2516.5 1640.5 2517.9 1640.5 2519.5Z" stroke="white" stroke-opacity="0.4"/>
</g>
<g filter="url(#filter24_f_18_824)">
<ellipse cx="2033" cy="506.5" rx="5" ry="3.5" fill="white"/>
<path d="M2037.5 506.5C2037.5 507.259 2037.06 507.996 2036.25 508.565C2035.44 509.133 2034.29 509.5 2033 509.5C2031.71 509.5 2030.56 509.133 2029.75 508.565C2028.94 507.996 2028.5 507.259 2028.5 506.5C2028.5 505.741 2028.94 505.004 2029.75 504.435C2030.56 503.867 2031.71 503.5 2033 503.5C2034.29 503.5 2035.44 503.867 2036.25 504.435C2037.06 505.004 2037.5 505.741 2037.5 506.5Z" stroke="white" stroke-opacity="0.4"/>
</g>
<g filter="url(#filter25_f_18_824)">
<circle cx="1778.5" cy="592.5" r="3.5" fill="white"/>
<circle cx="1778.5" cy="592.5" r="3" stroke="white" stroke-opacity="0.4"/>
</g>
<g filter="url(#filter26_f_18_824)">
<circle cx="2035.5" cy="52.5" r="3.5" fill="white"/>
<circle cx="2035.5" cy="52.5" r="3" stroke="white" stroke-opacity="0.4"/>
</g>
<g filter="url(#filter27_f_18_824)">
<circle cx="2299.5" cy="445.5" r="3.5" fill="white"/>
<circle cx="2299.5" cy="445.5" r="3" stroke="white" stroke-opacity="0.4"/>
</g>
<g filter="url(#filter28_f_18_824)">
<circle cx="2756.5" cy="273.5" r="3.5" fill="white"/>
<circle cx="2756.5" cy="273.5" r="3" stroke="white" stroke-opacity="0.4"/>
</g>
<g filter="url(#filter29_f_18_824)">
<circle cx="2678.5" cy="904.5" r="3.5" fill="white"/>
<circle cx="2678.5" cy="904.5" r="3" stroke="white" stroke-opacity="0.4"/>
</g>
<g filter="url(#filter30_f_18_824)">
<circle cx="1214.58" cy="425.239" r="3.5" transform="rotate(-102.646 1214.58 425.239)" fill="white"/>
<circle cx="1214.58" cy="425.239" r="3" transform="rotate(-102.646 1214.58 425.239)" stroke="white" stroke-opacity="0.4"/>
</g>
<g filter="url(#filter31_f_18_824)">
<circle cx="3452.5" cy="331.5" r="3.5" fill="white"/>
<circle cx="3452.5" cy="331.5" r="3" stroke="white" stroke-opacity="0.4"/>
</g>
<g filter="url(#filter32_f_18_824)">
<path d="M3565 1002.5C3565 1004.43 3563.21 1006 3561 1006C3558.79 1006 3557 1004.43 3557 1002.5C3557 1000.57 3558.79 999 3561 999C3563.21 999 3565 1000.57 3565 1002.5Z" fill="white"/>
<path d="M3564.5 1002.5C3564.5 1004.1 3563 1005.5 3561 1005.5C3559 1005.5 3557.5 1004.1 3557.5 1002.5C3557.5 1000.9 3559 999.5 3561 999.5C3563 999.5 3564.5 1000.9 3564.5 1002.5Z" stroke="white" stroke-opacity="0.4"/>
</g>
<g filter="url(#filter33_f_18_824)">
<circle cx="3456.5" cy="1606.5" r="3.5" fill="white"/>
<circle cx="3456.5" cy="1606.5" r="3" stroke="white" stroke-opacity="0.4"/>
</g>
<g filter="url(#filter34_f_18_824)">
<circle cx="2765.5" cy="1874.5" r="3.5" fill="white"/>
<circle cx="2765.5" cy="1874.5" r="3" stroke="white" stroke-opacity="0.4"/>
</g>
<g filter="url(#filter35_f_18_824)">
<circle cx="525.5" cy="499.5" r="3.5" fill="white"/>
<circle cx="525.5" cy="499.5" r="3" stroke="white" stroke-opacity="0.4"/>
</g>
<g filter="url(#filter36_f_18_824)">
<circle cx="1006.5" cy="774.5" r="3.5" fill="white"/>
<circle cx="1006.5" cy="774.5" r="3" stroke="white" stroke-opacity="0.4"/>
</g>
<g filter="url(#filter37_f_18_824)">
<circle cx="1103.5" cy="967.5" r="3.5" fill="white"/>
<circle cx="1103.5" cy="967.5" r="3" stroke="white" stroke-opacity="0.4"/>
</g>
<g filter="url(#filter38_f_18_824)">
<circle cx="556.5" cy="2539.5" r="3.5" fill="white"/>
<circle cx="556.5" cy="2539.5" r="3" stroke="white" stroke-opacity="0.4"/>
</g>
<g filter="url(#filter39_f_18_824)">
<circle cx="7.5" cy="1884.5" r="3.5" fill="white"/>
<circle cx="7.5" cy="1884.5" r="3" stroke="white" stroke-opacity="0.4"/>
</g>
<g filter="url(#filter40_f_18_824)">
<circle cx="1550" cy="995" r="5" fill="white"/>
<circle cx="1550" cy="995" r="4.5" stroke="white" stroke-opacity="0.4"/>
</g>
<g filter="url(#filter41_f_18_824)">
<circle cx="716.5" cy="1418.5" r="3.5" fill="white"/>
<circle cx="716.5" cy="1418.5" r="3" stroke="white" stroke-opacity="0.4"/>
</g>
<g filter="url(#filter42_f_18_824)">
<circle cx="451" cy="1913" r="6" fill="white"/>
<circle cx="451" cy="1913" r="5.5" stroke="white" stroke-opacity="0.4"/>
</g>
<g filter="url(#filter43_f_18_824)">
<ellipse cx="1281" cy="1328.5" rx="4" ry="3.5" fill="white"/>
<path d="M1284.5 1328.5C1284.5 1330.1 1283 1331.5 1281 1331.5C1279 1331.5 1277.5 1330.1 1277.5 1328.5C1277.5 1326.9 1279 1325.5 1281 1325.5C1283 1325.5 1284.5 1326.9 1284.5 1328.5Z" stroke="white" stroke-opacity="0.4"/>
</g>
<g filter="url(#filter44_f_18_824)">
<circle cx="2399" cy="2196" r="6" fill="white"/>
<circle cx="2399" cy="2196" r="5.5" stroke="white" stroke-opacity="0.4"/>
</g>
<g filter="url(#filter45_f_18_824)">
<circle cx="449" cy="1754" r="4" fill="white"/>
<circle cx="449" cy="1754" r="3.5" stroke="white" stroke-opacity="0.4"/>
</g>
<g filter="url(#filter46_f_18_824)">
<circle cx="151" cy="2650" r="4" fill="white"/>
<circle cx="151" cy="2650" r="3.5" stroke="white" stroke-opacity="0.4"/>
</g>
<g filter="url(#filter47_f_18_824)">
<ellipse cx="181" cy="2245.5" rx="4" ry="3.5" fill="white"/>
<path d="M184.5 2245.5C184.5 2247.1 182.998 2248.5 181 2248.5C179.002 2248.5 177.5 2247.1 177.5 2245.5C177.5 2243.9 179.002 2242.5 181 2242.5C182.998 2242.5 184.5 2243.9 184.5 2245.5Z" stroke="white" stroke-opacity="0.4"/>
</g>
<g filter="url(#filter48_f_18_824)">
<circle cx="1447.5" cy="1100.5" r="3.5" fill="white"/>
<circle cx="1447.5" cy="1100.5" r="3" stroke="white" stroke-opacity="0.4"/>
</g>
<g filter="url(#filter49_f_18_824)">
<circle cx="2563.5" cy="1965.5" r="3.5" fill="white"/>
<circle cx="2563.5" cy="1965.5" r="3" stroke="white" stroke-opacity="0.4"/>
</g>
<g filter="url(#filter50_f_18_824)">
<circle cx="617" cy="1527" r="5" fill="white"/>
<circle cx="617" cy="1527" r="4.5" stroke="white" stroke-opacity="0.4"/>
</g>
<g filter="url(#filter51_f_18_824)">
<circle cx="347.5" cy="2017.5" r="3.5" fill="white"/>
<circle cx="347.5" cy="2017.5" r="3" stroke="white" stroke-opacity="0.4"/>
</g>
<g filter="url(#filter52_f_18_824)">
<circle cx="499.5" cy="1102.5" r="3.5" fill="white"/>
<circle cx="499.5" cy="1102.5" r="3" stroke="white" stroke-opacity="0.4"/>
</g>
<g filter="url(#filter53_f_18_824)">
<circle cx="340.5" cy="324.5" r="3.5" fill="white"/>
<circle cx="340.5" cy="324.5" r="3" stroke="white" stroke-opacity="0.4"/>
</g>
<g filter="url(#filter54_f_18_824)">
<circle cx="3417.5" cy="2107.5" r="3.5" fill="white"/>
<circle cx="3417.5" cy="2107.5" r="3" stroke="white" stroke-opacity="0.4"/>
</g>
<g filter="url(#filter55_f_18_824)">
<ellipse cx="1312.06" cy="1850.5" rx="3.0625" ry="3.5" fill="white"/>
<path d="M1314.62 1850.5C1314.62 1852.22 1313.42 1853.5 1312.06 1853.5C1310.71 1853.5 1309.5 1852.22 1309.5 1850.5C1309.5 1848.78 1310.71 1847.5 1312.06 1847.5C1313.42 1847.5 1314.62 1848.78 1314.62 1850.5Z" stroke="white" stroke-opacity="0.4"/>
</g>
<g filter="url(#filter56_f_18_824)">
<ellipse cx="1790.06" cy="2489.5" rx="3.0625" ry="3.5" fill="white"/>
<path d="M1792.62 2489.5C1792.62 2491.22 1791.42 2492.5 1790.06 2492.5C1788.71 2492.5 1787.5 2491.22 1787.5 2489.5C1787.5 2487.78 1788.71 2486.5 1790.06 2486.5C1791.42 2486.5 1792.62 2487.78 1792.62 2489.5Z" stroke="white" stroke-opacity="0.4"/>
</g>
<g filter="url(#filter57_f_18_824)">
<ellipse cx="2428.06" cy="2715.5" rx="3.0625" ry="3.5" fill="white"/>
<path d="M2430.62 2715.5C2430.62 2717.22 2429.42 2718.5 2428.06 2718.5C2426.71 2718.5 2425.5 2717.22 2425.5 2715.5C2425.5 2713.78 2426.71 2712.5 2428.06 2712.5C2429.42 2712.5 2430.62 2713.78 2430.62 2715.5Z" stroke="white" stroke-opacity="0.4"/>
</g>
<g filter="url(#filter58_f_18_824)">
<circle cx="2196.5" cy="1740.5" r="3.5" fill="white"/>
<circle cx="2196.5" cy="1740.5" r="3" stroke="white" stroke-opacity="0.4"/>
</g>
<g filter="url(#filter59_f_18_824)">
<circle cx="1096.5" cy="2657.5" r="3.5" fill="white"/>
<circle cx="1096.5" cy="2657.5" r="3" stroke="white" stroke-opacity="0.4"/>
</g>
<g filter="url(#filter60_f_18_824)">
<circle cx="2131.5" cy="2059.5" r="3.5" fill="white"/>
<circle cx="2131.5" cy="2059.5" r="3" stroke="white" stroke-opacity="0.4"/>
</g>
<g filter="url(#filter61_f_18_824)">
<circle cx="1805.5" cy="1494.5" r="3.5" fill="white"/>
<circle cx="1805.5" cy="1494.5" r="3" stroke="white" stroke-opacity="0.4"/>
</g>
<g filter="url(#filter62_f_18_824)">
<circle cx="2921.5" cy="2359.5" r="3.5" fill="white"/>
<circle cx="2921.5" cy="2359.5" r="3" stroke="white" stroke-opacity="0.4"/>
</g>
<g filter="url(#filter63_f_18_824)">
<circle cx="707" cy="2413" r="5" fill="white"/>
<circle cx="707" cy="2413" r="4.5" stroke="white" stroke-opacity="0.4"/>
</g>
<g filter="url(#filter64_f_18_824)">
<circle cx="3098.5" cy="1469.5" r="3.5" fill="white"/>
<circle cx="3098.5" cy="1469.5" r="3" stroke="white" stroke-opacity="0.4"/>
</g>
<g filter="url(#filter65_f_18_824)">
<ellipse cx="1016.15" cy="633.5" rx="3.15" ry="3.5" fill="white"/>
<path d="M1018.8 633.5C1018.8 635.208 1017.57 636.5 1016.15 636.5C1014.73 636.5 1013.5 635.208 1013.5 633.5C1013.5 631.792 1014.73 630.5 1016.15 630.5C1017.57 630.5 1018.8 631.792 1018.8 633.5Z" stroke="white" stroke-opacity="0.4"/>
</g>
<g filter="url(#filter66_f_18_824)">
<circle cx="834.5" cy="1026.5" r="3.5" fill="white"/>
<circle cx="834.5" cy="1026.5" r="3" stroke="white" stroke-opacity="0.4"/>
</g>
<defs>
<filter id="filter0_f_18_824" x="1707" y="1794" width="9" height="9" filterUnits="userSpaceOnUse" color-interpolation-filters="sRGB">
<feFlood flood-opacity="0" result="BackgroundImageFix"/>
<feBlend mode="normal" in="SourceGraphic" in2="BackgroundImageFix" result="shape"/>
<feGaussianBlur stdDeviation="0.5" result="effect1_foregroundBlur_18_824"/>
</filter>
<filter id="filter1_f_18_824" x="2185" y="2433" width="12" height="12" filterUnits="userSpaceOnUse" color-interpolation-filters="sRGB">
<feFlood flood-opacity="0" result="BackgroundImageFix"/>
<feBlend mode="normal" in="SourceGraphic" in2="BackgroundImageFix" result="shape"/>
<feGaussianBlur stdDeviation="0.5" result="effect1_foregroundBlur_18_824"/>
</filter>
<filter id="filter2_f_18_824" x="2823" y="2659" width="9" height="9" filterUnits="userSpaceOnUse" color-interpolation-filters="sRGB">
<feFlood flood-opacity="0" result="BackgroundImageFix"/>
<feBlend mode="normal" in="SourceGraphic" in2="BackgroundImageFix" result="shape"/>
<feGaussianBlur stdDeviation="0.5" result="effect1_foregroundBlur_18_824"/>
</filter>
<filter id="filter3_f_18_824" x="607" y="2711" width="9" height="9" filterUnits="userSpaceOnUse" color-interpolation-filters="sRGB">
<feFlood flood-opacity="0" result="BackgroundImageFix"/>
<feBlend mode="normal" in="SourceGraphic" in2="BackgroundImageFix" result="shape"/>
<feGaussianBlur stdDeviation="0.5" result="effect1_foregroundBlur_18_824"/>
</filter>
<filter id="filter4_f_18_824" x="2116" y="1266" width="9.63647" height="9" filterUnits="userSpaceOnUse" color-interpolation-filters="sRGB">
<feFlood flood-opacity="0" result="BackgroundImageFix"/>
<feBlend mode="normal" in="SourceGraphic" in2="BackgroundImageFix" result="shape"/>
<feGaussianBlur stdDeviation="0.5" result="effect1_foregroundBlur_18_824"/>
</filter>
<filter id="filter5_f_18_824" x="2890" y="693" width="14" height="14" filterUnits="userSpaceOnUse" color-interpolation-filters="sRGB">
<feFlood flood-opacity="0" result="BackgroundImageFix"/>
<feBlend mode="normal" in="SourceGraphic" in2="BackgroundImageFix" result="shape"/>
<feGaussianBlur stdDeviation="0.5" result="effect1_foregroundBlur_18_824"/>
</filter>
<filter id="filter6_f_18_824" x="3312" y="2542" width="14" height="14" filterUnits="userSpaceOnUse" color-interpolation-filters="sRGB">
<feFlood flood-opacity="0" result="BackgroundImageFix"/>
<feBlend mode="normal" in="SourceGraphic" in2="BackgroundImageFix" result="shape"/>
<feGaussianBlur stdDeviation="0.5" result="effect1_foregroundBlur_18_824"/>
</filter>
<filter id="filter7_f_18_824" x="960.725" y="254.682" width="9.0332" height="9.60858" filterUnits="userSpaceOnUse" color-interpolation-filters="sRGB">
<feFlood flood-opacity="0" result="BackgroundImageFix"/>
<feBlend mode="normal" in="SourceGraphic" in2="BackgroundImageFix" result="shape"/>
<feGaussianBlur stdDeviation="0.5" result="effect1_foregroundBlur_18_824"/>
</filter>
<filter id="filter8_f_18_824" x="1016" y="2183" width="9.63623" height="9" filterUnits="userSpaceOnUse" color-interpolation-filters="sRGB">
<feFlood flood-opacity="0" result="BackgroundImageFix"/>
<feBlend mode="normal" in="SourceGraphic" in2="BackgroundImageFix" result="shape"/>
<feGaussianBlur stdDeviation="0.5" result="effect1_foregroundBlur_18_824"/>
</filter>
<filter id="filter9_f_18_824" x="308" y="1023" width="14" height="14" filterUnits="userSpaceOnUse" color-interpolation-filters="sRGB">
<feFlood flood-opacity="0" result="BackgroundImageFix"/>
<feBlend mode="normal" in="SourceGraphic" in2="BackgroundImageFix" result="shape"/>
<feGaussianBlur stdDeviation="0.5" result="effect1_foregroundBlur_18_824"/>
</filter>
<filter id="filter10_f_18_824" x="149" y="245" width="9" height="9" filterUnits="userSpaceOnUse" color-interpolation-filters="sRGB">
<feFlood flood-opacity="0" result="BackgroundImageFix"/>
<feBlend mode="normal" in="SourceGraphic" in2="BackgroundImageFix" result="shape"/>
<feGaussianBlur stdDeviation="0.5" result="effect1_foregroundBlur_18_824"/>
</filter>
<filter id="filter11_f_18_824" x="1254" y="877" width="9" height="9" filterUnits="userSpaceOnUse" color-interpolation-filters="sRGB">
<feFlood flood-opacity="0" result="BackgroundImageFix"/>
<feBlend mode="normal" in="SourceGraphic" in2="BackgroundImageFix" result="shape"/>
<feGaussianBlur stdDeviation="0.5" result="effect1_foregroundBlur_18_824"/>
</filter>
<filter id="filter12_f_18_824" x="154" y="1794" width="9" height="9" filterUnits="userSpaceOnUse" color-interpolation-filters="sRGB">
<feFlood flood-opacity="0" result="BackgroundImageFix"/>
<feBlend mode="normal" in="SourceGraphic" in2="BackgroundImageFix" result="shape"/>
<feGaussianBlur stdDeviation="0.5" result="effect1_foregroundBlur_18_824"/>
</filter>
<filter id="filter13_f_18_824" x="3243" y="1324" width="12" height="12" filterUnits="userSpaceOnUse" color-interpolation-filters="sRGB">
<feFlood flood-opacity="0" result="BackgroundImageFix"/>
<feBlend mode="normal" in="SourceGraphic" in2="BackgroundImageFix" result="shape"/>
<feGaussianBlur stdDeviation="0.5" result="effect1_foregroundBlur_18_824"/>
</filter>
<filter id="filter14_f_18_824" x="2923" y="1095" width="8.125" height="9" filterUnits="userSpaceOnUse" color-interpolation-filters="sRGB">
<feFlood flood-opacity="0" result="BackgroundImageFix"/>
<feBlend mode="normal" in="SourceGraphic" in2="BackgroundImageFix" result="shape"/>
<feGaussianBlur stdDeviation="0.5" result="effect1_foregroundBlur_18_824"/>
</filter>
<filter id="filter15_f_18_824" x="1345.95" y="135.93" width="8.96191" height="8.17126" filterUnits="userSpaceOnUse" color-interpolation-filters="sRGB">
<feFlood flood-opacity="0" result="BackgroundImageFix"/>
<feBlend mode="normal" in="SourceGraphic" in2="BackgroundImageFix" result="shape"/>
<feGaussianBlur stdDeviation="0.5" result="effect1_foregroundBlur_18_824"/>
</filter>
<filter id="filter16_f_18_824" x="426" y="867" width="9" height="9" filterUnits="userSpaceOnUse" color-interpolation-filters="sRGB">
<feFlood flood-opacity="0" result="BackgroundImageFix"/>
<feBlend mode="normal" in="SourceGraphic" in2="BackgroundImageFix" result="shape"/>
<feGaussianBlur stdDeviation="0.5" result="effect1_foregroundBlur_18_824"/>
</filter>
<filter id="filter17_f_18_824" x="267" y="89" width="9" height="9" filterUnits="userSpaceOnUse" color-interpolation-filters="sRGB">
<feFlood flood-opacity="0" result="BackgroundImageFix"/>
<feBlend mode="normal" in="SourceGraphic" in2="BackgroundImageFix" result="shape"/>
<feGaussianBlur stdDeviation="0.5" result="effect1_foregroundBlur_18_824"/>
</filter>
<filter id="filter18_f_18_824" x="2605" y="1407" width="10" height="9" filterUnits="userSpaceOnUse" color-interpolation-filters="sRGB">
<feFlood flood-opacity="0" result="BackgroundImageFix"/>
<feBlend mode="normal" in="SourceGraphic" in2="BackgroundImageFix" result="shape"/>
<feGaussianBlur stdDeviation="0.5" result="effect1_foregroundBlur_18_824"/>
</filter>
<filter id="filter19_f_18_824" x="1683" y="320" width="12" height="12" filterUnits="userSpaceOnUse" color-interpolation-filters="sRGB">
<feFlood flood-opacity="0" result="BackgroundImageFix"/>
<feBlend mode="normal" in="SourceGraphic" in2="BackgroundImageFix" result="shape"/>
<feGaussianBlur stdDeviation="0.5" result="effect1_foregroundBlur_18_824"/>
</filter>
<filter id="filter20_f_18_824" x="2254" y="959" width="10" height="9" filterUnits="userSpaceOnUse" color-interpolation-filters="sRGB">
<feFlood flood-opacity="0" result="BackgroundImageFix"/>
<feBlend mode="normal" in="SourceGraphic" in2="BackgroundImageFix" result="shape"/>
<feGaussianBlur stdDeviation="0.5" result="effect1_foregroundBlur_18_824"/>
</filter>
<filter id="filter21_f_18_824" x="3028" y="386" width="12" height="12" filterUnits="userSpaceOnUse" color-interpolation-filters="sRGB">
<feFlood flood-opacity="0" result="BackgroundImageFix"/>
<feBlend mode="normal" in="SourceGraphic" in2="BackgroundImageFix" result="shape"/>
<feGaussianBlur stdDeviation="0.5" result="effect1_foregroundBlur_18_824"/>
</filter>
<filter id="filter22_f_18_824" x="1154" y="1876" width="12" height="12" filterUnits="userSpaceOnUse" color-interpolation-filters="sRGB">
<feFlood flood-opacity="0" result="BackgroundImageFix"/>
<feBlend mode="normal" in="SourceGraphic" in2="BackgroundImageFix" result="shape"/>
<feGaussianBlur stdDeviation="0.5" result="effect1_foregroundBlur_18_824"/>
</filter>
<filter id="filter23_f_18_824" x="1632" y="2515" width="10" height="9" filterUnits="userSpaceOnUse" color-interpolation-filters="sRGB">
<feFlood flood-opacity="0" result="BackgroundImageFix"/>
<feBlend mode="normal" in="SourceGraphic" in2="BackgroundImageFix" result="shape"/>
<feGaussianBlur stdDeviation="0.5" result="effect1_foregroundBlur_18_824"/>
</filter>
<filter id="filter24_f_18_824" x="2027" y="502" width="12" height="9" filterUnits="userSpaceOnUse" color-interpolation-filters="sRGB">
<feFlood flood-opacity="0" result="BackgroundImageFix"/>
<feBlend mode="normal" in="SourceGraphic" in2="BackgroundImageFix" result="shape"/>
<feGaussianBlur stdDeviation="0.5" result="effect1_foregroundBlur_18_824"/>
</filter>
<filter id="filter25_f_18_824" x="1774" y="588" width="9" height="9" filterUnits="userSpaceOnUse" color-interpolation-filters="sRGB">
<feFlood flood-opacity="0" result="BackgroundImageFix"/>
<feBlend mode="normal" in="SourceGraphic" in2="BackgroundImageFix" result="shape"/>
<feGaussianBlur stdDeviation="0.5" result="effect1_foregroundBlur_18_824"/>
</filter>
<filter id="filter26_f_18_824" x="2031" y="48" width="9" height="9" filterUnits="userSpaceOnUse" color-interpolation-filters="sRGB">
<feFlood flood-opacity="0" result="BackgroundImageFix"/>
<feBlend mode="normal" in="SourceGraphic" in2="BackgroundImageFix" result="shape"/>
<feGaussianBlur stdDeviation="0.5" result="effect1_foregroundBlur_18_824"/>
</filter>
<filter id="filter27_f_18_824" x="2295" y="441" width="9" height="9" filterUnits="userSpaceOnUse" color-interpolation-filters="sRGB">
<feFlood flood-opacity="0" result="BackgroundImageFix"/>
<feBlend mode="normal" in="SourceGraphic" in2="BackgroundImageFix" result="shape"/>
<feGaussianBlur stdDeviation="0.5" result="effect1_foregroundBlur_18_824"/>
</filter>
<filter id="filter28_f_18_824" x="2752" y="269" width="9" height="9" filterUnits="userSpaceOnUse" color-interpolation-filters="sRGB">
<feFlood flood-opacity="0" result="BackgroundImageFix"/>
<feBlend mode="normal" in="SourceGraphic" in2="BackgroundImageFix" result="shape"/>
<feGaussianBlur stdDeviation="0.5" result="effect1_foregroundBlur_18_824"/>
</filter>
<filter id="filter29_f_18_824" x="2674" y="900" width="9" height="9" filterUnits="userSpaceOnUse" color-interpolation-filters="sRGB">
<feFlood flood-opacity="0" result="BackgroundImageFix"/>
<feBlend mode="normal" in="SourceGraphic" in2="BackgroundImageFix" result="shape"/>
<feGaussianBlur stdDeviation="0.5" result="effect1_foregroundBlur_18_824"/>
</filter>
<filter id="filter30_f_18_824" x="1210.08" y="420.739" width="9.00146" height="9.00146" filterUnits="userSpaceOnUse" color-interpolation-filters="sRGB">
<feFlood flood-opacity="0" result="BackgroundImageFix"/>
<feBlend mode="normal" in="SourceGraphic" in2="BackgroundImageFix" result="shape"/>
<feGaussianBlur stdDeviation="0.5" result="effect1_foregroundBlur_18_824"/>
</filter>
<filter id="filter31_f_18_824" x="3448" y="327" width="9" height="9" filterUnits="userSpaceOnUse" color-interpolation-filters="sRGB">
<feFlood flood-opacity="0" result="BackgroundImageFix"/>
<feBlend mode="normal" in="SourceGraphic" in2="BackgroundImageFix" result="shape"/>
<feGaussianBlur stdDeviation="0.5" result="effect1_foregroundBlur_18_824"/>
</filter>
<filter id="filter32_f_18_824" x="3556" y="998" width="10" height="9" filterUnits="userSpaceOnUse" color-interpolation-filters="sRGB">
<feFlood flood-opacity="0" result="BackgroundImageFix"/>
<feBlend mode="normal" in="SourceGraphic" in2="BackgroundImageFix" result="shape"/>
<feGaussianBlur stdDeviation="0.5" result="effect1_foregroundBlur_18_824"/>
</filter>
<filter id="filter33_f_18_824" x="3452" y="1602" width="9" height="9" filterUnits="userSpaceOnUse" color-interpolation-filters="sRGB">
<feFlood flood-opacity="0" result="BackgroundImageFix"/>
<feBlend mode="normal" in="SourceGraphic" in2="BackgroundImageFix" result="shape"/>
<feGaussianBlur stdDeviation="0.5" result="effect1_foregroundBlur_18_824"/>
</filter>
<filter id="filter34_f_18_824" x="2761" y="1870" width="9" height="9" filterUnits="userSpaceOnUse" color-interpolation-filters="sRGB">
<feFlood flood-opacity="0" result="BackgroundImageFix"/>
<feBlend mode="normal" in="SourceGraphic" in2="BackgroundImageFix" result="shape"/>
<feGaussianBlur stdDeviation="0.5" result="effect1_foregroundBlur_18_824"/>
</filter>
<filter id="filter35_f_18_824" x="521" y="495" width="9" height="9" filterUnits="userSpaceOnUse" color-interpolation-filters="sRGB">
<feFlood flood-opacity="0" result="BackgroundImageFix"/>
<feBlend mode="normal" in="SourceGraphic" in2="BackgroundImageFix" result="shape"/>
<feGaussianBlur stdDeviation="0.5" result="effect1_foregroundBlur_18_824"/>
</filter>
<filter id="filter36_f_18_824" x="1002" y="770" width="9" height="9" filterUnits="userSpaceOnUse" color-interpolation-filters="sRGB">
<feFlood flood-opacity="0" result="BackgroundImageFix"/>
<feBlend mode="normal" in="SourceGraphic" in2="BackgroundImageFix" result="shape"/>
<feGaussianBlur stdDeviation="0.5" result="effect1_foregroundBlur_18_824"/>
</filter>
<filter id="filter37_f_18_824" x="1099" y="963" width="9" height="9" filterUnits="userSpaceOnUse" color-interpolation-filters="sRGB">
<feFlood flood-opacity="0" result="BackgroundImageFix"/>
<feBlend mode="normal" in="SourceGraphic" in2="BackgroundImageFix" result="shape"/>
<feGaussianBlur stdDeviation="0.5" result="effect1_foregroundBlur_18_824"/>
</filter>
<filter id="filter38_f_18_824" x="552" y="2535" width="9" height="9" filterUnits="userSpaceOnUse" color-interpolation-filters="sRGB">
<feFlood flood-opacity="0" result="BackgroundImageFix"/>
<feBlend mode="normal" in="SourceGraphic" in2="BackgroundImageFix" result="shape"/>
<feGaussianBlur stdDeviation="0.5" result="effect1_foregroundBlur_18_824"/>
</filter>
<filter id="filter39_f_18_824" x="3" y="1880" width="9" height="9" filterUnits="userSpaceOnUse" color-interpolation-filters="sRGB">
<feFlood flood-opacity="0" result="BackgroundImageFix"/>
<feBlend mode="normal" in="SourceGraphic" in2="BackgroundImageFix" result="shape"/>
<feGaussianBlur stdDeviation="0.5" result="effect1_foregroundBlur_18_824"/>
</filter>
<filter id="filter40_f_18_824" x="1544" y="989" width="12" height="12" filterUnits="userSpaceOnUse" color-interpolation-filters="sRGB">
<feFlood flood-opacity="0" result="BackgroundImageFix"/>
<feBlend mode="normal" in="SourceGraphic" in2="BackgroundImageFix" result="shape"/>
<feGaussianBlur stdDeviation="0.5" result="effect1_foregroundBlur_18_824"/>
</filter>
<filter id="filter41_f_18_824" x="712" y="1414" width="9" height="9" filterUnits="userSpaceOnUse" color-interpolation-filters="sRGB">
<feFlood flood-opacity="0" result="BackgroundImageFix"/>
<feBlend mode="normal" in="SourceGraphic" in2="BackgroundImageFix" result="shape"/>
<feGaussianBlur stdDeviation="0.5" result="effect1_foregroundBlur_18_824"/>
</filter>
<filter id="filter42_f_18_824" x="444" y="1906" width="14" height="14" filterUnits="userSpaceOnUse" color-interpolation-filters="sRGB">
<feFlood flood-opacity="0" result="BackgroundImageFix"/>
<feBlend mode="normal" in="SourceGraphic" in2="BackgroundImageFix" result="shape"/>
<feGaussianBlur stdDeviation="0.5" result="effect1_foregroundBlur_18_824"/>
</filter>
<filter id="filter43_f_18_824" x="1276" y="1324" width="10" height="9" filterUnits="userSpaceOnUse" color-interpolation-filters="sRGB">
<feFlood flood-opacity="0" result="BackgroundImageFix"/>
<feBlend mode="normal" in="SourceGraphic" in2="BackgroundImageFix" result="shape"/>
<feGaussianBlur stdDeviation="0.5" result="effect1_foregroundBlur_18_824"/>
</filter>
<filter id="filter44_f_18_824" x="2392" y="2189" width="14" height="14" filterUnits="userSpaceOnUse" color-interpolation-filters="sRGB">
<feFlood flood-opacity="0" result="BackgroundImageFix"/>
<feBlend mode="normal" in="SourceGraphic" in2="BackgroundImageFix" result="shape"/>
<feGaussianBlur stdDeviation="0.5" result="effect1_foregroundBlur_18_824"/>
</filter>
<filter id="filter45_f_18_824" x="444" y="1749" width="10" height="10" filterUnits="userSpaceOnUse" color-interpolation-filters="sRGB">
<feFlood flood-opacity="0" result="BackgroundImageFix"/>
<feBlend mode="normal" in="SourceGraphic" in2="BackgroundImageFix" result="shape"/>
<feGaussianBlur stdDeviation="0.5" result="effect1_foregroundBlur_18_824"/>
</filter>
<filter id="filter46_f_18_824" x="146" y="2645" width="10" height="10" filterUnits="userSpaceOnUse" color-interpolation-filters="sRGB">
<feFlood flood-opacity="0" result="BackgroundImageFix"/>
<feBlend mode="normal" in="SourceGraphic" in2="BackgroundImageFix" result="shape"/>
<feGaussianBlur stdDeviation="0.5" result="effect1_foregroundBlur_18_824"/>
</filter>
<filter id="filter47_f_18_824" x="176" y="2241" width="10" height="9" filterUnits="userSpaceOnUse" color-interpolation-filters="sRGB">
<feFlood flood-opacity="0" result="BackgroundImageFix"/>
<feBlend mode="normal" in="SourceGraphic" in2="BackgroundImageFix" result="shape"/>
<feGaussianBlur stdDeviation="0.5" result="effect1_foregroundBlur_18_824"/>
</filter>
<filter id="filter48_f_18_824" x="1443" y="1096" width="9" height="9" filterUnits="userSpaceOnUse" color-interpolation-filters="sRGB">
<feFlood flood-opacity="0" result="BackgroundImageFix"/>
<feBlend mode="normal" in="SourceGraphic" in2="BackgroundImageFix" result="shape"/>
<feGaussianBlur stdDeviation="0.5" result="effect1_foregroundBlur_18_824"/>
</filter>
<filter id="filter49_f_18_824" x="2559" y="1961" width="9" height="9" filterUnits="userSpaceOnUse" color-interpolation-filters="sRGB">
<feFlood flood-opacity="0" result="BackgroundImageFix"/>
<feBlend mode="normal" in="SourceGraphic" in2="BackgroundImageFix" result="shape"/>
<feGaussianBlur stdDeviation="0.5" result="effect1_foregroundBlur_18_824"/>
</filter>
<filter id="filter50_f_18_824" x="611" y="1521" width="12" height="12" filterUnits="userSpaceOnUse" color-interpolation-filters="sRGB">
<feFlood flood-opacity="0" result="BackgroundImageFix"/>
<feBlend mode="normal" in="SourceGraphic" in2="BackgroundImageFix" result="shape"/>
<feGaussianBlur stdDeviation="0.5" result="effect1_foregroundBlur_18_824"/>
</filter>
<filter id="filter51_f_18_824" x="343" y="2013" width="9" height="9" filterUnits="userSpaceOnUse" color-interpolation-filters="sRGB">
<feFlood flood-opacity="0" result="BackgroundImageFix"/>
<feBlend mode="normal" in="SourceGraphic" in2="BackgroundImageFix" result="shape"/>
<feGaussianBlur stdDeviation="0.5" result="effect1_foregroundBlur_18_824"/>
</filter>
<filter id="filter52_f_18_824" x="495" y="1098" width="9" height="9" filterUnits="userSpaceOnUse" color-interpolation-filters="sRGB">
<feFlood flood-opacity="0" result="BackgroundImageFix"/>
<feBlend mode="normal" in="SourceGraphic" in2="BackgroundImageFix" result="shape"/>
<feGaussianBlur stdDeviation="0.5" result="effect1_foregroundBlur_18_824"/>
</filter>
<filter id="filter53_f_18_824" x="336" y="320" width="9" height="9" filterUnits="userSpaceOnUse" color-interpolation-filters="sRGB">
<feFlood flood-opacity="0" result="BackgroundImageFix"/>
<feBlend mode="normal" in="SourceGraphic" in2="BackgroundImageFix" result="shape"/>
<feGaussianBlur stdDeviation="0.5" result="effect1_foregroundBlur_18_824"/>
</filter>
<filter id="filter54_f_18_824" x="3413" y="2103" width="9" height="9" filterUnits="userSpaceOnUse" color-interpolation-filters="sRGB">
<feFlood flood-opacity="0" result="BackgroundImageFix"/>
<feBlend mode="normal" in="SourceGraphic" in2="BackgroundImageFix" result="shape"/>
<feGaussianBlur stdDeviation="0.5" result="effect1_foregroundBlur_18_824"/>
</filter>
<filter id="filter55_f_18_824" x="1308" y="1846" width="8.125" height="9" filterUnits="userSpaceOnUse" color-interpolation-filters="sRGB">
<feFlood flood-opacity="0" result="BackgroundImageFix"/>
<feBlend mode="normal" in="SourceGraphic" in2="BackgroundImageFix" result="shape"/>
<feGaussianBlur stdDeviation="0.5" result="effect1_foregroundBlur_18_824"/>
</filter>
<filter id="filter56_f_18_824" x="1786" y="2485" width="8.125" height="9" filterUnits="userSpaceOnUse" color-interpolation-filters="sRGB">
<feFlood flood-opacity="0" result="BackgroundImageFix"/>
<feBlend mode="normal" in="SourceGraphic" in2="BackgroundImageFix" result="shape"/>
<feGaussianBlur stdDeviation="0.5" result="effect1_foregroundBlur_18_824"/>
</filter>
<filter id="filter57_f_18_824" x="2424" y="2711" width="8.125" height="9" filterUnits="userSpaceOnUse" color-interpolation-filters="sRGB">
<feFlood flood-opacity="0" result="BackgroundImageFix"/>
<feBlend mode="normal" in="SourceGraphic" in2="BackgroundImageFix" result="shape"/>
<feGaussianBlur stdDeviation="0.5" result="effect1_foregroundBlur_18_824"/>
</filter>
<filter id="filter58_f_18_824" x="2192" y="1736" width="9" height="9" filterUnits="userSpaceOnUse" color-interpolation-filters="sRGB">
<feFlood flood-opacity="0" result="BackgroundImageFix"/>
<feBlend mode="normal" in="SourceGraphic" in2="BackgroundImageFix" result="shape"/>
<feGaussianBlur stdDeviation="0.5" result="effect1_foregroundBlur_18_824"/>
</filter>
<filter id="filter59_f_18_824" x="1092" y="2653" width="9" height="9" filterUnits="userSpaceOnUse" color-interpolation-filters="sRGB">
<feFlood flood-opacity="0" result="BackgroundImageFix"/>
<feBlend mode="normal" in="SourceGraphic" in2="BackgroundImageFix" result="shape"/>
<feGaussianBlur stdDeviation="0.5" result="effect1_foregroundBlur_18_824"/>
</filter>
<filter id="filter60_f_18_824" x="2127" y="2055" width="9" height="9" filterUnits="userSpaceOnUse" color-interpolation-filters="sRGB">
<feFlood flood-opacity="0" result="BackgroundImageFix"/>
<feBlend mode="normal" in="SourceGraphic" in2="BackgroundImageFix" result="shape"/>
<feGaussianBlur stdDeviation="0.5" result="effect1_foregroundBlur_18_824"/>
</filter>
<filter id="filter61_f_18_824" x="1801" y="1490" width="9" height="9" filterUnits="userSpaceOnUse" color-interpolation-filters="sRGB">
<feFlood flood-opacity="0" result="BackgroundImageFix"/>
<feBlend mode="normal" in="SourceGraphic" in2="BackgroundImageFix" result="shape"/>
<feGaussianBlur stdDeviation="0.5" result="effect1_foregroundBlur_18_824"/>
</filter>
<filter id="filter62_f_18_824" x="2917" y="2355" width="9" height="9" filterUnits="userSpaceOnUse" color-interpolation-filters="sRGB">
<feFlood flood-opacity="0" result="BackgroundImageFix"/>
<feBlend mode="normal" in="SourceGraphic" in2="BackgroundImageFix" result="shape"/>
<feGaussianBlur stdDeviation="0.5" result="effect1_foregroundBlur_18_824"/>
</filter>
<filter id="filter63_f_18_824" x="701" y="2407" width="12" height="12" filterUnits="userSpaceOnUse" color-interpolation-filters="sRGB">
<feFlood flood-opacity="0" result="BackgroundImageFix"/>
<feBlend mode="normal" in="SourceGraphic" in2="BackgroundImageFix" result="shape"/>
<feGaussianBlur stdDeviation="0.5" result="effect1_foregroundBlur_18_824"/>
</filter>
<filter id="filter64_f_18_824" x="3094" y="1465" width="9" height="9" filterUnits="userSpaceOnUse" color-interpolation-filters="sRGB">
<feFlood flood-opacity="0" result="BackgroundImageFix"/>
<feBlend mode="normal" in="SourceGraphic" in2="BackgroundImageFix" result="shape"/>
<feGaussianBlur stdDeviation="0.5" result="effect1_foregroundBlur_18_824"/>
</filter>
<filter id="filter65_f_18_824" x="1012" y="629" width="8.2998" height="9" filterUnits="userSpaceOnUse" color-interpolation-filters="sRGB">
<feFlood flood-opacity="0" result="BackgroundImageFix"/>
<feBlend mode="normal" in="SourceGraphic" in2="BackgroundImageFix" result="shape"/>
<feGaussianBlur stdDeviation="0.5" result="effect1_foregroundBlur_18_824"/>
</filter>
<filter id="filter66_f_18_824" x="830" y="1022" width="9" height="9" filterUnits="userSpaceOnUse" color-interpolation-filters="sRGB">
<feFlood flood-opacity="0" result="BackgroundImageFix"/>
<feBlend mode="normal" in="SourceGraphic" in2="BackgroundImageFix" result="shape"/>
<feGaussianBlur stdDeviation="0.5" result="effect1_foregroundBlur_18_824"/>
</filter>
<linearGradient id="paint0_linear_18_824" x1="1785.5" y1="0" x2="1785.5" y2="2766" gradientUnits="userSpaceOnUse">
<stop stop-color="#00306F"/>
<stop offset="1" stop-color="#365F93"/>
</linearGradient>
</defs>
</svg>
