<svg width="263" height="262" viewBox="0 0 263 262" fill="none" xmlns="http://www.w3.org/2000/svg">
<path d="M131.5 0L143.459 17.6543L158.84 2.86267L166.853 22.6081L184.986 11.3255L188.702 32.2991L208.794 25.0188L208.052 46.3038L229.224 43.3439L224.056 64.0101L245.382 65.5L236.014 84.6442L256.564 90.5188L243.405 107.304L262.28 117.307L245.905 131L262.28 144.693L243.405 154.696L256.564 171.481L236.014 177.356L245.382 196.5L224.056 197.99L229.224 218.656L208.052 215.696L208.794 236.981L188.702 229.701L184.986 250.674L166.853 239.392L158.84 259.137L143.459 244.346L131.5 262L119.541 244.346L104.16 259.137L96.1469 239.392L78.0141 250.674L74.2975 229.701L54.2062 236.981L54.9481 215.696L33.7765 218.656L38.9444 197.99L17.6177 196.5L26.9858 177.356L6.43607 171.481L19.595 154.696L0.720367 144.693L17.095 131L0.720367 117.307L19.595 107.304L6.43607 90.5188L26.9858 84.6442L17.6177 65.5L38.9444 64.0101L33.7765 43.3439L54.9481 46.3038L54.2062 25.0188L74.2975 32.2991L78.0141 11.3255L96.1469 22.6081L104.16 2.86267L119.541 17.6543L131.5 0Z" fill="#F7D188"/>
<path d="M84.1378 58.9917L78.8967 76.4207L74.888 75.2153L79.1408 61.0729L71.2728 58.7069L67.0201 72.8493L63.0114 71.6439L68.2524 54.2148L84.1378 58.9917ZM89.133 79.7161C87.722 79.2918 86.5396 78.6194 85.5855 77.6991C84.6531 76.7671 84.0287 75.6834 83.7124 74.4479C83.3961 73.2125 83.4376 71.9308 83.8369 70.6029C84.2363 69.275 84.9085 68.183 85.8538 67.3269C86.799 66.4709 87.915 65.9196 89.2019 65.673C90.5103 65.4149 91.87 65.4979 93.2809 65.9222C94.6918 66.3465 95.8635 67.0246 96.7959 67.9566C97.7334 68.872 98.3602 69.9474 98.6765 71.1829C98.9928 72.4183 98.9513 73.6999 98.552 75.0279C98.1527 76.3558 97.4804 77.4478 96.5352 78.3039C95.59 79.1599 94.4714 79.7195 93.1796 79.9827C91.8928 80.2292 90.5439 80.1403 89.133 79.7161ZM90.0913 76.529C91.0873 76.8285 92.0005 76.7411 92.8309 76.2668C93.6829 75.7809 94.2786 74.9736 94.618 73.8449C94.9575 72.7162 94.9033 71.7225 94.4556 70.8638C94.0295 69.9936 93.3185 69.4087 92.3225 69.1092C91.3266 68.8098 90.4026 68.903 89.5506 69.3889C88.7036 69.8581 88.1103 70.6572 87.7709 71.7859C87.4315 72.9146 87.4831 73.9166 87.9259 74.7919C88.3736 75.6505 89.0954 76.2295 90.0913 76.529ZM105.524 84.6449C104.096 84.2156 102.897 83.5383 101.926 82.6129C100.977 81.6759 100.336 80.5872 100.003 79.3468C99.6872 78.1114 99.7287 76.8297 100.128 75.5018C100.527 74.1739 101.2 73.0819 102.145 72.2258C103.107 71.3747 104.239 70.8284 105.543 70.5869C106.868 70.3337 108.244 70.4218 109.672 70.851C111.082 71.2753 112.221 71.9435 113.087 72.8555C113.975 73.7559 114.494 74.8263 114.646 76.0666L111.147 76.779C110.819 75.3411 110 74.4249 108.688 74.0306C107.676 73.7261 106.738 73.806 105.874 74.2703C105.01 74.7346 104.406 75.5394 104.062 76.6848C103.718 77.8301 103.778 78.8346 104.242 79.6982C104.706 80.5618 105.445 81.1459 106.457 81.4504C107.785 81.8497 108.974 81.5375 110.024 80.5138L112.542 83.0631C111.742 83.9807 110.72 84.5785 109.478 84.8566C108.253 85.1397 106.935 85.0692 105.524 84.6449ZM127.016 90.8907L129.427 82.8733L123.397 88.3905L121.754 87.8964L119.874 79.9733L117.455 88.0156L113.944 86.9599L117.973 73.5644L122.031 74.7848L123.985 83.8161L130.87 77.4428L134.505 78.536L130.527 91.9464L127.016 90.8907ZM140.462 95.1512C139.051 94.7269 137.869 94.0546 136.915 93.1342C135.982 92.2022 135.358 91.1185 135.041 89.8831C134.725 88.6476 134.767 87.366 135.166 86.038C135.565 84.7101 136.238 83.6181 137.183 82.762C138.128 81.906 139.244 81.3547 140.531 81.1081C141.839 80.85 143.199 80.9331 144.61 81.3573C146.021 81.7816 147.193 82.4598 148.125 83.3918C149.062 84.3071 149.689 85.3826 150.006 86.618C150.322 87.8534 150.28 89.1351 149.881 90.463C149.482 91.7909 148.81 92.8829 147.864 93.739C146.919 94.595 145.801 95.1546 144.509 95.4178C143.222 95.6643 141.873 95.5755 140.462 95.1512ZM141.42 91.9642C142.416 92.2636 143.33 92.1762 144.16 91.702C145.012 91.2161 145.608 90.4087 145.947 89.28C146.287 88.1513 146.232 87.1576 145.785 86.299C145.359 85.4287 144.648 84.8439 143.652 84.5444C142.656 84.2449 141.732 84.3381 140.88 84.824C140.033 85.2933 139.439 86.0923 139.1 87.221C138.761 88.3498 138.812 89.3517 139.255 90.227C139.703 91.0856 140.424 91.6647 141.42 91.9642ZM164.376 90.9936L159.845 89.631L156.775 99.8394L152.916 98.6789L155.985 88.4704L151.454 87.1078L152.412 83.9207L165.335 87.8066L164.376 90.9936ZM175.358 90.6035C176.603 90.9779 177.644 91.6078 178.482 92.4932C179.341 93.3671 179.904 94.4142 180.171 95.6346C180.442 96.8385 180.371 98.1293 179.957 99.507C179.542 100.885 178.888 102.009 177.992 102.88C177.102 103.735 176.055 104.298 174.851 104.569C173.668 104.829 172.455 104.772 171.21 104.397C169.5 103.883 168.318 102.939 167.663 101.566L165.784 107.816L161.9 106.648L167.38 88.4217L171.09 89.5373L170.626 91.0811C171.938 90.2086 173.515 90.0494 175.358 90.6035ZM171.496 101.008C172.492 101.308 173.405 101.22 174.236 100.746C175.088 100.26 175.683 99.4527 176.023 98.324C176.362 97.1953 176.308 96.2016 175.86 95.343C175.434 94.4727 174.723 93.8879 173.727 93.5884C172.731 93.2889 171.807 93.3821 170.955 93.868C170.125 94.3423 169.54 95.1438 169.2 96.2725C168.861 97.4012 168.904 98.4007 169.331 99.271C169.778 100.13 170.5 100.709 171.496 101.008ZM184.693 93.6279L188.552 94.7884L186.156 102.756L195.076 96.7501L198.636 97.8207L194.608 111.216L190.749 110.056L193.145 102.088L184.25 108.102L180.665 107.023L184.693 93.6279ZM212.666 105.515L208.134 104.152L205.065 114.361L201.205 113.2L204.275 102.992L199.744 101.629L200.702 98.4419L213.624 102.328L212.666 105.515ZM226.128 113.446C226.113 113.495 225.984 113.836 225.739 114.469L215.606 111.422C215.539 112.306 215.773 113.092 216.309 113.778C216.845 114.464 217.619 114.959 218.631 115.264C219.328 115.473 219.973 115.558 220.564 115.519C221.176 115.468 221.782 115.288 222.382 114.98L223.775 117.842C222.079 118.907 220.019 119.075 217.596 118.346C216.085 117.892 214.836 117.199 213.849 116.269C212.867 115.322 212.218 114.231 211.901 112.996C211.585 111.76 211.627 110.478 212.026 109.151C212.42 107.839 213.082 106.753 214.01 105.892C214.961 105.019 216.063 104.455 217.316 104.198C218.591 103.93 219.901 103.998 221.246 104.402C222.557 104.797 223.659 105.436 224.552 106.32C225.444 107.203 226.03 108.266 226.308 109.508C226.608 110.739 226.548 112.051 226.128 113.446ZM220.387 107.348C219.507 107.083 218.694 107.11 217.947 107.429C217.199 107.747 216.629 108.318 216.237 109.141L222.835 111.125C222.957 110.238 222.794 109.456 222.346 108.779C221.903 108.084 221.25 107.608 220.387 107.348ZM77.2141 105.855L75.3872 111.93L71.7769 110.845L72.6454 107.956L63.2338 105.126L62.3652 108.014L58.7549 106.929L60.5818 100.854L61.1296 101.018C61.9645 101.251 62.6845 100.934 63.2894 100.066C63.8942 99.198 64.5052 97.8885 65.1223 96.1373L66.6892 91.5586L78.3667 95.0701L75.2969 105.279L77.2141 105.855ZM68.5507 97.4669C68.0916 98.813 67.6492 99.8927 67.2237 100.706C66.8147 101.524 66.3271 102.093 65.7607 102.411L71.4127 104.111L73.5241 97.0891L69.142 95.7714L68.5507 97.4669ZM84.9146 111.863C83.5037 111.439 82.3212 110.766 81.3672 109.846C80.4348 108.914 79.8104 107.83 79.4941 106.595C79.1778 105.36 79.2193 104.078 79.6186 102.75C80.0179 101.422 80.6902 100.33 81.6354 99.4739C82.5807 98.6179 83.6967 98.0666 84.9835 97.82C86.292 97.5619 87.6516 97.645 89.0626 98.0692C90.4735 98.4935 91.6452 99.1717 92.5776 100.104C93.5151 101.019 94.1419 102.094 94.4582 103.33C94.7745 104.565 94.733 105.847 94.3337 107.175C93.9344 108.503 93.2621 109.595 92.3169 110.451C91.3716 111.307 90.2531 111.867 88.9613 112.13C87.6744 112.376 86.3256 112.287 84.9146 111.863ZM85.873 108.676C86.869 108.976 87.7821 108.888 88.6126 108.414C89.4646 107.928 90.0603 107.121 90.3997 105.992C90.7391 104.863 90.685 103.869 90.2373 103.011C89.8112 102.141 89.1001 101.556 88.1042 101.256C87.1083 100.957 86.1843 101.05 85.3323 101.536C84.4852 102.005 83.892 102.804 83.5526 103.933C83.2132 105.062 83.2648 106.064 83.7075 106.939C84.1552 107.798 84.8771 108.377 85.873 108.676ZM101.305 116.792C99.8778 116.363 98.6787 115.685 97.7081 114.76C96.759 113.823 96.1181 112.734 95.7852 111.494C95.4689 110.258 95.5104 108.977 95.9097 107.649C96.309 106.321 96.9813 105.229 97.9265 104.373C98.8884 103.522 100.021 102.975 101.324 102.734C102.649 102.481 104.026 102.569 105.453 102.998C106.864 103.422 108.003 104.09 108.869 105.003C109.756 105.903 110.276 106.973 110.428 108.214L106.929 108.926C106.601 107.488 105.781 106.572 104.47 106.178C103.457 105.873 102.519 105.953 101.656 106.417C100.792 106.882 100.188 107.686 99.8437 108.832C99.4993 109.977 99.5592 110.982 100.024 111.845C100.488 112.709 101.226 113.293 102.239 113.597C103.567 113.997 104.756 113.685 105.806 112.661L108.324 115.21C107.523 116.128 106.502 116.726 105.26 117.004C104.034 117.287 102.716 117.216 101.305 116.792ZM124.001 112.268L119.47 110.905L116.4 121.114L112.541 119.953L115.611 109.745L111.079 108.382L112.037 105.195L124.96 109.081L124.001 112.268ZM140.572 113.776L130.247 126.174C129.168 127.533 128.078 128.39 126.975 128.746C125.889 129.108 124.707 129.096 123.429 128.712C122.732 128.502 122.075 128.187 121.46 127.767C120.844 127.346 120.378 126.88 120.061 126.369L122.311 124.032C122.53 124.387 122.808 124.697 123.145 124.961C123.498 125.23 123.866 125.422 124.248 125.537C124.779 125.697 125.25 125.694 125.662 125.528C126.069 125.379 126.495 125.045 126.94 124.528L127.028 124.418L125.284 109.179L129.293 110.384L130.32 120.603L136.837 112.653L140.572 113.776ZM155.767 118.345L151.739 131.74L147.854 130.572L150.924 120.364L145.347 118.687L142.277 128.895L138.418 127.735L142.446 114.339L155.767 118.345ZM159.491 119.465L163.35 120.625L161.778 125.854L167.604 127.606L169.176 122.377L173.061 123.545L169.032 136.941L165.148 135.773L166.653 130.768L160.827 129.016L159.322 134.021L155.463 132.86L159.491 119.465ZM182.537 131.065C184.275 131.606 185.478 132.393 186.144 133.426C186.811 134.459 186.93 135.689 186.501 137.117C186.051 138.611 185.198 139.612 183.941 140.121C182.684 140.63 181.126 140.605 179.267 140.046L172.751 138.059L176.779 124.664L180.638 125.824L179.35 130.107L182.537 131.065ZM190.573 128.811L194.432 129.972L190.404 143.367L186.545 142.207L190.573 128.811ZM179.749 137.177C180.491 137.418 181.111 137.433 181.609 137.221C182.108 137.008 182.457 136.57 182.656 135.906C182.851 135.259 182.794 134.726 182.485 134.307C182.194 133.894 181.668 133.564 180.91 133.318L178.602 132.596L177.434 136.481L179.749 137.177ZM209.169 141.761C209.154 141.811 209.024 142.152 208.78 142.785L198.646 139.737C198.579 140.622 198.814 141.407 199.349 142.094C199.885 142.78 200.659 143.275 201.672 143.579C202.369 143.789 203.013 143.874 203.604 143.835C204.217 143.783 204.823 143.604 205.423 143.295L206.815 146.158C205.12 147.222 203.06 147.39 200.636 146.662C199.126 146.207 197.877 145.515 196.89 144.585C195.908 143.638 195.258 142.547 194.942 141.311C194.626 140.076 194.667 138.794 195.067 137.466C195.461 136.155 196.122 135.069 197.051 134.208C198.001 133.335 199.103 132.77 200.357 132.514C201.632 132.246 202.942 132.314 204.286 132.718C205.598 133.112 206.7 133.751 207.592 134.635C208.485 135.519 209.07 136.582 209.348 137.824C209.648 139.055 209.588 140.367 209.169 141.761ZM203.428 135.664C202.548 135.399 201.735 135.426 200.987 135.744C200.24 136.062 199.67 136.633 199.278 137.456L205.876 139.441C205.998 138.554 205.835 137.772 205.387 137.094C204.944 136.4 204.291 135.923 203.428 135.664ZM70.6809 140.998C69.2533 140.569 68.0543 139.892 67.0836 138.966C66.1346 138.029 65.4936 136.941 65.1607 135.7C64.8444 134.465 64.8859 133.183 65.2852 131.855C65.6845 130.527 66.3568 129.435 67.3021 128.579C68.2639 127.728 69.3965 127.182 70.7 126.94C72.025 126.687 73.4013 126.775 74.8288 127.205C76.2397 127.629 77.3782 128.297 78.2442 129.209C79.1319 130.109 79.6517 131.18 79.8036 132.42L76.3042 133.133C75.9764 131.695 75.1568 130.778 73.8455 130.384C72.833 130.08 71.8949 130.159 71.0313 130.624C70.1676 131.088 69.5636 131.893 69.2192 133.038C68.8748 134.184 68.9347 135.188 69.399 136.052C69.8634 136.915 70.6018 137.499 71.6143 137.804C72.9422 138.203 74.1312 137.891 75.1811 136.867L77.6997 139.417C76.8989 140.334 75.8774 140.932 74.6354 141.21C73.41 141.493 72.0918 141.423 70.6809 140.998ZM86.53 140.009L84.5132 139.402L82.9858 144.481L79.1016 143.313L83.1298 129.918L87.0139 131.086L85.4491 136.29L87.5406 136.919L92.7406 132.808L96.8738 134.051L90.2612 139.067L93.1693 147.544L88.588 146.166L86.53 140.009ZM99.1048 134.722L102.964 135.882L100.568 143.85L109.487 137.844L113.048 138.915L109.02 152.31L105.161 151.15L107.556 143.182L98.662 149.195L95.0766 148.117L99.1048 134.722ZM128.726 154.761L126.899 160.836L123.289 159.75L124.157 156.862L114.746 154.032L113.877 156.92L110.267 155.834L112.094 149.759L112.641 149.924C113.476 150.157 114.196 149.839 114.801 148.971C115.406 148.104 116.017 146.794 116.634 145.043L118.201 140.464L129.878 143.976L126.809 154.184L128.726 154.761ZM120.062 146.372C119.603 147.719 119.161 148.798 118.735 149.612C118.327 150.43 117.839 150.998 117.273 151.316L122.925 153.016L125.036 145.995L120.654 144.677L120.062 146.372ZM137.64 155.378L135.623 154.771L134.096 159.851L130.212 158.683L134.24 145.287L138.124 146.455L136.559 151.659L138.651 152.288L143.851 148.177L147.984 149.42L141.371 154.436L144.28 162.913L139.698 161.535L137.64 155.378ZM150.215 150.091L154.074 151.252L151.678 159.219L160.598 153.213L164.158 154.284L160.13 167.679L156.271 166.519L158.667 158.551L149.772 164.565L146.187 163.486L150.215 150.091ZM174.943 157.527L178.803 158.688L176.407 166.655L185.326 160.649L188.887 161.72L184.859 175.115L180.999 173.955L183.395 165.987L174.501 172.001L170.915 170.923L174.943 157.527ZM49.1624 167.943C47.7348 167.514 46.5358 166.836 45.5651 165.911C44.6161 164.974 43.9751 163.885 43.6422 162.645C43.3259 161.41 43.3674 160.128 43.7667 158.8C44.1661 157.472 44.8383 156.38 45.7836 155.524C46.7454 154.673 47.878 154.127 49.1815 153.885C50.5065 153.632 51.8828 153.72 53.3103 154.149C54.7212 154.574 55.8597 155.242 56.7258 156.154C57.6134 157.054 58.1332 158.124 58.2851 159.365L54.7857 160.077C54.4579 158.639 53.6384 157.723 52.327 157.329C51.3145 157.024 50.3764 157.104 49.5128 157.568C48.6492 158.033 48.0451 158.838 47.7007 159.983C47.3563 161.128 47.4163 162.133 47.8806 162.996C48.3449 163.86 49.0833 164.444 50.0958 164.749C51.4238 165.148 52.6127 164.836 53.6626 163.812L56.1812 166.361C55.3804 167.279 54.3589 167.877 53.1169 168.155C51.8915 168.438 50.5733 168.367 49.1624 167.943ZM71.8585 163.419L67.3269 162.057L64.2571 172.265L60.3979 171.104L63.4676 160.896L58.9361 159.533L59.8944 156.346L72.8168 160.232L71.8585 163.419ZM74.8873 160.855L78.7466 162.015L76.3507 169.983L85.27 163.977L88.8305 165.048L84.8024 178.443L80.9431 177.283L83.339 169.315L74.4446 175.328L70.8592 174.25L74.8873 160.855ZM105.885 170.176L101.857 183.572L97.9728 182.404L101.043 172.195L95.4653 170.518L92.3955 180.726L88.5362 179.566L92.5643 166.17L105.885 170.176ZM120.602 181.959C120.587 182.009 120.457 182.35 120.213 182.983L110.079 179.935C110.012 180.82 110.247 181.606 110.782 182.292C111.318 182.978 112.092 183.473 113.105 183.777C113.802 183.987 114.446 184.072 115.037 184.033C115.65 183.982 116.256 183.802 116.856 183.493L118.248 186.356C116.553 187.421 114.493 187.589 112.07 186.86C110.559 186.406 109.31 185.713 108.323 184.783C107.341 183.836 106.691 182.745 106.375 181.509C106.059 180.274 106.1 178.992 106.5 177.664C106.894 176.353 107.555 175.267 108.484 174.406C109.434 173.533 110.536 172.968 111.79 172.712C113.065 172.444 114.375 172.512 115.719 172.916C117.031 173.311 118.133 173.95 119.025 174.833C119.918 175.717 120.503 176.78 120.782 178.022C121.081 179.253 121.021 180.565 120.602 181.959ZM114.861 175.862C113.981 175.597 113.168 175.624 112.42 175.942C111.673 176.261 111.103 176.831 110.711 177.655L117.309 179.639C117.431 178.752 117.268 177.97 116.82 177.292C116.377 176.598 115.724 176.121 114.861 175.862ZM125.609 176.107L129.468 177.268L127.895 182.496L133.722 184.248L135.294 179.02L139.178 180.188L135.15 193.583L131.266 192.415L132.771 187.411L126.945 185.659L125.44 190.663L121.58 189.503L125.609 176.107ZM154.841 196.029L153.014 202.104L149.403 201.019L150.272 198.13L140.86 195.3L139.992 198.188L136.381 197.103L138.208 191.028L138.756 191.192C139.591 191.425 140.311 191.108 140.916 190.24C141.521 189.372 142.132 188.062 142.749 186.311L144.316 181.733L155.993 185.244L152.923 195.453L154.841 196.029ZM146.177 187.641C145.718 188.987 145.276 190.067 144.85 190.88C144.441 191.698 143.954 192.267 143.387 192.585L149.039 194.285L151.151 187.263L146.768 185.945L146.177 187.641ZM160.355 186.556L164.214 187.716L161.818 195.684L170.737 189.678L174.298 190.749L170.27 204.144L166.411 202.983L168.806 195.016L159.912 201.029L156.327 199.951L160.355 186.556ZM178.032 191.871L181.891 193.032L179.495 200.999L188.415 194.993L191.975 196.064L187.947 209.46L184.088 208.299L186.483 200.332L177.589 206.345L174.004 205.267L178.032 191.871Z" fill="#1B222C"/>
</svg>
